<?xml version="1.0" encoding="UTF-8" standalone="no"?>
<!DOCTYPE svg PUBLIC "-//W3C//DTD SVG 1.1//EN" "http://www.w3.org/Graphics/SVG/1.1/DTD/svg11.dtd">
<!-- Generated by graphviz version 2.26.3 (20100126.1600)
 -->
<!-- Title: G Pages: 1 -->
<svg xmlns="http://www.w3.org/2000/svg" xmlns:xlink="http://www.w3.org/1999/xlink" width="708pt" height="608pt">
<g id="viewport" class="graph" transform="scale(1 1) rotate(0) translate(4 604)">
<title>G</title>
<polygon fill="white" stroke="white" points="-4,5 -4,-604 705,-604 705,5 -4,5"/>
<g id="graph2" class="cluster"><title>cluster_Aura</title>
<polyline fill="none" stroke="gray" points="20,-44 680,-44 "/>
<path fill="none" stroke="gray" d="M680,-44C686,-44 692,-50 692,-56"/>
<polyline fill="none" stroke="gray" points="692,-56 692,-580 "/>
<path fill="none" stroke="gray" d="M692,-580C692,-586 686,-592 680,-592"/>
<polyline fill="none" stroke="gray" points="680,-592 20,-592 "/>
<path fill="none" stroke="gray" d="M20,-592C14,-592 8,-586 8,-580"/>
<polyline fill="none" stroke="gray" points="8,-580 8,-56 "/>
<path fill="none" stroke="gray" d="M8,-56C8,-50 14,-44 20,-44"/>
<text text-anchor="middle" x="350" y="-578.1" font-family="Times Roman,serif" font-size="11.00" fill="gray">Aura</text>
</g>
<g id="graph3" class="cluster"><title>cluster_Aura_Sql</title>
<polyline fill="none" stroke="gray" points="28,-52 672,-52 "/>
<path fill="none" stroke="gray" d="M672,-52C678,-52 684,-58 684,-64"/>
<polyline fill="none" stroke="gray" points="684,-64 684,-550 "/>
<path fill="none" stroke="gray" d="M684,-550C684,-556 678,-562 672,-562"/>
<polyline fill="none" stroke="gray" points="672,-562 28,-562 "/>
<path fill="none" stroke="gray" d="M28,-562C22,-562 16,-556 16,-550"/>
<polyline fill="none" stroke="gray" points="16,-550 16,-64 "/>
<path fill="none" stroke="gray" d="M16,-64C16,-58 22,-52 28,-52"/>
<text text-anchor="middle" x="350" y="-548.1" font-family="Times Roman,serif" font-size="11.00" fill="gray">Sql</text>
</g>
<g id="graph4" class="cluster"><title>cluster_Aura_Sql_Connection</title>
<polyline fill="none" stroke="gray" points="36,-404 647,-404 "/>
<path fill="none" stroke="gray" d="M647,-404C653,-404 659,-410 659,-416"/>
<polyline fill="none" stroke="gray" points="659,-416 659,-520 "/>
<path fill="none" stroke="gray" d="M659,-520C659,-526 653,-532 647,-532"/>
<polyline fill="none" stroke="gray" points="647,-532 36,-532 "/>
<path fill="none" stroke="gray" d="M36,-532C30,-532 24,-526 24,-520"/>
<polyline fill="none" stroke="gray" points="24,-520 24,-416 "/>
<path fill="none" stroke="gray" d="M24,-416C24,-410 30,-404 36,-404"/>
<text text-anchor="middle" x="341.5" y="-518.1" font-family="Times Roman,serif" font-size="11.00" fill="gray">Connection</text>
</g>
<g id="graph5" class="cluster"><title>cluster_Aura_Sql_Exception</title>
<polyline fill="none" stroke="gray" points="540,-214 664,-214 "/>
<path fill="none" stroke="gray" d="M664,-214C670,-214 676,-220 676,-226"/>
<polyline fill="none" stroke="gray" points="676,-226 676,-384 "/>
<path fill="none" stroke="gray" d="M676,-384C676,-390 670,-396 664,-396"/>
<polyline fill="none" stroke="gray" points="664,-396 540,-396 "/>
<path fill="none" stroke="gray" d="M540,-396C534,-396 528,-390 528,-384"/>
<polyline fill="none" stroke="gray" points="528,-384 528,-226 "/>
<path fill="none" stroke="gray" d="M528,-226C528,-220 534,-214 540,-214"/>
<text text-anchor="middle" x="602" y="-382.1" font-family="Times Roman,serif" font-size="11.00" fill="gray">Exception</text>
</g>
<!-- _Aura_Sql_Connection_Sqlsrv -->
<g id="node4" class="node"><title>_Aura_Sql_Connection_Sqlsrv</title>
<a xlink:href="db_src_Connection_Sqlsrv.html" xlink:title="Sqlsrv" target="_parent">
<polygon fill="none" stroke="black" points="453,-502 397,-502 397,-466 453,-466 453,-502"/>
<text text-anchor="middle" x="425" y="-481.1" font-family="Courier New" font-size="11.00">Sqlsrv</text>
</a>
</g>
<!-- _Aura_Sql_Connection_AbstractConnection -->
<g id="node5" class="node"><title>_Aura_Sql_Connection_AbstractConnection</title>
<a xlink:href="db_src_Connection_AbstractConnection.html" xlink:title="&lt;I&gt;_Aura_Sql_Connection_AbstractConnection&lt;/I&gt;" target="_parent">
<polygon fill="none" stroke="black" points="313,-475 33,-475 33,-439 313,-439 313,-475"/>
<text text-anchor="start" x="41" y="-454.933" font-family="Courier New" font-size="11.00">_Aura_Sql_Connection_AbstractConnection</text>
</a>
</g>
<!-- _Aura_Sql_Connection_Sqlsrv&#45;&gt;_Aura_Sql_Connection_AbstractConnection -->
<g id="edge14" class="edge"><title>_Aura_Sql_Connection_Sqlsrv-&gt;_Aura_Sql_Connection_AbstractConnection</title>
<path fill="none" stroke="black" d="M396.092,-480.903C377.382,-478.898 351.424,-476.117 323.81,-473.158"/>
<polygon fill="none" stroke="black" points="323.888,-469.647 313.572,-472.061 323.142,-476.607 323.888,-469.647"/>
</g>
<!-- _Aura_Sql_Connection_SqlsrvDenali -->
<g id="node6" class="node"><title>_Aura_Sql_Connection_SqlsrvDenali</title>
<a xlink:href="db_src_Connection_SqlsrvDenali.html" xlink:title="SqlsrvDenali" target="_parent">
<polygon fill="none" stroke="black" points="651,-502 553,-502 553,-466 651,-466 651,-502"/>
<text text-anchor="middle" x="602" y="-481.1" font-family="Courier New" font-size="11.00">SqlsrvDenali</text>
</a>
</g>
<!-- _Aura_Sql_Connection_SqlsrvDenali&#45;&gt;_Aura_Sql_Connection_Sqlsrv -->
<g id="edge16" class="edge"><title>_Aura_Sql_Connection_SqlsrvDenali-&gt;_Aura_Sql_Connection_Sqlsrv</title>
<path fill="none" stroke="black" d="M552.696,-484C524.646,-484 490.012,-484 463.894,-484"/>
<polygon fill="none" stroke="black" points="463.623,-480.5 453.623,-484 463.622,-487.5 463.623,-480.5"/>
</g>
<!-- _Aura_Sql_Connection_Mysql -->
<g id="node7" class="node"><title>_Aura_Sql_Connection_Mysql</title>
<a xlink:href="db_src_Connection_Mysql.html" xlink:title="Mysql" target="_parent">
<polygon fill="none" stroke="black" points="452,-448 398,-448 398,-412 452,-412 452,-448"/>
<text text-anchor="middle" x="425" y="-427.1" font-family="Courier New" font-size="11.00">Mysql</text>
</a>
</g>
<!-- _Aura_Sql_Connection_Mysql&#45;&gt;_Aura_Sql_Connection_AbstractConnection -->
<g id="edge18" class="edge"><title>_Aura_Sql_Connection_Mysql-&gt;_Aura_Sql_Connection_AbstractConnection</title>
<path fill="none" stroke="black" d="M397.552,-432.941C378.724,-434.958 352.09,-437.812 323.716,-440.852"/>
<polygon fill="none" stroke="black" points="323.187,-437.388 313.617,-441.934 323.933,-444.349 323.187,-437.388"/>
</g>
<!-- _Aura_Sql_Exception_ConnectionFactory -->
<g id="node9" class="node"><title>_Aura_Sql_Exception_ConnectionFactory</title>
<a xlink:href="db_src_Exception_ConnectionFactory.html" xlink:title="ConnectionFactory" target="_parent">
<polygon fill="none" stroke="black" points="667,-366 537,-366 537,-330 667,-330 667,-366"/>
<text text-anchor="middle" x="602" y="-345.1" font-family="Courier New" font-size="11.00">ConnectionFactory</text>
</a>
</g>
<!-- _Aura_Sql_Exception -->
<g id="node15" class="node"><title>_Aura_Sql_Exception</title>
<a xlink:href="db_src_Exception.html" xlink:title="Exception" target="_parent">
<polygon fill="none" stroke="black" points="463,-285 387,-285 387,-249 463,-249 463,-285"/>
<text text-anchor="middle" x="425" y="-264.1" font-family="Courier New" font-size="11.00">Exception</text>
</a>
</g>
<!-- _Aura_Sql_Exception_ConnectionFactory&#45;&gt;_Aura_Sql_Exception -->
<g id="edge8" class="edge"><title>_Aura_Sql_Exception_ConnectionFactory-&gt;_Aura_Sql_Exception</title>
<path fill="none" stroke="black" d="M549.899,-329.982C542.485,-327.132 535.004,-324.097 528,-321 507.053,-311.737 484.446,-300.08 465.763,-289.97"/>
<polygon fill="none" stroke="black" points="467.385,-286.868 456.931,-285.148 464.031,-293.012 467.385,-286.868"/>
</g>
<!-- _Aura_Sql_Exception_NoSuchMaster -->
<g id="node10" class="node"><title>_Aura_Sql_Exception_NoSuchMaster</title>
<a xlink:href="db_src_Exception_NoSuchMaster.html" xlink:title="NoSuchMaster" target="_parent">
<polygon fill="none" stroke="black" points="651,-312 553,-312 553,-276 651,-276 651,-312"/>
<text text-anchor="middle" x="602" y="-291.1" font-family="Courier New" font-size="11.00">NoSuchMaster</text>
</a>
</g>
<!-- _Aura_Sql_Exception_NoSuchMaster&#45;&gt;_Aura_Sql_Exception -->
<g id="edge10" class="edge"><title>_Aura_Sql_Exception_NoSuchMaster-&gt;_Aura_Sql_Exception</title>
<path fill="none" stroke="black" d="M552.696,-286.479C528.082,-282.724 498.399,-278.196 473.849,-274.451"/>
<polygon fill="none" stroke="black" points="474.084,-270.947 463.671,-272.899 473.029,-277.867 474.084,-270.947"/>
</g>
<!-- _Aura_Sql_Exception_NoSuchSlave -->
<g id="node11" class="node"><title>_Aura_Sql_Exception_NoSuchSlave</title>
<a xlink:href="db_src_Exception_NoSuchSlave.html" xlink:title="NoSuchSlave" target="_parent">
<polygon fill="none" stroke="black" points="647,-258 557,-258 557,-222 647,-222 647,-258"/>
<text text-anchor="middle" x="602" y="-237.1" font-family="Courier New" font-size="11.00">NoSuchSlave</text>
</a>
</g>
<!-- _Aura_Sql_Exception_NoSuchSlave&#45;&gt;_Aura_Sql_Exception -->
<g id="edge12" class="edge"><title>_Aura_Sql_Exception_NoSuchSlave-&gt;_Aura_Sql_Exception</title>
<path fill="none" stroke="black" d="M556.418,-246.953C531.008,-250.829 499.371,-255.655 473.505,-259.601"/>
<polygon fill="none" stroke="black" points="472.895,-256.153 463.538,-261.121 473.951,-263.073 472.895,-256.153"/>
</g>
<!-- _Aura_Sql_ConnectionFactory -->
<g id="node12" class="node"><title>_Aura_Sql_ConnectionFactory</title>
<a xlink:href="db_src_ConnectionFactory.html" xlink:title="ConnectionFactory" target="_parent">
<polygon fill="none" stroke="black" points="667,-204 537,-204 537,-168 667,-168 667,-204"/>
<text text-anchor="middle" x="602" y="-183.1" font-family="Courier New" font-size="11.00">ConnectionFactory</text>
</a>
</g>
<!-- _Aura_Sql_Select -->
<g id="node13" class="node"><title>_Aura_Sql_Select</title>
<a xlink:href="db_src_Select.html" xlink:title="Select" target="_parent">
<polygon fill="none" stroke="black" points="630,-150 574,-150 574,-114 630,-114 630,-150"/>
<text text-anchor="middle" x="602" y="-129.1" font-family="Courier New" font-size="11.00">Select</text>
</a>
</g>
<!-- _Aura_Sql_ConnectionManager -->
<g id="node14" class="node"><title>_Aura_Sql_ConnectionManager</title>
<a xlink:href="db_src_ConnectionManager.html" xlink:title="ConnectionManager" target="_parent">
<polygon fill="none" stroke="black" points="667,-96 537,-96 537,-60 667,-60 667,-96"/>
<text text-anchor="middle" x="602" y="-75.1" font-family="Courier New" font-size="11.00">ConnectionManager</text>
</a>
</g>
<!-- _Exception -->
<g id="node25" class="node"><title>_Exception</title>
<ellipse fill="none" stroke="black" cx="173" cy="-18" rx="62.9325" ry="18.3848"/>
<text text-anchor="middle" x="173" y="-14.4" font-family="Times Roman,serif" font-size="14.00" fill="gray">\Exception</text>
</g>
<!-- _Aura_Sql_Exception&#45;&gt;_Exception -->
<g id="edge20" class="edge"><title>_Aura_Sql_Exception-&gt;_Exception</title>
<path fill="none" stroke="black" d="M406.47,-248.69C361.819,-204.571 248.246,-92.3505 197.798,-42.5029"/>
<polygon fill="none" stroke="black" points="200.119,-39.8759 190.546,-35.3369 195.199,-44.8552 200.119,-39.8759"/>
</g>
</g>
<script xlink:href="js/SVGPan.js"/></svg>
