<?xml version="1.0" encoding="UTF-8" standalone="no"?>
<!DOCTYPE svg PUBLIC "-//W3C//DTD SVG 1.1//EN"
 "http://www.w3.org/Graphics/SVG/1.1/DTD/svg11.dtd">
<!-- Generated by graphviz version 2.28.0 (20110509.1545)
 -->
<!-- Title: G Pages: 1 -->
<svg width="556pt" height="658pt"
 viewBox="0.00 0.00 556.00 658.00" xmlns="http://www.w3.org/2000/svg" xmlns:xlink="http://www.w3.org/1999/xlink">
<g id="graph1" class="graph" transform="scale(1 1) rotate(0) translate(4 654)">
<title>G</title>
<polygon fill="white" stroke="white" points="-4,5 -4,-654 553,-654 553,5 -4,5"/>
<g id="graph2" class="cluster"><title>cluster_Aura</title>
<polyline fill="none" stroke="gray" points="20,-44 528,-44 "/>
<path fill="none" stroke="gray" d="M528,-44C534,-44 540,-50 540,-56"/>
<polyline fill="none" stroke="gray" points="540,-56 540,-630 "/>
<path fill="none" stroke="gray" d="M540,-630C540,-636 534,-642 528,-642"/>
<polyline fill="none" stroke="gray" points="528,-642 20,-642 "/>
<path fill="none" stroke="gray" d="M20,-642C14,-642 8,-636 8,-630"/>
<polyline fill="none" stroke="gray" points="8,-630 8,-56 "/>
<path fill="none" stroke="gray" d="M8,-56C8,-50 14,-44 20,-44"/>
<text text-anchor="middle" x="274" y="-627" font-family="Times,serif" font-size="11.00" fill="gray">Aura</text>
</g>
<g id="graph3" class="cluster"><title>cluster_Aura\Sql</title>
<polyline fill="none" stroke="gray" points="28,-52 520,-52 "/>
<path fill="none" stroke="gray" d="M520,-52C526,-52 532,-58 532,-64"/>
<polyline fill="none" stroke="gray" points="532,-64 532,-601 "/>
<path fill="none" stroke="gray" d="M532,-601C532,-607 526,-613 520,-613"/>
<polyline fill="none" stroke="gray" points="520,-613 28,-613 "/>
<path fill="none" stroke="gray" d="M28,-613C22,-613 16,-607 16,-601"/>
<polyline fill="none" stroke="gray" points="16,-601 16,-64 "/>
<path fill="none" stroke="gray" d="M16,-64C16,-58 22,-52 28,-52"/>
<text text-anchor="middle" x="274" y="-598" font-family="Times,serif" font-size="11.00" fill="gray">Sql</text>
</g>
<g id="graph4" class="cluster"><title>cluster_Aura\Sql\Connection</title>
<polyline fill="none" stroke="gray" points="36,-457 496,-457 "/>
<path fill="none" stroke="gray" d="M496,-457C502,-457 508,-463 508,-469"/>
<polyline fill="none" stroke="gray" points="508,-469 508,-572 "/>
<path fill="none" stroke="gray" d="M508,-572C508,-578 502,-584 496,-584"/>
<polyline fill="none" stroke="gray" points="496,-584 36,-584 "/>
<path fill="none" stroke="gray" d="M36,-584C30,-584 24,-578 24,-572"/>
<polyline fill="none" stroke="gray" points="24,-572 24,-469 "/>
<path fill="none" stroke="gray" d="M24,-469C24,-463 30,-457 36,-457"/>
<text text-anchor="middle" x="266" y="-569" font-family="Times,serif" font-size="11.00" fill="gray">Connection</text>
</g>
<g id="graph5" class="cluster"><title>cluster_Aura\Sql\Exception</title>
<polyline fill="none" stroke="gray" points="392,-268 512,-268 "/>
<path fill="none" stroke="gray" d="M512,-268C518,-268 524,-274 524,-280"/>
<polyline fill="none" stroke="gray" points="524,-280 524,-437 "/>
<path fill="none" stroke="gray" d="M524,-437C524,-443 518,-449 512,-449"/>
<polyline fill="none" stroke="gray" points="512,-449 392,-449 "/>
<path fill="none" stroke="gray" d="M392,-449C386,-449 380,-443 380,-437"/>
<polyline fill="none" stroke="gray" points="380,-437 380,-280 "/>
<path fill="none" stroke="gray" d="M380,-280C380,-274 386,-268 392,-268"/>
<text text-anchor="middle" x="452" y="-434" font-family="Times,serif" font-size="11.00" fill="gray">Exception</text>
</g>
<!-- \\Aura\\Sql\\Connection\\AbstractConnection -->
<g id="node4" class="node"><title>\\Aura\\Sql\\Connection\\AbstractConnection</title>
<a xlink:href="db_src_Aura_Sql_Connection_AbstractConnection.html" xlink:title="«abstract»&lt;br/&gt;AbstractConnection" target="_parent">
<polygon fill="none" stroke="black" points="167.5,-528 32.5,-528 32.5,-492 167.5,-492 167.5,-528"/>
<text text-anchor="start" x="67" y="-511.5" font-family="Courier,monospace" font-size="11.00">«abstract»</text>
<text text-anchor="start" x="41" y="-500.5" font-family="Courier,monospace" font-size="11.00">AbstractConnection</text>
</a>
</g>
<!-- \\Aura\\Sql\\Connection\\Mysql -->
<g id="node5" class="node"><title>\\Aura\\Sql\\Connection\\Mysql</title>
<a xlink:href="db_src_Aura_Sql_Connection_Mysql.html" xlink:title="Mysql" target="_parent">
<polygon fill="none" stroke="black" points="305,-555 251,-555 251,-519 305,-519 305,-555"/>
<text text-anchor="middle" x="278" y="-532.6" font-family="Courier,monospace" font-size="11.00">Mysql</text>
</a>
</g>
<!-- \\Aura\\Sql\\Connection\\Mysql&#45;&gt;\\Aura\\Sql\\Connection\\AbstractConnection -->
<g id="edge8" class="edge"><title>\\Aura\\Sql\\Connection\\Mysql&#45;&gt;\\Aura\\Sql\\Connection\\AbstractConnection</title>
<path fill="none" stroke="black" d="M250.651,-532.958C231.264,-529.984 203.854,-525.779 177.78,-521.779"/>
<polygon fill="none" stroke="black" points="178.287,-518.316 167.871,-520.259 177.225,-525.235 178.287,-518.316"/>
</g>
<!-- \\Aura\\Sql\\Connection\\Sqlsrv -->
<g id="node6" class="node"><title>\\Aura\\Sql\\Connection\\Sqlsrv</title>
<a xlink:href="db_src_Aura_Sql_Connection_Sqlsrv.html" xlink:title="Sqlsrv" target="_parent">
<polygon fill="none" stroke="black" points="305.608,-501 250.392,-501 250.392,-465 305.608,-465 305.608,-501"/>
<text text-anchor="middle" x="278" y="-478.6" font-family="Courier,monospace" font-size="11.00">Sqlsrv</text>
</a>
</g>
<!-- \\Aura\\Sql\\Connection\\Sqlsrv&#45;&gt;\\Aura\\Sql\\Connection\\AbstractConnection -->
<g id="edge10" class="edge"><title>\\Aura\\Sql\\Connection\\Sqlsrv&#45;&gt;\\Aura\\Sql\\Connection\\AbstractConnection</title>
<path fill="none" stroke="black" d="M250.269,-487.101C230.914,-490.07 203.707,-494.244 177.814,-498.216"/>
<polygon fill="none" stroke="black" points="176.947,-494.808 167.593,-499.784 178.008,-501.727 176.947,-494.808"/>
</g>
<!-- \\Aura\\Sql\\Connection\\SqlsrvDenali -->
<g id="node7" class="node"><title>\\Aura\\Sql\\Connection\\SqlsrvDenali</title>
<a xlink:href="db_src_Aura_Sql_Connection_SqlsrvDenali.html" xlink:title="SqlsrvDenali" target="_parent">
<polygon fill="none" stroke="black" points="499.713,-501 404.287,-501 404.287,-465 499.713,-465 499.713,-501"/>
<text text-anchor="middle" x="452" y="-478.6" font-family="Courier,monospace" font-size="11.00">SqlsrvDenali</text>
</a>
</g>
<!-- \\Aura\\Sql\\Connection\\SqlsrvDenali&#45;&gt;\\Aura\\Sql\\Connection\\Sqlsrv -->
<g id="edge12" class="edge"><title>\\Aura\\Sql\\Connection\\SqlsrvDenali&#45;&gt;\\Aura\\Sql\\Connection\\Sqlsrv</title>
<path fill="none" stroke="black" d="M404,-483C376.201,-483 341.503,-483 315.722,-483"/>
<polygon fill="none" stroke="black" points="315.616,-479.5 305.616,-483 315.616,-486.5 315.616,-479.5"/>
</g>
<!-- \\Aura\\Sql\\Exception\\ConnectionFactory -->
<g id="node9" class="node"><title>\\Aura\\Sql\\Exception\\ConnectionFactory</title>
<a xlink:href="db_src_Aura_Sql_Exception_ConnectionFactory.html" xlink:title="ConnectionFactory" target="_parent">
<polygon fill="none" stroke="black" points="516.218,-420 387.782,-420 387.782,-384 516.218,-384 516.218,-420"/>
<text text-anchor="middle" x="452" y="-397.6" font-family="Courier,monospace" font-size="11.00">ConnectionFactory</text>
</a>
</g>
<!-- \\Aura\\Sql\\Exception -->
<g id="node15" class="node"><title>\\Aura\\Sql\\Exception</title>
<a xlink:href="db_src_Aura_Sql_Exception.html" xlink:title="Exception" target="_parent">
<polygon fill="none" stroke="black" points="315.911,-339 240.089,-339 240.089,-303 315.911,-303 315.911,-339"/>
<text text-anchor="middle" x="278" y="-316.6" font-family="Courier,monospace" font-size="11.00">Exception</text>
</a>
</g>
<!-- \\Aura\\Sql\\Exception\\ConnectionFactory&#45;&gt;\\Aura\\Sql\\Exception -->
<g id="edge14" class="edge"><title>\\Aura\\Sql\\Exception\\ConnectionFactory&#45;&gt;\\Aura\\Sql\\Exception</title>
<path fill="none" stroke="black" d="M401.013,-383.913C393.9,-381.073 386.721,-378.06 380,-375 359.565,-365.697 337.506,-354.095 319.232,-344.031"/>
<polygon fill="none" stroke="black" points="320.762,-340.877 310.32,-339.081 317.362,-346.996 320.762,-340.877"/>
</g>
<!-- \\Aura\\Sql\\Exception\\NoSuchMaster -->
<g id="node10" class="node"><title>\\Aura\\Sql\\Exception\\NoSuchMaster</title>
<a xlink:href="db_src_Aura_Sql_Exception_NoSuchMaster.html" xlink:title="NoSuchMaster" target="_parent">
<polygon fill="none" stroke="black" points="499.713,-366 404.287,-366 404.287,-330 499.713,-330 499.713,-366"/>
<text text-anchor="middle" x="452" y="-343.6" font-family="Courier,monospace" font-size="11.00">NoSuchMaster</text>
</a>
</g>
<!-- \\Aura\\Sql\\Exception\\NoSuchMaster&#45;&gt;\\Aura\\Sql\\Exception -->
<g id="edge16" class="edge"><title>\\Aura\\Sql\\Exception\\NoSuchMaster&#45;&gt;\\Aura\\Sql\\Exception</title>
<path fill="none" stroke="black" d="M404,-340.622C379.718,-336.81 350.174,-332.173 325.906,-328.363"/>
<polygon fill="none" stroke="black" points="326.281,-324.879 315.859,-326.786 325.195,-331.794 326.281,-324.879"/>
</g>
<!-- \\Aura\\Sql\\Exception\\NoSuchSlave -->
<g id="node11" class="node"><title>\\Aura\\Sql\\Exception\\NoSuchSlave</title>
<a xlink:href="db_src_Aura_Sql_Exception_NoSuchSlave.html" xlink:title="NoSuchSlave" target="_parent">
<polygon fill="none" stroke="black" points="496.113,-312 407.887,-312 407.887,-276 496.113,-276 496.113,-312"/>
<text text-anchor="middle" x="452" y="-289.6" font-family="Courier,monospace" font-size="11.00">NoSuchSlave</text>
</a>
</g>
<!-- \\Aura\\Sql\\Exception\\NoSuchSlave&#45;&gt;\\Aura\\Sql\\Exception -->
<g id="edge18" class="edge"><title>\\Aura\\Sql\\Exception\\NoSuchSlave&#45;&gt;\\Aura\\Sql\\Exception</title>
<path fill="none" stroke="black" d="M407.597,-300.813C382.756,-304.713 351.572,-309.608 326.133,-313.601"/>
<polygon fill="none" stroke="black" points="325.314,-310.187 315.978,-315.195 326.399,-317.102 325.314,-310.187"/>
</g>
<!-- \\Aura\\Sql\\Column -->
<g id="node12" class="node"><title>\\Aura\\Sql\\Column</title>
<a xlink:href="db_src_Aura_Sql_Column.html" xlink:title="Column" target="_parent">
<polygon fill="none" stroke="black" points="479.608,-258 424.392,-258 424.392,-222 479.608,-222 479.608,-258"/>
<text text-anchor="middle" x="452" y="-235.6" font-family="Courier,monospace" font-size="11.00">Column</text>
</a>
</g>
<!-- \\Aura\\Sql\\ConnectionFactory -->
<g id="node13" class="node"><title>\\Aura\\Sql\\ConnectionFactory</title>
<a xlink:href="db_src_Aura_Sql_ConnectionFactory.html" xlink:title="ConnectionFactory" target="_parent">
<polygon fill="none" stroke="black" points="516.218,-204 387.782,-204 387.782,-168 516.218,-168 516.218,-204"/>
<text text-anchor="middle" x="452" y="-181.6" font-family="Courier,monospace" font-size="11.00">ConnectionFactory</text>
</a>
</g>
<!-- \\Aura\\Sql\\ConnectionManager -->
<g id="node14" class="node"><title>\\Aura\\Sql\\ConnectionManager</title>
<a xlink:href="db_src_Aura_Sql_ConnectionManager.html" xlink:title="ConnectionManager" target="_parent">
<polygon fill="none" stroke="black" points="516.218,-150 387.782,-150 387.782,-114 516.218,-114 516.218,-150"/>
<text text-anchor="middle" x="452" y="-127.6" font-family="Courier,monospace" font-size="11.00">ConnectionManager</text>
</a>
</g>
<!-- \\Exception -->
<g id="node26" class="node"><title>\\Exception</title>
<ellipse fill="none" stroke="black" cx="100" cy="-18" rx="52.7417" ry="18"/>
<text text-anchor="middle" x="100" y="-12.4" font-family="Times,serif" font-size="14.00" fill="gray">\Exception</text>
</g>
<!-- \\Aura\\Sql\\Exception&#45;&gt;\\Exception -->
<g id="edge20" class="edge"><title>\\Aura\\Sql\\Exception&#45;&gt;\\Exception</title>
<path fill="none" stroke="black" d="M266.517,-302.953C236.804,-251.799 151.901,-105.631 116.644,-44.9324"/>
<polygon fill="none" stroke="black" points="119.477,-42.8412 111.428,-35.9521 113.424,-46.3571 119.477,-42.8412"/>
</g>
<!-- \\Aura\\Sql\\Select -->
<g id="node16" class="node"><title>\\Aura\\Sql\\Select</title>
<a xlink:href="db_src_Aura_Sql_Select.html" xlink:title="Select" target="_parent">
<polygon fill="none" stroke="black" points="479.608,-96 424.392,-96 424.392,-60 479.608,-60 479.608,-96"/>
<text text-anchor="middle" x="452" y="-73.6" font-family="Courier,monospace" font-size="11.00">Select</text>
</a>
</g>
</g>
</svg>
