<?xml version="1.0" encoding="UTF-8" standalone="no"?>
<!DOCTYPE svg PUBLIC "-//W3C//DTD SVG 1.1//EN"
 "http://www.w3.org/Graphics/SVG/1.1/DTD/svg11.dtd">
<!-- Generated by graphviz version 2.26.3 (20100126.1600)
 -->
<!-- Title: G Pages: 1 -->
<svg width="566pt" height="662pt"
 viewBox="0.00 0.00 566.00 662.00" xmlns="http://www.w3.org/2000/svg" xmlns:xlink="http://www.w3.org/1999/xlink">
<g id="graph1" class="graph" transform="scale(1 1) rotate(0) translate(4 658)">
<title>G</title>
<polygon fill="white" stroke="white" points="-4,5 -4,-658 563,-658 563,5 -4,5"/>
<g id="graph2" class="cluster"><title>cluster_Aura</title>
<polyline fill="none" stroke="gray" points="20,-44 538,-44 "/>
<path fill="none" stroke="gray" d="M538,-44C544,-44 550,-50 550,-56"/>
<polyline fill="none" stroke="gray" points="550,-56 550,-634 "/>
<path fill="none" stroke="gray" d="M550,-634C550,-640 544,-646 538,-646"/>
<polyline fill="none" stroke="gray" points="538,-646 20,-646 "/>
<path fill="none" stroke="gray" d="M20,-646C14,-646 8,-640 8,-634"/>
<polyline fill="none" stroke="gray" points="8,-634 8,-56 "/>
<path fill="none" stroke="gray" d="M8,-56C8,-50 14,-44 20,-44"/>
<text text-anchor="middle" x="279" y="-632.1" font-family="Times Roman,serif" font-size="11.00" fill="gray">Aura</text>
</g>
<g id="graph3" class="cluster"><title>cluster_Aura\Sql</title>
<polyline fill="none" stroke="gray" points="28,-52 530,-52 "/>
<path fill="none" stroke="gray" d="M530,-52C536,-52 542,-58 542,-64"/>
<polyline fill="none" stroke="gray" points="542,-64 542,-604 "/>
<path fill="none" stroke="gray" d="M542,-604C542,-610 536,-616 530,-616"/>
<polyline fill="none" stroke="gray" points="530,-616 28,-616 "/>
<path fill="none" stroke="gray" d="M28,-616C22,-616 16,-610 16,-604"/>
<polyline fill="none" stroke="gray" points="16,-604 16,-64 "/>
<path fill="none" stroke="gray" d="M16,-64C16,-58 22,-52 28,-52"/>
<text text-anchor="middle" x="279" y="-602.1" font-family="Times Roman,serif" font-size="11.00" fill="gray">Sql</text>
</g>
<g id="graph4" class="cluster"><title>cluster_Aura\Sql\Connection</title>
<polyline fill="none" stroke="gray" points="36,-458 505,-458 "/>
<path fill="none" stroke="gray" d="M505,-458C511,-458 517,-464 517,-470"/>
<polyline fill="none" stroke="gray" points="517,-470 517,-574 "/>
<path fill="none" stroke="gray" d="M517,-574C517,-580 511,-586 505,-586"/>
<polyline fill="none" stroke="gray" points="505,-586 36,-586 "/>
<path fill="none" stroke="gray" d="M36,-586C30,-586 24,-580 24,-574"/>
<polyline fill="none" stroke="gray" points="24,-574 24,-470 "/>
<path fill="none" stroke="gray" d="M24,-470C24,-464 30,-458 36,-458"/>
<text text-anchor="middle" x="270.5" y="-572.1" font-family="Times Roman,serif" font-size="11.00" fill="gray">Connection</text>
</g>
<g id="graph5" class="cluster"><title>cluster_Aura\Sql\Exception</title>
<polyline fill="none" stroke="gray" points="398,-268 522,-268 "/>
<path fill="none" stroke="gray" d="M522,-268C528,-268 534,-274 534,-280"/>
<polyline fill="none" stroke="gray" points="534,-280 534,-438 "/>
<path fill="none" stroke="gray" d="M534,-438C534,-444 528,-450 522,-450"/>
<polyline fill="none" stroke="gray" points="522,-450 398,-450 "/>
<path fill="none" stroke="gray" d="M398,-450C392,-450 386,-444 386,-438"/>
<polyline fill="none" stroke="gray" points="386,-438 386,-280 "/>
<path fill="none" stroke="gray" d="M386,-280C386,-274 392,-268 398,-268"/>
<text text-anchor="middle" x="460" y="-436.1" font-family="Times Roman,serif" font-size="11.00" fill="gray">Exception</text>
</g>
<!-- \\Aura\\Sql\\Connection\\Sqlsrv -->
<g id="node4" class="node"><title>\\Aura\\Sql\\Connection\\Sqlsrv</title>
<a xlink:href="db_src_Aura_Sql_Connection_Sqlsrv.html" xlink:title="Sqlsrv" target="_parent">
<polygon fill="none" stroke="black" points="311,-556 255,-556 255,-520 311,-520 311,-556"/>
<text text-anchor="middle" x="283" y="-535.1" font-family="Courier New" font-size="11.00">Sqlsrv</text>
</a>
</g>
<!-- \\Aura\\Sql\\Connection\\AbstractConnection -->
<g id="node5" class="node"><title>\\Aura\\Sql\\Connection\\AbstractConnection</title>
<a xlink:href="db_src_Aura_Sql_Connection_AbstractConnection.html" xlink:title="«abstract»&lt;br/&gt;AbstractConnection" target="_parent">
<polygon fill="none" stroke="black" points="171,-529 33,-529 33,-493 171,-493 171,-529"/>
<text text-anchor="start" x="68" y="-516.433" font-family="Courier New" font-size="11.00">«abstract»</text>
<text text-anchor="start" x="41" y="-503.233" font-family="Courier New" font-size="11.00">AbstractConnection</text>
</a>
</g>
<!-- \\Aura\\Sql\\Connection\\Sqlsrv&#45;&gt;\\Aura\\Sql\\Connection\\AbstractConnection -->
<g id="edge14" class="edge"><title>\\Aura\\Sql\\Connection\\Sqlsrv&#45;&gt;\\Aura\\Sql\\Connection\\AbstractConnection</title>
<path fill="none" stroke="black" d="M254.32,-533.722C234.696,-530.794 207.643,-526.759 181.776,-522.9"/>
<polygon fill="none" stroke="black" points="181.965,-519.39 171.558,-521.376 180.932,-526.313 181.965,-519.39"/>
</g>
<!-- \\Aura\\Sql\\Connection\\SqlsrvDenali -->
<g id="node6" class="node"><title>\\Aura\\Sql\\Connection\\SqlsrvDenali</title>
<a xlink:href="db_src_Aura_Sql_Connection_SqlsrvDenali.html" xlink:title="SqlsrvDenali" target="_parent">
<polygon fill="none" stroke="black" points="509,-556 411,-556 411,-520 509,-520 509,-556"/>
<text text-anchor="middle" x="460" y="-535.1" font-family="Courier New" font-size="11.00">SqlsrvDenali</text>
</a>
</g>
<!-- \\Aura\\Sql\\Connection\\SqlsrvDenali&#45;&gt;\\Aura\\Sql\\Connection\\Sqlsrv -->
<g id="edge16" class="edge"><title>\\Aura\\Sql\\Connection\\SqlsrvDenali&#45;&gt;\\Aura\\Sql\\Connection\\Sqlsrv</title>
<path fill="none" stroke="black" d="M410.696,-538C382.646,-538 348.012,-538 321.894,-538"/>
<polygon fill="none" stroke="black" points="321.623,-534.5 311.623,-538 321.622,-541.5 321.623,-534.5"/>
</g>
<!-- \\Aura\\Sql\\Connection\\Mysql -->
<g id="node7" class="node"><title>\\Aura\\Sql\\Connection\\Mysql</title>
<a xlink:href="db_src_Aura_Sql_Connection_Mysql.html" xlink:title="Mysql" target="_parent">
<polygon fill="none" stroke="black" points="310,-502 256,-502 256,-466 310,-466 310,-502"/>
<text text-anchor="middle" x="283" y="-481.1" font-family="Courier New" font-size="11.00">Mysql</text>
</a>
</g>
<!-- \\Aura\\Sql\\Connection\\Mysql&#45;&gt;\\Aura\\Sql\\Connection\\AbstractConnection -->
<g id="edge18" class="edge"><title>\\Aura\\Sql\\Connection\\Mysql&#45;&gt;\\Aura\\Sql\\Connection\\AbstractConnection</title>
<path fill="none" stroke="black" d="M255.902,-488.042C236.139,-490.99 208.27,-495.148 181.667,-499.116"/>
<polygon fill="none" stroke="black" points="180.927,-495.688 171.553,-500.625 181.96,-502.611 180.927,-495.688"/>
</g>
<!-- \\Aura\\Sql\\Exception\\ConnectionFactory -->
<g id="node9" class="node"><title>\\Aura\\Sql\\Exception\\ConnectionFactory</title>
<a xlink:href="db_src_Aura_Sql_Exception_ConnectionFactory.html" xlink:title="ConnectionFactory" target="_parent">
<polygon fill="none" stroke="black" points="525,-420 395,-420 395,-384 525,-384 525,-420"/>
<text text-anchor="middle" x="460" y="-399.1" font-family="Courier New" font-size="11.00">ConnectionFactory</text>
</a>
</g>
<!-- \\Aura\\Sql\\Exception -->
<g id="node16" class="node"><title>\\Aura\\Sql\\Exception</title>
<a xlink:href="db_src_Aura_Sql_Exception.html" xlink:title="Exception" target="_parent">
<polygon fill="none" stroke="black" points="321,-339 245,-339 245,-303 321,-303 321,-339"/>
<text text-anchor="middle" x="283" y="-318.1" font-family="Courier New" font-size="11.00">Exception</text>
</a>
</g>
<!-- \\Aura\\Sql\\Exception\\ConnectionFactory&#45;&gt;\\Aura\\Sql\\Exception -->
<g id="edge8" class="edge"><title>\\Aura\\Sql\\Exception\\ConnectionFactory&#45;&gt;\\Aura\\Sql\\Exception</title>
<path fill="none" stroke="black" d="M407.899,-383.982C400.485,-381.132 393.004,-378.097 386,-375 365.053,-365.737 342.446,-354.08 323.763,-343.97"/>
<polygon fill="none" stroke="black" points="325.385,-340.868 314.931,-339.148 322.031,-347.012 325.385,-340.868"/>
</g>
<!-- \\Aura\\Sql\\Exception\\NoSuchMaster -->
<g id="node10" class="node"><title>\\Aura\\Sql\\Exception\\NoSuchMaster</title>
<a xlink:href="db_src_Aura_Sql_Exception_NoSuchMaster.html" xlink:title="NoSuchMaster" target="_parent">
<polygon fill="none" stroke="black" points="509,-366 411,-366 411,-330 509,-330 509,-366"/>
<text text-anchor="middle" x="460" y="-345.1" font-family="Courier New" font-size="11.00">NoSuchMaster</text>
</a>
</g>
<!-- \\Aura\\Sql\\Exception\\NoSuchMaster&#45;&gt;\\Aura\\Sql\\Exception -->
<g id="edge10" class="edge"><title>\\Aura\\Sql\\Exception\\NoSuchMaster&#45;&gt;\\Aura\\Sql\\Exception</title>
<path fill="none" stroke="black" d="M410.696,-340.479C386.082,-336.724 356.399,-332.196 331.849,-328.451"/>
<polygon fill="none" stroke="black" points="332.084,-324.947 321.671,-326.899 331.029,-331.867 332.084,-324.947"/>
</g>
<!-- \\Aura\\Sql\\Exception\\NoSuchSlave -->
<g id="node11" class="node"><title>\\Aura\\Sql\\Exception\\NoSuchSlave</title>
<a xlink:href="db_src_Aura_Sql_Exception_NoSuchSlave.html" xlink:title="NoSuchSlave" target="_parent">
<polygon fill="none" stroke="black" points="505,-312 415,-312 415,-276 505,-276 505,-312"/>
<text text-anchor="middle" x="460" y="-291.1" font-family="Courier New" font-size="11.00">NoSuchSlave</text>
</a>
</g>
<!-- \\Aura\\Sql\\Exception\\NoSuchSlave&#45;&gt;\\Aura\\Sql\\Exception -->
<g id="edge12" class="edge"><title>\\Aura\\Sql\\Exception\\NoSuchSlave&#45;&gt;\\Aura\\Sql\\Exception</title>
<path fill="none" stroke="black" d="M414.418,-300.953C389.008,-304.829 357.371,-309.655 331.505,-313.601"/>
<polygon fill="none" stroke="black" points="330.895,-310.153 321.538,-315.121 331.951,-317.073 330.895,-310.153"/>
</g>
<!-- \\Aura\\Sql\\ConnectionFactory -->
<g id="node12" class="node"><title>\\Aura\\Sql\\ConnectionFactory</title>
<a xlink:href="db_src_Aura_Sql_ConnectionFactory.html" xlink:title="ConnectionFactory" target="_parent">
<polygon fill="none" stroke="black" points="525,-258 395,-258 395,-222 525,-222 525,-258"/>
<text text-anchor="middle" x="460" y="-237.1" font-family="Courier New" font-size="11.00">ConnectionFactory</text>
</a>
</g>
<!-- \\Aura\\Sql\\Select -->
<g id="node13" class="node"><title>\\Aura\\Sql\\Select</title>
<a xlink:href="db_src_Aura_Sql_Select.html" xlink:title="Select" target="_parent">
<polygon fill="none" stroke="black" points="488,-204 432,-204 432,-168 488,-168 488,-204"/>
<text text-anchor="middle" x="460" y="-183.1" font-family="Courier New" font-size="11.00">Select</text>
</a>
</g>
<!-- \\Aura\\Sql\\ConnectionManager -->
<g id="node14" class="node"><title>\\Aura\\Sql\\ConnectionManager</title>
<a xlink:href="db_src_Aura_Sql_ConnectionManager.html" xlink:title="ConnectionManager" target="_parent">
<polygon fill="none" stroke="black" points="525,-150 395,-150 395,-114 525,-114 525,-150"/>
<text text-anchor="middle" x="460" y="-129.1" font-family="Courier New" font-size="11.00">ConnectionManager</text>
</a>
</g>
<!-- \\Aura\\Sql\\Column -->
<g id="node15" class="node"><title>\\Aura\\Sql\\Column</title>
<a xlink:href="db_src_Aura_Sql_Column.html" xlink:title="Column" target="_parent">
<polygon fill="none" stroke="black" points="488,-96 432,-96 432,-60 488,-60 488,-96"/>
<text text-anchor="middle" x="460" y="-75.1" font-family="Courier New" font-size="11.00">Column</text>
</a>
</g>
<!-- \\Exception -->
<g id="node26" class="node"><title>\\Exception</title>
<ellipse fill="none" stroke="black" cx="102" cy="-18" rx="62.9325" ry="18.3848"/>
<text text-anchor="middle" x="102" y="-14.4" font-family="Times Roman,serif" font-size="14.00" fill="gray">\Exception</text>
</g>
<!-- \\Aura\\Sql\\Exception&#45;&gt;\\Exception -->
<g id="edge20" class="edge"><title>\\Aura\\Sql\\Exception&#45;&gt;\\Exception</title>
<path fill="none" stroke="black" d="M272.22,-302.953C241.599,-251.693 153.988,-105.029 117.865,-44.5588"/>
<polygon fill="none" stroke="black" points="120.857,-42.7421 112.724,-35.9521 114.847,-46.3319 120.857,-42.7421"/>
</g>
</g>
</svg>
