<?xml version="1.0" encoding="UTF-8" standalone="no"?>
<!DOCTYPE svg PUBLIC "-//W3C//DTD SVG 1.1//EN"
 "http://www.w3.org/Graphics/SVG/1.1/DTD/svg11.dtd">
<!-- Generated by graphviz version 2.26.3 (20100126.1600)
 -->
<!-- Title: G Pages: 1 -->
<svg width="986pt" height="921pt"
 viewBox="0.00 0.00 986.00 921.38" xmlns="http://www.w3.org/2000/svg" xmlns:xlink="http://www.w3.org/1999/xlink">
<g id="graph1" class="graph" transform="scale(1 1) rotate(0) translate(4 917.376)">
<title>G</title>
<polygon fill="white" stroke="white" points="-4,5 -4,-917.376 983,-917.376 983,5 -4,5"/>
<g id="graph2" class="cluster"><title>cluster_Aura</title>
<polyline fill="none" stroke="gray" points="390,-87.3759 958,-87.3759 "/>
<path fill="none" stroke="gray" d="M958,-87.3759C964,-87.3759 970,-93.3759 970,-99.3759"/>
<polyline fill="none" stroke="gray" points="970,-99.3759 970,-893.376 "/>
<path fill="none" stroke="gray" d="M970,-893.376C970,-899.376 964,-905.376 958,-905.376"/>
<polyline fill="none" stroke="gray" points="958,-905.376 390,-905.376 "/>
<path fill="none" stroke="gray" d="M390,-905.376C384,-905.376 378,-899.376 378,-893.376"/>
<polyline fill="none" stroke="gray" points="378,-893.376 378,-99.3759 "/>
<path fill="none" stroke="gray" d="M378,-99.3759C378,-93.3759 384,-87.3759 390,-87.3759"/>
<text text-anchor="middle" x="674" y="-891.476" font-family="Times Roman,serif" font-size="11.00" fill="gray">Aura</text>
</g>
<g id="graph3" class="cluster"><title>cluster_Aura\Sql</title>
<polyline fill="none" stroke="gray" points="398,-95.3759 950,-95.3759 "/>
<path fill="none" stroke="gray" d="M950,-95.3759C956,-95.3759 962,-101.376 962,-107.376"/>
<polyline fill="none" stroke="gray" points="962,-107.376 962,-863.376 "/>
<path fill="none" stroke="gray" d="M962,-863.376C962,-869.376 956,-875.376 950,-875.376"/>
<polyline fill="none" stroke="gray" points="950,-875.376 398,-875.376 "/>
<path fill="none" stroke="gray" d="M398,-875.376C392,-875.376 386,-869.376 386,-863.376"/>
<polyline fill="none" stroke="gray" points="386,-863.376 386,-107.376 "/>
<path fill="none" stroke="gray" d="M386,-107.376C386,-101.376 392,-95.3759 398,-95.3759"/>
<text text-anchor="middle" x="674" y="-861.476" font-family="Times Roman,serif" font-size="11.00" fill="gray">Sql</text>
</g>
<g id="graph4" class="cluster"><title>cluster_Aura\Sql\Connection</title>
<polyline fill="none" stroke="gray" points="406,-609.376 934,-609.376 "/>
<path fill="none" stroke="gray" d="M934,-609.376C940,-609.376 946,-615.376 946,-621.376"/>
<polyline fill="none" stroke="gray" points="946,-621.376 946,-833.376 "/>
<path fill="none" stroke="gray" d="M946,-833.376C946,-839.376 940,-845.376 934,-845.376"/>
<polyline fill="none" stroke="gray" points="934,-845.376 406,-845.376 "/>
<path fill="none" stroke="gray" d="M406,-845.376C400,-845.376 394,-839.376 394,-833.376"/>
<polyline fill="none" stroke="gray" points="394,-833.376 394,-621.376 "/>
<path fill="none" stroke="gray" d="M394,-621.376C394,-615.376 400,-609.376 406,-609.376"/>
<text text-anchor="middle" x="670" y="-831.476" font-family="Times Roman,serif" font-size="11.00" fill="gray">Connection</text>
</g>
<g id="graph5" class="cluster"><title>cluster_Aura\Sql\Exception</title>
<polyline fill="none" stroke="gray" points="813,-419.376 937,-419.376 "/>
<path fill="none" stroke="gray" d="M937,-419.376C943,-419.376 949,-425.376 949,-431.376"/>
<polyline fill="none" stroke="gray" points="949,-431.376 949,-589.376 "/>
<path fill="none" stroke="gray" d="M949,-589.376C949,-595.376 943,-601.376 937,-601.376"/>
<polyline fill="none" stroke="gray" points="937,-601.376 813,-601.376 "/>
<path fill="none" stroke="gray" d="M813,-601.376C807,-601.376 801,-595.376 801,-589.376"/>
<polyline fill="none" stroke="gray" points="801,-589.376 801,-431.376 "/>
<path fill="none" stroke="gray" d="M801,-431.376C801,-425.376 807,-419.376 813,-419.376"/>
<text text-anchor="middle" x="875" y="-587.476" font-family="Times Roman,serif" font-size="11.00" fill="gray">Exception</text>
</g>
<!-- \\Aura\\Sql\\Connection\\SqlsrvTest -->
<g id="node4" class="node"><title>\\Aura\\Sql\\Connection\\SqlsrvTest</title>
<a xlink:href="db_tests_Connection_SqlsrvTest.html" xlink:title="SqlsrvTest" target="_parent">
<polygon fill="none" stroke="black" points="724,-815.376 640,-815.376 640,-779.376 724,-779.376 724,-815.376"/>
<text text-anchor="middle" x="682" y="-794.476" font-family="Courier New" font-size="11.00">SqlsrvTest</text>
</a>
</g>
<!-- \\Aura\\Sql\\Connection\\AbstractConnectionTest -->
<g id="node6" class="node"><title>\\Aura\\Sql\\Connection\\AbstractConnectionTest</title>
<a xlink:href="db_tests_Connection_AbstractConnectionTest.html" xlink:title="«abstract»&lt;br/&gt;AbstractConnectionTest" target="_parent">
<polygon fill="none" stroke="black" points="568,-761.376 402,-761.376 402,-725.376 568,-725.376 568,-761.376"/>
<text text-anchor="start" x="451" y="-748.809" font-family="Courier New" font-size="11.00">«abstract»</text>
<text text-anchor="start" x="410.5" y="-735.609" font-family="Courier New" font-size="11.00">AbstractConnectionTest</text>
</a>
</g>
<!-- \\Aura\\Sql\\Connection\\SqlsrvTest&#45;&gt;\\Aura\\Sql\\Connection\\AbstractConnectionTest -->
<g id="edge13" class="edge"><title>\\Aura\\Sql\\Connection\\SqlsrvTest&#45;&gt;\\Aura\\Sql\\Connection\\AbstractConnectionTest</title>
<path fill="none" stroke="black" d="M639.739,-785.792C616.68,-779.471 587.438,-771.456 560.598,-764.098"/>
<polygon fill="none" stroke="black" points="561.404,-760.69 550.835,-761.422 559.554,-767.441 561.404,-760.69"/>
</g>
<!-- \\Aura\\Sql\\Connection\\MockConnection -->
<g id="node5" class="node"><title>\\Aura\\Sql\\Connection\\MockConnection</title>
<a xlink:href="db_tests_Connection_MockConnection.html" xlink:title="MockConnection" target="_parent">
<polygon fill="none" stroke="black" points="930,-815.376 820,-815.376 820,-779.376 930,-779.376 930,-815.376"/>
<text text-anchor="middle" x="875" y="-794.476" font-family="Courier New" font-size="11.00">MockConnection</text>
</a>
</g>
<!-- \\PHPUnit_Framework_TestCase -->
<g id="node28" class="node"><title>\\PHPUnit_Framework_TestCase</title>
<ellipse fill="none" stroke="black" cx="165" cy="-379.376" rx="164.756" ry="18.3848"/>
<text text-anchor="middle" x="165" y="-375.776" font-family="Times Roman,serif" font-size="14.00" fill="gray">\PHPUnit_Framework_TestCase</text>
</g>
<!-- \\Aura\\Sql\\Connection\\AbstractConnectionTest&#45;&gt;\\PHPUnit_Framework_TestCase -->
<g id="edge15" class="edge"><title>\\Aura\\Sql\\Connection\\AbstractConnectionTest&#45;&gt;\\PHPUnit_Framework_TestCase</title>
<path fill="none" stroke="black" d="M436.84,-725.291C417.215,-716.413 395.159,-704.367 378,-689.376 280.613,-604.291 206.431,-465.326 177.834,-406.765"/>
<polygon fill="none" stroke="black" points="180.83,-404.921 173.333,-397.435 174.525,-407.963 180.83,-404.921"/>
</g>
<!-- \\Aura\\Sql\\Connection\\SqlsrvDenaliTest -->
<g id="node7" class="node"><title>\\Aura\\Sql\\Connection\\SqlsrvDenaliTest</title>
<a xlink:href="db_tests_Connection_SqlsrvDenaliTest.html" xlink:title="SqlsrvDenaliTest" target="_parent">
<polygon fill="none" stroke="black" points="937,-761.376 813,-761.376 813,-725.376 937,-725.376 937,-761.376"/>
<text text-anchor="middle" x="875" y="-740.476" font-family="Courier New" font-size="11.00">SqlsrvDenaliTest</text>
</a>
</g>
<!-- \\Aura\\Sql\\Connection\\SqlsrvDenaliTest&#45;&gt;\\Aura\\Sql\\Connection\\SqlsrvTest -->
<g id="edge17" class="edge"><title>\\Aura\\Sql\\Connection\\SqlsrvDenaliTest&#45;&gt;\\Aura\\Sql\\Connection\\SqlsrvTest</title>
<path fill="none" stroke="black" d="M812.338,-760.908C786.993,-768 758.081,-776.089 733.938,-782.844"/>
<polygon fill="none" stroke="black" points="732.939,-779.489 724.252,-785.554 734.825,-786.23 732.939,-779.489"/>
</g>
<!-- \\Aura\\Sql\\Connection\\MysqlTest -->
<g id="node8" class="node"><title>\\Aura\\Sql\\Connection\\MysqlTest</title>
<a xlink:href="db_tests_Connection_MysqlTest.html" xlink:title="MysqlTest" target="_parent">
<polygon fill="none" stroke="black" points="720,-761.376 644,-761.376 644,-725.376 720,-725.376 720,-761.376"/>
<text text-anchor="middle" x="682" y="-740.476" font-family="Courier New" font-size="11.00">MysqlTest</text>
</a>
</g>
<!-- \\Aura\\Sql\\Connection\\MysqlTest&#45;&gt;\\Aura\\Sql\\Connection\\AbstractConnectionTest -->
<g id="edge19" class="edge"><title>\\Aura\\Sql\\Connection\\MysqlTest&#45;&gt;\\Aura\\Sql\\Connection\\AbstractConnectionTest</title>
<path fill="none" stroke="black" d="M643.079,-743.376C624.423,-743.376 601.198,-743.376 578.345,-743.376"/>
<polygon fill="none" stroke="black" points="578.24,-739.876 568.24,-743.376 578.24,-746.876 578.24,-739.876"/>
</g>
<!-- \\Aura\\Sql\\Connection\\Sqlsrv -->
<g id="node9" class="node"><title>\\Aura\\Sql\\Connection\\Sqlsrv</title>
<a xlink:href="db_src_Connection_Sqlsrv.html" xlink:title="Sqlsrv" target="_parent">
<polygon fill="none" stroke="black" points="710,-707.376 654,-707.376 654,-671.376 710,-671.376 710,-707.376"/>
<text text-anchor="middle" x="682" y="-686.476" font-family="Courier New" font-size="11.00">Sqlsrv</text>
</a>
</g>
<!-- \\Aura\\Sql\\Connection\\AbstractConnection -->
<g id="node10" class="node"><title>\\Aura\\Sql\\Connection\\AbstractConnection</title>
<a xlink:href="db_src_Connection_AbstractConnection.html" xlink:title="«abstract»&lt;br/&gt;AbstractConnection" target="_parent">
<polygon fill="none" stroke="black" points="554,-680.376 416,-680.376 416,-644.376 554,-644.376 554,-680.376"/>
<text text-anchor="start" x="451" y="-667.809" font-family="Courier New" font-size="11.00">«abstract»</text>
<text text-anchor="start" x="424" y="-654.609" font-family="Courier New" font-size="11.00">AbstractConnection</text>
</a>
</g>
<!-- \\Aura\\Sql\\Connection\\Sqlsrv&#45;&gt;\\Aura\\Sql\\Connection\\AbstractConnection -->
<g id="edge27" class="edge"><title>\\Aura\\Sql\\Connection\\Sqlsrv&#45;&gt;\\Aura\\Sql\\Connection\\AbstractConnection</title>
<path fill="none" stroke="black" d="M653.355,-685.45C630.052,-682.256 596.002,-677.589 564.612,-673.287"/>
<polygon fill="none" stroke="black" points="564.913,-669.796 554.531,-671.906 563.963,-676.731 564.913,-669.796"/>
</g>
<!-- \\Aura\\Sql\\Connection\\SqlsrvDenali -->
<g id="node11" class="node"><title>\\Aura\\Sql\\Connection\\SqlsrvDenali</title>
<a xlink:href="db_src_Connection_SqlsrvDenali.html" xlink:title="SqlsrvDenali" target="_parent">
<polygon fill="none" stroke="black" points="924,-707.376 826,-707.376 826,-671.376 924,-671.376 924,-707.376"/>
<text text-anchor="middle" x="875" y="-686.476" font-family="Courier New" font-size="11.00">SqlsrvDenali</text>
</a>
</g>
<!-- \\Aura\\Sql\\Connection\\SqlsrvDenali&#45;&gt;\\Aura\\Sql\\Connection\\Sqlsrv -->
<g id="edge29" class="edge"><title>\\Aura\\Sql\\Connection\\SqlsrvDenali&#45;&gt;\\Aura\\Sql\\Connection\\Sqlsrv</title>
<path fill="none" stroke="black" d="M825.799,-689.376C793.23,-689.376 751.113,-689.376 720.889,-689.376"/>
<polygon fill="none" stroke="black" points="720.73,-685.876 710.73,-689.376 720.73,-692.876 720.73,-685.876"/>
</g>
<!-- \\Aura\\Sql\\Connection\\Mysql -->
<g id="node12" class="node"><title>\\Aura\\Sql\\Connection\\Mysql</title>
<a xlink:href="db_src_Connection_Mysql.html" xlink:title="Mysql" target="_parent">
<polygon fill="none" stroke="black" points="709,-653.376 655,-653.376 655,-617.376 709,-617.376 709,-653.376"/>
<text text-anchor="middle" x="682" y="-632.476" font-family="Courier New" font-size="11.00">Mysql</text>
</a>
</g>
<!-- \\Aura\\Sql\\Connection\\Mysql&#45;&gt;\\Aura\\Sql\\Connection\\AbstractConnection -->
<g id="edge31" class="edge"><title>\\Aura\\Sql\\Connection\\Mysql&#45;&gt;\\Aura\\Sql\\Connection\\AbstractConnection</title>
<path fill="none" stroke="black" d="M654.608,-639.13C631.331,-642.32 596.709,-647.066 564.804,-651.438"/>
<polygon fill="none" stroke="black" points="563.991,-648.017 554.559,-652.842 564.941,-654.952 563.991,-648.017"/>
</g>
<!-- \\Aura\\Sql\\Exception\\ConnectionFactory -->
<g id="node14" class="node"><title>\\Aura\\Sql\\Exception\\ConnectionFactory</title>
<a xlink:href="db_src_Exception_ConnectionFactory.html" xlink:title="ConnectionFactory" target="_parent">
<polygon fill="none" stroke="black" points="940,-571.376 810,-571.376 810,-535.376 940,-535.376 940,-571.376"/>
<text text-anchor="middle" x="875" y="-550.476" font-family="Courier New" font-size="11.00">ConnectionFactory</text>
</a>
</g>
<!-- \\Aura\\Sql\\Exception -->
<g id="node23" class="node"><title>\\Aura\\Sql\\Exception</title>
<a xlink:href="db_src_Exception.html" xlink:title="Exception" target="_parent">
<polygon fill="none" stroke="black" points="720,-490.376 644,-490.376 644,-454.376 720,-454.376 720,-490.376"/>
<text text-anchor="middle" x="682" y="-469.476" font-family="Courier New" font-size="11.00">Exception</text>
</a>
</g>
<!-- \\Aura\\Sql\\Exception\\ConnectionFactory&#45;&gt;\\Aura\\Sql\\Exception -->
<g id="edge21" class="edge"><title>\\Aura\\Sql\\Exception\\ConnectionFactory&#45;&gt;\\Aura\\Sql\\Exception</title>
<path fill="none" stroke="black" d="M819.456,-535.28C811.53,-532.441 803.52,-529.431 796,-526.376 772.775,-516.942 747.527,-505.148 726.708,-494.99"/>
<polygon fill="none" stroke="black" points="727.996,-491.724 717.478,-490.453 724.908,-498.006 727.996,-491.724"/>
</g>
<!-- \\Aura\\Sql\\Exception\\NoSuchMaster -->
<g id="node15" class="node"><title>\\Aura\\Sql\\Exception\\NoSuchMaster</title>
<a xlink:href="db_src_Exception_NoSuchMaster.html" xlink:title="NoSuchMaster" target="_parent">
<polygon fill="none" stroke="black" points="924,-517.376 826,-517.376 826,-481.376 924,-481.376 924,-517.376"/>
<text text-anchor="middle" x="875" y="-496.476" font-family="Courier New" font-size="11.00">NoSuchMaster</text>
</a>
</g>
<!-- \\Aura\\Sql\\Exception\\NoSuchMaster&#45;&gt;\\Aura\\Sql\\Exception -->
<g id="edge23" class="edge"><title>\\Aura\\Sql\\Exception\\NoSuchMaster&#45;&gt;\\Aura\\Sql\\Exception</title>
<path fill="none" stroke="black" d="M825.799,-492.493C796.627,-488.412 759.794,-483.259 730.709,-479.19"/>
<polygon fill="none" stroke="black" points="731.158,-475.719 720.77,-477.8 730.189,-482.652 731.158,-475.719"/>
</g>
<!-- \\Aura\\Sql\\Exception\\NoSuchSlave -->
<g id="node16" class="node"><title>\\Aura\\Sql\\Exception\\NoSuchSlave</title>
<a xlink:href="db_src_Exception_NoSuchSlave.html" xlink:title="NoSuchSlave" target="_parent">
<polygon fill="none" stroke="black" points="920,-463.376 830,-463.376 830,-427.376 920,-427.376 920,-463.376"/>
<text text-anchor="middle" x="875" y="-442.476" font-family="Courier New" font-size="11.00">NoSuchSlave</text>
</a>
</g>
<!-- \\Aura\\Sql\\Exception\\NoSuchSlave&#45;&gt;\\Aura\\Sql\\Exception -->
<g id="edge25" class="edge"><title>\\Aura\\Sql\\Exception\\NoSuchSlave&#45;&gt;\\Aura\\Sql\\Exception</title>
<path fill="none" stroke="black" d="M829.262,-451.775C799.517,-455.936 760.778,-461.355 730.499,-465.591"/>
<polygon fill="none" stroke="black" points="729.999,-462.127 720.58,-466.979 730.968,-469.059 729.999,-462.127"/>
</g>
<!-- \\Aura\\Sql\\ConnectionFactoryTest -->
<g id="node17" class="node"><title>\\Aura\\Sql\\ConnectionFactoryTest</title>
<a xlink:href="db_tests_ConnectionFactoryTest.html" xlink:title="ConnectionFactoryTest" target="_parent">
<polygon fill="none" stroke="black" points="954,-409.376 796,-409.376 796,-373.376 954,-373.376 954,-409.376"/>
<text text-anchor="middle" x="875" y="-388.476" font-family="Courier New" font-size="11.00">ConnectionFactoryTest</text>
</a>
</g>
<!-- \\Aura\\Sql\\ConnectionFactoryTest&#45;&gt;\\PHPUnit_Framework_TestCase -->
<g id="edge9" class="edge"><title>\\Aura\\Sql\\ConnectionFactoryTest&#45;&gt;\\PHPUnit_Framework_TestCase</title>
<path fill="none" stroke="black" d="M795.988,-407.312C759.441,-410.803 716.572,-409.138 682,-391.376"/>
</g>
<!-- \\Aura\\Sql\\ConnectionManagerTest -->
<g id="node18" class="node"><title>\\Aura\\Sql\\ConnectionManagerTest</title>
<a xlink:href="db_tests_ConnectionManagerTest.html" xlink:title="ConnectionManagerTest" target="_parent">
<polygon fill="none" stroke="black" points="954,-355.376 796,-355.376 796,-319.376 954,-319.376 954,-355.376"/>
<text text-anchor="middle" x="875" y="-334.476" font-family="Courier New" font-size="11.00">ConnectionManagerTest</text>
</a>
</g>
<!-- \\Aura\\Sql\\ConnectionManagerTest&#45;&gt;\\PHPUnit_Framework_TestCase -->
<g id="edge11" class="edge"><title>\\Aura\\Sql\\ConnectionManagerTest&#45;&gt;\\PHPUnit_Framework_TestCase</title>
<path fill="none" stroke="black" d="M817.819,-355.409C763.191,-372.324 688.238,-394.581 682,-391.376"/>
<path fill="none" stroke="black" d="M682,-391.376C533.849,-315.262 702.501,-132.618 568,-34.3759 499.809,15.4322 451.746,6.76267 378,-34.3759 252.285,-104.505 191.498,-282.749 172.129,-351.623"/>
<polygon fill="none" stroke="black" points="168.734,-350.767 169.47,-361.336 175.486,-352.615 168.734,-350.767"/>
</g>
<!-- \\Aura\\Sql\\Column -->
<g id="node19" class="node"><title>\\Aura\\Sql\\Column</title>
<a xlink:href="db_tests_Column.html" xlink:title="Column" target="_parent">
<polygon fill="none" stroke="black" points="903,-301.376 847,-301.376 847,-265.376 903,-265.376 903,-301.376"/>
<text text-anchor="middle" x="875" y="-280.476" font-family="Courier New" font-size="11.00">Column</text>
</a>
</g>
<!-- \\Aura\\Sql\\ConnectionFactory -->
<g id="node20" class="node"><title>\\Aura\\Sql\\ConnectionFactory</title>
<a xlink:href="db_src_ConnectionFactory.html" xlink:title="ConnectionFactory" target="_parent">
<polygon fill="none" stroke="black" points="940,-247.376 810,-247.376 810,-211.376 940,-211.376 940,-247.376"/>
<text text-anchor="middle" x="875" y="-226.476" font-family="Courier New" font-size="11.00">ConnectionFactory</text>
</a>
</g>
<!-- \\Aura\\Sql\\Select -->
<g id="node21" class="node"><title>\\Aura\\Sql\\Select</title>
<a xlink:href="db_src_Select.html" xlink:title="Select" target="_parent">
<polygon fill="none" stroke="black" points="903,-193.376 847,-193.376 847,-157.376 903,-157.376 903,-193.376"/>
<text text-anchor="middle" x="875" y="-172.476" font-family="Courier New" font-size="11.00">Select</text>
</a>
</g>
<!-- \\Aura\\Sql\\ConnectionManager -->
<g id="node22" class="node"><title>\\Aura\\Sql\\ConnectionManager</title>
<a xlink:href="db_src_ConnectionManager.html" xlink:title="ConnectionManager" target="_parent">
<polygon fill="none" stroke="black" points="940,-139.376 810,-139.376 810,-103.376 940,-103.376 940,-139.376"/>
<text text-anchor="middle" x="875" y="-118.476" font-family="Courier New" font-size="11.00">ConnectionManager</text>
</a>
</g>
<!-- \\Exception -->
<g id="node41" class="node"><title>\\Exception</title>
<ellipse fill="none" stroke="black" cx="485" cy="-61.3759" rx="62.9325" ry="18.3848"/>
<text text-anchor="middle" x="485" y="-57.7759" font-family="Times Roman,serif" font-size="14.00" fill="gray">\Exception</text>
</g>
<!-- \\Aura\\Sql\\Exception&#45;&gt;\\Exception -->
<g id="edge33" class="edge"><title>\\Aura\\Sql\\Exception&#45;&gt;\\Exception</title>
<path fill="none" stroke="black" d="M643.917,-454.207C642.527,-452.997 641.213,-451.721 640,-450.376 540.88,-340.444 501.38,-159.31 489.364,-89.7733"/>
<polygon fill="none" stroke="black" points="492.765,-88.8868 487.667,-79.5992 485.86,-90.0389 492.765,-88.8868"/>
</g>
</g>
</svg>
