<?xml version="1.0" encoding="UTF-8" standalone="no"?>
<!DOCTYPE svg PUBLIC "-//W3C//DTD SVG 1.0//EN"
 "http://www.w3.org/TR/2001/REC-SVG-20010904/DTD/svg10.dtd" [
 <!ATTLIST svg xmlns:xlink CDATA #FIXED "http://www.w3.org/1999/xlink">
]>
<!-- Generated by Graphviz version 2.20.2 (Tue Mar &#160;2 21:46:26 UTC 2010)
     For user: (mvriel) Mike van Riel,,, -->
<!-- Title: Classes Pages: 1 -->
<svg width="662pt" height="596pt"
 viewBox="0.00 0.00 662.00 596.00" xmlns="http://www.w3.org/2000/svg" xmlns:xlink="http://www.w3.org/1999/xlink">
<g id="graph0" class="graph" transform="scale(1 1) rotate(0) translate(4 592)">
<title>Classes</title>
<polygon style="fill:white;stroke:white;" points="-4,4 -4,-592 658,-592 658,4 -4,4"/>
<!-- 09a15e9660c1ebc6f429d818825ce0c6 -->
<g id="node1" class="node"><title>09a15e9660c1ebc6f429d818825ce0c6</title>
<polygon style="fill:white;stroke:black;" points="72,-392 2.13163e-14,-392 7.10543e-15,-356 72,-356 72,-392"/>
<text text-anchor="middle" x="36" y="-369.9" style="font-family:Times New Roman;font-size:14.00;fill:gray;">stdClass</text>
</g>
<!-- 93d4d28b85b996440dc5bbc3ff00b8d0 -->
<g id="node2" class="node"><title>93d4d28b85b996440dc5bbc3ff00b8d0</title>
<a xlink:href="src_Context.html" xlink:title="Context" target="_top">
<polygon style="fill:white;stroke:black;" points="218,-552 146,-552 146,-516 218,-516 218,-552"/>
<text text-anchor="middle" x="182" y="-529.9" style="font-family:Times New Roman;font-size:14.00;">Context</text>
</a>
</g>
<!-- 93d4d28b85b996440dc5bbc3ff00b8d0&#45;&gt;09a15e9660c1ebc6f429d818825ce0c6 -->
<g id="edge2" class="edge"><title>93d4d28b85b996440dc5bbc3ff00b8d0&#45;&gt;09a15e9660c1ebc6f429d818825ce0c6</title>
<path style="fill:none;stroke:black;" d="M178,-516C168,-474 140,-373 109,-374"/>
</g>
<!-- 497c5f7a3b0298d7a807c94acf7ef099 -->
<g id="node3" class="node"><title>497c5f7a3b0298d7a807c94acf7ef099</title>
<a xlink:href="src_Csrf.html" xlink:title="Csrf" target="_top">
<polygon style="fill:white;stroke:black;" points="209,-392 155,-392 155,-356 209,-356 209,-392"/>
<text text-anchor="middle" x="182" y="-369.9" style="font-family:Times New Roman;font-size:14.00;">Csrf</text>
</a>
</g>
<!-- 497c5f7a3b0298d7a807c94acf7ef099&#45;&gt;09a15e9660c1ebc6f429d818825ce0c6 -->
<g id="edge4" class="edge"><title>497c5f7a3b0298d7a807c94acf7ef099&#45;&gt;09a15e9660c1ebc6f429d818825ce0c6</title>
<path style="fill:none;stroke:black;" d="M155,-374C141,-374 124,-374 109,-374"/>
</g>
<!-- d1457b72c3fb323a2671125aef3eab5d -->
<g id="node4" class="node"><title>d1457b72c3fb323a2671125aef3eab5d</title>
<polygon style="fill:white;stroke:black;" points="209,-231 155,-231 155,-195 209,-195 209,-231"/>
<text text-anchor="middle" x="182" y="-208.9" style="font-family:Times New Roman;font-size:14.00;fill:gray;">?</text>
</g>
<!-- d1457b72c3fb323a2671125aef3eab5d&#45;&gt;09a15e9660c1ebc6f429d818825ce0c6 -->
<g id="edge6" class="edge"><title>d1457b72c3fb323a2671125aef3eab5d&#45;&gt;09a15e9660c1ebc6f429d818825ce0c6</title>
<path style="fill:none;stroke:black;" d="M178,-231C168,-273 140,-373 109,-374"/>
<path style="fill:none;stroke:black;" d="M109,-374C100,-374 91,-374 82,-374"/>
<polygon style="fill:none;stroke:black;" points="82,-370.5 72,-374 82,-377.5 82,-370.5"/>
</g>
<!-- fe9d87595bbecb27348b863f712f1c2b -->
<g id="node5" class="node"><title>fe9d87595bbecb27348b863f712f1c2b</title>
<polygon style="fill:white;stroke:black;" points="376,-231 292,-231 292,-195 376,-195 376,-231"/>
<text text-anchor="middle" x="334" y="-208.9" style="font-family:Times New Roman;font-size:14.00;fill:gray;">Exception</text>
</g>
<!-- fe9d87595bbecb27348b863f712f1c2b&#45;&gt;d1457b72c3fb323a2671125aef3eab5d -->
<g id="edge8" class="edge"><title>fe9d87595bbecb27348b863f712f1c2b&#45;&gt;d1457b72c3fb323a2671125aef3eab5d</title>
<path style="fill:none;stroke:black;" d="M292,-213C270,-213 241,-213 219,-213"/>
<polygon style="fill:none;stroke:black;" points="219,-209.5 209,-213 219,-216.5 219,-209.5"/>
</g>
<!-- 89ffdf4c249353e0cb295bd97cb5f53a -->
<g id="node6" class="node"><title>89ffdf4c249353e0cb295bd97cb5f53a</title>
<a xlink:href="src_Exception_Context.html" xlink:title="Exception_Context" target="_top">
<polygon style="fill:white;stroke:black;" points="625,-231 479,-231 479,-195 625,-195 625,-231"/>
<text text-anchor="middle" x="552" y="-208.9" style="font-family:Times New Roman;font-size:14.00;">Exception_Context</text>
</a>
</g>
<!-- 89ffdf4c249353e0cb295bd97cb5f53a&#45;&gt;fe9d87595bbecb27348b863f712f1c2b -->
<g id="edge10" class="edge"><title>89ffdf4c249353e0cb295bd97cb5f53a&#45;&gt;fe9d87595bbecb27348b863f712f1c2b</title>
<path style="fill:none;stroke:black;" d="M478,-206C457,-206 434,-207 413,-213"/>
</g>
<!-- 4927669c5afa8c02cdb01619f971facf -->
<g id="node7" class="node"><title>4927669c5afa8c02cdb01619f971facf</title>
<a xlink:href="src_Exception_MalformedToken.html" xlink:title="Exception_MalformedToken" target="_top">
<polygon style="fill:white;stroke:black;" points="653,-71 451,-71 451,-35 653,-35 653,-71"/>
<text text-anchor="middle" x="552" y="-48.9" style="font-family:Times New Roman;font-size:14.00;">Exception_MalformedToken</text>
</a>
</g>
<!-- 4927669c5afa8c02cdb01619f971facf&#45;&gt;fe9d87595bbecb27348b863f712f1c2b -->
<g id="edge12" class="edge"><title>4927669c5afa8c02cdb01619f971facf&#45;&gt;fe9d87595bbecb27348b863f712f1c2b</title>
<path style="fill:none;stroke:black;" d="M538,-71C506,-112 430,-208 413,-213"/>
<path style="fill:none;stroke:black;" d="M413,-213C404,-215 395,-216 386,-217"/>
<polygon style="fill:none;stroke:black;" points="386,-213.5 376,-217 386,-220.5 386,-213.5"/>
</g>
</g>
</svg>
