<?xml version="1.0" encoding="UTF-8" standalone="no"?>
<!DOCTYPE svg PUBLIC "-//W3C//DTD SVG 1.1//EN" "http://www.w3.org/Graphics/SVG/1.1/DTD/svg11.dtd">
<!-- Generated by graphviz version 2.28.0 (20110509.1545)
 -->
<!-- Title: Classes Pages: 1 -->
<svg xmlns="http://www.w3.org/2000/svg" xmlns:xlink="http://www.w3.org/1999/xlink" width="774pt" height="697pt">
<g id="viewport" class="graph" transform="scale(1 1) rotate(0) translate(4 693.4)">
<title>Classes</title>
<polygon fill="white" stroke="white" points="-4,5 -4,-693.4 771,-693.4 771,5 -4,5"/>
<!-- 09a15e9660c1ebc6f429d818825ce0c6 -->
<g id="node1" class="node"><title>09a15e9660c1ebc6f429d818825ce0c6</title>
<polygon fill="white" stroke="black" points="63.1766,-521.515 0.823384,-521.515 0.823384,-485.515 63.1766,-485.515 63.1766,-521.515"/>
<text text-anchor="middle" x="32" y="-497.915" font-family="Times,serif" font-size="14.00" fill="gray">stdClass</text>
</g>
<!-- a5e4a4b12dc54e4691d8eaa51bafa3c2 -->
<g id="node2" class="node"><title>a5e4a4b12dc54e4691d8eaa51bafa3c2</title>
<a xlink:href="_src_Context.html" xlink:title="Context" target="_top">
<polygon fill="white" stroke="black" points="227.332,-680.515 166.668,-680.515 166.668,-644.515 227.332,-644.515 227.332,-680.515"/>
<text text-anchor="middle" x="197" y="-656.915" font-family="Times,serif" font-size="14.00">Context</text>
</a>
</g>
<!-- a5e4a4b12dc54e4691d8eaa51bafa3c2&#45;&gt;09a15e9660c1ebc6f429d818825ce0c6 -->
<g id="edge2" class="edge"><title>a5e4a4b12dc54e4691d8eaa51bafa3c2-&gt;09a15e9660c1ebc6f429d818825ce0c6</title>
<path fill="none" stroke="black" d="M170.38,-644.39C159.125,-635.318 146.552,-623.505 138,-610.515 110.41,-568.607 151.222,-493.785 102,-503.515"/>
</g>
<!-- 67dcc93c701fd76be86c5d0eaa7e9c0a -->
<g id="node3" class="node"><title>67dcc93c701fd76be86c5d0eaa7e9c0a</title>
<a xlink:href="_src_ControllerFactory.html" xlink:title="ControllerFactory" target="_top">
<polygon fill="white" stroke="black" points="255.311,-601.515 138.689,-601.515 138.689,-565.515 255.311,-565.515 255.311,-601.515"/>
<text text-anchor="middle" x="197" y="-577.915" font-family="Times,serif" font-size="14.00">ControllerFactory</text>
</a>
</g>
<!-- 67dcc93c701fd76be86c5d0eaa7e9c0a&#45;&gt;09a15e9660c1ebc6f429d818825ce0c6 -->
<g id="edge4" class="edge"><title>67dcc93c701fd76be86c5d0eaa7e9c0a-&gt;09a15e9660c1ebc6f429d818825ce0c6</title>
<path fill="none" stroke="black" d="M176.441,-565.503C150.296,-541.629 106.678,-502.591 102,-503.515"/>
</g>
<!-- b7d23db5ddde195dadd484269abf31a6 -->
<g id="node4" class="node"><title>b7d23db5ddde195dadd484269abf31a6</title>
<a xlink:href="_src_Csrf.html" xlink:title="Csrf" target="_top">
<polygon fill="white" stroke="black" points="224,-521.515 170,-521.515 170,-485.515 224,-485.515 224,-521.515"/>
<text text-anchor="middle" x="197" y="-497.915" font-family="Times,serif" font-size="14.00">Csrf</text>
</a>
</g>
<!-- b7d23db5ddde195dadd484269abf31a6&#45;&gt;09a15e9660c1ebc6f429d818825ce0c6 -->
<g id="edge6" class="edge"><title>b7d23db5ddde195dadd484269abf31a6-&gt;09a15e9660c1ebc6f429d818825ce0c6</title>
<path fill="none" stroke="black" d="M169.801,-500.814C150.797,-499.506 124.574,-499.053 102,-503.515"/>
</g>
<!-- 679cd80e0acf34c50016eb9a16380655 -->
<g id="node5" class="node"><title>679cd80e0acf34c50016eb9a16380655</title>
<a xlink:href="_src_Page.html" xlink:title="Page" target="_top">
<polygon fill="white" stroke="black" points="224,-442.515 170,-442.515 170,-406.515 224,-406.515 224,-442.515"/>
<text text-anchor="middle" x="197" y="-418.915" font-family="Times,serif" font-size="14.00">Page</text>
</a>
</g>
<!-- 679cd80e0acf34c50016eb9a16380655&#45;&gt;09a15e9660c1ebc6f429d818825ce0c6 -->
<g id="edge8" class="edge"><title>679cd80e0acf34c50016eb9a16380655-&gt;09a15e9660c1ebc6f429d818825ce0c6</title>
<path fill="none" stroke="black" d="M175.546,-442.572C149.305,-465.607 106.601,-502.606 102,-503.515"/>
</g>
<!-- d232f7411d57892295cfb0b8549a952d -->
<g id="node6" class="node"><title>d232f7411d57892295cfb0b8549a952d</title>
<a xlink:href="_src_ResponseTransfer.html" xlink:title="ResponseTransfer" target="_top">
<polygon fill="white" stroke="black" points="255.092,-362.515 138.908,-362.515 138.908,-326.515 255.092,-326.515 255.092,-362.515"/>
<text text-anchor="middle" x="197" y="-338.915" font-family="Times,serif" font-size="14.00">ResponseTransfer</text>
</a>
</g>
<!-- d232f7411d57892295cfb0b8549a952d&#45;&gt;09a15e9660c1ebc6f429d818825ce0c6 -->
<g id="edge10" class="edge"><title>d232f7411d57892295cfb0b8549a952d-&gt;09a15e9660c1ebc6f429d818825ce0c6</title>
<path fill="none" stroke="black" d="M170.993,-362.608C159.597,-371.938 146.731,-384.157 138,-397.515 110.779,-439.163 150.809,-493.866 102,-503.515"/>
</g>
<!-- d1457b72c3fb323a2671125aef3eab5d -->
<g id="node7" class="node"><title>d1457b72c3fb323a2671125aef3eab5d</title>
<polygon fill="white" stroke="black" points="224,-283.515 170,-283.515 170,-247.515 224,-247.515 224,-283.515"/>
<text text-anchor="middle" x="197" y="-259.915" font-family="Times,serif" font-size="14.00" fill="gray">?</text>
</g>
<!-- d1457b72c3fb323a2671125aef3eab5d&#45;&gt;09a15e9660c1ebc6f429d818825ce0c6 -->
<g id="edge12" class="edge"><title>d1457b72c3fb323a2671125aef3eab5d-&gt;09a15e9660c1ebc6f429d818825ce0c6</title>
<path fill="none" stroke="black" d="M100,-503.515C91.4702,-505.202 82.2093,-505.903 73.3715,-506.051"/>
<polygon fill="none" stroke="black" points="73.2789,-502.551 63.2601,-505.997 73.2411,-509.551 73.2789,-502.551"/>
<path fill="none" stroke="black" d="M169.873,-282.915C158.368,-291.91 145.734,-303.867 138,-317.515 117.244,-354.144 143.301,-495.351 102,-503.515"/>
</g>
<!-- fe9d87595bbecb27348b863f712f1c2b -->
<g id="node8" class="node"><title>fe9d87595bbecb27348b863f712f1c2b</title>
<polygon fill="white" stroke="black" points="403.259,-283.515 330.741,-283.515 330.741,-247.515 403.259,-247.515 403.259,-283.515"/>
<text text-anchor="middle" x="367" y="-259.915" font-family="Times,serif" font-size="14.00" fill="gray">Exception</text>
</g>
<!-- fe9d87595bbecb27348b863f712f1c2b&#45;&gt;d1457b72c3fb323a2671125aef3eab5d -->
<g id="edge14" class="edge"><title>fe9d87595bbecb27348b863f712f1c2b-&gt;d1457b72c3fb323a2671125aef3eab5d</title>
<path fill="none" stroke="black" d="M330.372,-265.515C302.187,-265.515 262.982,-265.515 234.559,-265.515"/>
<polygon fill="none" stroke="black" points="234.238,-262.015 224.238,-265.515 234.238,-269.015 234.238,-262.015"/>
</g>
<!-- 4267c30eb8dd2e64d6c4a883a74b6f39 -->
<g id="node9" class="node"><title>4267c30eb8dd2e64d6c4a883a74b6f39</title>
<a xlink:href="_src_Exception.html" xlink:title="Exception" target="_top">
<polygon fill="white" stroke="black" points="551.259,-283.515 478.741,-283.515 478.741,-247.515 551.259,-247.515 551.259,-283.515"/>
<text text-anchor="middle" x="515" y="-259.915" font-family="Times,serif" font-size="14.00">Exception</text>
</a>
</g>
<!-- 4267c30eb8dd2e64d6c4a883a74b6f39&#45;&gt;fe9d87595bbecb27348b863f712f1c2b -->
<g id="edge16" class="edge"><title>4267c30eb8dd2e64d6c4a883a74b6f39-&gt;fe9d87595bbecb27348b863f712f1c2b</title>
<path fill="none" stroke="black" d="M478.657,-265.515C459.003,-265.515 434.334,-265.515 413.278,-265.515"/>
<polygon fill="none" stroke="black" points="413.27,-262.015 403.27,-265.515 413.27,-269.015 413.27,-262.015"/>
</g>
<!-- f9b9f1ee3f8a85e51df4a49f4674bb24 -->
<g id="node10" class="node"><title>f9b9f1ee3f8a85e51df4a49f4674bb24</title>
<a xlink:href="_src_Exception_Context.html" xlink:title="Context" target="_top">
<polygon fill="white" stroke="black" points="726.332,-442.515 665.668,-442.515 665.668,-406.515 726.332,-406.515 726.332,-442.515"/>
<text text-anchor="middle" x="696" y="-418.915" font-family="Times,serif" font-size="14.00">Context</text>
</a>
</g>
<!-- f9b9f1ee3f8a85e51df4a49f4674bb24&#45;&gt;4267c30eb8dd2e64d6c4a883a74b6f39 -->
<g id="edge18" class="edge"><title>f9b9f1ee3f8a85e51df4a49f4674bb24-&gt;4267c30eb8dd2e64d6c4a883a74b6f39</title>
<path fill="none" stroke="black" d="M665.514,-407.548C651.851,-398.398 636.38,-386.005 626,-371.515 597.026,-331.068 638.96,-256.663 590,-265.515"/>
</g>
<!-- 2e9d8c48d7dc73560ec85b2c2f61acdd -->
<g id="node11" class="node"><title>2e9d8c48d7dc73560ec85b2c2f61acdd</title>
<a xlink:href="_src_Exception_MalformedToken.html" xlink:title="MalformedToken" target="_top">
<polygon fill="white" stroke="black" points="752.768,-362.515 639.232,-362.515 639.232,-326.515 752.768,-326.515 752.768,-362.515"/>
<text text-anchor="middle" x="696" y="-338.915" font-family="Times,serif" font-size="14.00">MalformedToken</text>
</a>
</g>
<!-- 2e9d8c48d7dc73560ec85b2c2f61acdd&#45;&gt;4267c30eb8dd2e64d6c4a883a74b6f39 -->
<g id="edge20" class="edge"><title>2e9d8c48d7dc73560ec85b2c2f61acdd-&gt;4267c30eb8dd2e64d6c4a883a74b6f39</title>
<path fill="none" stroke="black" d="M670.956,-326.383C640.007,-303.05 590.155,-265.487 590,-265.515"/>
</g>
<!-- 5efa48785a997b7ac2fb50bb1f001c37 -->
<g id="node12" class="node"><title>5efa48785a997b7ac2fb50bb1f001c37</title>
<a xlink:href="_src_Exception_NoAcceptableLayout.html" xlink:title="NoAcceptableLayout" target="_top">
<polygon fill="white" stroke="black" points="763.725,-283.515 628.275,-283.515 628.275,-247.515 763.725,-247.515 763.725,-283.515"/>
<text text-anchor="middle" x="696" y="-259.915" font-family="Times,serif" font-size="14.00">NoAcceptableLayout</text>
</a>
</g>
<!-- 5efa48785a997b7ac2fb50bb1f001c37&#45;&gt;4267c30eb8dd2e64d6c4a883a74b6f39 -->
<g id="edge22" class="edge"><title>5efa48785a997b7ac2fb50bb1f001c37-&gt;4267c30eb8dd2e64d6c4a883a74b6f39</title>
<path fill="none" stroke="black" d="M628.025,-261.947C615.324,-262.276 602.198,-263.31 590,-265.515"/>
</g>
<!-- 39c816e916d1a0a1f50334f35e46f2db -->
<g id="node13" class="node"><title>39c816e916d1a0a1f50334f35e46f2db</title>
<a xlink:href="_src_Exception_NoAcceptableView.html" xlink:title="NoAcceptableView" target="_top">
<polygon fill="white" stroke="black" points="758.56,-203.515 633.44,-203.515 633.44,-167.515 758.56,-167.515 758.56,-203.515"/>
<text text-anchor="middle" x="696" y="-179.915" font-family="Times,serif" font-size="14.00">NoAcceptableView</text>
</a>
</g>
<!-- 39c816e916d1a0a1f50334f35e46f2db&#45;&gt;4267c30eb8dd2e64d6c4a883a74b6f39 -->
<g id="edge24" class="edge"><title>39c816e916d1a0a1f50334f35e46f2db-&gt;4267c30eb8dd2e64d6c4a883a74b6f39</title>
<path fill="none" stroke="black" d="M671.352,-203.636C640.579,-227.202 590.624,-265.403 590,-265.515"/>
</g>
<!-- a59dd0b0a8c66dc25a908a06cdba8a87 -->
<g id="node14" class="node"><title>a59dd0b0a8c66dc25a908a06cdba8a87</title>
<a xlink:href="_src_Exception_NoClassForController.html" xlink:title="NoClassForController" target="_top">
<polygon fill="white" stroke="black" points="766.442,-124.515 625.558,-124.515 625.558,-88.5154 766.442,-88.5154 766.442,-124.515"/>
<text text-anchor="middle" x="696" y="-100.915" font-family="Times,serif" font-size="14.00">NoClassForController</text>
</a>
</g>
<!-- a59dd0b0a8c66dc25a908a06cdba8a87&#45;&gt;4267c30eb8dd2e64d6c4a883a74b6f39 -->
<g id="edge26" class="edge"><title>a59dd0b0a8c66dc25a908a06cdba8a87-&gt;4267c30eb8dd2e64d6c4a883a74b6f39</title>
<path fill="none" stroke="black" d="M663.04,-124.667C650.004,-133.441 635.739,-145.011 626,-158.515 596.652,-199.212 639.374,-256.588 590,-265.515"/>
</g>
<!-- bc3bdd0ed641aa6b4886385e2c2be5da -->
<g id="node15" class="node"><title>bc3bdd0ed641aa6b4886385e2c2be5da</title>
<a xlink:href="_src_Exception_NoMethodForAction.html" xlink:title="NoMethodForAction" target="_top">
<polygon fill="white" stroke="black" points="763.214,-44.5154 628.786,-44.5154 628.786,-8.51538 763.214,-8.51538 763.214,-44.5154"/>
<text text-anchor="middle" x="696" y="-20.9154" font-family="Times,serif" font-size="14.00">NoMethodForAction</text>
</a>
</g>
<!-- bc3bdd0ed641aa6b4886385e2c2be5da&#45;&gt;4267c30eb8dd2e64d6c4a883a74b6f39 -->
<g id="edge28" class="edge"><title>bc3bdd0ed641aa6b4886385e2c2be5da-&gt;4267c30eb8dd2e64d6c4a883a74b6f39</title>
<path fill="none" stroke="black" d="M588,-265.515C579.513,-267.05 570.37,-267.757 561.542,-267.972"/>
<polygon fill="none" stroke="black" points="561.365,-264.473 551.381,-268.017 561.396,-271.472 561.365,-264.473"/>
<path fill="none" stroke="black" d="M662.15,-44.5359C648.956,-53.3935 634.814,-65.252 626,-79.5154 603.869,-115.33 631.429,-258.025 590,-265.515"/>
</g>
</g>
<script xlink:href="js/SVGPan.js"/></svg>
