<?xml version="1.0" encoding="UTF-8" standalone="no"?>
<!DOCTYPE svg PUBLIC "-//W3C//DTD SVG 1.1//EN" "http://www.w3.org/Graphics/SVG/1.1/DTD/svg11.dtd">
<!-- Generated by graphviz version 2.26.3 (20100126.1600)
 -->
<!-- Title: G Pages: 1 -->
<svg xmlns="http://www.w3.org/2000/svg" xmlns:xlink="http://www.w3.org/1999/xlink" width="540pt" height="706pt">
<g id="viewport" class="graph" transform="scale(1 1) rotate(0) translate(4 702)">
<title>G</title>
<polygon fill="white" stroke="white" points="-4,5 -4,-702 537,-702 537,5 -4,5"/>
<g id="graph2" class="cluster"><title>cluster_Aura</title>
<polyline fill="none" stroke="gray" points="194,-8 512,-8 "/>
<path fill="none" stroke="gray" d="M512,-8C518,-8 524,-14 524,-20"/>
<polyline fill="none" stroke="gray" points="524,-20 524,-678 "/>
<path fill="none" stroke="gray" d="M524,-678C524,-684 518,-690 512,-690"/>
<polyline fill="none" stroke="gray" points="512,-690 194,-690 "/>
<path fill="none" stroke="gray" d="M194,-690C188,-690 182,-684 182,-678"/>
<polyline fill="none" stroke="gray" points="182,-678 182,-20 "/>
<path fill="none" stroke="gray" d="M182,-20C182,-14 188,-8 194,-8"/>
<text text-anchor="middle" x="353" y="-676.1" font-family="Times Roman,serif" font-size="11.00" fill="gray">Aura</text>
</g>
<g id="graph3" class="cluster"><title>cluster_Aura_Web</title>
<polyline fill="none" stroke="gray" points="202,-16 504,-16 "/>
<path fill="none" stroke="gray" d="M504,-16C510,-16 516,-22 516,-28"/>
<polyline fill="none" stroke="gray" points="516,-28 516,-648 "/>
<path fill="none" stroke="gray" d="M516,-648C516,-654 510,-660 504,-660"/>
<polyline fill="none" stroke="gray" points="504,-660 202,-660 "/>
<path fill="none" stroke="gray" d="M202,-660C196,-660 190,-654 190,-648"/>
<polyline fill="none" stroke="gray" points="190,-648 190,-28 "/>
<path fill="none" stroke="gray" d="M190,-28C190,-22 196,-16 202,-16"/>
<text text-anchor="middle" x="353" y="-646.1" font-family="Times Roman,serif" font-size="11.00" fill="gray">Web</text>
</g>
<g id="graph4" class="cluster"><title>cluster_Aura_Web_Exception</title>
<polyline fill="none" stroke="gray" points="352,-286 496,-286 "/>
<path fill="none" stroke="gray" d="M496,-286C502,-286 508,-292 508,-298"/>
<polyline fill="none" stroke="gray" points="508,-298 508,-618 "/>
<path fill="none" stroke="gray" d="M508,-618C508,-624 502,-630 496,-630"/>
<polyline fill="none" stroke="gray" points="496,-630 352,-630 "/>
<path fill="none" stroke="gray" d="M352,-630C346,-630 340,-624 340,-618"/>
<polyline fill="none" stroke="gray" points="340,-618 340,-298 "/>
<path fill="none" stroke="gray" d="M340,-298C340,-292 346,-286 352,-286"/>
<text text-anchor="middle" x="424" y="-616.1" font-family="Times Roman,serif" font-size="11.00" fill="gray">Exception</text>
</g>
<!-- _Aura_Web_Exception_NoClassForController -->
<g id="node4" class="node"><title>_Aura_Web_Exception_NoClassForController</title>
<a xlink:href="db_src_Exception_NoClassForController.html" xlink:title="NoClassForController" target="_parent">
<polygon fill="none" stroke="black" points="500,-600 348,-600 348,-564 500,-564 500,-600"/>
<text text-anchor="middle" x="424" y="-579.1" font-family="Courier New" font-size="11.00">NoClassForController</text>
</a>
</g>
<!-- _Aura_Web_Exception -->
<g id="node14" class="node"><title>_Aura_Web_Exception</title>
<a xlink:href="db_src_Exception.html" xlink:title="Exception" target="_parent">
<polygon fill="none" stroke="black" points="275,-465 199,-465 199,-429 275,-429 275,-465"/>
<text text-anchor="middle" x="237" y="-444.1" font-family="Courier New" font-size="11.00">Exception</text>
</a>
</g>
<!-- _Aura_Web_Exception_NoClassForController&#45;&gt;_Aura_Web_Exception -->
<g id="edge6" class="edge"><title>_Aura_Web_Exception_NoClassForController-&gt;_Aura_Web_Exception</title>
<path fill="none" stroke="black" d="M357.033,-563.916C351.092,-561.297 345.321,-558.336 340,-555 305.636,-533.453 274.784,-497.874 255.999,-473.481"/>
<polygon fill="none" stroke="black" points="258.689,-471.235 249.872,-465.36 253.101,-475.451 258.689,-471.235"/>
</g>
<!-- _Aura_Web_Exception_NoMethodForAction -->
<g id="node5" class="node"><title>_Aura_Web_Exception_NoMethodForAction</title>
<a xlink:href="db_src_Exception_NoMethodForAction.html" xlink:title="NoMethodForAction" target="_parent">
<polygon fill="none" stroke="black" points="489,-546 359,-546 359,-510 489,-510 489,-546"/>
<text text-anchor="middle" x="424" y="-525.1" font-family="Courier New" font-size="11.00">NoMethodForAction</text>
</a>
</g>
<!-- _Aura_Web_Exception_NoMethodForAction&#45;&gt;_Aura_Web_Exception -->
<g id="edge8" class="edge"><title>_Aura_Web_Exception_NoMethodForAction-&gt;_Aura_Web_Exception</title>
<path fill="none" stroke="black" d="M363.435,-509.913C355.475,-507.135 347.487,-504.139 340,-501 318.717,-492.079 295.907,-480.359 277.176,-470.119"/>
<polygon fill="none" stroke="black" points="278.778,-467.005 268.333,-465.229 275.39,-473.131 278.778,-467.005"/>
</g>
<!-- _Aura_Web_Exception_NoAcceptableLayout -->
<g id="node6" class="node"><title>_Aura_Web_Exception_NoAcceptableLayout</title>
<a xlink:href="db_src_Exception_NoAcceptableLayout.html" xlink:title="NoAcceptableLayout" target="_parent">
<polygon fill="none" stroke="black" points="493,-492 355,-492 355,-456 493,-456 493,-492"/>
<text text-anchor="middle" x="424" y="-471.1" font-family="Courier New" font-size="11.00">NoAcceptableLayout</text>
</a>
</g>
<!-- _Aura_Web_Exception_NoAcceptableLayout&#45;&gt;_Aura_Web_Exception -->
<g id="edge10" class="edge"><title>_Aura_Web_Exception_NoAcceptableLayout-&gt;_Aura_Web_Exception</title>
<path fill="none" stroke="black" d="M354.899,-464.023C331.921,-460.705 306.828,-457.082 285.721,-454.035"/>
<polygon fill="none" stroke="black" points="286.104,-450.554 275.707,-452.589 285.104,-457.482 286.104,-450.554"/>
</g>
<!-- _Aura_Web_Exception_MalformedToken -->
<g id="node7" class="node"><title>_Aura_Web_Exception_MalformedToken</title>
<a xlink:href="db_src_Exception_MalformedToken.html" xlink:title="MalformedToken" target="_parent">
<polygon fill="none" stroke="black" points="479,-438 369,-438 369,-402 479,-402 479,-438"/>
<text text-anchor="middle" x="424" y="-417.1" font-family="Courier New" font-size="11.00">MalformedToken</text>
</a>
</g>
<!-- _Aura_Web_Exception_MalformedToken&#45;&gt;_Aura_Web_Exception -->
<g id="edge12" class="edge"><title>_Aura_Web_Exception_MalformedToken-&gt;_Aura_Web_Exception</title>
<path fill="none" stroke="black" d="M368.4,-428.028C342.189,-431.812 311.195,-436.287 285.893,-439.941"/>
<polygon fill="none" stroke="black" points="285.184,-436.507 275.786,-441.4 286.184,-443.435 285.184,-436.507"/>
</g>
<!-- _Aura_Web_Exception_NoAcceptableView -->
<g id="node8" class="node"><title>_Aura_Web_Exception_NoAcceptableView</title>
<a xlink:href="db_src_Exception_NoAcceptableView.html" xlink:title="NoAcceptableView" target="_parent">
<polygon fill="none" stroke="black" points="486,-384 362,-384 362,-348 486,-348 486,-384"/>
<text text-anchor="middle" x="424" y="-363.1" font-family="Courier New" font-size="11.00">NoAcceptableView</text>
</a>
</g>
<!-- _Aura_Web_Exception_NoAcceptableView&#45;&gt;_Aura_Web_Exception -->
<g id="edge14" class="edge"><title>_Aura_Web_Exception_NoAcceptableView-&gt;_Aura_Web_Exception</title>
<path fill="none" stroke="black" d="M363.435,-384.087C355.475,-386.865 347.487,-389.861 340,-393 318.717,-401.921 295.907,-413.641 277.176,-423.881"/>
<polygon fill="none" stroke="black" points="275.39,-420.869 268.333,-428.771 278.778,-426.995 275.39,-420.869"/>
</g>
<!-- _Aura_Web_Exception_Context -->
<g id="node9" class="node"><title>_Aura_Web_Exception_Context</title>
<a xlink:href="db_src_Exception_Context.html" xlink:title="Context" target="_parent">
<polygon fill="none" stroke="black" points="456,-330 392,-330 392,-294 456,-294 456,-330"/>
<text text-anchor="middle" x="424" y="-309.1" font-family="Courier New" font-size="11.00">Context</text>
</a>
</g>
<!-- _Aura_Web_Exception_Context&#45;&gt;_Aura_Web_Exception -->
<g id="edge16" class="edge"><title>_Aura_Web_Exception_Context-&gt;_Aura_Web_Exception</title>
<path fill="none" stroke="black" d="M391.659,-318.392C375.328,-322.583 355.703,-329.154 340,-339 305.636,-360.547 274.784,-396.126 255.999,-420.519"/>
<polygon fill="none" stroke="black" points="253.101,-418.549 249.872,-428.64 258.689,-422.765 253.101,-418.549"/>
</g>
<!-- _Aura_Web_ControllerFactory -->
<g id="node10" class="node"><title>_Aura_Web_ControllerFactory</title>
<a xlink:href="db_src_ControllerFactory.html" xlink:title="ControllerFactory" target="_parent">
<polygon fill="none" stroke="black" points="489,-276 359,-276 359,-240 489,-240 489,-276"/>
<text text-anchor="middle" x="424" y="-255.1" font-family="Courier New" font-size="11.00">ControllerFactory</text>
</a>
</g>
<!-- _Aura_Web_ResponseTransfer -->
<g id="node11" class="node"><title>_Aura_Web_ResponseTransfer</title>
<a xlink:href="db_src_ResponseTransfer.html" xlink:title="ResponseTransfer" target="_parent">
<polygon fill="none" stroke="black" points="486,-222 362,-222 362,-186 486,-186 486,-222"/>
<text text-anchor="middle" x="424" y="-201.1" font-family="Courier New" font-size="11.00">ResponseTransfer</text>
</a>
</g>
<!-- _Aura_Web_Page -->
<g id="node12" class="node"><title>_Aura_Web_Page</title>
<a xlink:href="db_src_Page.html" xlink:title="&lt;I&gt;_Aura_Web_Page&lt;/I&gt;" target="_parent">
<polygon fill="none" stroke="black" points="480,-168 368,-168 368,-132 480,-132 480,-168"/>
<text text-anchor="start" x="376.5" y="-147.933" font-family="Courier New" font-size="11.00">_Aura_Web_Page</text>
</a>
</g>
<!-- _Aura_Web_Context -->
<g id="node13" class="node"><title>_Aura_Web_Context</title>
<a xlink:href="db_src_Context.html" xlink:title="Context" target="_parent">
<polygon fill="none" stroke="black" points="456,-114 392,-114 392,-78 456,-78 456,-114"/>
<text text-anchor="middle" x="424" y="-93.1" font-family="Courier New" font-size="11.00">Context</text>
</a>
</g>
<!-- _Exception -->
<g id="node24" class="node"><title>_Exception</title>
<ellipse fill="none" stroke="black" cx="63" cy="-447" rx="62.9325" ry="18.3848"/>
<text text-anchor="middle" x="63" y="-443.4" font-family="Times Roman,serif" font-size="14.00" fill="gray">\Exception</text>
</g>
<!-- _Aura_Web_Exception&#45;&gt;_Exception -->
<g id="edge18" class="edge"><title>_Aura_Web_Exception-&gt;_Exception</title>
<path fill="none" stroke="black" d="M198.384,-447C180.06,-447 157.538,-447 136.16,-447"/>
<polygon fill="none" stroke="black" points="136.11,-443.5 126.11,-447 136.11,-450.5 136.11,-443.5"/>
</g>
<!-- _Aura_Web_Csrf -->
<g id="node15" class="node"><title>_Aura_Web_Csrf</title>
<a xlink:href="db_src_Csrf.html" xlink:title="Csrf" target="_parent">
<polygon fill="none" stroke="black" points="451,-60 397,-60 397,-24 451,-24 451,-60"/>
<text text-anchor="middle" x="424" y="-39.1" font-family="Courier New" font-size="11.00">Csrf</text>
</a>
</g>
</g>
<script xlink:href="js/SVGPan.js"/></svg>
