<?xml version="1.0" encoding="UTF-8" standalone="no"?>
<!DOCTYPE svg PUBLIC "-//W3C//DTD SVG 1.1//EN"
 "http://www.w3.org/Graphics/SVG/1.1/DTD/svg11.dtd">
<!-- Generated by graphviz version 2.26.3 (20100126.1600)
 -->
<!-- Title: G Pages: 1 -->
<svg width="526pt" height="544pt"
 viewBox="0.00 0.00 526.00 544.00" xmlns="http://www.w3.org/2000/svg" xmlns:xlink="http://www.w3.org/1999/xlink">
<g id="graph1" class="graph" transform="scale(1 1) rotate(0) translate(4 540)">
<title>G</title>
<polygon fill="white" stroke="white" points="-4,5 -4,-540 523,-540 523,5 -4,5"/>
<g id="graph2" class="cluster"><title>cluster_Aura</title>
<polyline fill="none" stroke="gray" points="194,-8 498,-8 "/>
<path fill="none" stroke="gray" d="M498,-8C504,-8 510,-14 510,-20"/>
<polyline fill="none" stroke="gray" points="510,-20 510,-516 "/>
<path fill="none" stroke="gray" d="M510,-516C510,-522 504,-528 498,-528"/>
<polyline fill="none" stroke="gray" points="498,-528 194,-528 "/>
<path fill="none" stroke="gray" d="M194,-528C188,-528 182,-522 182,-516"/>
<polyline fill="none" stroke="gray" points="182,-516 182,-20 "/>
<path fill="none" stroke="gray" d="M182,-20C182,-14 188,-8 194,-8"/>
<text text-anchor="middle" x="346" y="-514.1" font-family="Times Roman,serif" font-size="11.00" fill="gray">Aura</text>
</g>
<g id="graph3" class="cluster"><title>cluster_Aura\Web</title>
<polyline fill="none" stroke="gray" points="202,-16 490,-16 "/>
<path fill="none" stroke="gray" d="M490,-16C496,-16 502,-22 502,-28"/>
<polyline fill="none" stroke="gray" points="502,-28 502,-486 "/>
<path fill="none" stroke="gray" d="M502,-486C502,-492 496,-498 490,-498"/>
<polyline fill="none" stroke="gray" points="490,-498 202,-498 "/>
<path fill="none" stroke="gray" d="M202,-498C196,-498 190,-492 190,-486"/>
<polyline fill="none" stroke="gray" points="190,-486 190,-28 "/>
<path fill="none" stroke="gray" d="M190,-28C190,-22 196,-16 202,-16"/>
<text text-anchor="middle" x="346" y="-484.1" font-family="Times Roman,serif" font-size="11.00" fill="gray">Web</text>
</g>
<g id="graph4" class="cluster"><title>cluster_Aura\Web\Exception</title>
<polyline fill="none" stroke="gray" points="352,-178 482,-178 "/>
<path fill="none" stroke="gray" d="M482,-178C488,-178 494,-184 494,-190"/>
<polyline fill="none" stroke="gray" points="494,-190 494,-456 "/>
<path fill="none" stroke="gray" d="M494,-456C494,-462 488,-468 482,-468"/>
<polyline fill="none" stroke="gray" points="482,-468 352,-468 "/>
<path fill="none" stroke="gray" d="M352,-468C346,-468 340,-462 340,-456"/>
<polyline fill="none" stroke="gray" points="340,-456 340,-190 "/>
<path fill="none" stroke="gray" d="M340,-190C340,-184 346,-178 352,-178"/>
<text text-anchor="middle" x="417" y="-454.1" font-family="Times Roman,serif" font-size="11.00" fill="gray">Exception</text>
</g>
<!-- \\Aura\\Web\\Exception\\NoMethodForAction -->
<g id="node4" class="node"><title>\\Aura\\Web\\Exception\\NoMethodForAction</title>
<a xlink:href="db_src_Aura_Web_Exception_NoMethodForAction.html" xlink:title="NoMethodForAction" target="_parent">
<polygon fill="none" stroke="black" points="482,-438 352,-438 352,-402 482,-402 482,-438"/>
<text text-anchor="middle" x="417" y="-417.1" font-family="Courier New" font-size="11.00">NoMethodForAction</text>
</a>
</g>
<!-- \\Aura\\Web\\Exception -->
<g id="node12" class="node"><title>\\Aura\\Web\\Exception</title>
<a xlink:href="db_src_Aura_Web_Exception.html" xlink:title="Exception" target="_parent">
<polygon fill="none" stroke="black" points="275,-330 199,-330 199,-294 275,-294 275,-330"/>
<text text-anchor="middle" x="237" y="-309.1" font-family="Courier New" font-size="11.00">Exception</text>
</a>
</g>
<!-- \\Aura\\Web\\Exception\\NoMethodForAction&#45;&gt;\\Aura\\Web\\Exception -->
<g id="edge6" class="edge"><title>\\Aura\\Web\\Exception\\NoMethodForAction&#45;&gt;\\Aura\\Web\\Exception</title>
<path fill="none" stroke="black" d="M358.912,-401.97C352.394,-399.264 345.961,-396.271 340,-393 311.953,-377.612 283.64,-354.688 263.815,-337.151"/>
<polygon fill="none" stroke="black" points="265.905,-334.323 256.128,-330.242 261.226,-339.53 265.905,-334.323"/>
</g>
<!-- \\Aura\\Web\\Exception\\NoAcceptableLayout -->
<g id="node5" class="node"><title>\\Aura\\Web\\Exception\\NoAcceptableLayout</title>
<a xlink:href="db_src_Aura_Web_Exception_NoAcceptableLayout.html" xlink:title="NoAcceptableLayout" target="_parent">
<polygon fill="none" stroke="black" points="486,-384 348,-384 348,-348 486,-348 486,-384"/>
<text text-anchor="middle" x="417" y="-363.1" font-family="Courier New" font-size="11.00">NoAcceptableLayout</text>
</a>
</g>
<!-- \\Aura\\Web\\Exception\\NoAcceptableLayout&#45;&gt;\\Aura\\Web\\Exception -->
<g id="edge8" class="edge"><title>\\Aura\\Web\\Exception\\NoAcceptableLayout&#45;&gt;\\Aura\\Web\\Exception</title>
<path fill="none" stroke="black" d="M356.812,-347.944C333.592,-340.978 307.386,-333.116 285.418,-326.525"/>
<polygon fill="none" stroke="black" points="286.232,-323.116 275.648,-323.594 284.221,-329.82 286.232,-323.116"/>
</g>
<!-- \\Aura\\Web\\Exception\\MalformedToken -->
<g id="node6" class="node"><title>\\Aura\\Web\\Exception\\MalformedToken</title>
<a xlink:href="db_src_Aura_Web_Exception_MalformedToken.html" xlink:title="MalformedToken" target="_parent">
<polygon fill="none" stroke="black" points="472,-330 362,-330 362,-294 472,-294 472,-330"/>
<text text-anchor="middle" x="417" y="-309.1" font-family="Courier New" font-size="11.00">MalformedToken</text>
</a>
</g>
<!-- \\Aura\\Web\\Exception\\MalformedToken&#45;&gt;\\Aura\\Web\\Exception -->
<g id="edge10" class="edge"><title>\\Aura\\Web\\Exception\\MalformedToken&#45;&gt;\\Aura\\Web\\Exception</title>
<path fill="none" stroke="black" d="M361.034,-312C336.959,-312 309.075,-312 285.85,-312"/>
<polygon fill="none" stroke="black" points="285.537,-308.5 275.537,-312 285.537,-315.5 285.537,-308.5"/>
</g>
<!-- \\Aura\\Web\\Exception\\NoAcceptableView -->
<g id="node7" class="node"><title>\\Aura\\Web\\Exception\\NoAcceptableView</title>
<a xlink:href="db_src_Aura_Web_Exception_NoAcceptableView.html" xlink:title="NoAcceptableView" target="_parent">
<polygon fill="none" stroke="black" points="479,-276 355,-276 355,-240 479,-240 479,-276"/>
<text text-anchor="middle" x="417" y="-255.1" font-family="Courier New" font-size="11.00">NoAcceptableView</text>
</a>
</g>
<!-- \\Aura\\Web\\Exception\\NoAcceptableView&#45;&gt;\\Aura\\Web\\Exception -->
<g id="edge12" class="edge"><title>\\Aura\\Web\\Exception\\NoAcceptableView&#45;&gt;\\Aura\\Web\\Exception</title>
<path fill="none" stroke="black" d="M356.812,-276.056C333.592,-283.022 307.386,-290.884 285.418,-297.475"/>
<polygon fill="none" stroke="black" points="284.221,-294.18 275.648,-300.406 286.232,-300.884 284.221,-294.18"/>
</g>
<!-- \\Aura\\Web\\Exception\\Context -->
<g id="node8" class="node"><title>\\Aura\\Web\\Exception\\Context</title>
<a xlink:href="db_src_Aura_Web_Exception_Context.html" xlink:title="Context" target="_parent">
<polygon fill="none" stroke="black" points="449,-222 385,-222 385,-186 449,-186 449,-222"/>
<text text-anchor="middle" x="417" y="-201.1" font-family="Courier New" font-size="11.00">Context</text>
</a>
</g>
<!-- \\Aura\\Web\\Exception\\Context&#45;&gt;\\Aura\\Web\\Exception -->
<g id="edge14" class="edge"><title>\\Aura\\Web\\Exception\\Context&#45;&gt;\\Aura\\Web\\Exception</title>
<path fill="none" stroke="black" d="M384.9,-212.654C370.681,-217.137 354.034,-223.3 340,-231 311.953,-246.388 283.64,-269.312 263.815,-286.849"/>
<polygon fill="none" stroke="black" points="261.226,-284.47 256.128,-293.758 265.905,-289.677 261.226,-284.47"/>
</g>
<!-- \\Aura\\Web\\ResponseTransfer -->
<g id="node9" class="node"><title>\\Aura\\Web\\ResponseTransfer</title>
<a xlink:href="db_src_Aura_Web_ResponseTransfer.html" xlink:title="ResponseTransfer" target="_parent">
<polygon fill="none" stroke="black" points="479,-168 355,-168 355,-132 479,-132 479,-168"/>
<text text-anchor="middle" x="417" y="-147.1" font-family="Courier New" font-size="11.00">ResponseTransfer</text>
</a>
</g>
<!-- \\Aura\\Web\\Page -->
<g id="node10" class="node"><title>\\Aura\\Web\\Page</title>
<a xlink:href="db_src_Aura_Web_Page.html" xlink:title="«abstract»&lt;br/&gt;Page" target="_parent">
<polygon fill="none" stroke="black" points="459,-114 375,-114 375,-78 459,-78 459,-114"/>
<text text-anchor="start" x="383" y="-101.433" font-family="Courier New" font-size="11.00">«abstract»</text>
<text text-anchor="start" x="403" y="-88.2333" font-family="Courier New" font-size="11.00">Page</text>
</a>
</g>
<!-- \\Aura\\Web\\Context -->
<g id="node11" class="node"><title>\\Aura\\Web\\Context</title>
<a xlink:href="db_src_Aura_Web_Context.html" xlink:title="Context" target="_parent">
<polygon fill="none" stroke="black" points="449,-60 385,-60 385,-24 449,-24 449,-60"/>
<text text-anchor="middle" x="417" y="-39.1" font-family="Courier New" font-size="11.00">Context</text>
</a>
</g>
<!-- \\Exception -->
<g id="node20" class="node"><title>\\Exception</title>
<ellipse fill="none" stroke="black" cx="63" cy="-312" rx="62.9325" ry="18.3848"/>
<text text-anchor="middle" x="63" y="-308.4" font-family="Times Roman,serif" font-size="14.00" fill="gray">\Exception</text>
</g>
<!-- \\Aura\\Web\\Exception&#45;&gt;\\Exception -->
<g id="edge16" class="edge"><title>\\Aura\\Web\\Exception&#45;&gt;\\Exception</title>
<path fill="none" stroke="black" d="M198.384,-312C180.06,-312 157.538,-312 136.16,-312"/>
<polygon fill="none" stroke="black" points="136.11,-308.5 126.11,-312 136.11,-315.5 136.11,-308.5"/>
</g>
</g>
</svg>
