<?xml version="1.0" encoding="UTF-8" standalone="no"?>
<!DOCTYPE svg PUBLIC "-//W3C//DTD SVG 1.1//EN"
 "http://www.w3.org/Graphics/SVG/1.1/DTD/svg11.dtd">
<!-- Generated by graphviz version 2.26.3 (20100126.1600)
 -->
<!-- Title: G Pages: 1 -->
<svg width="795pt" height="1120pt"
 viewBox="0.00 0.00 795.00 1120.00" xmlns="http://www.w3.org/2000/svg" xmlns:xlink="http://www.w3.org/1999/xlink">
<g id="graph1" class="graph" transform="scale(1 1) rotate(0) translate(4 1116)">
<title>G</title>
<polygon fill="white" stroke="white" points="-4,5 -4,-1116 792,-1116 792,5 -4,5"/>
<g id="graph2" class="cluster"><title>cluster_Aura</title>
<polyline fill="none" stroke="gray" points="316,-44 767,-44 "/>
<path fill="none" stroke="gray" d="M767,-44C773,-44 779,-50 779,-56"/>
<polyline fill="none" stroke="gray" points="779,-56 779,-1092 "/>
<path fill="none" stroke="gray" d="M779,-1092C779,-1098 773,-1104 767,-1104"/>
<polyline fill="none" stroke="gray" points="767,-1104 316,-1104 "/>
<path fill="none" stroke="gray" d="M316,-1104C310,-1104 304,-1098 304,-1092"/>
<polyline fill="none" stroke="gray" points="304,-1092 304,-56 "/>
<path fill="none" stroke="gray" d="M304,-56C304,-50 310,-44 316,-44"/>
<text text-anchor="middle" x="541.5" y="-1090.1" font-family="Times Roman,serif" font-size="11.00" fill="gray">Aura</text>
</g>
<g id="graph3" class="cluster"><title>cluster_Aura\Web</title>
<polyline fill="none" stroke="gray" points="324,-52 759,-52 "/>
<path fill="none" stroke="gray" d="M759,-52C765,-52 771,-58 771,-64"/>
<polyline fill="none" stroke="gray" points="771,-64 771,-1062 "/>
<path fill="none" stroke="gray" d="M771,-1062C771,-1068 765,-1074 759,-1074"/>
<polyline fill="none" stroke="gray" points="759,-1074 324,-1074 "/>
<path fill="none" stroke="gray" d="M324,-1074C318,-1074 312,-1068 312,-1062"/>
<polyline fill="none" stroke="gray" points="312,-1062 312,-64 "/>
<path fill="none" stroke="gray" d="M312,-64C312,-58 318,-52 324,-52"/>
<text text-anchor="middle" x="541.5" y="-1060.1" font-family="Times Roman,serif" font-size="11.00" fill="gray">Web</text>
</g>
<g id="graph4" class="cluster"><title>cluster_Aura\Web\Exception</title>
<polyline fill="none" stroke="gray" points="607,-700 751,-700 "/>
<path fill="none" stroke="gray" d="M751,-700C757,-700 763,-706 763,-712"/>
<polyline fill="none" stroke="gray" points="763,-712 763,-1032 "/>
<path fill="none" stroke="gray" d="M763,-1032C763,-1038 757,-1044 751,-1044"/>
<polyline fill="none" stroke="gray" points="751,-1044 607,-1044 "/>
<path fill="none" stroke="gray" d="M607,-1044C601,-1044 595,-1038 595,-1032"/>
<polyline fill="none" stroke="gray" points="595,-1032 595,-712 "/>
<path fill="none" stroke="gray" d="M595,-712C595,-706 601,-700 607,-700"/>
<text text-anchor="middle" x="679" y="-1030.1" font-family="Times Roman,serif" font-size="11.00" fill="gray">Exception</text>
</g>
<!-- \\Aura\\Web\\Exception\\NoClassForController -->
<g id="node4" class="node"><title>\\Aura\\Web\\Exception\\NoClassForController</title>
<a xlink:href="db_src_Exception_NoClassForController.html" xlink:title="NoClassForController" target="_parent">
<polygon fill="none" stroke="black" points="755,-1014 603,-1014 603,-978 755,-978 755,-1014"/>
<text text-anchor="middle" x="679" y="-993.1" font-family="Courier New" font-size="11.00">NoClassForController</text>
</a>
</g>
<!-- \\Aura\\Web\\Exception -->
<g id="node22" class="node"><title>\\Aura\\Web\\Exception</title>
<a xlink:href="db_src_Exception.html" xlink:title="Exception" target="_parent">
<polygon fill="none" stroke="black" points="401,-879 325,-879 325,-843 401,-843 401,-879"/>
<text text-anchor="middle" x="363" y="-858.1" font-family="Courier New" font-size="11.00">Exception</text>
</a>
</g>
<!-- \\Aura\\Web\\Exception\\NoClassForController&#45;&gt;\\Aura\\Web\\Exception -->
<g id="edge19" class="edge"><title>\\Aura\\Web\\Exception\\NoClassForController&#45;&gt;\\Aura\\Web\\Exception</title>
<path fill="none" stroke="black" d="M619.474,-977.886C611.196,-975.072 602.845,-972.073 595,-969 528.24,-942.849 453.454,-906.75 407.291,-883.637"/>
<polygon fill="none" stroke="black" points="408.676,-880.417 398.17,-879.053 405.533,-886.671 408.676,-880.417"/>
</g>
<!-- \\Aura\\Web\\Exception\\NoMethodForAction -->
<g id="node5" class="node"><title>\\Aura\\Web\\Exception\\NoMethodForAction</title>
<a xlink:href="db_src_Exception_NoMethodForAction.html" xlink:title="NoMethodForAction" target="_parent">
<polygon fill="none" stroke="black" points="744,-960 614,-960 614,-924 744,-924 744,-960"/>
<text text-anchor="middle" x="679" y="-939.1" font-family="Courier New" font-size="11.00">NoMethodForAction</text>
</a>
</g>
<!-- \\Aura\\Web\\Exception\\NoMethodForAction&#45;&gt;\\Aura\\Web\\Exception -->
<g id="edge21" class="edge"><title>\\Aura\\Web\\Exception\\NoMethodForAction&#45;&gt;\\Aura\\Web\\Exception</title>
<path fill="none" stroke="black" d="M613.141,-925.118C553.156,-909.743 465.936,-887.385 411.927,-873.541"/>
<polygon fill="none" stroke="black" points="412.47,-870.068 401.914,-870.975 410.732,-876.848 412.47,-870.068"/>
</g>
<!-- \\Aura\\Web\\Exception\\NoAcceptableLayout -->
<g id="node6" class="node"><title>\\Aura\\Web\\Exception\\NoAcceptableLayout</title>
<a xlink:href="db_src_Exception_NoAcceptableLayout.html" xlink:title="NoAcceptableLayout" target="_parent">
<polygon fill="none" stroke="black" points="748,-906 610,-906 610,-870 748,-870 748,-906"/>
<text text-anchor="middle" x="679" y="-885.1" font-family="Courier New" font-size="11.00">NoAcceptableLayout</text>
</a>
</g>
<!-- \\Aura\\Web\\Exception\\NoAcceptableLayout&#45;&gt;\\Aura\\Web\\Exception -->
<g id="edge23" class="edge"><title>\\Aura\\Web\\Exception\\NoAcceptableLayout&#45;&gt;\\Aura\\Web\\Exception</title>
<path fill="none" stroke="black" d="M609.652,-882.075C549.869,-876.967 465.048,-869.719 412.067,-865.192"/>
<polygon fill="none" stroke="black" points="412.174,-861.689 401.912,-864.325 411.578,-868.664 412.174,-861.689"/>
</g>
<!-- \\Aura\\Web\\Exception\\MalformedToken -->
<g id="node7" class="node"><title>\\Aura\\Web\\Exception\\MalformedToken</title>
<a xlink:href="db_src_Exception_MalformedToken.html" xlink:title="MalformedToken" target="_parent">
<polygon fill="none" stroke="black" points="734,-852 624,-852 624,-816 734,-816 734,-852"/>
<text text-anchor="middle" x="679" y="-831.1" font-family="Courier New" font-size="11.00">MalformedToken</text>
</a>
</g>
<!-- \\Aura\\Web\\Exception\\MalformedToken&#45;&gt;\\Aura\\Web\\Exception -->
<g id="edge25" class="edge"><title>\\Aura\\Web\\Exception\\MalformedToken&#45;&gt;\\Aura\\Web\\Exception</title>
<path fill="none" stroke="black" d="M623.233,-838.765C563.352,-843.881 469.137,-851.931 412.006,-856.813"/>
<polygon fill="none" stroke="black" points="411.452,-853.347 401.786,-857.686 412.048,-860.322 411.452,-853.347"/>
</g>
<!-- \\Aura\\Web\\Exception\\NoAcceptableView -->
<g id="node8" class="node"><title>\\Aura\\Web\\Exception\\NoAcceptableView</title>
<a xlink:href="db_src_Exception_NoAcceptableView.html" xlink:title="NoAcceptableView" target="_parent">
<polygon fill="none" stroke="black" points="741,-798 617,-798 617,-762 741,-762 741,-798"/>
<text text-anchor="middle" x="679" y="-777.1" font-family="Courier New" font-size="11.00">NoAcceptableView</text>
</a>
</g>
<!-- \\Aura\\Web\\Exception\\NoAcceptableView&#45;&gt;\\Aura\\Web\\Exception -->
<g id="edge27" class="edge"><title>\\Aura\\Web\\Exception\\NoAcceptableView&#45;&gt;\\Aura\\Web\\Exception</title>
<path fill="none" stroke="black" d="M616.191,-796.1C556.038,-811.519 466.538,-834.46 411.631,-848.534"/>
<polygon fill="none" stroke="black" points="410.614,-845.182 401.797,-851.055 412.353,-851.963 410.614,-845.182"/>
</g>
<!-- \\Aura\\Web\\Exception\\Context -->
<g id="node9" class="node"><title>\\Aura\\Web\\Exception\\Context</title>
<a xlink:href="db_src_Exception_Context.html" xlink:title="Context" target="_parent">
<polygon fill="none" stroke="black" points="711,-744 647,-744 647,-708 711,-708 711,-744"/>
<text text-anchor="middle" x="679" y="-723.1" font-family="Courier New" font-size="11.00">Context</text>
</a>
</g>
<!-- \\Aura\\Web\\Exception\\Context&#45;&gt;\\Aura\\Web\\Exception -->
<g id="edge29" class="edge"><title>\\Aura\\Web\\Exception\\Context&#45;&gt;\\Aura\\Web\\Exception</title>
<path fill="none" stroke="black" d="M646.76,-735.332C630.992,-740.156 611.83,-746.407 595,-753 528.24,-779.151 453.454,-815.25 407.291,-838.363"/>
<polygon fill="none" stroke="black" points="405.533,-835.329 398.17,-842.947 408.676,-841.583 405.533,-835.329"/>
</g>
<!-- \\Aura\\Web\\ResponseTransferTest -->
<g id="node10" class="node"><title>\\Aura\\Web\\ResponseTransferTest</title>
<a xlink:href="db_tests_ResponseTransferTest.html" xlink:title="ResponseTransferTest" target="_parent">
<polygon fill="none" stroke="black" points="755,-474 603,-474 603,-438 755,-438 755,-474"/>
<text text-anchor="middle" x="679" y="-453.1" font-family="Courier New" font-size="11.00">ResponseTransferTest</text>
</a>
</g>
<!-- \\PHPUnit_Framework_TestCase -->
<g id="node27" class="node"><title>\\PHPUnit_Framework_TestCase</title>
<ellipse fill="none" stroke="black" cx="363" cy="-18" rx="164.756" ry="18.3848"/>
<text text-anchor="middle" x="363" y="-14.4" font-family="Times Roman,serif" font-size="14.00" fill="gray">\PHPUnit_Framework_TestCase</text>
</g>
<!-- \\Aura\\Web\\ResponseTransferTest&#45;&gt;\\PHPUnit_Framework_TestCase -->
<g id="edge7" class="edge"><title>\\Aura\\Web\\ResponseTransferTest&#45;&gt;\\PHPUnit_Framework_TestCase</title>
<path fill="none" stroke="black" d="M604.875,-437.86C601.254,-435.285 597.919,-432.349 595,-429 482.028,-299.394 649.222,-169.925 528,-48 522.154,-42.1204 515.567,-37.1776 508.477,-33.0361"/>
<polygon fill="none" stroke="black" points="509.727,-29.7402 499.243,-28.2083 506.483,-35.9435 509.727,-29.7402"/>
</g>
<!-- \\Aura\\Web\\PageTest -->
<g id="node11" class="node"><title>\\Aura\\Web\\PageTest</title>
<a xlink:href="db_tests_PageTest.html" xlink:title="PageTest" target="_parent">
<polygon fill="none" stroke="black" points="714,-366 644,-366 644,-330 714,-330 714,-366"/>
<text text-anchor="middle" x="679" y="-345.1" font-family="Courier New" font-size="11.00">PageTest</text>
</a>
</g>
<!-- \\Aura\\Web\\PageTest&#45;&gt;\\PHPUnit_Framework_TestCase -->
<g id="edge9" class="edge"><title>\\Aura\\Web\\PageTest&#45;&gt;\\PHPUnit_Framework_TestCase</title>
<path fill="none" stroke="black" d="M643.256,-344.535C626.453,-341.107 607.428,-334.335 595,-321 509.819,-229.607 618.986,-133.615 528,-48 521.675,-42.0486 514.584,-37.0768 506.992,-32.9371"/>
<polygon fill="none" stroke="black" points="508.382,-29.7207 497.864,-28.4508 505.294,-36.0029 508.382,-29.7207"/>
</g>
<!-- \\Aura\\Web\\ContextTest -->
<g id="node12" class="node"><title>\\Aura\\Web\\ContextTest</title>
<a xlink:href="db_tests_ContextTest.html" xlink:title="ContextTest" target="_parent">
<polygon fill="none" stroke="black" points="724,-312 634,-312 634,-276 724,-276 724,-312"/>
<text text-anchor="middle" x="679" y="-291.1" font-family="Courier New" font-size="11.00">ContextTest</text>
</a>
</g>
<!-- \\Aura\\Web\\ContextTest&#45;&gt;\\PHPUnit_Framework_TestCase -->
<g id="edge11" class="edge"><title>\\Aura\\Web\\ContextTest&#45;&gt;\\PHPUnit_Framework_TestCase</title>
<path fill="none" stroke="black" d="M633.241,-287.691C619.419,-283.752 605.217,-277.362 595,-267 523.535,-194.52 604.06,-115.641 528,-48 521.282,-42.0254 513.784,-37.0557 505.791,-32.9353"/>
<polygon fill="none" stroke="black" points="507.116,-29.6909 496.573,-28.6359 504.157,-36.0348 507.116,-29.6909"/>
</g>
<!-- \\Aura\\Web\\MockController -->
<g id="node13" class="node"><title>\\Aura\\Web\\MockController</title>
<a xlink:href="db_tests_MockController.html" xlink:title="MockController" target="_parent">
<polygon fill="none" stroke="black" points="734,-528 624,-528 624,-492 734,-492 734,-528"/>
<text text-anchor="middle" x="679" y="-507.1" font-family="Courier New" font-size="11.00">MockController</text>
</a>
</g>
<!-- \\Aura\\Web\\MockPage -->
<g id="node14" class="node"><title>\\Aura\\Web\\MockPage</title>
<a xlink:href="db_tests_MockPage.html" xlink:title="MockPage" target="_parent">
<polygon fill="none" stroke="black" points="714,-690 644,-690 644,-654 714,-654 714,-690"/>
<text text-anchor="middle" x="679" y="-669.1" font-family="Courier New" font-size="11.00">MockPage</text>
</a>
</g>
<!-- \\Aura\\Web\\Page -->
<g id="node20" class="node"><title>\\Aura\\Web\\Page</title>
<a xlink:href="db_src_Page.html" xlink:title="«abstract»&lt;br/&gt;Page" target="_parent">
<polygon fill="none" stroke="black" points="405,-690 321,-690 321,-654 405,-654 405,-690"/>
<text text-anchor="start" x="329" y="-677.433" font-family="Courier New" font-size="11.00">«abstract»</text>
<text text-anchor="start" x="349" y="-664.233" font-family="Courier New" font-size="11.00">Page</text>
</a>
</g>
<!-- \\Aura\\Web\\MockPage&#45;&gt;\\Aura\\Web\\Page -->
<g id="edge13" class="edge"><title>\\Aura\\Web\\MockPage&#45;&gt;\\Aura\\Web\\Page</title>
<path fill="none" stroke="black" d="M643.365,-672C587.863,-672 480.454,-672 415.894,-672"/>
<polygon fill="none" stroke="black" points="415.526,-668.5 405.526,-672 415.526,-675.5 415.526,-668.5"/>
</g>
<!-- \\Aura\\Web\\PhpStream -->
<g id="node15" class="node"><title>\\Aura\\Web\\PhpStream</title>
<a xlink:href="db_tests_PhpStream.html" xlink:title="PhpStream" target="_parent">
<polygon fill="none" stroke="black" points="717,-420 641,-420 641,-384 717,-384 717,-420"/>
<text text-anchor="middle" x="679" y="-399.1" font-family="Courier New" font-size="11.00">PhpStream</text>
</a>
</g>
<!-- \\Aura\\Web\\ControllerFactoryTest -->
<g id="node16" class="node"><title>\\Aura\\Web\\ControllerFactoryTest</title>
<a xlink:href="db_tests_ControllerFactoryTest.html" xlink:title="ControllerFactoryTest" target="_parent">
<polygon fill="none" stroke="black" points="758,-582 600,-582 600,-546 758,-546 758,-582"/>
<text text-anchor="middle" x="679" y="-561.1" font-family="Courier New" font-size="11.00">ControllerFactoryTest</text>
</a>
</g>
<!-- \\Aura\\Web\\ControllerFactoryTest&#45;&gt;\\PHPUnit_Framework_TestCase -->
<g id="edge15" class="edge"><title>\\Aura\\Web\\ControllerFactoryTest&#45;&gt;\\PHPUnit_Framework_TestCase</title>
<path fill="none" stroke="black" d="M604.724,-545.989C601.141,-543.382 597.855,-540.403 595,-537 454.021,-368.936 679.689,-206.465 528,-48 522.338,-42.0846 515.928,-37.1069 509.003,-32.9322"/>
<polygon fill="none" stroke="black" points="510.437,-29.7292 499.974,-28.0636 507.115,-35.8905 510.437,-29.7292"/>
</g>
<!-- \\Aura\\Web\\CsrfTest -->
<g id="node17" class="node"><title>\\Aura\\Web\\CsrfTest</title>
<a xlink:href="db_tests_CsrfTest.html" xlink:title="CsrfTest" target="_parent">
<polygon fill="none" stroke="black" points="714,-636 644,-636 644,-600 714,-600 714,-636"/>
<text text-anchor="middle" x="679" y="-615.1" font-family="Courier New" font-size="11.00">CsrfTest</text>
</a>
</g>
<!-- \\Aura\\Web\\CsrfTest&#45;&gt;\\PHPUnit_Framework_TestCase -->
<g id="edge17" class="edge"><title>\\Aura\\Web\\CsrfTest&#45;&gt;\\PHPUnit_Framework_TestCase</title>
<path fill="none" stroke="black" d="M643.416,-615.307C626.229,-612.093 606.817,-605.28 595,-591 439.977,-403.66 694.965,-224.78 528,-48 522.448,-42.1212 516.158,-37.1649 509.356,-33.0001"/>
<polygon fill="none" stroke="black" points="510.935,-29.8745 500.484,-28.1382 507.571,-36.0132 510.935,-29.8745"/>
</g>
<!-- \\Aura\\Web\\ControllerFactory -->
<g id="node18" class="node"><title>\\Aura\\Web\\ControllerFactory</title>
<a xlink:href="db_src_ControllerFactory.html" xlink:title="ControllerFactory" target="_parent">
<polygon fill="none" stroke="black" points="744,-258 614,-258 614,-222 744,-222 744,-258"/>
<text text-anchor="middle" x="679" y="-237.1" font-family="Courier New" font-size="11.00">ControllerFactory</text>
</a>
</g>
<!-- \\Aura\\Web\\ResponseTransfer -->
<g id="node19" class="node"><title>\\Aura\\Web\\ResponseTransfer</title>
<a xlink:href="db_src_ResponseTransfer.html" xlink:title="ResponseTransfer" target="_parent">
<polygon fill="none" stroke="black" points="741,-204 617,-204 617,-168 741,-168 741,-204"/>
<text text-anchor="middle" x="679" y="-183.1" font-family="Courier New" font-size="11.00">ResponseTransfer</text>
</a>
</g>
<!-- \\Aura\\Web\\Context -->
<g id="node21" class="node"><title>\\Aura\\Web\\Context</title>
<a xlink:href="db_src_Context.html" xlink:title="Context" target="_parent">
<polygon fill="none" stroke="black" points="711,-150 647,-150 647,-114 711,-114 711,-150"/>
<text text-anchor="middle" x="679" y="-129.1" font-family="Courier New" font-size="11.00">Context</text>
</a>
</g>
<!-- \\Exception -->
<g id="node40" class="node"><title>\\Exception</title>
<ellipse fill="none" stroke="black" cx="63" cy="-861" rx="62.9325" ry="18.3848"/>
<text text-anchor="middle" x="63" y="-857.4" font-family="Times Roman,serif" font-size="14.00" fill="gray">\Exception</text>
</g>
<!-- \\Aura\\Web\\Exception&#45;&gt;\\Exception -->
<g id="edge31" class="edge"><title>\\Aura\\Web\\Exception&#45;&gt;\\Exception</title>
<path fill="none" stroke="black" d="M324.394,-861C276.972,-861 195.519,-861 136.115,-861"/>
<polygon fill="none" stroke="black" points="136.037,-857.5 126.037,-861 136.037,-864.5 136.037,-857.5"/>
</g>
<!-- \\Aura\\Web\\Csrf -->
<g id="node23" class="node"><title>\\Aura\\Web\\Csrf</title>
<a xlink:href="db_src_Csrf.html" xlink:title="Csrf" target="_parent">
<polygon fill="none" stroke="black" points="706,-96 652,-96 652,-60 706,-60 706,-96"/>
<text text-anchor="middle" x="679" y="-75.1" font-family="Courier New" font-size="11.00">Csrf</text>
</a>
</g>
</g>
</svg>
