<?xml version="1.0" encoding="UTF-8" standalone="no"?>
<!DOCTYPE svg PUBLIC "-//W3C//DTD SVG 1.1//EN" "http://www.w3.org/Graphics/SVG/1.1/DTD/svg11.dtd">
<!-- Generated by graphviz version 2.28.0 (20110509.1545)
 -->
<!-- Title: Classes Pages: 1 -->
<svg xmlns="http://www.w3.org/2000/svg" xmlns:xlink="http://www.w3.org/1999/xlink" width="594pt" height="535pt">
<g id="viewport" class="graph" transform="scale(1 1) rotate(0) translate(4 531.4)">
<title>Classes</title>
<polygon fill="white" stroke="white" points="-4,5 -4,-531.4 591,-531.4 591,5 -4,5"/>
<!-- 09a15e9660c1ebc6f429d818825ce0c6 -->
<g id="node1" class="node"><title>09a15e9660c1ebc6f429d818825ce0c6</title>
<polygon fill="white" stroke="black" points="63.1766,-360.37 0.823384,-360.37 0.823384,-324.37 63.1766,-324.37 63.1766,-360.37"/>
<text text-anchor="middle" x="32" y="-336.77" font-family="Times,serif" font-size="14.00" fill="gray">stdClass</text>
</g>
<!-- 2e1233b4e1a02ec8409b493e9c34feb3 -->
<g id="node2" class="node"><title>2e1233b4e1a02ec8409b493e9c34feb3</title>
<a xlink:href="_src_Handler.html" xlink:title="Handler" target="_top">
<polygon fill="white" stroke="black" points="220.59,-519.37 159.41,-519.37 159.41,-483.37 220.59,-483.37 220.59,-519.37"/>
<text text-anchor="middle" x="190" y="-495.77" font-family="Times,serif" font-size="14.00">Handler</text>
</a>
</g>
<!-- 2e1233b4e1a02ec8409b493e9c34feb3&#45;&gt;09a15e9660c1ebc6f429d818825ce0c6 -->
<g id="edge2" class="edge"><title>2e1233b4e1a02ec8409b493e9c34feb3-&gt;09a15e9660c1ebc6f429d818825ce0c6</title>
<path fill="none" stroke="black" d="M167.062,-483.181C157.052,-473.927 145.735,-461.982 138,-449.37 111.769,-406.598 151.101,-332.044 102,-342.37"/>
</g>
<!-- db9fafb7452be2632d9d8932189df892 -->
<g id="node3" class="node"><title>db9fafb7452be2632d9d8932189df892</title>
<a xlink:href="_src_HandlerFactory.html" xlink:title="HandlerFactory" target="_top">
<polygon fill="white" stroke="black" points="241.856,-440.37 138.144,-440.37 138.144,-404.37 241.856,-404.37 241.856,-440.37"/>
<text text-anchor="middle" x="190" y="-416.77" font-family="Times,serif" font-size="14.00">HandlerFactory</text>
</a>
</g>
<!-- db9fafb7452be2632d9d8932189df892&#45;&gt;09a15e9660c1ebc6f429d818825ce0c6 -->
<g id="edge4" class="edge"><title>db9fafb7452be2632d9d8932189df892-&gt;09a15e9660c1ebc6f429d818825ce0c6</title>
<path fill="none" stroke="black" d="M170.936,-404.354C146.784,-380.474 106.468,-341.43 102,-342.37"/>
</g>
<!-- cfb87a50ddf0ebb7504258b709f1d8ad -->
<g id="node4" class="node"><title>cfb87a50ddf0ebb7504258b709f1d8ad</title>
<a xlink:href="_src_Manager.html" xlink:title="Manager" target="_top">
<polygon fill="white" stroke="black" points="222.752,-360.37 157.248,-360.37 157.248,-324.37 222.752,-324.37 222.752,-360.37"/>
<text text-anchor="middle" x="190" y="-336.77" font-family="Times,serif" font-size="14.00">Manager</text>
</a>
</g>
<!-- cfb87a50ddf0ebb7504258b709f1d8ad&#45;&gt;09a15e9660c1ebc6f429d818825ce0c6 -->
<g id="edge6" class="edge"><title>cfb87a50ddf0ebb7504258b709f1d8ad-&gt;09a15e9660c1ebc6f429d818825ce0c6</title>
<path fill="none" stroke="black" d="M156.856,-339.232C140.299,-338.403 119.885,-338.609 102,-342.37"/>
</g>
<!-- 458182a33ce56c3db00aa5f05ec508f4 -->
<g id="node5" class="node"><title>458182a33ce56c3db00aa5f05ec508f4</title>
<a xlink:href="_src_Result.html" xlink:title="Result" target="_top">
<polygon fill="white" stroke="black" points="217,-281.37 163,-281.37 163,-245.37 217,-245.37 217,-281.37"/>
<text text-anchor="middle" x="190" y="-257.77" font-family="Times,serif" font-size="14.00">Result</text>
</a>
</g>
<!-- 458182a33ce56c3db00aa5f05ec508f4&#45;&gt;09a15e9660c1ebc6f429d818825ce0c6 -->
<g id="edge8" class="edge"><title>458182a33ce56c3db00aa5f05ec508f4-&gt;09a15e9660c1ebc6f429d818825ce0c6</title>
<path fill="none" stroke="black" d="M171.006,-281.54C148.183,-304.291 110.735,-340.533 102,-342.37"/>
</g>
<!-- f2e7eec63a166b52a53babfe3735b891 -->
<g id="node6" class="node"><title>f2e7eec63a166b52a53babfe3735b891</title>
<a xlink:href="_src_ResultFactory.html" xlink:title="ResultFactory" target="_top">
<polygon fill="white" stroke="black" points="237.046,-202.37 142.954,-202.37 142.954,-166.37 237.046,-166.37 237.046,-202.37"/>
<text text-anchor="middle" x="190" y="-178.77" font-family="Times,serif" font-size="14.00">ResultFactory</text>
</a>
</g>
<!-- f2e7eec63a166b52a53babfe3735b891&#45;&gt;09a15e9660c1ebc6f429d818825ce0c6 -->
<g id="edge10" class="edge"><title>f2e7eec63a166b52a53babfe3735b891-&gt;09a15e9660c1ebc6f429d818825ce0c6</title>
<path fill="none" stroke="black" d="M167.078,-202.569C157.071,-211.825 145.752,-223.769 138,-236.37 111.929,-278.746 150.689,-332.13 102,-342.37"/>
</g>
<!-- d1457b72c3fb323a2671125aef3eab5d -->
<g id="node7" class="node"><title>d1457b72c3fb323a2671125aef3eab5d</title>
<polygon fill="white" stroke="black" points="217,-123.37 163,-123.37 163,-87.37 217,-87.37 217,-123.37"/>
<text text-anchor="middle" x="190" y="-99.77" font-family="Times,serif" font-size="14.00" fill="gray">?</text>
</g>
<!-- d1457b72c3fb323a2671125aef3eab5d&#45;&gt;09a15e9660c1ebc6f429d818825ce0c6 -->
<g id="edge12" class="edge"><title>d1457b72c3fb323a2671125aef3eab5d-&gt;09a15e9660c1ebc6f429d818825ce0c6</title>
<path fill="none" stroke="black" d="M165.786,-123.603C155.745,-132.697 144.766,-144.498 138,-157.37 118.513,-194.443 142.986,-333.75 102,-342.37"/>
<path fill="none" stroke="black" d="M100,-342.37C91.4913,-344.159 82.2391,-344.904 73.4031,-345.061"/>
<polygon fill="none" stroke="black" points="73.311,-341.561 63.2911,-345.003 73.2709,-348.56 73.311,-341.561"/>
</g>
<!-- fe9d87595bbecb27348b863f712f1c2b -->
<g id="node8" class="node"><title>fe9d87595bbecb27348b863f712f1c2b</title>
<polygon fill="white" stroke="black" points="395.259,-123.37 322.741,-123.37 322.741,-87.37 395.259,-87.37 395.259,-123.37"/>
<text text-anchor="middle" x="359" y="-99.77" font-family="Times,serif" font-size="14.00" fill="gray">Exception</text>
</g>
<!-- fe9d87595bbecb27348b863f712f1c2b&#45;&gt;d1457b72c3fb323a2671125aef3eab5d -->
<g id="edge14" class="edge"><title>fe9d87595bbecb27348b863f712f1c2b-&gt;d1457b72c3fb323a2671125aef3eab5d</title>
<path fill="none" stroke="black" d="M322.665,-101.984C309.159,-101.568 293.715,-102.169 280,-105.37"/>
</g>
<!-- 480668c302bbf799151e3901ab6b2379 -->
<g id="node9" class="node"><title>480668c302bbf799151e3901ab6b2379</title>
<a xlink:href="_src_Exception.html" xlink:title="Exception" target="_top">
<polygon fill="white" stroke="black" points="567.259,-123.37 494.741,-123.37 494.741,-87.37 567.259,-87.37 567.259,-123.37"/>
<text text-anchor="middle" x="531" y="-99.77" font-family="Times,serif" font-size="14.00">Exception</text>
</a>
</g>
<!-- 480668c302bbf799151e3901ab6b2379&#45;&gt;fe9d87595bbecb27348b863f712f1c2b -->
<g id="edge16" class="edge"><title>480668c302bbf799151e3901ab6b2379-&gt;fe9d87595bbecb27348b863f712f1c2b</title>
<path fill="none" stroke="black" d="M494.362,-105.37C468.549,-105.37 433.44,-105.37 405.585,-105.37"/>
<polygon fill="none" stroke="black" points="405.299,-101.87 395.299,-105.37 405.299,-108.87 405.299,-101.87"/>
</g>
<!-- 5f8d28aa2f8f9bdb0731c0bd01ce9ad9 -->
<g id="node10" class="node"><title>5f8d28aa2f8f9bdb0731c0bd01ce9ad9</title>
<polygon fill="white" stroke="black" points="401.966,-44.37 316.034,-44.37 316.034,-8.37 401.966,-8.37 401.966,-44.37"/>
<text text-anchor="middle" x="359" y="-20.77" font-family="Times,serif" font-size="14.00" fill="gray">ArrayObject</text>
</g>
<!-- 5f8d28aa2f8f9bdb0731c0bd01ce9ad9&#45;&gt;d1457b72c3fb323a2671125aef3eab5d -->
<g id="edge18" class="edge"><title>5f8d28aa2f8f9bdb0731c0bd01ce9ad9-&gt;d1457b72c3fb323a2671125aef3eab5d</title>
<path fill="none" stroke="black" d="M278,-105.37C261.747,-109.164 243.315,-109.683 227.614,-109.047"/>
<polygon fill="none" stroke="black" points="227.426,-105.53 217.241,-108.448 227.023,-112.518 227.426,-105.53"/>
<path fill="none" stroke="black" d="M343.839,-44.703C326.149,-66.8348 296.236,-101.58 280,-105.37"/>
</g>
<!-- 94397a37850266db5e3a45fd12e5c26f -->
<g id="node11" class="node"><title>94397a37850266db5e3a45fd12e5c26f</title>
<a xlink:href="_src_ResultCollection.html" xlink:title="ResultCollection" target="_top">
<polygon fill="white" stroke="black" points="586.104,-44.37 475.896,-44.37 475.896,-8.37 586.104,-8.37 586.104,-44.37"/>
<text text-anchor="middle" x="531" y="-20.77" font-family="Times,serif" font-size="14.00">ResultCollection</text>
</a>
</g>
<!-- 94397a37850266db5e3a45fd12e5c26f&#45;&gt;5f8d28aa2f8f9bdb0731c0bd01ce9ad9 -->
<g id="edge20" class="edge"><title>94397a37850266db5e3a45fd12e5c26f-&gt;5f8d28aa2f8f9bdb0731c0bd01ce9ad9</title>
<path fill="none" stroke="black" d="M475.744,-26.37C455.47,-26.37 432.501,-26.37 412.398,-26.37"/>
<polygon fill="none" stroke="black" points="412.177,-22.8701 402.177,-26.37 412.177,-29.8701 412.177,-22.8701"/>
</g>
</g>
<script xlink:href="js/SVGPan.js"/></svg>
