<?xml version="1.0" encoding="UTF-8" standalone="no"?>
<!DOCTYPE svg PUBLIC "-//W3C//DTD SVG 1.0//EN"
 "http://www.w3.org/TR/2001/REC-SVG-20010904/DTD/svg10.dtd" [
 <!ATTLIST svg xmlns:xlink CDATA #FIXED "http://www.w3.org/1999/xlink">
]>
<!-- Generated by Graphviz version 2.20.2 (Tue Mar &#160;2 21:46:26 UTC 2010)
     For user: (mvriel) Mike van Riel,,, -->
<!-- Title: Classes Pages: 1 -->
<svg width="648pt" height="583pt"
 viewBox="0.00 0.00 648.00 583.00" xmlns="http://www.w3.org/2000/svg" xmlns:xlink="http://www.w3.org/1999/xlink">
<g id="graph0" class="graph" transform="scale(1 1) rotate(0) translate(4 579)">
<title>Classes</title>
<polygon style="fill:white;stroke:white;" points="-4,4 -4,-579 644,-579 644,4 -4,4"/>
<!-- 09a15e9660c1ebc6f429d818825ce0c6 -->
<g id="node1" class="node"><title>09a15e9660c1ebc6f429d818825ce0c6</title>
<polygon style="fill:white;stroke:black;" points="72,-391 2.13163e-14,-391 7.10543e-15,-355 72,-355 72,-391"/>
<text text-anchor="middle" x="36" y="-368.9" style="font-family:Times New Roman;font-size:14.00;fill:gray;">stdClass</text>
</g>
<!-- 59b87ea6067fd62321b5e75061538b8a -->
<g id="node2" class="node"><title>59b87ea6067fd62321b5e75061538b8a</title>
<a xlink:href="src_Handler.html" xlink:title="Handler" target="_top">
<polygon style="fill:white;stroke:black;" points="241,-564 171,-564 171,-528 241,-528 241,-564"/>
<text text-anchor="middle" x="206" y="-541.9" style="font-family:Times New Roman;font-size:14.00;">Handler</text>
</a>
</g>
<!-- 59b87ea6067fd62321b5e75061538b8a&#45;&gt;09a15e9660c1ebc6f429d818825ce0c6 -->
<g id="edge2" class="edge"><title>59b87ea6067fd62321b5e75061538b8a&#45;&gt;09a15e9660c1ebc6f429d818825ce0c6</title>
<path style="fill:none;stroke:black;" d="M183,-528C170,-517 155,-502 146,-487 117,-441 161,-361 109,-373"/>
</g>
<!-- fc5acfb3e1e78d6ed7e52d2967f7ecdd -->
<g id="node3" class="node"><title>fc5acfb3e1e78d6ed7e52d2967f7ecdd</title>
<a xlink:href="src_Manager.html" xlink:title="Manager" target="_top">
<polygon style="fill:white;stroke:black;" points="244,-478 168,-478 168,-442 244,-442 244,-478"/>
<text text-anchor="middle" x="206" y="-455.9" style="font-family:Times New Roman;font-size:14.00;">Manager</text>
</a>
</g>
<!-- fc5acfb3e1e78d6ed7e52d2967f7ecdd&#45;&gt;09a15e9660c1ebc6f429d818825ce0c6 -->
<g id="edge4" class="edge"><title>fc5acfb3e1e78d6ed7e52d2967f7ecdd&#45;&gt;09a15e9660c1ebc6f429d818825ce0c6</title>
<path style="fill:none;stroke:black;" d="M187,-442C160,-416 114,-372 109,-373"/>
</g>
<!-- 7c2ec4b79595259e2b35e100d5fc962d -->
<g id="node4" class="node"><title>7c2ec4b79595259e2b35e100d5fc962d</title>
<a xlink:href="src_HandlerFactory.html" xlink:title="HandlerFactory" target="_top">
<polygon style="fill:white;stroke:black;" points="266,-391 146,-391 146,-355 266,-355 266,-391"/>
<text text-anchor="middle" x="206" y="-368.9" style="font-family:Times New Roman;font-size:14.00;">HandlerFactory</text>
</a>
</g>
<!-- 7c2ec4b79595259e2b35e100d5fc962d&#45;&gt;09a15e9660c1ebc6f429d818825ce0c6 -->
<g id="edge6" class="edge"><title>7c2ec4b79595259e2b35e100d5fc962d&#45;&gt;09a15e9660c1ebc6f429d818825ce0c6</title>
<path style="fill:none;stroke:black;" d="M146,-369C133,-369 121,-370 109,-373"/>
</g>
<!-- d82e37a1a2f2ef5beeb10814ec4e2187 -->
<g id="node5" class="node"><title>d82e37a1a2f2ef5beeb10814ec4e2187</title>
<a xlink:href="src_Result.html" xlink:title="Result" target="_top">
<polygon style="fill:white;stroke:black;" points="235,-305 177,-305 177,-269 235,-269 235,-305"/>
<text text-anchor="middle" x="206" y="-282.9" style="font-family:Times New Roman;font-size:14.00;">Result</text>
</a>
</g>
<!-- d82e37a1a2f2ef5beeb10814ec4e2187&#45;&gt;09a15e9660c1ebc6f429d818825ce0c6 -->
<g id="edge8" class="edge"><title>d82e37a1a2f2ef5beeb10814ec4e2187&#45;&gt;09a15e9660c1ebc6f429d818825ce0c6</title>
<path style="fill:none;stroke:black;" d="M188,-305C162,-330 119,-371 109,-373"/>
</g>
<!-- dc6aae3b8b239952b154dfc736f10a26 -->
<g id="node6" class="node"><title>dc6aae3b8b239952b154dfc736f10a26</title>
<a xlink:href="src_ResultFactory.html" xlink:title="ResultFactory" target="_top">
<polygon style="fill:white;stroke:black;" points="260,-218 152,-218 152,-182 260,-182 260,-218"/>
<text text-anchor="middle" x="206" y="-195.9" style="font-family:Times New Roman;font-size:14.00;">ResultFactory</text>
</a>
</g>
<!-- dc6aae3b8b239952b154dfc736f10a26&#45;&gt;09a15e9660c1ebc6f429d818825ce0c6 -->
<g id="edge10" class="edge"><title>dc6aae3b8b239952b154dfc736f10a26&#45;&gt;09a15e9660c1ebc6f429d818825ce0c6</title>
<path style="fill:none;stroke:black;" d="M183,-218C170,-229 155,-244 146,-260 118,-305 160,-362 109,-373"/>
</g>
<!-- d1457b72c3fb323a2671125aef3eab5d -->
<g id="node7" class="node"><title>d1457b72c3fb323a2671125aef3eab5d</title>
<polygon style="fill:white;stroke:black;" points="233,-132 179,-132 179,-96 233,-96 233,-132"/>
<text text-anchor="middle" x="206" y="-109.9" style="font-family:Times New Roman;font-size:14.00;fill:gray;">?</text>
</g>
<!-- d1457b72c3fb323a2671125aef3eab5d&#45;&gt;09a15e9660c1ebc6f429d818825ce0c6 -->
<g id="edge12" class="edge"><title>d1457b72c3fb323a2671125aef3eab5d&#45;&gt;09a15e9660c1ebc6f429d818825ce0c6</title>
<path style="fill:none;stroke:black;" d="M181,-132C168,-143 154,-157 146,-173 124,-212 153,-363 109,-373"/>
<path style="fill:none;stroke:black;" d="M109,-373C100,-374 91,-375 82,-376"/>
<polygon style="fill:none;stroke:black;" points="82,-372.5 72,-376 82,-379.5 82,-372.5"/>
</g>
<!-- fe9d87595bbecb27348b863f712f1c2b -->
<g id="node8" class="node"><title>fe9d87595bbecb27348b863f712f1c2b</title>
<polygon style="fill:white;stroke:black;" points="432,-132 348,-132 348,-96 432,-96 432,-132"/>
<text text-anchor="middle" x="390" y="-109.9" style="font-family:Times New Roman;font-size:14.00;fill:gray;">Exception</text>
</g>
<!-- fe9d87595bbecb27348b863f712f1c2b&#45;&gt;d1457b72c3fb323a2671125aef3eab5d -->
<g id="edge14" class="edge"><title>fe9d87595bbecb27348b863f712f1c2b&#45;&gt;d1457b72c3fb323a2671125aef3eab5d</title>
<path style="fill:none;stroke:black;" d="M348,-110C333,-110 317,-111 303,-114"/>
</g>
<!-- 77fcf54dd2289c30006ae1117dd91fae -->
<g id="node9" class="node"><title>77fcf54dd2289c30006ae1117dd91fae</title>
<a xlink:href="src_Exception.html" xlink:title="Exception" target="_top">
<polygon style="fill:white;stroke:black;" points="619,-132 535,-132 535,-96 619,-96 619,-132"/>
<text text-anchor="middle" x="577" y="-109.9" style="font-family:Times New Roman;font-size:14.00;">Exception</text>
</a>
</g>
<!-- 77fcf54dd2289c30006ae1117dd91fae&#45;&gt;fe9d87595bbecb27348b863f712f1c2b -->
<g id="edge16" class="edge"><title>77fcf54dd2289c30006ae1117dd91fae&#45;&gt;fe9d87595bbecb27348b863f712f1c2b</title>
<path style="fill:none;stroke:black;" d="M535,-114C507,-114 472,-114 442,-114"/>
<polygon style="fill:none;stroke:black;" points="442,-110.5 432,-114 442,-117.5 442,-110.5"/>
</g>
<!-- 5f8d28aa2f8f9bdb0731c0bd01ce9ad9 -->
<g id="node10" class="node"><title>5f8d28aa2f8f9bdb0731c0bd01ce9ad9</title>
<polygon style="fill:white;stroke:black;" points="439,-46 341,-46 341,-10 439,-10 439,-46"/>
<text text-anchor="middle" x="390" y="-23.9" style="font-family:Times New Roman;font-size:14.00;fill:gray;">ArrayObject</text>
</g>
<!-- 5f8d28aa2f8f9bdb0731c0bd01ce9ad9&#45;&gt;d1457b72c3fb323a2671125aef3eab5d -->
<g id="edge18" class="edge"><title>5f8d28aa2f8f9bdb0731c0bd01ce9ad9&#45;&gt;d1457b72c3fb323a2671125aef3eab5d</title>
<path style="fill:none;stroke:black;" d="M375,-46C356,-70 321,-109 303,-114"/>
<path style="fill:none;stroke:black;" d="M303,-114C284,-118 262,-118 243,-117"/>
<polygon style="fill:none;stroke:black;" points="243,-113.5 233,-117 243,-120.5 243,-113.5"/>
</g>
<!-- cd8c1462a531a5e0a56a4207928158db -->
<g id="node11" class="node"><title>cd8c1462a531a5e0a56a4207928158db</title>
<a xlink:href="src_ResultCollection.html" xlink:title="ResultCollection" target="_top">
<polygon style="fill:white;stroke:black;" points="640,-46 514,-46 514,-10 640,-10 640,-46"/>
<text text-anchor="middle" x="577" y="-23.9" style="font-family:Times New Roman;font-size:14.00;">ResultCollection</text>
</a>
</g>
<!-- cd8c1462a531a5e0a56a4207928158db&#45;&gt;5f8d28aa2f8f9bdb0731c0bd01ce9ad9 -->
<g id="edge20" class="edge"><title>cd8c1462a531a5e0a56a4207928158db&#45;&gt;5f8d28aa2f8f9bdb0731c0bd01ce9ad9</title>
<path style="fill:none;stroke:black;" d="M514,-28C494,-28 470,-28 450,-28"/>
<polygon style="fill:none;stroke:black;" points="450,-24.5001 440,-28 450,-31.5001 450,-24.5001"/>
</g>
</g>
</svg>
