<?xml version="1.0" encoding="UTF-8" standalone="no"?>
<!DOCTYPE svg PUBLIC "-//W3C//DTD SVG 1.1//EN"
 "http://www.w3.org/Graphics/SVG/1.1/DTD/svg11.dtd">
<!-- Generated by graphviz version 2.26.3 (20100126.1600)
 -->
<!-- Title: G Pages: 1 -->
<svg width="586pt" height="676pt"
 viewBox="0.00 0.00 586.00 676.00" xmlns="http://www.w3.org/2000/svg" xmlns:xlink="http://www.w3.org/1999/xlink">
<g id="graph1" class="graph" transform="scale(1 1) rotate(0) translate(4 672)">
<title>G</title>
<polygon fill="white" stroke="white" points="-4,5 -4,-672 583,-672 583,5 -4,5"/>
<g id="graph2" class="cluster"><title>cluster_Aura</title>
<polyline fill="none" stroke="gray" points="398,-8 558,-8 "/>
<path fill="none" stroke="gray" d="M558,-8C564,-8 570,-14 570,-20"/>
<polyline fill="none" stroke="gray" points="570,-20 570,-648 "/>
<path fill="none" stroke="gray" d="M570,-648C570,-654 564,-660 558,-660"/>
<polyline fill="none" stroke="gray" points="558,-660 398,-660 "/>
<path fill="none" stroke="gray" d="M398,-660C392,-660 386,-654 386,-648"/>
<polyline fill="none" stroke="gray" points="386,-648 386,-20 "/>
<path fill="none" stroke="gray" d="M386,-20C386,-14 392,-8 398,-8"/>
<text text-anchor="middle" x="478" y="-646.1" font-family="Times Roman,serif" font-size="11.00" fill="gray">Aura</text>
</g>
<g id="graph3" class="cluster"><title>cluster_Aura\Signal</title>
<polyline fill="none" stroke="gray" points="406,-16 550,-16 "/>
<path fill="none" stroke="gray" d="M550,-16C556,-16 562,-22 562,-28"/>
<polyline fill="none" stroke="gray" points="562,-28 562,-618 "/>
<path fill="none" stroke="gray" d="M562,-618C562,-624 556,-630 550,-630"/>
<polyline fill="none" stroke="gray" points="550,-630 406,-630 "/>
<path fill="none" stroke="gray" d="M406,-630C400,-630 394,-624 394,-618"/>
<polyline fill="none" stroke="gray" points="394,-618 394,-28 "/>
<path fill="none" stroke="gray" d="M394,-28C394,-22 400,-16 406,-16"/>
<text text-anchor="middle" x="478" y="-616.1" font-family="Times Roman,serif" font-size="11.00" fill="gray">Signal</text>
</g>
<!-- \\Aura\\Signal\\ResultTest -->
<g id="node3" class="node"><title>\\Aura\\Signal\\ResultTest</title>
<a xlink:href="db_tests_ResultTest.html" xlink:title="ResultTest" target="_parent">
<polygon fill="none" stroke="black" points="520,-600 436,-600 436,-564 520,-564 520,-600"/>
<text text-anchor="middle" x="478" y="-579.1" font-family="Courier New" font-size="11.00">ResultTest</text>
</a>
</g>
<!-- \\PHPUnit_Framework_TestCase -->
<g id="node16" class="node"><title>\\PHPUnit_Framework_TestCase</title>
<ellipse fill="none" stroke="black" cx="165" cy="-501" rx="164.756" ry="18.3848"/>
<text text-anchor="middle" x="165" y="-497.4" font-family="Times Roman,serif" font-size="14.00" fill="gray">\PHPUnit_Framework_TestCase</text>
</g>
<!-- \\Aura\\Signal\\ResultTest&#45;&gt;\\PHPUnit_Framework_TestCase -->
<g id="edge5" class="edge"><title>\\Aura\\Signal\\ResultTest&#45;&gt;\\PHPUnit_Framework_TestCase</title>
<path fill="none" stroke="black" d="M435.787,-571.076C385.522,-558.068 300.671,-536.11 239.33,-520.236"/>
<polygon fill="none" stroke="black" points="239.872,-516.761 229.314,-517.644 238.119,-523.537 239.872,-516.761"/>
</g>
<!-- \\Aura\\Signal\\ResultCollectionTest -->
<g id="node4" class="node"><title>\\Aura\\Signal\\ResultCollectionTest</title>
<a xlink:href="db_tests_ResultCollectionTest.html" xlink:title="ResultCollectionTest" target="_parent">
<polygon fill="none" stroke="black" points="554,-546 402,-546 402,-510 554,-510 554,-546"/>
<text text-anchor="middle" x="478" y="-525.1" font-family="Courier New" font-size="11.00">ResultCollectionTest</text>
</a>
</g>
<!-- \\Aura\\Signal\\ResultCollectionTest&#45;&gt;\\PHPUnit_Framework_TestCase -->
<g id="edge7" class="edge"><title>\\Aura\\Signal\\ResultCollectionTest&#45;&gt;\\PHPUnit_Framework_TestCase</title>
<path fill="none" stroke="black" d="M401.832,-521.43C372.56,-518.904 338.143,-515.936 304.755,-513.056"/>
<polygon fill="none" stroke="black" points="304.697,-509.538 294.433,-512.165 304.095,-516.512 304.697,-509.538"/>
</g>
<!-- \\Aura\\Signal\\ManagerTest -->
<g id="node5" class="node"><title>\\Aura\\Signal\\ManagerTest</title>
<a xlink:href="db_tests_ManagerTest.html" xlink:title="ManagerTest" target="_parent">
<polygon fill="none" stroke="black" points="523,-492 433,-492 433,-456 523,-456 523,-492"/>
<text text-anchor="middle" x="478" y="-471.1" font-family="Courier New" font-size="11.00">ManagerTest</text>
</a>
</g>
<!-- \\Aura\\Signal\\ManagerTest&#45;&gt;\\PHPUnit_Framework_TestCase -->
<g id="edge9" class="edge"><title>\\Aura\\Signal\\ManagerTest&#45;&gt;\\PHPUnit_Framework_TestCase</title>
<path fill="none" stroke="black" d="M432.487,-477.926C398.684,-480.842 350.647,-484.986 304.588,-488.959"/>
<polygon fill="none" stroke="black" points="304.149,-485.484 294.487,-489.83 304.751,-492.458 304.149,-485.484"/>
</g>
<!-- \\Aura\\Signal\\HandlerTest -->
<g id="node6" class="node"><title>\\Aura\\Signal\\HandlerTest</title>
<a xlink:href="db_tests_HandlerTest.html" xlink:title="HandlerTest" target="_parent">
<polygon fill="none" stroke="black" points="523,-438 433,-438 433,-402 523,-402 523,-438"/>
<text text-anchor="middle" x="478" y="-417.1" font-family="Courier New" font-size="11.00">HandlerTest</text>
</a>
</g>
<!-- \\Aura\\Signal\\HandlerTest&#45;&gt;\\PHPUnit_Framework_TestCase -->
<g id="edge11" class="edge"><title>\\Aura\\Signal\\HandlerTest&#45;&gt;\\PHPUnit_Framework_TestCase</title>
<path fill="none" stroke="black" d="M432.487,-431.778C381.815,-444.891 299.16,-466.281 239.125,-481.818"/>
<polygon fill="none" stroke="black" points="238.122,-478.462 229.318,-484.355 239.876,-485.238 238.122,-478.462"/>
</g>
<!-- \\Aura\\Signal\\Manager -->
<g id="node7" class="node"><title>\\Aura\\Signal\\Manager</title>
<a xlink:href="db_src_Manager.html" xlink:title="Manager" target="_parent">
<polygon fill="none" stroke="black" points="510,-384 446,-384 446,-348 510,-348 510,-384"/>
<text text-anchor="middle" x="478" y="-363.1" font-family="Courier New" font-size="11.00">Manager</text>
</a>
</g>
<!-- \\Aura\\Signal\\Result -->
<g id="node8" class="node"><title>\\Aura\\Signal\\Result</title>
<a xlink:href="db_src_Result.html" xlink:title="Result" target="_parent">
<polygon fill="none" stroke="black" points="506,-330 450,-330 450,-294 506,-294 506,-330"/>
<text text-anchor="middle" x="478" y="-309.1" font-family="Courier New" font-size="11.00">Result</text>
</a>
</g>
<!-- \\Aura\\Signal\\Handler -->
<g id="node9" class="node"><title>\\Aura\\Signal\\Handler</title>
<a xlink:href="db_src_Handler.html" xlink:title="Handler" target="_parent">
<polygon fill="none" stroke="black" points="510,-276 446,-276 446,-240 510,-240 510,-276"/>
<text text-anchor="middle" x="478" y="-255.1" font-family="Courier New" font-size="11.00">Handler</text>
</a>
</g>
<!-- \\Aura\\Signal\\ResultCollection -->
<g id="node10" class="node"><title>\\Aura\\Signal\\ResultCollection</title>
<a xlink:href="db_src_ResultCollection.html" xlink:title="ResultCollection" target="_parent">
<polygon fill="none" stroke="black" points="540,-222 416,-222 416,-186 540,-186 540,-222"/>
<text text-anchor="middle" x="478" y="-201.1" font-family="Courier New" font-size="11.00">ResultCollection</text>
</a>
</g>
<!-- \\ArrayObject -->
<g id="node21" class="node"><title>\\ArrayObject</title>
<ellipse fill="none" stroke="black" cx="165" cy="-204" rx="73.0388" ry="18.3848"/>
<text text-anchor="middle" x="165" y="-200.4" font-family="Times Roman,serif" font-size="14.00" fill="gray">\ArrayObject</text>
</g>
<!-- \\Aura\\Signal\\ResultCollection&#45;&gt;\\ArrayObject -->
<g id="edge13" class="edge"><title>\\Aura\\Signal\\ResultCollection&#45;&gt;\\ArrayObject</title>
<path fill="none" stroke="black" d="M415.412,-204C367.662,-204 301.402,-204 249.035,-204"/>
<polygon fill="none" stroke="black" points="248.756,-200.5 238.756,-204 248.756,-207.5 248.756,-200.5"/>
</g>
<!-- \\Aura\\Signal\\ResultFactory -->
<g id="node11" class="node"><title>\\Aura\\Signal\\ResultFactory</title>
<a xlink:href="db_src_ResultFactory.html" xlink:title="ResultFactory" target="_parent">
<polygon fill="none" stroke="black" points="530,-168 426,-168 426,-132 530,-132 530,-168"/>
<text text-anchor="middle" x="478" y="-147.1" font-family="Courier New" font-size="11.00">ResultFactory</text>
</a>
</g>
<!-- \\Aura\\Signal\\HandlerFactory -->
<g id="node12" class="node"><title>\\Aura\\Signal\\HandlerFactory</title>
<a xlink:href="db_src_HandlerFactory.html" xlink:title="HandlerFactory" target="_parent">
<polygon fill="none" stroke="black" points="533,-114 423,-114 423,-78 533,-78 533,-114"/>
<text text-anchor="middle" x="478" y="-93.1" font-family="Courier New" font-size="11.00">HandlerFactory</text>
</a>
</g>
<!-- \\Aura\\Signal\\Exception -->
<g id="node13" class="node"><title>\\Aura\\Signal\\Exception</title>
<a xlink:href="db_src_Exception.html" xlink:title="Exception" target="_parent">
<polygon fill="none" stroke="black" points="516,-60 440,-60 440,-24 516,-24 516,-60"/>
<text text-anchor="middle" x="478" y="-39.1" font-family="Courier New" font-size="11.00">Exception</text>
</a>
</g>
<!-- \\Exception -->
<g id="node23" class="node"><title>\\Exception</title>
<ellipse fill="none" stroke="black" cx="165" cy="-42" rx="62.9325" ry="18.3848"/>
<text text-anchor="middle" x="165" y="-38.4" font-family="Times Roman,serif" font-size="14.00" fill="gray">\Exception</text>
</g>
<!-- \\Aura\\Signal\\Exception&#45;&gt;\\Exception -->
<g id="edge15" class="edge"><title>\\Aura\\Signal\\Exception&#45;&gt;\\Exception</title>
<path fill="none" stroke="black" d="M439.306,-42C389.339,-42 301.344,-42 238.489,-42"/>
<polygon fill="none" stroke="black" points="238.236,-38.5001 228.236,-42 238.236,-45.5001 238.236,-38.5001"/>
</g>
</g>
</svg>
