<?xml version="1.0" encoding="UTF-8" standalone="no"?>
<!DOCTYPE svg PUBLIC "-//W3C//DTD SVG 1.1//EN"
 "http://www.w3.org/Graphics/SVG/1.1/DTD/svg11.dtd">
<!-- Generated by graphviz version 2.26.3 (20100126.1600)
 -->
<!-- Title: G Pages: 1 -->
<svg width="378pt" height="460pt"
 viewBox="0.00 0.00 378.00 460.00" xmlns="http://www.w3.org/2000/svg" xmlns:xlink="http://www.w3.org/1999/xlink">
<g id="graph1" class="graph" transform="scale(1 1) rotate(0) translate(4 456)">
<title>G</title>
<polygon fill="white" stroke="white" points="-4,5 -4,-456 375,-456 375,5 -4,5"/>
<g id="graph2" class="cluster"><title>cluster_Aura</title>
<polyline fill="none" stroke="gray" points="216,-8 350,-8 "/>
<path fill="none" stroke="gray" d="M350,-8C356,-8 362,-14 362,-20"/>
<polyline fill="none" stroke="gray" points="362,-20 362,-432 "/>
<path fill="none" stroke="gray" d="M362,-432C362,-438 356,-444 350,-444"/>
<polyline fill="none" stroke="gray" points="350,-444 216,-444 "/>
<path fill="none" stroke="gray" d="M216,-444C210,-444 204,-438 204,-432"/>
<polyline fill="none" stroke="gray" points="204,-432 204,-20 "/>
<path fill="none" stroke="gray" d="M204,-20C204,-14 210,-8 216,-8"/>
<text text-anchor="middle" x="283" y="-430.1" font-family="Times Roman,serif" font-size="11.00" fill="gray">Aura</text>
</g>
<g id="graph3" class="cluster"><title>cluster_Aura\Signal</title>
<polyline fill="none" stroke="gray" points="224,-16 342,-16 "/>
<path fill="none" stroke="gray" d="M342,-16C348,-16 354,-22 354,-28"/>
<polyline fill="none" stroke="gray" points="354,-28 354,-402 "/>
<path fill="none" stroke="gray" d="M354,-402C354,-408 348,-414 342,-414"/>
<polyline fill="none" stroke="gray" points="342,-414 224,-414 "/>
<path fill="none" stroke="gray" d="M224,-414C218,-414 212,-408 212,-402"/>
<polyline fill="none" stroke="gray" points="212,-402 212,-28 "/>
<path fill="none" stroke="gray" d="M212,-28C212,-22 218,-16 224,-16"/>
<text text-anchor="middle" x="283" y="-400.1" font-family="Times Roman,serif" font-size="11.00" fill="gray">Signal</text>
</g>
<!-- \\Aura\\Signal\\Manager -->
<g id="node3" class="node"><title>\\Aura\\Signal\\Manager</title>
<a xlink:href="db_src_Aura_Signal_Manager.html" xlink:title="Manager" target="_parent">
<polygon fill="none" stroke="black" points="315,-384 251,-384 251,-348 315,-348 315,-384"/>
<text text-anchor="middle" x="283" y="-363.1" font-family="Courier New" font-size="11.00">Manager</text>
</a>
</g>
<!-- \\Aura\\Signal\\Result -->
<g id="node4" class="node"><title>\\Aura\\Signal\\Result</title>
<a xlink:href="db_src_Aura_Signal_Result.html" xlink:title="Result" target="_parent">
<polygon fill="none" stroke="black" points="311,-330 255,-330 255,-294 311,-294 311,-330"/>
<text text-anchor="middle" x="283" y="-309.1" font-family="Courier New" font-size="11.00">Result</text>
</a>
</g>
<!-- \\Aura\\Signal\\Handler -->
<g id="node5" class="node"><title>\\Aura\\Signal\\Handler</title>
<a xlink:href="db_src_Aura_Signal_Handler.html" xlink:title="Handler" target="_parent">
<polygon fill="none" stroke="black" points="315,-276 251,-276 251,-240 315,-240 315,-276"/>
<text text-anchor="middle" x="283" y="-255.1" font-family="Courier New" font-size="11.00">Handler</text>
</a>
</g>
<!-- \\Aura\\Signal\\ResultCollection -->
<g id="node6" class="node"><title>\\Aura\\Signal\\ResultCollection</title>
<a xlink:href="db_src_Aura_Signal_ResultCollection.html" xlink:title="ResultCollection" target="_parent">
<polygon fill="none" stroke="black" points="345,-222 221,-222 221,-186 345,-186 345,-222"/>
<text text-anchor="middle" x="283" y="-201.1" font-family="Courier New" font-size="11.00">ResultCollection</text>
</a>
</g>
<!-- \\ArrayObject -->
<g id="node11" class="node"><title>\\ArrayObject</title>
<ellipse fill="none" stroke="black" cx="74" cy="-204" rx="73.0388" ry="18.3848"/>
<text text-anchor="middle" x="74" y="-200.4" font-family="Times Roman,serif" font-size="14.00" fill="gray">\ArrayObject</text>
</g>
<!-- \\Aura\\Signal\\ResultCollection&#45;&gt;\\ArrayObject -->
<g id="edge4" class="edge"><title>\\Aura\\Signal\\ResultCollection&#45;&gt;\\ArrayObject</title>
<path fill="none" stroke="black" d="M220.293,-204C200.66,-204 178.671,-204 157.826,-204"/>
<polygon fill="none" stroke="black" points="157.699,-200.5 147.699,-204 157.699,-207.5 157.699,-200.5"/>
</g>
<!-- \\Aura\\Signal\\ResultFactory -->
<g id="node7" class="node"><title>\\Aura\\Signal\\ResultFactory</title>
<a xlink:href="db_src_Aura_Signal_ResultFactory.html" xlink:title="ResultFactory" target="_parent">
<polygon fill="none" stroke="black" points="335,-168 231,-168 231,-132 335,-132 335,-168"/>
<text text-anchor="middle" x="283" y="-147.1" font-family="Courier New" font-size="11.00">ResultFactory</text>
</a>
</g>
<!-- \\Aura\\Signal\\HandlerFactory -->
<g id="node8" class="node"><title>\\Aura\\Signal\\HandlerFactory</title>
<a xlink:href="db_src_Aura_Signal_HandlerFactory.html" xlink:title="HandlerFactory" target="_parent">
<polygon fill="none" stroke="black" points="338,-114 228,-114 228,-78 338,-78 338,-114"/>
<text text-anchor="middle" x="283" y="-93.1" font-family="Courier New" font-size="11.00">HandlerFactory</text>
</a>
</g>
<!-- \\Aura\\Signal\\Exception -->
<g id="node9" class="node"><title>\\Aura\\Signal\\Exception</title>
<a xlink:href="db_src_Aura_Signal_Exception.html" xlink:title="Exception" target="_parent">
<polygon fill="none" stroke="black" points="321,-60 245,-60 245,-24 321,-24 321,-60"/>
<text text-anchor="middle" x="283" y="-39.1" font-family="Courier New" font-size="11.00">Exception</text>
</a>
</g>
<!-- \\Exception -->
<g id="node13" class="node"><title>\\Exception</title>
<ellipse fill="none" stroke="black" cx="74" cy="-42" rx="62.9325" ry="18.3848"/>
<text text-anchor="middle" x="74" y="-38.4" font-family="Times Roman,serif" font-size="14.00" fill="gray">\Exception</text>
</g>
<!-- \\Aura\\Signal\\Exception&#45;&gt;\\Exception -->
<g id="edge6" class="edge"><title>\\Aura\\Signal\\Exception&#45;&gt;\\Exception</title>
<path fill="none" stroke="black" d="M244.179,-42C217.122,-42 180.187,-42 147.64,-42"/>
<polygon fill="none" stroke="black" points="147.245,-38.5001 137.245,-42 147.245,-45.5001 147.245,-38.5001"/>
</g>
</g>
</svg>
