<?xml version="1.0" encoding="UTF-8" standalone="no"?>
<!DOCTYPE svg PUBLIC "-//W3C//DTD SVG 1.1//EN" "http://www.w3.org/Graphics/SVG/1.1/DTD/svg11.dtd">
<!-- Generated by graphviz version 2.28.0 (20110509.1545)
 -->
<!-- Title: Classes Pages: 1 -->
<svg xmlns="http://www.w3.org/2000/svg" xmlns:xlink="http://www.w3.org/1999/xlink" width="828pt" height="746pt">
<g id="viewport" class="graph" transform="scale(1 1) rotate(0) translate(4 742)">
<title>Classes</title>
<polygon fill="white" stroke="white" points="-4,5 -4,-742 825,-742 825,5 -4,5"/>
<!-- 09a15e9660c1ebc6f429d818825ce0c6 -->
<g id="node1" class="node"><title>09a15e9660c1ebc6f429d818825ce0c6</title>
<polygon fill="white" stroke="black" points="66.1766,-414 3.82338,-414 3.82338,-378 66.1766,-378 66.1766,-414"/>
<text text-anchor="middle" x="35" y="-390.4" font-family="Times,serif" font-size="14.00" fill="gray">stdClass</text>
</g>
<!-- e8201481708250df58c49a6d1469f0df -->
<g id="node2" class="node"><title>e8201481708250df58c49a6d1469f0df</title>
<a xlink:href="_src_AbstractTemplate.html" xlink:title="AbstractTemplate" target="_top">
<polygon fill="white" stroke="black" points="271.813,-522 156.187,-522 156.187,-486 271.813,-486 271.813,-522"/>
<text text-anchor="middle" x="214" y="-498.4" font-family="Times,serif" font-size="14.00">AbstractTemplate</text>
</a>
</g>
<!-- e8201481708250df58c49a6d1469f0df&#45;&gt;09a15e9660c1ebc6f429d818825ce0c6 -->
<g id="edge2" class="edge"><title>e8201481708250df58c49a6d1469f0df-&gt;09a15e9660c1ebc6f429d818825ce0c6</title>
<path fill="none" stroke="black" d="M167.705,-485.897C163.506,-483.255 159.515,-480.295 156,-477 125.953,-448.837 152.127,-393.87 111,-396"/>
</g>
<!-- 2f1f1023a3ea2414fcaf043af549b5af -->
<g id="node3" class="node"><title>2f1f1023a3ea2414fcaf043af549b5af</title>
<a xlink:href="_src_Template.html" xlink:title="Template" target="_top">
<polygon fill="white" stroke="black" points="432.885,-738 365.115,-738 365.115,-702 432.885,-702 432.885,-738"/>
<text text-anchor="middle" x="399" y="-714.4" font-family="Times,serif" font-size="14.00">Template</text>
</a>
</g>
<!-- 2f1f1023a3ea2414fcaf043af549b5af&#45;&gt;e8201481708250df58c49a6d1469f0df -->
<g id="edge4" class="edge"><title>2f1f1023a3ea2414fcaf043af549b5af-&gt;e8201481708250df58c49a6d1469f0df</title>
<path fill="none" stroke="black" d="M372.128,-701.925C368.599,-699.083 365.121,-696.066 362,-693 308.885,-640.808 258.125,-569.113 232.432,-530.767"/>
<polygon fill="none" stroke="black" points="235.198,-528.605 226.748,-522.214 229.369,-532.48 235.198,-528.605"/>
</g>
<!-- 6b0f948f8cd4de157a7bb7ddb50cbcf9 -->
<g id="node4" class="node"><title>6b0f948f8cd4de157a7bb7ddb50cbcf9</title>
<a xlink:href="_src_Finder.html" xlink:title="Finder" target="_top">
<polygon fill="white" stroke="black" points="241,-468 187,-468 187,-432 241,-432 241,-468"/>
<text text-anchor="middle" x="214" y="-444.4" font-family="Times,serif" font-size="14.00">Finder</text>
</a>
</g>
<!-- 6b0f948f8cd4de157a7bb7ddb50cbcf9&#45;&gt;09a15e9660c1ebc6f429d818825ce0c6 -->
<g id="edge6" class="edge"><title>6b0f948f8cd4de157a7bb7ddb50cbcf9-&gt;09a15e9660c1ebc6f429d818825ce0c6</title>
<path fill="none" stroke="black" d="M186.912,-438.298C177.113,-433.732 165.944,-428.322 156,-423 135.436,-411.994 134.293,-394.794 111,-396"/>
</g>
<!-- 2450f1e02451533d0d479626db590037 -->
<g id="node5" class="node"><title>2450f1e02451533d0d479626db590037</title>
<a xlink:href="_src_Helper_AbstractHelper.html" xlink:title="AbstractHelper" target="_top">
<polygon fill="white" stroke="black" points="264.519,-414 163.481,-414 163.481,-378 264.519,-378 264.519,-414"/>
<text text-anchor="middle" x="214" y="-390.4" font-family="Times,serif" font-size="14.00">AbstractHelper</text>
</a>
</g>
<!-- 2450f1e02451533d0d479626db590037&#45;&gt;09a15e9660c1ebc6f429d818825ce0c6 -->
<g id="edge8" class="edge"><title>2450f1e02451533d0d479626db590037-&gt;09a15e9660c1ebc6f429d818825ce0c6</title>
<path fill="none" stroke="black" d="M163.428,-394.971C146.759,-394.899 128.066,-395.116 111,-396"/>
</g>
<!-- 99ceff542d3cfd5e947af606e8962fca -->
<g id="node6" class="node"><title>99ceff542d3cfd5e947af606e8962fca</title>
<a xlink:href="_src_Helper_Anchor.html" xlink:title="Anchor" target="_top">
<polygon fill="white" stroke="black" points="427.986,-684 370.014,-684 370.014,-648 427.986,-648 427.986,-684"/>
<text text-anchor="middle" x="399" y="-660.4" font-family="Times,serif" font-size="14.00">Anchor</text>
</a>
</g>
<!-- 99ceff542d3cfd5e947af606e8962fca&#45;&gt;2450f1e02451533d0d479626db590037 -->
<g id="edge10" class="edge"><title>99ceff542d3cfd5e947af606e8962fca-&gt;2450f1e02451533d0d479626db590037</title>
<path fill="none" stroke="black" d="M369.906,-648.482C366.876,-645.63 364.128,-642.461 362,-639 333.279,-592.283 373.839,-396 319,-396"/>
</g>
<!-- 64d492722b1d2cd9ed944aee6eb9f17c -->
<g id="node7" class="node"><title>64d492722b1d2cd9ed944aee6eb9f17c</title>
<a xlink:href="_src_Helper_Attribs.html" xlink:title="Attribs" target="_top">
<polygon fill="white" stroke="black" points="426.39,-630 371.61,-630 371.61,-594 426.39,-594 426.39,-630"/>
<text text-anchor="middle" x="399" y="-606.4" font-family="Times,serif" font-size="14.00">Attribs</text>
</a>
</g>
<!-- 64d492722b1d2cd9ed944aee6eb9f17c&#45;&gt;2450f1e02451533d0d479626db590037 -->
<g id="edge12" class="edge"><title>64d492722b1d2cd9ed944aee6eb9f17c-&gt;2450f1e02451533d0d479626db590037</title>
<path fill="none" stroke="black" d="M371.492,-595.67C367.884,-592.505 364.551,-588.932 362,-585 315.114,-512.73 405.147,-396 319,-396"/>
</g>
<!-- 69a8e982d2ee1e25877c155421f716a4 -->
<g id="node8" class="node"><title>69a8e982d2ee1e25877c155421f716a4</title>
<a xlink:href="_src_Helper_Base.html" xlink:title="Base" target="_top">
<polygon fill="white" stroke="black" points="426,-576 372,-576 372,-540 426,-540 426,-576"/>
<text text-anchor="middle" x="399" y="-552.4" font-family="Times,serif" font-size="14.00">Base</text>
</a>
</g>
<!-- 69a8e982d2ee1e25877c155421f716a4&#45;&gt;2450f1e02451533d0d479626db590037 -->
<g id="edge14" class="edge"><title>69a8e982d2ee1e25877c155421f716a4-&gt;2450f1e02451533d0d479626db590037</title>
<path fill="none" stroke="black" d="M371.781,-541.474C368.135,-538.334 364.715,-534.821 362,-531 325.524,-479.671 381.97,-396 319,-396"/>
</g>
<!-- 268e211d5f5c3ec0ccc64d86e146c3b2 -->
<g id="node9" class="node"><title>268e211d5f5c3ec0ccc64d86e146c3b2</title>
<a xlink:href="_src_Helper_Datetime.html" xlink:title="Datetime" target="_top">
<polygon fill="white" stroke="black" points="432.811,-522 365.189,-522 365.189,-486 432.811,-486 432.811,-522"/>
<text text-anchor="middle" x="399" y="-498.4" font-family="Times,serif" font-size="14.00">Datetime</text>
</a>
</g>
<!-- 268e211d5f5c3ec0ccc64d86e146c3b2&#45;&gt;2450f1e02451533d0d479626db590037 -->
<g id="edge16" class="edge"><title>268e211d5f5c3ec0ccc64d86e146c3b2-&gt;2450f1e02451533d0d479626db590037</title>
<path fill="none" stroke="black" d="M370.884,-485.77C367.694,-483.034 364.641,-480.087 362,-477 335.505,-446.029 359.758,-396 319,-396"/>
</g>
<!-- 754ff392410a15834f9f41e9e04e22ea -->
<g id="node10" class="node"><title>754ff392410a15834f9f41e9e04e22ea</title>
<a xlink:href="_src_Helper_Escape.html" xlink:title="Escape" target="_top">
<polygon fill="white" stroke="black" points="426.643,-468 371.357,-468 371.357,-432 426.643,-432 426.643,-468"/>
<text text-anchor="middle" x="399" y="-444.4" font-family="Times,serif" font-size="14.00">Escape</text>
</a>
</g>
<!-- 754ff392410a15834f9f41e9e04e22ea&#45;&gt;2450f1e02451533d0d479626db590037 -->
<g id="edge18" class="edge"><title>754ff392410a15834f9f41e9e04e22ea-&gt;2450f1e02451533d0d479626db590037</title>
<path fill="none" stroke="black" d="M372.737,-431.718C350.867,-416.052 322.24,-396 319,-396"/>
</g>
<!-- 689ea52969723c099a94f0d982ee4788 -->
<g id="node11" class="node"><title>689ea52969723c099a94f0d982ee4788</title>
<a xlink:href="_src_Helper_Image.html" xlink:title="Image" target="_top">
<polygon fill="white" stroke="black" points="426,-414 372,-414 372,-378 426,-378 426,-414"/>
<text text-anchor="middle" x="399" y="-390.4" font-family="Times,serif" font-size="14.00">Image</text>
</a>
</g>
<!-- 689ea52969723c099a94f0d982ee4788&#45;&gt;2450f1e02451533d0d479626db590037 -->
<g id="edge20" class="edge"><title>689ea52969723c099a94f0d982ee4788-&gt;2450f1e02451533d0d479626db590037</title>
<path fill="none" stroke="black" d="M371.667,-396C356.306,-396 336.556,-396 319,-396"/>
</g>
<!-- f7e2971895ccd968787c7fce9b7eb227 -->
<g id="node12" class="node"><title>f7e2971895ccd968787c7fce9b7eb227</title>
<a xlink:href="_src_Helper_Links.html" xlink:title="Links" target="_top">
<polygon fill="white" stroke="black" points="426,-360 372,-360 372,-324 426,-324 426,-360"/>
<text text-anchor="middle" x="399" y="-336.4" font-family="Times,serif" font-size="14.00">Links</text>
</a>
</g>
<!-- f7e2971895ccd968787c7fce9b7eb227&#45;&gt;2450f1e02451533d0d479626db590037 -->
<g id="edge22" class="edge"><title>f7e2971895ccd968787c7fce9b7eb227-&gt;2450f1e02451533d0d479626db590037</title>
<path fill="none" stroke="black" d="M372.737,-360.282C350.867,-375.948 322.24,-396 319,-396"/>
</g>
<!-- 5801f825616db1f08022ba592a6def28 -->
<g id="node13" class="node"><title>5801f825616db1f08022ba592a6def28</title>
<a xlink:href="_src_Helper_Metas.html" xlink:title="Metas" target="_top">
<polygon fill="white" stroke="black" points="426,-306 372,-306 372,-270 426,-270 426,-306"/>
<text text-anchor="middle" x="399" y="-282.4" font-family="Times,serif" font-size="14.00">Metas</text>
</a>
</g>
<!-- 5801f825616db1f08022ba592a6def28&#45;&gt;2450f1e02451533d0d479626db590037 -->
<g id="edge24" class="edge"><title>5801f825616db1f08022ba592a6def28-&gt;2450f1e02451533d0d479626db590037</title>
<path fill="none" stroke="black" d="M371.993,-305.291C368.404,-308.288 364.946,-311.557 362,-315 335.505,-345.971 359.758,-396 319,-396"/>
</g>
<!-- b4798d9e981f3f0cf0fffec23065ae27 -->
<g id="node14" class="node"><title>b4798d9e981f3f0cf0fffec23065ae27</title>
<a xlink:href="_src_Helper_Scripts.html" xlink:title="Scripts" target="_top">
<polygon fill="white" stroke="black" points="426.39,-252 371.61,-252 371.61,-216 426.39,-216 426.39,-252"/>
<text text-anchor="middle" x="399" y="-228.4" font-family="Times,serif" font-size="14.00">Scripts</text>
</a>
</g>
<!-- b4798d9e981f3f0cf0fffec23065ae27&#45;&gt;2450f1e02451533d0d479626db590037 -->
<g id="edge26" class="edge"><title>b4798d9e981f3f0cf0fffec23065ae27-&gt;2450f1e02451533d0d479626db590037</title>
<path fill="none" stroke="black" d="M371.417,-250.842C367.908,-253.901 364.625,-257.306 362,-261 325.524,-312.329 381.97,-396 319,-396"/>
</g>
<!-- ff05b800bd57c0633cd00748accdb12f -->
<g id="node15" class="node"><title>ff05b800bd57c0633cd00748accdb12f</title>
<a xlink:href="_src_Helper_Styles.html" xlink:title="Styles" target="_top">
<polygon fill="white" stroke="black" points="426,-198 372,-198 372,-162 426,-162 426,-198"/>
<text text-anchor="middle" x="399" y="-174.4" font-family="Times,serif" font-size="14.00">Styles</text>
</a>
</g>
<!-- ff05b800bd57c0633cd00748accdb12f&#45;&gt;2450f1e02451533d0d479626db590037 -->
<g id="edge28" class="edge"><title>ff05b800bd57c0633cd00748accdb12f-&gt;2450f1e02451533d0d479626db590037</title>
<path fill="none" stroke="black" d="M371.854,-196.015C368.107,-199.258 364.636,-202.936 362,-207 315.114,-279.27 405.147,-396 319,-396"/>
</g>
<!-- 2a96f2c3fb1a8c6509b8c5a9b2f0385c -->
<g id="node16" class="node"><title>2a96f2c3fb1a8c6509b8c5a9b2f0385c</title>
<a xlink:href="_src_Helper_Title.html" xlink:title="Title" target="_top">
<polygon fill="white" stroke="black" points="426,-144 372,-144 372,-108 426,-108 426,-144"/>
<text text-anchor="middle" x="399" y="-120.4" font-family="Times,serif" font-size="14.00">Title</text>
</a>
</g>
<!-- 2a96f2c3fb1a8c6509b8c5a9b2f0385c&#45;&gt;2450f1e02451533d0d479626db590037 -->
<g id="edge30" class="edge"><title>2a96f2c3fb1a8c6509b8c5a9b2f0385c-&gt;2450f1e02451533d0d479626db590037</title>
<path fill="none" stroke="black" d="M371.682,-141.907C367.956,-145.162 364.537,-148.874 362,-153 333.279,-199.717 373.839,-396 319,-396"/>
<path fill="none" stroke="black" d="M317,-396C303.383,-396 288.743,-396 274.923,-396"/>
<polygon fill="none" stroke="black" points="274.545,-392.5 264.545,-396 274.545,-399.5 274.545,-392.5"/>
</g>
<!-- e828daac8fb6bff3ab4a7425b4f7e4c4 -->
<g id="node17" class="node"><title>e828daac8fb6bff3ab4a7425b4f7e4c4</title>
<a xlink:href="_src_TwoStep.html" xlink:title="TwoStep" target="_top">
<polygon fill="white" stroke="black" points="246.576,-360 181.424,-360 181.424,-324 246.576,-324 246.576,-360"/>
<text text-anchor="middle" x="214" y="-336.4" font-family="Times,serif" font-size="14.00">TwoStep</text>
</a>
</g>
<!-- e828daac8fb6bff3ab4a7425b4f7e4c4&#45;&gt;09a15e9660c1ebc6f429d818825ce0c6 -->
<g id="edge32" class="edge"><title>e828daac8fb6bff3ab4a7425b4f7e4c4-&gt;09a15e9660c1ebc6f429d818825ce0c6</title>
<path fill="none" stroke="black" d="M181.366,-356.309C173.034,-360.261 164.11,-364.66 156,-369 135.436,-380.006 134.293,-394.794 111,-396"/>
</g>
<!-- d1457b72c3fb323a2671125aef3eab5d -->
<g id="node18" class="node"><title>d1457b72c3fb323a2671125aef3eab5d</title>
<polygon fill="white" stroke="black" points="241,-252 187,-252 187,-216 241,-216 241,-252"/>
<text text-anchor="middle" x="214" y="-228.4" font-family="Times,serif" font-size="14.00" fill="gray">?</text>
</g>
<!-- d1457b72c3fb323a2671125aef3eab5d&#45;&gt;09a15e9660c1ebc6f429d818825ce0c6 -->
<g id="edge34" class="edge"><title>d1457b72c3fb323a2671125aef3eab5d-&gt;09a15e9660c1ebc6f429d818825ce0c6</title>
<path fill="none" stroke="black" d="M109,-396C98.4633,-396.546 87.0597,-396.736 76.4673,-396.745"/>
<polygon fill="none" stroke="black" points="76.2228,-393.244 66.2074,-396.7 76.1919,-400.244 76.2228,-393.244"/>
<path fill="none" stroke="black" d="M199.297,-252.28C187.378,-268.453 169.887,-292.857 156,-315 134.119,-349.889 152.127,-393.87 111,-396"/>
</g>
<!-- fe9d87595bbecb27348b863f712f1c2b -->
<g id="node19" class="node"><title>fe9d87595bbecb27348b863f712f1c2b</title>
<polygon fill="white" stroke="black" points="435.259,-90 362.741,-90 362.741,-54 435.259,-54 435.259,-90"/>
<text text-anchor="middle" x="399" y="-66.4" font-family="Times,serif" font-size="14.00" fill="gray">Exception</text>
</g>
<!-- fe9d87595bbecb27348b863f712f1c2b&#45;&gt;d1457b72c3fb323a2671125aef3eab5d -->
<g id="edge36" class="edge"><title>fe9d87595bbecb27348b863f712f1c2b-&gt;d1457b72c3fb323a2671125aef3eab5d</title>
<path fill="none" stroke="black" d="M372.962,-90.274C369.24,-93.1352 365.486,-96.1046 362,-99 317.96,-135.585 269.53,-181.184 240.725,-208.919"/>
<polygon fill="none" stroke="black" points="238.251,-206.443 233.49,-215.908 243.114,-211.478 238.251,-206.443"/>
</g>
<!-- 4e0f71d99917766b376e697b1373503b -->
<g id="node20" class="node"><title>4e0f71d99917766b376e697b1373503b</title>
<a xlink:href="_src_Exception.html" xlink:title="Exception" target="_top">
<polygon fill="white" stroke="black" points="597.259,-90 524.741,-90 524.741,-54 597.259,-54 597.259,-90"/>
<text text-anchor="middle" x="561" y="-66.4" font-family="Times,serif" font-size="14.00">Exception</text>
</a>
</g>
<!-- 4e0f71d99917766b376e697b1373503b&#45;&gt;fe9d87595bbecb27348b863f712f1c2b -->
<g id="edge38" class="edge"><title>4e0f71d99917766b376e697b1373503b-&gt;fe9d87595bbecb27348b863f712f1c2b</title>
<path fill="none" stroke="black" d="M524.491,-72C501.187,-72 470.498,-72 445.421,-72"/>
<polygon fill="none" stroke="black" points="445.41,-68.5001 435.41,-72 445.41,-75.5001 445.41,-68.5001"/>
</g>
<!-- 62c96e28380347961cf55a1e2a528f7c -->
<g id="node21" class="node"><title>62c96e28380347961cf55a1e2a528f7c</title>
<a xlink:href="_src_Exception_HelperNotMapped.html" xlink:title="HelperNotMapped" target="_top">
<polygon fill="white" stroke="black" points="811.466,-90 690.534,-90 690.534,-54 811.466,-54 811.466,-90"/>
<text text-anchor="middle" x="751" y="-66.4" font-family="Times,serif" font-size="14.00">HelperNotMapped</text>
</a>
</g>
<!-- 62c96e28380347961cf55a1e2a528f7c&#45;&gt;4e0f71d99917766b376e697b1373503b -->
<g id="edge40" class="edge"><title>62c96e28380347961cf55a1e2a528f7c-&gt;4e0f71d99917766b376e697b1373503b</title>
<path fill="none" stroke="black" d="M690.418,-69.4417C674.933,-69.4762 658.305,-70.1327 643,-72"/>
</g>
<!-- 2dd435db8c59b80a0db02536c9a6faa5 -->
<g id="node22" class="node"><title>2dd435db8c59b80a0db02536c9a6faa5</title>
<a xlink:href="_src_Exception_TemplateNotFound.html" xlink:title="TemplateNotFound" target="_top">
<polygon fill="white" stroke="black" points="813.171,-36 688.829,-36 688.829,-0 813.171,-0 813.171,-36"/>
<text text-anchor="middle" x="751" y="-12.4" font-family="Times,serif" font-size="14.00">TemplateNotFound</text>
</a>
</g>
<!-- 2dd435db8c59b80a0db02536c9a6faa5&#45;&gt;4e0f71d99917766b376e697b1373503b -->
<g id="edge42" class="edge"><title>2dd435db8c59b80a0db02536c9a6faa5-&gt;4e0f71d99917766b376e697b1373503b</title>
<path fill="none" stroke="black" d="M706.637,-36.0263C700.323,-38.8981 693.949,-41.9361 688,-45 667.264,-55.6787 666.152,-69.1752 643,-72"/>
<path fill="none" stroke="black" d="M641,-72C630.27,-73.3091 618.659,-73.8122 607.727,-73.8814"/>
<polygon fill="none" stroke="black" points="607.523,-70.3804 597.505,-73.8271 607.486,-77.3803 607.523,-70.3804"/>
</g>
</g>
<script xlink:href="js/SVGPan.js"/></svg>
