<?xml version="1.0" encoding="UTF-8" standalone="no"?>
<!DOCTYPE svg PUBLIC "-//W3C//DTD SVG 1.1//EN" "http://www.w3.org/Graphics/SVG/1.1/DTD/svg11.dtd">
<!-- Generated by graphviz version 2.26.3 (20100126.1600)
 -->
<!-- Title: G Pages: 1 -->
<svg xmlns="http://www.w3.org/2000/svg" xmlns:xlink="http://www.w3.org/1999/xlink" width="670pt" height="1004pt">
<g id="viewport" class="graph" transform="scale(1 1) rotate(0) translate(4 1000)">
<title>G</title>
<polygon fill="white" stroke="white" points="-4,5 -4,-1000 667,-1000 667,5 -4,5"/>
<g id="graph2" class="cluster"><title>cluster_Aura</title>
<polyline fill="none" stroke="gray" points="186,-8 642,-8 "/>
<path fill="none" stroke="gray" d="M642,-8C648,-8 654,-14 654,-20"/>
<polyline fill="none" stroke="gray" points="654,-20 654,-976 "/>
<path fill="none" stroke="gray" d="M654,-976C654,-982 648,-988 642,-988"/>
<polyline fill="none" stroke="gray" points="642,-988 186,-988 "/>
<path fill="none" stroke="gray" d="M186,-988C180,-988 174,-982 174,-976"/>
<polyline fill="none" stroke="gray" points="174,-976 174,-20 "/>
<path fill="none" stroke="gray" d="M174,-20C174,-14 180,-8 186,-8"/>
<text text-anchor="middle" x="414" y="-974.1" font-family="Times Roman,serif" font-size="11.00" fill="gray">Aura</text>
</g>
<g id="graph3" class="cluster"><title>cluster_Aura_View</title>
<polyline fill="none" stroke="gray" points="194,-16 634,-16 "/>
<path fill="none" stroke="gray" d="M634,-16C640,-16 646,-22 646,-28"/>
<polyline fill="none" stroke="gray" points="646,-28 646,-946 "/>
<path fill="none" stroke="gray" d="M646,-946C646,-952 640,-958 634,-958"/>
<polyline fill="none" stroke="gray" points="634,-958 194,-958 "/>
<path fill="none" stroke="gray" d="M194,-958C188,-958 182,-952 182,-946"/>
<polyline fill="none" stroke="gray" points="182,-946 182,-28 "/>
<path fill="none" stroke="gray" d="M182,-28C182,-22 188,-16 194,-16"/>
<text text-anchor="middle" x="414" y="-944.1" font-family="Times Roman,serif" font-size="11.00" fill="gray">View</text>
</g>
<g id="graph4" class="cluster"><title>cluster_Aura_View_Exception</title>
<polyline fill="none" stroke="gray" points="508,-800 626,-800 "/>
<path fill="none" stroke="gray" d="M626,-800C632,-800 638,-806 638,-812"/>
<polyline fill="none" stroke="gray" points="638,-812 638,-916 "/>
<path fill="none" stroke="gray" d="M638,-916C638,-922 632,-928 626,-928"/>
<polyline fill="none" stroke="gray" points="626,-928 508,-928 "/>
<path fill="none" stroke="gray" d="M508,-928C502,-928 496,-922 496,-916"/>
<polyline fill="none" stroke="gray" points="496,-916 496,-812 "/>
<path fill="none" stroke="gray" d="M496,-812C496,-806 502,-800 508,-800"/>
<text text-anchor="middle" x="567" y="-914.1" font-family="Times Roman,serif" font-size="11.00" fill="gray">Exception</text>
</g>
<g id="graph5" class="cluster"><title>cluster_Aura_View_Helper</title>
<polyline fill="none" stroke="gray" points="202,-178 599,-178 "/>
<path fill="none" stroke="gray" d="M599,-178C605,-178 611,-184 611,-190"/>
<polyline fill="none" stroke="gray" points="611,-190 611,-780 "/>
<path fill="none" stroke="gray" d="M611,-780C611,-786 605,-792 599,-792"/>
<polyline fill="none" stroke="gray" points="599,-792 202,-792 "/>
<path fill="none" stroke="gray" d="M202,-792C196,-792 190,-786 190,-780"/>
<polyline fill="none" stroke="gray" points="190,-780 190,-190 "/>
<path fill="none" stroke="gray" d="M190,-190C190,-184 196,-178 202,-178"/>
<text text-anchor="middle" x="400.5" y="-778.1" font-family="Times Roman,serif" font-size="11.00" fill="gray">Helper</text>
</g>
<!-- _Aura_View_Exception_TemplateNotFound -->
<g id="node4" class="node"><title>_Aura_View_Exception_TemplateNotFound</title>
<a xlink:href="db_src_Exception_TemplateNotFound.html" xlink:title="TemplateNotFound" target="_parent">
<polygon fill="none" stroke="black" points="629,-898 505,-898 505,-862 629,-862 629,-898"/>
<text text-anchor="middle" x="567" y="-877.1" font-family="Courier New" font-size="11.00">TemplateNotFound</text>
</a>
</g>
<!-- _Aura_View_Exception -->
<g id="node23" class="node"><title>_Aura_View_Exception</title>
<a xlink:href="db_src_Exception.html" xlink:title="Exception" target="_parent">
<polygon fill="none" stroke="black" points="353,-871 277,-871 277,-835 353,-835 353,-871"/>
<text text-anchor="middle" x="315" y="-850.1" font-family="Courier New" font-size="11.00">Exception</text>
</a>
</g>
<!-- _Aura_View_Exception_TemplateNotFound&#45;&gt;_Aura_View_Exception -->
<g id="edge8" class="edge"><title>_Aura_View_Exception_TemplateNotFound-&gt;_Aura_View_Exception</title>
<path fill="none" stroke="black" d="M504.384,-873.291C460.937,-868.636 403.895,-862.524 363.81,-858.23"/>
<polygon fill="none" stroke="black" points="364.063,-854.737 353.747,-857.152 363.318,-861.697 364.063,-854.737"/>
</g>
<!-- _Aura_View_Exception_HelperNotMapped -->
<g id="node5" class="node"><title>_Aura_View_Exception_HelperNotMapped</title>
<a xlink:href="db_src_Exception_HelperNotMapped.html" xlink:title="HelperNotMapped" target="_parent">
<polygon fill="none" stroke="black" points="626,-844 508,-844 508,-808 626,-808 626,-844"/>
<text text-anchor="middle" x="567" y="-823.1" font-family="Courier New" font-size="11.00">HelperNotMapped</text>
</a>
</g>
<!-- _Aura_View_Exception_HelperNotMapped&#45;&gt;_Aura_View_Exception -->
<g id="edge10" class="edge"><title>_Aura_View_Exception_HelperNotMapped-&gt;_Aura_View_Exception</title>
<path fill="none" stroke="black" d="M507.917,-832.33C464.063,-837.029 404.973,-843.36 363.791,-847.772"/>
<polygon fill="none" stroke="black" points="363.297,-844.305 353.727,-848.851 364.043,-851.265 363.297,-844.305"/>
</g>
<!-- _Aura_View_Helper_Datetime -->
<g id="node7" class="node"><title>_Aura_View_Helper_Datetime</title>
<a xlink:href="db_src_Helper_Datetime.html" xlink:title="Datetime" target="_parent">
<polygon fill="none" stroke="black" points="602,-762 532,-762 532,-726 602,-726 602,-762"/>
<text text-anchor="middle" x="567" y="-741.1" font-family="Courier New" font-size="11.00">Datetime</text>
</a>
</g>
<!-- _Aura_View_Helper_AbstractHelper -->
<g id="node15" class="node"><title>_Aura_View_Helper_AbstractHelper</title>
<a xlink:href="db_src_Helper_AbstractHelper.html" xlink:title="&lt;I&gt;_Aura_View_Helper_AbstractHelper&lt;/I&gt;" target="_parent">
<polygon fill="none" stroke="black" points="432,-492 198,-492 198,-456 432,-456 432,-492"/>
<text text-anchor="start" x="206.5" y="-471.933" font-family="Courier New" font-size="11.00">_Aura_View_Helper_AbstractHelper</text>
</a>
</g>
<!-- _Aura_View_Helper_Datetime&#45;&gt;_Aura_View_Helper_AbstractHelper -->
<g id="edge12" class="edge"><title>_Aura_View_Helper_Datetime-&gt;_Aura_View_Helper_AbstractHelper</title>
<path fill="none" stroke="black" d="M531.463,-737.414C518.755,-733.432 505.295,-727.085 496,-717 429,-644.303 502.481,-569.869 434.732,-499.308"/>
<polygon fill="none" stroke="black" points="436.858,-496.495 427.24,-492.052 431.988,-501.524 436.858,-496.495"/>
</g>
<!-- _Aura_View_Helper_Title -->
<g id="node8" class="node"><title>_Aura_View_Helper_Title</title>
<a xlink:href="db_src_Helper_Title.html" xlink:title="Title" target="_parent">
<polygon fill="none" stroke="black" points="594,-708 540,-708 540,-672 594,-672 594,-708"/>
<text text-anchor="middle" x="567" y="-687.1" font-family="Courier New" font-size="11.00">Title</text>
</a>
</g>
<!-- _Aura_View_Helper_Title&#45;&gt;_Aura_View_Helper_AbstractHelper -->
<g id="edge14" class="edge"><title>_Aura_View_Helper_Title-&gt;_Aura_View_Helper_AbstractHelper</title>
<path fill="none" stroke="black" d="M539.769,-685.262C525.148,-681.458 507.765,-674.734 496,-663 442.031,-609.17 488.843,-551.834 434.387,-498.832"/>
<polygon fill="none" stroke="black" points="436.611,-496.125 426.828,-492.056 431.938,-501.337 436.611,-496.125"/>
</g>
<!-- _Aura_View_Helper_Metas -->
<g id="node9" class="node"><title>_Aura_View_Helper_Metas</title>
<a xlink:href="db_src_Helper_Metas.html" xlink:title="Metas" target="_parent">
<polygon fill="none" stroke="black" points="594,-654 540,-654 540,-618 594,-618 594,-654"/>
<text text-anchor="middle" x="567" y="-633.1" font-family="Courier New" font-size="11.00">Metas</text>
</a>
</g>
<!-- _Aura_View_Helper_Metas&#45;&gt;_Aura_View_Helper_AbstractHelper -->
<g id="edge16" class="edge"><title>_Aura_View_Helper_Metas-&gt;_Aura_View_Helper_AbstractHelper</title>
<path fill="none" stroke="black" d="M539.733,-630.364C525.453,-626.32 508.407,-619.652 496,-609 454.602,-573.459 476.239,-534.13 434.015,-498.275"/>
<polygon fill="none" stroke="black" points="436.072,-495.441 426.022,-492.088 431.788,-500.976 436.072,-495.441"/>
</g>
<!-- _Aura_View_Helper_Attribs -->
<g id="node10" class="node"><title>_Aura_View_Helper_Attribs</title>
<a xlink:href="db_src_Helper_Attribs.html" xlink:title="Attribs" target="_parent">
<polygon fill="none" stroke="black" points="599,-600 535,-600 535,-564 599,-564 599,-600"/>
<text text-anchor="middle" x="567" y="-579.1" font-family="Courier New" font-size="11.00">Attribs</text>
</a>
</g>
<!-- _Aura_View_Helper_Attribs&#45;&gt;_Aura_View_Helper_AbstractHelper -->
<g id="edge18" class="edge"><title>_Aura_View_Helper_Attribs-&gt;_Aura_View_Helper_AbstractHelper</title>
<path fill="none" stroke="black" d="M534.681,-572.629C522.103,-568.248 507.887,-562.355 496,-555 465.543,-536.155 466.259,-516.514 432.336,-496.821"/>
<polygon fill="none" stroke="black" points="433.945,-493.712 423.476,-492.084 430.644,-499.885 433.945,-493.712"/>
</g>
<!-- _Aura_View_Helper_Scripts -->
<g id="node11" class="node"><title>_Aura_View_Helper_Scripts</title>
<a xlink:href="db_src_Helper_Scripts.html" xlink:title="Scripts" target="_parent">
<polygon fill="none" stroke="black" points="599,-546 535,-546 535,-510 599,-510 599,-546"/>
<text text-anchor="middle" x="567" y="-525.1" font-family="Courier New" font-size="11.00">Scripts</text>
</a>
</g>
<!-- _Aura_View_Helper_Scripts&#45;&gt;_Aura_View_Helper_AbstractHelper -->
<g id="edge20" class="edge"><title>_Aura_View_Helper_Scripts-&gt;_Aura_View_Helper_AbstractHelper</title>
<path fill="none" stroke="black" d="M534.909,-519.946C507.616,-513.203 467.342,-503.507 432,-496 428.964,-495.355 425.882,-494.71 422.769,-494.068"/>
<polygon fill="none" stroke="black" points="423.242,-490.592 412.744,-492.025 421.844,-497.451 423.242,-490.592"/>
</g>
<!-- _Aura_View_Helper_Links -->
<g id="node12" class="node"><title>_Aura_View_Helper_Links</title>
<a xlink:href="db_src_Helper_Links.html" xlink:title="Links" target="_parent">
<polygon fill="none" stroke="black" points="594,-492 540,-492 540,-456 594,-456 594,-492"/>
<text text-anchor="middle" x="567" y="-471.1" font-family="Courier New" font-size="11.00">Links</text>
</a>
</g>
<!-- _Aura_View_Helper_Links&#45;&gt;_Aura_View_Helper_AbstractHelper -->
<g id="edge22" class="edge"><title>_Aura_View_Helper_Links-&gt;_Aura_View_Helper_AbstractHelper</title>
<path fill="none" stroke="black" d="M539.552,-474C515.649,-474 479.164,-474 442.51,-474"/>
<polygon fill="none" stroke="black" points="442.177,-470.5 432.177,-474 442.177,-477.5 442.177,-470.5"/>
</g>
<!-- _Aura_View_Helper_Base -->
<g id="node13" class="node"><title>_Aura_View_Helper_Base</title>
<a xlink:href="db_src_Helper_Base.html" xlink:title="Base" target="_parent">
<polygon fill="none" stroke="black" points="594,-438 540,-438 540,-402 594,-402 594,-438"/>
<text text-anchor="middle" x="567" y="-417.1" font-family="Courier New" font-size="11.00">Base</text>
</a>
</g>
<!-- _Aura_View_Helper_Base&#45;&gt;_Aura_View_Helper_AbstractHelper -->
<g id="edge24" class="edge"><title>_Aura_View_Helper_Base-&gt;_Aura_View_Helper_AbstractHelper</title>
<path fill="none" stroke="black" d="M539.934,-426.81C512.737,-433.56 469.58,-444.017 432,-452 428.964,-452.645 425.882,-453.29 422.769,-453.932"/>
<polygon fill="none" stroke="black" points="421.844,-450.549 412.744,-455.975 423.242,-457.408 421.844,-450.549"/>
</g>
<!-- _Aura_View_Helper_Escape -->
<g id="node14" class="node"><title>_Aura_View_Helper_Escape</title>
<a xlink:href="db_src_Helper_Escape.html" xlink:title="Escape" target="_parent">
<polygon fill="none" stroke="black" points="595,-384 539,-384 539,-348 595,-348 595,-384"/>
<text text-anchor="middle" x="567" y="-363.1" font-family="Courier New" font-size="11.00">Escape</text>
</a>
</g>
<!-- _Aura_View_Helper_Escape&#45;&gt;_Aura_View_Helper_AbstractHelper -->
<g id="edge26" class="edge"><title>_Aura_View_Helper_Escape-&gt;_Aura_View_Helper_AbstractHelper</title>
<path fill="none" stroke="black" d="M538.194,-374.171C524.806,-378.653 509.009,-384.951 496,-393 465.543,-411.845 466.259,-431.486 432.336,-451.179"/>
<polygon fill="none" stroke="black" points="430.644,-448.115 423.476,-455.916 433.945,-454.288 430.644,-448.115"/>
</g>
<!-- _Aura_View_Helper_Styles -->
<g id="node16" class="node"><title>_Aura_View_Helper_Styles</title>
<a xlink:href="db_src_Helper_Styles.html" xlink:title="Styles" target="_parent">
<polygon fill="none" stroke="black" points="595,-330 539,-330 539,-294 595,-294 595,-330"/>
<text text-anchor="middle" x="567" y="-309.1" font-family="Courier New" font-size="11.00">Styles</text>
</a>
</g>
<!-- _Aura_View_Helper_Styles&#45;&gt;_Aura_View_Helper_AbstractHelper -->
<g id="edge28" class="edge"><title>_Aura_View_Helper_Styles-&gt;_Aura_View_Helper_AbstractHelper</title>
<path fill="none" stroke="black" d="M538.342,-318.036C524.358,-322.115 508.007,-328.691 496,-339 454.602,-374.541 476.239,-413.87 434.015,-449.725"/>
<polygon fill="none" stroke="black" points="431.788,-447.024 426.022,-455.912 436.072,-452.559 431.788,-447.024"/>
</g>
<!-- _Aura_View_Helper_Image -->
<g id="node17" class="node"><title>_Aura_View_Helper_Image</title>
<a xlink:href="db_src_Helper_Image.html" xlink:title="Image" target="_parent">
<polygon fill="none" stroke="black" points="594,-276 540,-276 540,-240 594,-240 594,-276"/>
<text text-anchor="middle" x="567" y="-255.1" font-family="Courier New" font-size="11.00">Image</text>
</a>
</g>
<!-- _Aura_View_Helper_Image&#45;&gt;_Aura_View_Helper_AbstractHelper -->
<g id="edge30" class="edge"><title>_Aura_View_Helper_Image-&gt;_Aura_View_Helper_AbstractHelper</title>
<path fill="none" stroke="black" d="M539.769,-262.738C525.148,-266.542 507.765,-273.266 496,-285 442.031,-338.83 488.843,-396.166 434.387,-449.168"/>
<polygon fill="none" stroke="black" points="431.938,-446.663 426.828,-455.944 436.611,-451.875 431.938,-446.663"/>
</g>
<!-- _Aura_View_Helper_Anchor -->
<g id="node18" class="node"><title>_Aura_View_Helper_Anchor</title>
<a xlink:href="db_src_Helper_Anchor.html" xlink:title="Anchor" target="_parent">
<polygon fill="none" stroke="black" points="595,-222 539,-222 539,-186 595,-186 595,-222"/>
<text text-anchor="middle" x="567" y="-201.1" font-family="Courier New" font-size="11.00">Anchor</text>
</a>
</g>
<!-- _Aura_View_Helper_Anchor&#45;&gt;_Aura_View_Helper_AbstractHelper -->
<g id="edge32" class="edge"><title>_Aura_View_Helper_Anchor-&gt;_Aura_View_Helper_AbstractHelper</title>
<path fill="none" stroke="black" d="M538.322,-208.632C523.813,-212.374 506.993,-219.072 496,-231 429,-303.697 502.481,-378.131 434.732,-448.692"/>
<polygon fill="none" stroke="black" points="431.988,-446.476 427.24,-455.948 436.858,-451.505 431.988,-446.476"/>
</g>
<!-- _Aura_View_Template -->
<g id="node19" class="node"><title>_Aura_View_Template</title>
<a xlink:href="db_src_Template.html" xlink:title="Template" target="_parent">
<polygon fill="none" stroke="black" points="602,-168 532,-168 532,-132 602,-132 602,-168"/>
<text text-anchor="middle" x="567" y="-147.1" font-family="Courier New" font-size="11.00">Template</text>
</a>
</g>
<!-- _Aura_View_AbstractTemplate -->
<g id="node22" class="node"><title>_Aura_View_AbstractTemplate</title>
<a xlink:href="db_src_AbstractTemplate.html" xlink:title="&lt;I&gt;_Aura_View_AbstractTemplate&lt;/I&gt;" target="_parent">
<polygon fill="none" stroke="black" points="415,-168 215,-168 215,-132 415,-132 415,-168"/>
<text text-anchor="start" x="223.5" y="-147.933" font-family="Courier New" font-size="11.00">_Aura_View_AbstractTemplate</text>
</a>
</g>
<!-- _Aura_View_Template&#45;&gt;_Aura_View_AbstractTemplate -->
<g id="edge34" class="edge"><title>_Aura_View_Template-&gt;_Aura_View_AbstractTemplate</title>
<path fill="none" stroke="black" d="M531.429,-150C503.656,-150 463.494,-150 425.29,-150"/>
<polygon fill="none" stroke="black" points="425.105,-146.5 415.105,-150 425.105,-153.5 425.105,-146.5"/>
</g>
<!-- _Aura_View_TwoStep -->
<g id="node20" class="node"><title>_Aura_View_TwoStep</title>
<a xlink:href="db_src_TwoStep.html" xlink:title="TwoStep" target="_parent">
<polygon fill="none" stroke="black" points="599,-114 535,-114 535,-78 599,-78 599,-114"/>
<text text-anchor="middle" x="567" y="-93.1" font-family="Courier New" font-size="11.00">TwoStep</text>
</a>
</g>
<!-- _Aura_View_Finder -->
<g id="node21" class="node"><title>_Aura_View_Finder</title>
<a xlink:href="db_src_Finder.html" xlink:title="Finder" target="_parent">
<polygon fill="none" stroke="black" points="595,-60 539,-60 539,-24 595,-24 595,-60"/>
<text text-anchor="middle" x="567" y="-39.1" font-family="Courier New" font-size="11.00">Finder</text>
</a>
</g>
<!-- _Exception -->
<g id="node41" class="node"><title>_Exception</title>
<ellipse fill="none" stroke="black" cx="63" cy="-853" rx="62.9325" ry="18.3848"/>
<text text-anchor="middle" x="63" y="-849.4" font-family="Times Roman,serif" font-size="14.00" fill="gray">\Exception</text>
</g>
<!-- _Aura_View_Exception&#45;&gt;_Exception -->
<g id="edge36" class="edge"><title>_Aura_View_Exception-&gt;_Exception</title>
<path fill="none" stroke="black" d="M276.452,-853C239.28,-853 182.068,-853 136.229,-853"/>
<polygon fill="none" stroke="black" points="136.038,-849.5 126.038,-853 136.038,-856.5 136.038,-849.5"/>
</g>
</g>
<script xlink:href="js/SVGPan.js"/></svg>
