<?xml version="1.0" encoding="UTF-8" standalone="no"?>
<!DOCTYPE svg PUBLIC "-//W3C//DTD SVG 1.1//EN"
 "http://www.w3.org/Graphics/SVG/1.1/DTD/svg11.dtd">
<!-- Generated by graphviz version 2.26.3 (20100126.1600)
 -->
<!-- Title: G Pages: 1 -->
<svg width="766pt" height="1850pt"
 viewBox="0.00 0.00 766.00 1850.00" xmlns="http://www.w3.org/2000/svg" xmlns:xlink="http://www.w3.org/1999/xlink">
<g id="graph1" class="graph" transform="scale(1 1) rotate(0) translate(4 1846)">
<title>G</title>
<polygon fill="white" stroke="white" points="-4,5 -4,-1846 763,-1846 763,5 -4,5"/>
<g id="graph2" class="cluster"><title>cluster_Aura</title>
<polyline fill="none" stroke="gray" points="295,-44 738,-44 "/>
<path fill="none" stroke="gray" d="M738,-44C744,-44 750,-50 750,-56"/>
<polyline fill="none" stroke="gray" points="750,-56 750,-1822 "/>
<path fill="none" stroke="gray" d="M750,-1822C750,-1828 744,-1834 738,-1834"/>
<polyline fill="none" stroke="gray" points="738,-1834 295,-1834 "/>
<path fill="none" stroke="gray" d="M295,-1834C289,-1834 283,-1828 283,-1822"/>
<polyline fill="none" stroke="gray" points="283,-1822 283,-56 "/>
<path fill="none" stroke="gray" d="M283,-56C283,-50 289,-44 295,-44"/>
<text text-anchor="middle" x="516.5" y="-1820.1" font-family="Times Roman,serif" font-size="11.00" fill="gray">Aura</text>
</g>
<g id="graph3" class="cluster"><title>cluster_Aura\View</title>
<polyline fill="none" stroke="gray" points="303,-52 730,-52 "/>
<path fill="none" stroke="gray" d="M730,-52C736,-52 742,-58 742,-64"/>
<polyline fill="none" stroke="gray" points="742,-64 742,-1792 "/>
<path fill="none" stroke="gray" d="M742,-1792C742,-1798 736,-1804 730,-1804"/>
<polyline fill="none" stroke="gray" points="730,-1804 303,-1804 "/>
<path fill="none" stroke="gray" d="M303,-1804C297,-1804 291,-1798 291,-1792"/>
<polyline fill="none" stroke="gray" points="291,-1792 291,-64 "/>
<path fill="none" stroke="gray" d="M291,-64C291,-58 297,-52 303,-52"/>
<text text-anchor="middle" x="516.5" y="-1790.1" font-family="Times Roman,serif" font-size="11.00" fill="gray">View</text>
</g>
<g id="graph4" class="cluster"><title>cluster_Aura\View\Exception</title>
<polyline fill="none" stroke="gray" points="604,-1646 722,-1646 "/>
<path fill="none" stroke="gray" d="M722,-1646C728,-1646 734,-1652 734,-1658"/>
<polyline fill="none" stroke="gray" points="734,-1658 734,-1762 "/>
<path fill="none" stroke="gray" d="M734,-1762C734,-1768 728,-1774 722,-1774"/>
<polyline fill="none" stroke="gray" points="722,-1774 604,-1774 "/>
<path fill="none" stroke="gray" d="M604,-1774C598,-1774 592,-1768 592,-1762"/>
<polyline fill="none" stroke="gray" points="592,-1762 592,-1658 "/>
<path fill="none" stroke="gray" d="M592,-1658C592,-1652 598,-1646 604,-1646"/>
<text text-anchor="middle" x="663" y="-1760.1" font-family="Times Roman,serif" font-size="11.00" fill="gray">Exception</text>
</g>
<g id="graph5" class="cluster"><title>cluster_Aura\View\Helper</title>
<polyline fill="none" stroke="gray" points="311,-376 708,-376 "/>
<path fill="none" stroke="gray" d="M708,-376C714,-376 720,-382 720,-388"/>
<polyline fill="none" stroke="gray" points="720,-388 720,-1626 "/>
<path fill="none" stroke="gray" d="M720,-1626C720,-1632 714,-1638 708,-1638"/>
<polyline fill="none" stroke="gray" points="708,-1638 311,-1638 "/>
<path fill="none" stroke="gray" d="M311,-1638C305,-1638 299,-1632 299,-1626"/>
<polyline fill="none" stroke="gray" points="299,-1626 299,-388 "/>
<path fill="none" stroke="gray" d="M299,-388C299,-382 305,-376 311,-376"/>
<text text-anchor="middle" x="509.5" y="-1624.1" font-family="Times Roman,serif" font-size="11.00" fill="gray">Helper</text>
</g>
<!-- \\Aura\\View\\Exception\\TemplateNotFound -->
<g id="node4" class="node"><title>\\Aura\\View\\Exception\\TemplateNotFound</title>
<a xlink:href="db_src_Exception_TemplateNotFound.html" xlink:title="TemplateNotFound" target="_parent">
<polygon fill="none" stroke="black" points="725,-1744 601,-1744 601,-1708 725,-1708 725,-1744"/>
<text text-anchor="middle" x="663" y="-1723.1" font-family="Courier New" font-size="11.00">TemplateNotFound</text>
</a>
</g>
<!-- \\Aura\\View\\Exception -->
<g id="node38" class="node"><title>\\Aura\\View\\Exception</title>
<a xlink:href="db_src_Exception.html" xlink:title="Exception" target="_parent">
<polygon fill="none" stroke="black" points="401,-1717 325,-1717 325,-1681 401,-1681 401,-1717"/>
<text text-anchor="middle" x="363" y="-1696.1" font-family="Courier New" font-size="11.00">Exception</text>
</a>
</g>
<!-- \\Aura\\View\\Exception\\TemplateNotFound&#45;&gt;\\Aura\\View\\Exception -->
<g id="edge39" class="edge"><title>\\Aura\\View\\Exception\\TemplateNotFound&#45;&gt;\\Aura\\View\\Exception</title>
<path fill="none" stroke="black" d="M600.475,-1720.37C544.407,-1715.33 463.275,-1708.02 411.847,-1703.4"/>
<polygon fill="none" stroke="black" points="411.932,-1699.89 401.659,-1702.48 411.305,-1706.86 411.932,-1699.89"/>
</g>
<!-- \\Aura\\View\\Exception\\HelperNotMapped -->
<g id="node5" class="node"><title>\\Aura\\View\\Exception\\HelperNotMapped</title>
<a xlink:href="db_src_Exception_HelperNotMapped.html" xlink:title="HelperNotMapped" target="_parent">
<polygon fill="none" stroke="black" points="722,-1690 604,-1690 604,-1654 722,-1654 722,-1690"/>
<text text-anchor="middle" x="663" y="-1669.1" font-family="Courier New" font-size="11.00">HelperNotMapped</text>
</a>
</g>
<!-- \\Aura\\View\\Exception\\HelperNotMapped&#45;&gt;\\Aura\\View\\Exception -->
<g id="edge41" class="edge"><title>\\Aura\\View\\Exception\\HelperNotMapped&#45;&gt;\\Aura\\View\\Exception</title>
<path fill="none" stroke="black" d="M603.73,-1677.33C547.539,-1682.39 464.139,-1689.9 411.715,-1694.62"/>
<polygon fill="none" stroke="black" points="411.307,-1691.14 401.661,-1695.52 411.934,-1698.11 411.307,-1691.14"/>
</g>
<!-- \\Aura\\View\\Helper\\StylesTest -->
<g id="node7" class="node"><title>\\Aura\\View\\Helper\\StylesTest</title>
<a xlink:href="db_tests_Helper_StylesTest.html" xlink:title="StylesTest" target="_parent">
<polygon fill="none" stroke="black" points="705,-474 621,-474 621,-438 705,-438 705,-474"/>
<text text-anchor="middle" x="663" y="-453.1" font-family="Courier New" font-size="11.00">StylesTest</text>
</a>
</g>
<!-- \\PHPUnit_Framework_TestCase -->
<g id="node43" class="node"><title>\\PHPUnit_Framework_TestCase</title>
<ellipse fill="none" stroke="black" cx="363" cy="-18" rx="164.756" ry="18.3848"/>
<text text-anchor="middle" x="363" y="-14.4" font-family="Times Roman,serif" font-size="14.00" fill="gray">\PHPUnit_Framework_TestCase</text>
</g>
<!-- \\Aura\\View\\Helper\\StylesTest&#45;&gt;\\PHPUnit_Framework_TestCase -->
<g id="edge15" class="edge"><title>\\Aura\\View\\Helper\\StylesTest&#45;&gt;\\PHPUnit_Framework_TestCase</title>
<path fill="none" stroke="black" d="M620.909,-447.971C610.049,-443.968 599.359,-437.973 592,-429 483.112,-296.236 648.596,-170.227 528,-48 522.249,-42.171 515.77,-37.2606 508.792,-33.1374"/>
<polygon fill="none" stroke="black" points="510.18,-29.912 499.704,-28.3259 506.904,-36.0984 510.18,-29.912"/>
</g>
<!-- \\Aura\\View\\Helper\\MetasTest -->
<g id="node8" class="node"><title>\\Aura\\View\\Helper\\MetasTest</title>
<a xlink:href="db_tests_Helper_MetasTest.html" xlink:title="MetasTest" target="_parent">
<polygon fill="none" stroke="black" points="701,-420 625,-420 625,-384 701,-384 701,-420"/>
<text text-anchor="middle" x="663" y="-399.1" font-family="Courier New" font-size="11.00">MetasTest</text>
</a>
</g>
<!-- \\Aura\\View\\Helper\\MetasTest&#45;&gt;\\PHPUnit_Framework_TestCase -->
<g id="edge17" class="edge"><title>\\Aura\\View\\Helper\\MetasTest&#45;&gt;\\PHPUnit_Framework_TestCase</title>
<path fill="none" stroke="black" d="M624.15,-397.775C612.316,-394.629 600.265,-389.228 592,-380 491.746,-268.059 634.819,-153.695 528,-48 522.106,-42.1684 515.482,-37.263 508.363,-33.1499"/>
<polygon fill="none" stroke="black" points="509.588,-29.8429 499.099,-28.3535 506.37,-36.0592 509.588,-29.8429"/>
</g>
<!-- \\Aura\\View\\Helper\\TitleTest -->
<g id="node9" class="node"><title>\\Aura\\View\\Helper\\TitleTest</title>
<a xlink:href="db_tests_Helper_TitleTest.html" xlink:title="TitleTest" target="_parent">
<polygon fill="none" stroke="black" points="701,-960 625,-960 625,-924 701,-924 701,-960"/>
<text text-anchor="middle" x="663" y="-939.1" font-family="Courier New" font-size="11.00">TitleTest</text>
</a>
</g>
<!-- \\Aura\\View\\Helper\\TitleTest&#45;&gt;\\PHPUnit_Framework_TestCase -->
<g id="edge19" class="edge"><title>\\Aura\\View\\Helper\\TitleTest&#45;&gt;\\PHPUnit_Framework_TestCase</title>
<path fill="none" stroke="black" d="M624.446,-935.802C612.188,-931.877 599.803,-925.468 592,-915 476.543,-760.105 657.166,-191.662 528,-48 522.781,-42.1948 516.844,-37.2765 510.399,-33.1231"/>
<polygon fill="none" stroke="black" points="511.731,-29.8527 501.314,-27.9219 508.253,-35.9277 511.731,-29.8527"/>
</g>
<!-- \\Aura\\View\\Helper\\ImageTest -->
<g id="node10" class="node"><title>\\Aura\\View\\Helper\\ImageTest</title>
<a xlink:href="db_tests_Helper_ImageTest.html" xlink:title="ImageTest" target="_parent">
<polygon fill="none" stroke="black" points="701,-906 625,-906 625,-870 701,-870 701,-906"/>
<text text-anchor="middle" x="663" y="-885.1" font-family="Courier New" font-size="11.00">ImageTest</text>
</a>
</g>
<!-- \\Aura\\View\\Helper\\ImageTest&#45;&gt;\\PHPUnit_Framework_TestCase -->
<g id="edge21" class="edge"><title>\\Aura\\View\\Helper\\ImageTest&#45;&gt;\\PHPUnit_Framework_TestCase</title>
<path fill="none" stroke="black" d="M624.475,-881.78C612.22,-877.854 599.828,-871.449 592,-861 483.34,-715.963 649.494,-182.469 528,-48 522.766,-42.2075 516.819,-37.2993 510.365,-33.1537"/>
<polygon fill="none" stroke="black" points="511.689,-29.8795 501.269,-27.9619 508.219,-35.9589 511.689,-29.8795"/>
</g>
<!-- \\Aura\\View\\Helper\\AnchorTest -->
<g id="node11" class="node"><title>\\Aura\\View\\Helper\\AnchorTest</title>
<a xlink:href="db_tests_Helper_AnchorTest.html" xlink:title="AnchorTest" target="_parent">
<polygon fill="none" stroke="black" points="705,-852 621,-852 621,-816 705,-816 705,-852"/>
<text text-anchor="middle" x="663" y="-831.1" font-family="Courier New" font-size="11.00">AnchorTest</text>
</a>
</g>
<!-- \\Aura\\View\\Helper\\AnchorTest&#45;&gt;\\PHPUnit_Framework_TestCase -->
<g id="edge23" class="edge"><title>\\Aura\\View\\Helper\\AnchorTest&#45;&gt;\\PHPUnit_Framework_TestCase</title>
<path fill="none" stroke="black" d="M620.795,-826.488C609.797,-822.493 599.063,-816.374 592,-807 490.135,-671.818 641.825,-173.278 528,-48 522.75,-42.2221 516.79,-37.3254 510.326,-33.1888"/>
<polygon fill="none" stroke="black" points="511.642,-29.9102 501.219,-28.0076 508.18,-35.9946 511.642,-29.9102"/>
</g>
<!-- \\Aura\\View\\Helper\\EscapeTest -->
<g id="node12" class="node"><title>\\Aura\\View\\Helper\\EscapeTest</title>
<a xlink:href="db_tests_Helper_EscapeTest.html" xlink:title="EscapeTest" target="_parent">
<polygon fill="none" stroke="black" points="705,-798 621,-798 621,-762 705,-762 705,-798"/>
<text text-anchor="middle" x="663" y="-777.1" font-family="Courier New" font-size="11.00">EscapeTest</text>
</a>
</g>
<!-- \\Aura\\View\\Helper\\EscapeTest&#45;&gt;\\PHPUnit_Framework_TestCase -->
<g id="edge25" class="edge"><title>\\Aura\\View\\Helper\\EscapeTest&#45;&gt;\\PHPUnit_Framework_TestCase</title>
<path fill="none" stroke="black" d="M620.833,-772.459C609.836,-768.463 599.093,-762.351 592,-753 496.927,-627.669 634.158,-164.091 528,-48 522.732,-42.239 516.757,-37.3556 510.282,-33.2293"/>
<polygon fill="none" stroke="black" points="511.587,-29.9458 501.161,-28.0604 508.135,-36.0359 511.587,-29.9458"/>
</g>
<!-- \\Aura\\View\\Helper\\ScriptsTest -->
<g id="node13" class="node"><title>\\Aura\\View\\Helper\\ScriptsTest</title>
<a xlink:href="db_tests_Helper_ScriptsTest.html" xlink:title="ScriptsTest" target="_parent">
<polygon fill="none" stroke="black" points="708,-744 618,-744 618,-708 708,-708 708,-744"/>
<text text-anchor="middle" x="663" y="-723.1" font-family="Courier New" font-size="11.00">ScriptsTest</text>
</a>
</g>
<!-- \\Aura\\View\\Helper\\ScriptsTest&#45;&gt;\\PHPUnit_Framework_TestCase -->
<g id="edge27" class="edge"><title>\\Aura\\View\\Helper\\ScriptsTest&#45;&gt;\\PHPUnit_Framework_TestCase</title>
<path fill="none" stroke="black" d="M617.185,-716.997C607.511,-713.016 598.327,-707.277 592,-699 503.716,-583.516 626.496,-154.908 528,-48 522.521,-42.0529 516.288,-37.0431 509.531,-32.8372"/>
<polygon fill="none" stroke="black" points="511.148,-29.7317 500.707,-27.9297 507.745,-35.8491 511.148,-29.7317"/>
</g>
<!-- \\Aura\\View\\Helper\\LinksTest -->
<g id="node14" class="node"><title>\\Aura\\View\\Helper\\LinksTest</title>
<a xlink:href="db_tests_Helper_LinksTest.html" xlink:title="LinksTest" target="_parent">
<polygon fill="none" stroke="black" points="701,-690 625,-690 625,-654 701,-654 701,-690"/>
<text text-anchor="middle" x="663" y="-669.1" font-family="Courier New" font-size="11.00">LinksTest</text>
</a>
</g>
<!-- \\Aura\\View\\Helper\\LinksTest&#45;&gt;\\PHPUnit_Framework_TestCase -->
<g id="edge29" class="edge"><title>\\Aura\\View\\Helper\\LinksTest&#45;&gt;\\PHPUnit_Framework_TestCase</title>
<path fill="none" stroke="black" d="M624.269,-665.534C612.149,-661.588 599.894,-655.233 592,-645 429,-433.714 709.677,-243.459 528,-48 522.495,-42.0771 516.242,-37.0862 509.469,-32.8948"/>
<polygon fill="none" stroke="black" points="511.072,-29.7821 500.628,-28.0034 507.683,-35.9072 511.072,-29.7821"/>
</g>
<!-- \\Aura\\View\\Helper\\DatetimeTest -->
<g id="node15" class="node"><title>\\Aura\\View\\Helper\\DatetimeTest</title>
<a xlink:href="db_tests_Helper_DatetimeTest.html" xlink:title="DatetimeTest" target="_parent">
<polygon fill="none" stroke="black" points="712,-636 614,-636 614,-600 712,-600 712,-636"/>
<text text-anchor="middle" x="663" y="-615.1" font-family="Courier New" font-size="11.00">DatetimeTest</text>
</a>
</g>
<!-- \\Aura\\View\\Helper\\DatetimeTest&#45;&gt;\\PHPUnit_Framework_TestCase -->
<g id="edge31" class="edge"><title>\\Aura\\View\\Helper\\DatetimeTest&#45;&gt;\\PHPUnit_Framework_TestCase</title>
<path fill="none" stroke="black" d="M613.651,-607.313C605.333,-603.444 597.596,-598.175 592,-591 442.557,-399.381 694.374,-225.117 528,-48 522.464,-42.1061 516.186,-37.138 509.394,-32.9641"/>
<polygon fill="none" stroke="black" points="510.982,-29.8429 500.533,-28.0921 507.61,-35.977 510.982,-29.8429"/>
</g>
<!-- \\Aura\\View\\Helper\\MockHelper -->
<g id="node16" class="node"><title>\\Aura\\View\\Helper\\MockHelper</title>
<a xlink:href="db_tests_Helper_MockHelper.html" xlink:title="MockHelper" target="_parent">
<polygon fill="none" stroke="black" points="705,-1608 621,-1608 621,-1572 705,-1572 705,-1608"/>
<text text-anchor="middle" x="663" y="-1587.1" font-family="Courier New" font-size="11.00">MockHelper</text>
</a>
</g>
<!-- \\Aura\\View\\Helper\\AbstractHelper -->
<g id="node27" class="node"><title>\\Aura\\View\\Helper\\AbstractHelper</title>
<a xlink:href="db_src_Helper_AbstractHelper.html" xlink:title="«abstract»&lt;br/&gt;AbstractHelper" target="_parent">
<polygon fill="none" stroke="black" points="419,-1311 307,-1311 307,-1275 419,-1275 419,-1311"/>
<text text-anchor="start" x="329" y="-1298.43" font-family="Courier New" font-size="11.00">«abstract»</text>
<text text-anchor="start" x="315.5" y="-1285.23" font-family="Courier New" font-size="11.00">AbstractHelper</text>
</a>
</g>
<!-- \\Aura\\View\\Helper\\MockHelper&#45;&gt;\\Aura\\View\\Helper\\AbstractHelper -->
<g id="edge33" class="edge"><title>\\Aura\\View\\Helper\\MockHelper&#45;&gt;\\Aura\\View\\Helper\\AbstractHelper</title>
<path fill="none" stroke="black" d="M620.66,-1581.27C610.057,-1577.27 599.563,-1571.45 592,-1563 516.09,-1478.17 613.174,-1390.52 528,-1315 501.545,-1291.54 462.691,-1285.48 429.331,-1285.55"/>
<polygon fill="none" stroke="black" points="429.102,-1282.05 419.174,-1285.75 429.243,-1289.05 429.102,-1282.05"/>
</g>
<!-- \\Aura\\View\\Helper\\BaseTest -->
<g id="node17" class="node"><title>\\Aura\\View\\Helper\\BaseTest</title>
<a xlink:href="db_tests_Helper_BaseTest.html" xlink:title="BaseTest" target="_parent">
<polygon fill="none" stroke="black" points="698,-582 628,-582 628,-546 698,-546 698,-582"/>
<text text-anchor="middle" x="663" y="-561.1" font-family="Courier New" font-size="11.00">BaseTest</text>
</a>
</g>
<!-- \\Aura\\View\\Helper\\BaseTest&#45;&gt;\\PHPUnit_Framework_TestCase -->
<g id="edge35" class="edge"><title>\\Aura\\View\\Helper\\BaseTest&#45;&gt;\\PHPUnit_Framework_TestCase</title>
<path fill="none" stroke="black" d="M627.365,-558.35C614.33,-554.482 600.667,-547.968 592,-537 456.099,-365.03 679.088,-206.793 528,-48 522.426,-42.1417 516.119,-37.2015 509.305,-33.049"/>
<polygon fill="none" stroke="black" points="510.873,-29.9175 500.418,-28.2007 507.52,-36.0625 510.873,-29.9175"/>
</g>
<!-- \\Aura\\View\\Helper\\AttribsTest -->
<g id="node18" class="node"><title>\\Aura\\View\\Helper\\AttribsTest</title>
<a xlink:href="db_tests_Helper_AttribsTest.html" xlink:title="AttribsTest" target="_parent">
<polygon fill="none" stroke="black" points="708,-528 618,-528 618,-492 708,-492 708,-528"/>
<text text-anchor="middle" x="663" y="-507.1" font-family="Courier New" font-size="11.00">AttribsTest</text>
</a>
</g>
<!-- \\Aura\\View\\Helper\\AttribsTest&#45;&gt;\\PHPUnit_Framework_TestCase -->
<g id="edge37" class="edge"><title>\\Aura\\View\\Helper\\AttribsTest&#45;&gt;\\PHPUnit_Framework_TestCase</title>
<path fill="none" stroke="black" d="M617.468,-500.775C607.783,-496.803 598.524,-491.122 592,-483 469.621,-330.651 663.826,-188.493 528,-48 522.308,-42.1127 515.876,-37.157 508.934,-32.9991"/>
<polygon fill="none" stroke="black" points="510.353,-29.7886 499.885,-28.1491 507.046,-35.9582 510.353,-29.7886"/>
</g>
<!-- \\Aura\\View\\Helper\\Datetime -->
<g id="node19" class="node"><title>\\Aura\\View\\Helper\\Datetime</title>
<a xlink:href="db_src_Helper_Datetime.html" xlink:title="Datetime" target="_parent">
<polygon fill="none" stroke="black" points="698,-1554 628,-1554 628,-1518 698,-1518 698,-1554"/>
<text text-anchor="middle" x="663" y="-1533.1" font-family="Courier New" font-size="11.00">Datetime</text>
</a>
</g>
<!-- \\Aura\\View\\Helper\\Datetime&#45;&gt;\\Aura\\View\\Helper\\AbstractHelper -->
<g id="edge43" class="edge"><title>\\Aura\\View\\Helper\\Datetime&#45;&gt;\\Aura\\View\\Helper\\AbstractHelper</title>
<path fill="none" stroke="black" d="M627.291,-1529.12C614.715,-1525.11 601.388,-1518.82 592,-1509 529.252,-1443.38 597.888,-1372.96 528,-1315 500.885,-1292.51 462.185,-1286.45 429.078,-1286.27"/>
<polygon fill="none" stroke="black" points="428.959,-1282.78 419.002,-1286.4 429.044,-1289.77 428.959,-1282.78"/>
</g>
<!-- \\Aura\\View\\Helper\\Title -->
<g id="node20" class="node"><title>\\Aura\\View\\Helper\\Title</title>
<a xlink:href="db_src_Helper_Title.html" xlink:title="Title" target="_parent">
<polygon fill="none" stroke="black" points="690,-1500 636,-1500 636,-1464 690,-1464 690,-1500"/>
<text text-anchor="middle" x="663" y="-1479.1" font-family="Courier New" font-size="11.00">Title</text>
</a>
</g>
<!-- \\Aura\\View\\Helper\\Title&#45;&gt;\\Aura\\View\\Helper\\AbstractHelper -->
<g id="edge45" class="edge"><title>\\Aura\\View\\Helper\\Title&#45;&gt;\\Aura\\View\\Helper\\AbstractHelper</title>
<path fill="none" stroke="black" d="M635.703,-1476.88C621.241,-1472.97 604.031,-1466.27 592,-1455 542.067,-1408.23 582.987,-1355.71 528,-1315 500.125,-1294.36 462.124,-1288.24 429.616,-1287.56"/>
<polygon fill="none" stroke="black" points="429.288,-1284.06 419.274,-1287.52 429.26,-1291.06 429.288,-1284.06"/>
</g>
<!-- \\Aura\\View\\Helper\\Metas -->
<g id="node21" class="node"><title>\\Aura\\View\\Helper\\Metas</title>
<a xlink:href="db_src_Helper_Metas.html" xlink:title="Metas" target="_parent">
<polygon fill="none" stroke="black" points="690,-1446 636,-1446 636,-1410 690,-1410 690,-1446"/>
<text text-anchor="middle" x="663" y="-1425.1" font-family="Courier New" font-size="11.00">Metas</text>
</a>
</g>
<!-- \\Aura\\View\\Helper\\Metas&#45;&gt;\\Aura\\View\\Helper\\AbstractHelper -->
<g id="edge47" class="edge"><title>\\Aura\\View\\Helper\\Metas&#45;&gt;\\Aura\\View\\Helper\\AbstractHelper</title>
<path fill="none" stroke="black" d="M635.899,-1421.63C621.836,-1417.4 604.94,-1410.78 592,-1401 553.99,-1372.27 569.065,-1339.16 528,-1315 498.557,-1297.68 461.124,-1291.66 429.359,-1290.2"/>
<polygon fill="none" stroke="black" points="429.368,-1286.7 419.261,-1289.88 429.145,-1293.7 429.368,-1286.7"/>
</g>
<!-- \\Aura\\View\\Helper\\Attribs -->
<g id="node22" class="node"><title>\\Aura\\View\\Helper\\Attribs</title>
<a xlink:href="db_src_Helper_Attribs.html" xlink:title="Attribs" target="_parent">
<polygon fill="none" stroke="black" points="695,-1392 631,-1392 631,-1356 695,-1356 695,-1392"/>
<text text-anchor="middle" x="663" y="-1371.1" font-family="Courier New" font-size="11.00">Attribs</text>
</a>
</g>
<!-- \\Aura\\View\\Helper\\Attribs&#45;&gt;\\Aura\\View\\Helper\\AbstractHelper -->
<g id="edge49" class="edge"><title>\\Aura\\View\\Helper\\Attribs&#45;&gt;\\Aura\\View\\Helper\\AbstractHelper</title>
<path fill="none" stroke="black" d="M630.915,-1362.58C618.632,-1358 604.559,-1352.51 592,-1347 562.879,-1334.22 558.399,-1324.34 528,-1315 496.356,-1305.28 459.994,-1299.85 429.472,-1296.82"/>
<polygon fill="none" stroke="black" points="429.641,-1293.32 419.36,-1295.88 428.994,-1300.29 429.641,-1293.32"/>
</g>
<!-- \\Aura\\View\\Helper\\Scripts -->
<g id="node23" class="node"><title>\\Aura\\View\\Helper\\Scripts</title>
<a xlink:href="db_src_Helper_Scripts.html" xlink:title="Scripts" target="_parent">
<polygon fill="none" stroke="black" points="695,-1338 631,-1338 631,-1302 695,-1302 695,-1338"/>
<text text-anchor="middle" x="663" y="-1317.1" font-family="Courier New" font-size="11.00">Scripts</text>
</a>
</g>
<!-- \\Aura\\View\\Helper\\Scripts&#45;&gt;\\Aura\\View\\Helper\\AbstractHelper -->
<g id="edge51" class="edge"><title>\\Aura\\View\\Helper\\Scripts&#45;&gt;\\Aura\\View\\Helper\\AbstractHelper</title>
<path fill="none" stroke="black" d="M630.895,-1317.11C582.999,-1312.8 491.783,-1304.59 429.209,-1298.96"/>
<polygon fill="none" stroke="black" points="429.311,-1295.45 419.037,-1298.04 428.683,-1302.43 429.311,-1295.45"/>
</g>
<!-- \\Aura\\View\\Helper\\Links -->
<g id="node24" class="node"><title>\\Aura\\View\\Helper\\Links</title>
<a xlink:href="db_src_Helper_Links.html" xlink:title="Links" target="_parent">
<polygon fill="none" stroke="black" points="690,-1284 636,-1284 636,-1248 690,-1248 690,-1284"/>
<text text-anchor="middle" x="663" y="-1263.1" font-family="Courier New" font-size="11.00">Links</text>
</a>
</g>
<!-- \\Aura\\View\\Helper\\Links&#45;&gt;\\Aura\\View\\Helper\\AbstractHelper -->
<g id="edge53" class="edge"><title>\\Aura\\View\\Helper\\Links&#45;&gt;\\Aura\\View\\Helper\\AbstractHelper</title>
<path fill="none" stroke="black" d="M635.848,-1268.44C589.572,-1272.61 494.154,-1281.2 429.352,-1287.03"/>
<polygon fill="none" stroke="black" points="428.873,-1283.56 419.227,-1287.94 429.5,-1290.53 428.873,-1283.56"/>
</g>
<!-- \\Aura\\View\\Helper\\Base -->
<g id="node25" class="node"><title>\\Aura\\View\\Helper\\Base</title>
<a xlink:href="db_src_Helper_Base.html" xlink:title="Base" target="_parent">
<polygon fill="none" stroke="black" points="690,-1230 636,-1230 636,-1194 690,-1194 690,-1230"/>
<text text-anchor="middle" x="663" y="-1209.1" font-family="Courier New" font-size="11.00">Base</text>
</a>
</g>
<!-- \\Aura\\View\\Helper\\Base&#45;&gt;\\Aura\\View\\Helper\\AbstractHelper -->
<g id="edge55" class="edge"><title>\\Aura\\View\\Helper\\Base&#45;&gt;\\Aura\\View\\Helper\\AbstractHelper</title>
<path fill="none" stroke="black" d="M635.771,-1221.63C622.448,-1226.52 606.25,-1232.75 592,-1239 562.879,-1251.78 558.399,-1261.66 528,-1271 496.356,-1280.72 459.994,-1286.15 429.472,-1289.18"/>
<polygon fill="none" stroke="black" points="428.994,-1285.71 419.36,-1290.12 429.641,-1292.68 428.994,-1285.71"/>
</g>
<!-- \\Aura\\View\\Helper\\Escape -->
<g id="node26" class="node"><title>\\Aura\\View\\Helper\\Escape</title>
<a xlink:href="db_src_Helper_Escape.html" xlink:title="Escape" target="_parent">
<polygon fill="none" stroke="black" points="691,-1176 635,-1176 635,-1140 691,-1140 691,-1176"/>
<text text-anchor="middle" x="663" y="-1155.1" font-family="Courier New" font-size="11.00">Escape</text>
</a>
</g>
<!-- \\Aura\\View\\Helper\\Escape&#45;&gt;\\Aura\\View\\Helper\\AbstractHelper -->
<g id="edge57" class="edge"><title>\\Aura\\View\\Helper\\Escape&#45;&gt;\\Aura\\View\\Helper\\AbstractHelper</title>
<path fill="none" stroke="black" d="M634.171,-1164.9C620.469,-1169.15 604.414,-1175.62 592,-1185 553.99,-1213.73 569.065,-1246.84 528,-1271 498.557,-1288.32 461.124,-1294.34 429.359,-1295.8"/>
<polygon fill="none" stroke="black" points="429.145,-1292.3 419.261,-1296.12 429.368,-1299.3 429.145,-1292.3"/>
</g>
<!-- \\Aura\\View\\Helper\\Styles -->
<g id="node28" class="node"><title>\\Aura\\View\\Helper\\Styles</title>
<a xlink:href="db_src_Helper_Styles.html" xlink:title="Styles" target="_parent">
<polygon fill="none" stroke="black" points="691,-1122 635,-1122 635,-1086 691,-1086 691,-1122"/>
<text text-anchor="middle" x="663" y="-1101.1" font-family="Courier New" font-size="11.00">Styles</text>
</a>
</g>
<!-- \\Aura\\View\\Helper\\Styles&#45;&gt;\\Aura\\View\\Helper\\AbstractHelper -->
<g id="edge59" class="edge"><title>\\Aura\\View\\Helper\\Styles&#45;&gt;\\Aura\\View\\Helper\\AbstractHelper</title>
<path fill="none" stroke="black" d="M634.307,-1109.51C620.145,-1113.46 603.646,-1120.09 592,-1131 542.067,-1177.77 582.987,-1230.29 528,-1271 500.125,-1291.64 462.124,-1297.76 429.616,-1298.44"/>
<polygon fill="none" stroke="black" points="429.26,-1294.94 419.274,-1298.48 429.288,-1301.94 429.26,-1294.94"/>
</g>
<!-- \\Aura\\View\\Helper\\Image -->
<g id="node29" class="node"><title>\\Aura\\View\\Helper\\Image</title>
<a xlink:href="db_src_Helper_Image.html" xlink:title="Image" target="_parent">
<polygon fill="none" stroke="black" points="690,-1068 636,-1068 636,-1032 690,-1032 690,-1068"/>
<text text-anchor="middle" x="663" y="-1047.1" font-family="Courier New" font-size="11.00">Image</text>
</a>
</g>
<!-- \\Aura\\View\\Helper\\Image&#45;&gt;\\Aura\\View\\Helper\\AbstractHelper -->
<g id="edge61" class="edge"><title>\\Aura\\View\\Helper\\Image&#45;&gt;\\Aura\\View\\Helper\\AbstractHelper</title>
<path fill="none" stroke="black" d="M635.901,-1054.44C621.139,-1058.16 603.575,-1064.9 592,-1077 529.252,-1142.62 597.888,-1213.04 528,-1271 500.885,-1293.49 462.185,-1299.55 429.078,-1299.73"/>
<polygon fill="none" stroke="black" points="429.044,-1296.23 419.002,-1299.6 428.959,-1303.22 429.044,-1296.23"/>
</g>
<!-- \\Aura\\View\\Helper\\Anchor -->
<g id="node30" class="node"><title>\\Aura\\View\\Helper\\Anchor</title>
<a xlink:href="db_src_Helper_Anchor.html" xlink:title="Anchor" target="_parent">
<polygon fill="none" stroke="black" points="691,-1014 635,-1014 635,-978 691,-978 691,-1014"/>
<text text-anchor="middle" x="663" y="-993.1" font-family="Courier New" font-size="11.00">Anchor</text>
</a>
</g>
<!-- \\Aura\\View\\Helper\\Anchor&#45;&gt;\\Aura\\View\\Helper\\AbstractHelper -->
<g id="edge63" class="edge"><title>\\Aura\\View\\Helper\\Anchor&#45;&gt;\\Aura\\View\\Helper\\AbstractHelper</title>
<path fill="none" stroke="black" d="M634.18,-1000.5C619.63,-1004.21 602.817,-1010.91 592,-1023 516.09,-1107.83 613.174,-1195.48 528,-1271 501.545,-1294.46 462.691,-1300.52 429.331,-1300.45"/>
<polygon fill="none" stroke="black" points="429.243,-1296.95 419.174,-1300.25 429.102,-1303.95 429.243,-1296.95"/>
</g>
<!-- \\Aura\\View\\TwoStepTest -->
<g id="node31" class="node"><title>\\Aura\\View\\TwoStepTest</title>
<a xlink:href="db_tests_TwoStepTest.html" xlink:title="TwoStepTest" target="_parent">
<polygon fill="none" stroke="black" points="708,-312 618,-312 618,-276 708,-276 708,-312"/>
<text text-anchor="middle" x="663" y="-291.1" font-family="Courier New" font-size="11.00">TwoStepTest</text>
</a>
</g>
<!-- \\Aura\\View\\TwoStepTest&#45;&gt;\\PHPUnit_Framework_TestCase -->
<g id="edge9" class="edge"><title>\\Aura\\View\\TwoStepTest&#45;&gt;\\PHPUnit_Framework_TestCase</title>
<path fill="none" stroke="black" d="M617.145,-283.644C607.822,-279.732 598.801,-274.362 592,-267 523.186,-192.518 603.35,-115.862 528,-48 521.398,-42.0541 514.026,-37.0994 506.16,-32.9842"/>
<polygon fill="none" stroke="black" points="507.621,-29.8033 497.085,-28.6866 504.625,-36.1298 507.621,-29.8033"/>
</g>
<!-- \\Aura\\View\\TemplateTest -->
<g id="node32" class="node"><title>\\Aura\\View\\TemplateTest</title>
<a xlink:href="db_tests_TemplateTest.html" xlink:title="TemplateTest" target="_parent">
<polygon fill="none" stroke="black" points="712,-258 614,-258 614,-222 712,-222 712,-258"/>
<text text-anchor="middle" x="663" y="-237.1" font-family="Courier New" font-size="11.00">TemplateTest</text>
</a>
</g>
<!-- \\Aura\\View\\TemplateTest&#45;&gt;\\PHPUnit_Framework_TestCase -->
<g id="edge11" class="edge"><title>\\Aura\\View\\TemplateTest&#45;&gt;\\PHPUnit_Framework_TestCase</title>
<path fill="none" stroke="black" d="M613.928,-227.595C605.885,-223.9 598.175,-219.134 592,-213 536.198,-157.566 588.648,-98.0872 528,-48 520.746,-42.0092 512.695,-37.0528 504.163,-32.965"/>
<polygon fill="none" stroke="black" points="505.297,-29.6417 494.731,-28.8625 502.505,-36.0608 505.297,-29.6417"/>
</g>
<!-- \\Aura\\View\\FinderTest -->
<g id="node33" class="node"><title>\\Aura\\View\\FinderTest</title>
<a xlink:href="db_tests_FinderTest.html" xlink:title="FinderTest" target="_parent">
<polygon fill="none" stroke="black" points="705,-204 621,-204 621,-168 705,-168 705,-204"/>
<text text-anchor="middle" x="663" y="-183.1" font-family="Courier New" font-size="11.00">FinderTest</text>
</a>
</g>
<!-- \\Aura\\View\\FinderTest&#45;&gt;\\PHPUnit_Framework_TestCase -->
<g id="edge13" class="edge"><title>\\Aura\\View\\FinderTest&#45;&gt;\\PHPUnit_Framework_TestCase</title>
<path fill="none" stroke="black" d="M620.966,-175.399C610.725,-171.432 600.332,-166.098 592,-159 548.651,-122.072 574.551,-80.8005 528,-48 519.433,-41.9634 510.012,-37.0312 500.149,-33.0123"/>
<polygon fill="none" stroke="black" points="501.161,-29.6544 490.569,-29.4327 498.711,-36.2116 501.161,-29.6544"/>
</g>
<!-- \\Aura\\View\\Template -->
<g id="node34" class="node"><title>\\Aura\\View\\Template</title>
<a xlink:href="db_src_Template.html" xlink:title="Template" target="_parent">
<polygon fill="none" stroke="black" points="698,-366 628,-366 628,-330 698,-330 698,-366"/>
<text text-anchor="middle" x="663" y="-345.1" font-family="Courier New" font-size="11.00">Template</text>
</a>
</g>
<!-- \\Aura\\View\\AbstractTemplate -->
<g id="node37" class="node"><title>\\Aura\\View\\AbstractTemplate</title>
<a xlink:href="db_src_AbstractTemplate.html" xlink:title="«abstract»&lt;br/&gt;AbstractTemplate" target="_parent">
<polygon fill="none" stroke="black" points="426,-366 300,-366 300,-330 426,-330 426,-366"/>
<text text-anchor="start" x="329" y="-353.433" font-family="Courier New" font-size="11.00">«abstract»</text>
<text text-anchor="start" x="308.5" y="-340.233" font-family="Courier New" font-size="11.00">AbstractTemplate</text>
</a>
</g>
<!-- \\Aura\\View\\Template&#45;&gt;\\Aura\\View\\AbstractTemplate -->
<g id="edge65" class="edge"><title>\\Aura\\View\\Template&#45;&gt;\\Aura\\View\\AbstractTemplate</title>
<path fill="none" stroke="black" d="M627.408,-348C580.604,-348 497.212,-348 436.567,-348"/>
<polygon fill="none" stroke="black" points="436.281,-344.5 426.281,-348 436.281,-351.5 436.281,-344.5"/>
</g>
<!-- \\Aura\\View\\TwoStep -->
<g id="node35" class="node"><title>\\Aura\\View\\TwoStep</title>
<a xlink:href="db_src_TwoStep.html" xlink:title="TwoStep" target="_parent">
<polygon fill="none" stroke="black" points="695,-150 631,-150 631,-114 695,-114 695,-150"/>
<text text-anchor="middle" x="663" y="-129.1" font-family="Courier New" font-size="11.00">TwoStep</text>
</a>
</g>
<!-- \\Aura\\View\\Finder -->
<g id="node36" class="node"><title>\\Aura\\View\\Finder</title>
<a xlink:href="db_src_Finder.html" xlink:title="Finder" target="_parent">
<polygon fill="none" stroke="black" points="691,-96 635,-96 635,-60 691,-60 691,-96"/>
<text text-anchor="middle" x="663" y="-75.1" font-family="Courier New" font-size="11.00">Finder</text>
</a>
</g>
<!-- \\Exception -->
<g id="node73" class="node"><title>\\Exception</title>
<ellipse fill="none" stroke="black" cx="63" cy="-1699" rx="62.9325" ry="18.3848"/>
<text text-anchor="middle" x="63" y="-1695.4" font-family="Times Roman,serif" font-size="14.00" fill="gray">\Exception</text>
</g>
<!-- \\Aura\\View\\Exception&#45;&gt;\\Exception -->
<g id="edge67" class="edge"><title>\\Aura\\View\\Exception&#45;&gt;\\Exception</title>
<path fill="none" stroke="black" d="M324.394,-1699C276.972,-1699 195.519,-1699 136.115,-1699"/>
<polygon fill="none" stroke="black" points="136.037,-1695.5 126.037,-1699 136.037,-1702.5 136.037,-1695.5"/>
</g>
</g>
</svg>
