<?xml version="1.0" encoding="UTF-8" standalone="no"?>
<!DOCTYPE svg PUBLIC "-//W3C//DTD SVG 1.1//EN"
 "http://www.w3.org/Graphics/SVG/1.1/DTD/svg11.dtd">
<!-- Generated by graphviz version 2.26.3 (20100126.1600)
 -->
<!-- Title: G Pages: 1 -->
<svg width="562pt" height="1058pt"
 viewBox="0.00 0.00 562.00 1058.00" xmlns="http://www.w3.org/2000/svg" xmlns:xlink="http://www.w3.org/1999/xlink">
<g id="graph1" class="graph" transform="scale(1 1) rotate(0) translate(4 1054)">
<title>G</title>
<polygon fill="white" stroke="white" points="-4,5 -4,-1054 559,-1054 559,5 -4,5"/>
<g id="graph2" class="cluster"><title>cluster_Aura</title>
<polyline fill="none" stroke="gray" points="193,-8 534,-8 "/>
<path fill="none" stroke="gray" d="M534,-8C540,-8 546,-14 546,-20"/>
<polyline fill="none" stroke="gray" points="546,-20 546,-1030 "/>
<path fill="none" stroke="gray" d="M546,-1030C546,-1036 540,-1042 534,-1042"/>
<polyline fill="none" stroke="gray" points="534,-1042 193,-1042 "/>
<path fill="none" stroke="gray" d="M193,-1042C187,-1042 181,-1036 181,-1030"/>
<polyline fill="none" stroke="gray" points="181,-1030 181,-20 "/>
<path fill="none" stroke="gray" d="M181,-20C181,-14 187,-8 193,-8"/>
<text text-anchor="middle" x="363.5" y="-1028.1" font-family="Times Roman,serif" font-size="11.00" fill="gray">Aura</text>
</g>
<g id="graph3" class="cluster"><title>cluster_Aura\View</title>
<polyline fill="none" stroke="gray" points="201,-16 526,-16 "/>
<path fill="none" stroke="gray" d="M526,-16C532,-16 538,-22 538,-28"/>
<polyline fill="none" stroke="gray" points="538,-28 538,-1000 "/>
<path fill="none" stroke="gray" d="M538,-1000C538,-1006 532,-1012 526,-1012"/>
<polyline fill="none" stroke="gray" points="526,-1012 201,-1012 "/>
<path fill="none" stroke="gray" d="M201,-1012C195,-1012 189,-1006 189,-1000"/>
<polyline fill="none" stroke="gray" points="189,-1000 189,-28 "/>
<path fill="none" stroke="gray" d="M189,-28C189,-22 195,-16 201,-16"/>
<text text-anchor="middle" x="363.5" y="-998.1" font-family="Times Roman,serif" font-size="11.00" fill="gray">View</text>
</g>
<g id="graph4" class="cluster"><title>cluster_Aura\View\Exception</title>
<polyline fill="none" stroke="gray" points="400,-854 518,-854 "/>
<path fill="none" stroke="gray" d="M518,-854C524,-854 530,-860 530,-866"/>
<polyline fill="none" stroke="gray" points="530,-866 530,-970 "/>
<path fill="none" stroke="gray" d="M530,-970C530,-976 524,-982 518,-982"/>
<polyline fill="none" stroke="gray" points="518,-982 400,-982 "/>
<path fill="none" stroke="gray" d="M400,-982C394,-982 388,-976 388,-970"/>
<polyline fill="none" stroke="gray" points="388,-970 388,-866 "/>
<path fill="none" stroke="gray" d="M388,-866C388,-860 394,-854 400,-854"/>
<text text-anchor="middle" x="459" y="-968.1" font-family="Times Roman,serif" font-size="11.00" fill="gray">Exception</text>
</g>
<g id="graph5" class="cluster"><title>cluster_Aura\View\Helper</title>
<polyline fill="none" stroke="gray" points="209,-232 491,-232 "/>
<path fill="none" stroke="gray" d="M491,-232C497,-232 503,-238 503,-244"/>
<polyline fill="none" stroke="gray" points="503,-244 503,-834 "/>
<path fill="none" stroke="gray" d="M503,-834C503,-840 497,-846 491,-846"/>
<polyline fill="none" stroke="gray" points="491,-846 209,-846 "/>
<path fill="none" stroke="gray" d="M209,-846C203,-846 197,-840 197,-834"/>
<polyline fill="none" stroke="gray" points="197,-834 197,-244 "/>
<path fill="none" stroke="gray" d="M197,-244C197,-238 203,-232 209,-232"/>
<text text-anchor="middle" x="350" y="-832.1" font-family="Times Roman,serif" font-size="11.00" fill="gray">Helper</text>
</g>
<!-- \\Aura\\View\\Exception\\TemplateNotFound -->
<g id="node4" class="node"><title>\\Aura\\View\\Exception\\TemplateNotFound</title>
<a xlink:href="db_src_Aura_View_Exception_TemplateNotFound.html" xlink:title="TemplateNotFound" target="_parent">
<polygon fill="none" stroke="black" points="521,-952 397,-952 397,-916 521,-916 521,-952"/>
<text text-anchor="middle" x="459" y="-931.1" font-family="Courier New" font-size="11.00">TemplateNotFound</text>
</a>
</g>
<!-- \\Aura\\View\\Exception -->
<g id="node24" class="node"><title>\\Aura\\View\\Exception</title>
<a xlink:href="db_src_Aura_View_Exception.html" xlink:title="Exception" target="_parent">
<polygon fill="none" stroke="black" points="299,-925 223,-925 223,-889 299,-889 299,-925"/>
<text text-anchor="middle" x="261" y="-904.1" font-family="Courier New" font-size="11.00">Exception</text>
</a>
</g>
<!-- \\Aura\\View\\Exception\\TemplateNotFound&#45;&gt;\\Aura\\View\\Exception -->
<g id="edge8" class="edge"><title>\\Aura\\View\\Exception\\TemplateNotFound&#45;&gt;\\Aura\\View\\Exception</title>
<path fill="none" stroke="black" d="M396.352,-925.457C368.346,-921.638 335.834,-917.205 309.694,-913.64"/>
<polygon fill="none" stroke="black" points="310.028,-910.153 299.646,-912.27 309.082,-917.089 310.028,-910.153"/>
</g>
<!-- \\Aura\\View\\Exception\\HelperNotMapped -->
<g id="node5" class="node"><title>\\Aura\\View\\Exception\\HelperNotMapped</title>
<a xlink:href="db_src_Aura_View_Exception_HelperNotMapped.html" xlink:title="HelperNotMapped" target="_parent">
<polygon fill="none" stroke="black" points="518,-898 400,-898 400,-862 518,-862 518,-898"/>
<text text-anchor="middle" x="459" y="-877.1" font-family="Courier New" font-size="11.00">HelperNotMapped</text>
</a>
</g>
<!-- \\Aura\\View\\Exception\\HelperNotMapped&#45;&gt;\\Aura\\View\\Exception -->
<g id="edge10" class="edge"><title>\\Aura\\View\\Exception\\HelperNotMapped&#45;&gt;\\Aura\\View\\Exception</title>
<path fill="none" stroke="black" d="M399.862,-888.064C371.064,-891.991 336.864,-896.655 309.611,-900.371"/>
<polygon fill="none" stroke="black" points="308.967,-896.927 299.532,-901.746 309.913,-903.862 308.967,-896.927"/>
</g>
<!-- \\Aura\\View\\Helper\\Datetime -->
<g id="node7" class="node"><title>\\Aura\\View\\Helper\\Datetime</title>
<a xlink:href="db_src_Aura_View_Helper_Datetime.html" xlink:title="Datetime" target="_parent">
<polygon fill="none" stroke="black" points="494,-816 424,-816 424,-780 494,-780 494,-816"/>
<text text-anchor="middle" x="459" y="-795.1" font-family="Courier New" font-size="11.00">Datetime</text>
</a>
</g>
<!-- \\Aura\\View\\Helper\\AbstractHelper -->
<g id="node15" class="node"><title>\\Aura\\View\\Helper\\AbstractHelper</title>
<a xlink:href="db_src_Aura_View_Helper_AbstractHelper.html" xlink:title="«abstract»&lt;br/&gt;AbstractHelper" target="_parent">
<polygon fill="none" stroke="black" points="317,-546 205,-546 205,-510 317,-510 317,-546"/>
<text text-anchor="start" x="227" y="-533.433" font-family="Courier New" font-size="11.00">«abstract»</text>
<text text-anchor="start" x="213.5" y="-520.233" font-family="Courier New" font-size="11.00">AbstractHelper</text>
</a>
</g>
<!-- \\Aura\\View\\Helper\\Datetime&#45;&gt;\\Aura\\View\\Helper\\AbstractHelper -->
<g id="edge12" class="edge"><title>\\Aura\\View\\Helper\\Datetime&#45;&gt;\\Aura\\View\\Helper\\AbstractHelper</title>
<path fill="none" stroke="black" d="M423.463,-791.414C410.755,-787.432 397.295,-781.085 388,-771 320.865,-698.156 389.741,-628.713 323.961,-551.561"/>
<polygon fill="none" stroke="black" points="326.477,-549.125 317.166,-544.07 321.293,-553.828 326.477,-549.125"/>
</g>
<!-- \\Aura\\View\\Helper\\Title -->
<g id="node8" class="node"><title>\\Aura\\View\\Helper\\Title</title>
<a xlink:href="db_src_Aura_View_Helper_Title.html" xlink:title="Title" target="_parent">
<polygon fill="none" stroke="black" points="486,-762 432,-762 432,-726 486,-726 486,-762"/>
<text text-anchor="middle" x="459" y="-741.1" font-family="Courier New" font-size="11.00">Title</text>
</a>
</g>
<!-- \\Aura\\View\\Helper\\Title&#45;&gt;\\Aura\\View\\Helper\\AbstractHelper -->
<g id="edge14" class="edge"><title>\\Aura\\View\\Helper\\Title&#45;&gt;\\Aura\\View\\Helper\\AbstractHelper</title>
<path fill="none" stroke="black" d="M431.769,-739.262C417.148,-735.458 399.765,-728.734 388,-717 334.031,-663.17 377.174,-609.91 324.533,-551.948"/>
<polygon fill="none" stroke="black" points="326.731,-549.189 317.238,-544.485 321.725,-554.082 326.731,-549.189"/>
</g>
<!-- \\Aura\\View\\Helper\\Metas -->
<g id="node9" class="node"><title>\\Aura\\View\\Helper\\Metas</title>
<a xlink:href="db_src_Aura_View_Helper_Metas.html" xlink:title="Metas" target="_parent">
<polygon fill="none" stroke="black" points="486,-708 432,-708 432,-672 486,-672 486,-708"/>
<text text-anchor="middle" x="459" y="-687.1" font-family="Courier New" font-size="11.00">Metas</text>
</a>
</g>
<!-- \\Aura\\View\\Helper\\Metas&#45;&gt;\\Aura\\View\\Helper\\AbstractHelper -->
<g id="edge16" class="edge"><title>\\Aura\\View\\Helper\\Metas&#45;&gt;\\Aura\\View\\Helper\\AbstractHelper</title>
<path fill="none" stroke="black" d="M431.733,-684.364C417.453,-680.32 400.407,-673.652 388,-663 346.602,-627.459 365.871,-591.192 324.92,-551.913"/>
<polygon fill="none" stroke="black" points="326.992,-549.073 317.184,-545.065 322.352,-554.314 326.992,-549.073"/>
</g>
<!-- \\Aura\\View\\Helper\\Attribs -->
<g id="node10" class="node"><title>\\Aura\\View\\Helper\\Attribs</title>
<a xlink:href="db_src_Aura_View_Helper_Attribs.html" xlink:title="Attribs" target="_parent">
<polygon fill="none" stroke="black" points="491,-654 427,-654 427,-618 491,-618 491,-654"/>
<text text-anchor="middle" x="459" y="-633.1" font-family="Courier New" font-size="11.00">Attribs</text>
</a>
</g>
<!-- \\Aura\\View\\Helper\\Attribs&#45;&gt;\\Aura\\View\\Helper\\AbstractHelper -->
<g id="edge18" class="edge"><title>\\Aura\\View\\Helper\\Attribs&#45;&gt;\\Aura\\View\\Helper\\AbstractHelper</title>
<path fill="none" stroke="black" d="M426.681,-626.629C414.103,-622.248 399.887,-616.355 388,-609 357.671,-590.235 357.064,-572.841 325.591,-551.583"/>
<polygon fill="none" stroke="black" points="327.212,-548.468 316.887,-546.092 323.477,-554.388 327.212,-548.468"/>
</g>
<!-- \\Aura\\View\\Helper\\Scripts -->
<g id="node11" class="node"><title>\\Aura\\View\\Helper\\Scripts</title>
<a xlink:href="db_src_Aura_View_Helper_Scripts.html" xlink:title="Scripts" target="_parent">
<polygon fill="none" stroke="black" points="491,-600 427,-600 427,-564 491,-564 491,-600"/>
<text text-anchor="middle" x="459" y="-579.1" font-family="Courier New" font-size="11.00">Scripts</text>
</a>
</g>
<!-- \\Aura\\View\\Helper\\Scripts&#45;&gt;\\Aura\\View\\Helper\\AbstractHelper -->
<g id="edge20" class="edge"><title>\\Aura\\View\\Helper\\Scripts&#45;&gt;\\Aura\\View\\Helper\\AbstractHelper</title>
<path fill="none" stroke="black" d="M426.747,-573.204C399.818,-565.86 360.557,-555.152 327.004,-546.001"/>
<polygon fill="none" stroke="black" points="327.821,-542.596 317.253,-543.342 325.979,-549.35 327.821,-542.596"/>
</g>
<!-- \\Aura\\View\\Helper\\Links -->
<g id="node12" class="node"><title>\\Aura\\View\\Helper\\Links</title>
<a xlink:href="db_src_Aura_View_Helper_Links.html" xlink:title="Links" target="_parent">
<polygon fill="none" stroke="black" points="486,-546 432,-546 432,-510 486,-510 486,-546"/>
<text text-anchor="middle" x="459" y="-525.1" font-family="Courier New" font-size="11.00">Links</text>
</a>
</g>
<!-- \\Aura\\View\\Helper\\Links&#45;&gt;\\Aura\\View\\Helper\\AbstractHelper -->
<g id="edge22" class="edge"><title>\\Aura\\View\\Helper\\Links&#45;&gt;\\Aura\\View\\Helper\\AbstractHelper</title>
<path fill="none" stroke="black" d="M431.884,-528C405.086,-528 363.041,-528 327.363,-528"/>
<polygon fill="none" stroke="black" points="327.005,-524.5 317.005,-528 327.005,-531.5 327.005,-524.5"/>
</g>
<!-- \\Aura\\View\\Helper\\Base -->
<g id="node13" class="node"><title>\\Aura\\View\\Helper\\Base</title>
<a xlink:href="db_src_Aura_View_Helper_Base.html" xlink:title="Base" target="_parent">
<polygon fill="none" stroke="black" points="486,-492 432,-492 432,-456 486,-456 486,-492"/>
<text text-anchor="middle" x="459" y="-471.1" font-family="Courier New" font-size="11.00">Base</text>
</a>
</g>
<!-- \\Aura\\View\\Helper\\Base&#45;&gt;\\Aura\\View\\Helper\\AbstractHelper -->
<g id="edge24" class="edge"><title>\\Aura\\View\\Helper\\Base&#45;&gt;\\Aura\\View\\Helper\\AbstractHelper</title>
<path fill="none" stroke="black" d="M431.884,-481.395C404.971,-488.735 362.68,-500.269 326.904,-510.026"/>
<polygon fill="none" stroke="black" points="325.731,-506.718 317.005,-512.726 327.573,-513.471 325.731,-506.718"/>
</g>
<!-- \\Aura\\View\\Helper\\Escape -->
<g id="node14" class="node"><title>\\Aura\\View\\Helper\\Escape</title>
<a xlink:href="db_src_Aura_View_Helper_Escape.html" xlink:title="Escape" target="_parent">
<polygon fill="none" stroke="black" points="487,-438 431,-438 431,-402 487,-402 487,-438"/>
<text text-anchor="middle" x="459" y="-417.1" font-family="Courier New" font-size="11.00">Escape</text>
</a>
</g>
<!-- \\Aura\\View\\Helper\\Escape&#45;&gt;\\Aura\\View\\Helper\\AbstractHelper -->
<g id="edge26" class="edge"><title>\\Aura\\View\\Helper\\Escape&#45;&gt;\\Aura\\View\\Helper\\AbstractHelper</title>
<path fill="none" stroke="black" d="M430.194,-428.171C416.806,-432.653 401.009,-438.951 388,-447 357.671,-465.765 357.064,-483.159 325.591,-504.417"/>
<polygon fill="none" stroke="black" points="323.477,-501.612 316.887,-509.908 327.212,-507.532 323.477,-501.612"/>
</g>
<!-- \\Aura\\View\\Helper\\Styles -->
<g id="node16" class="node"><title>\\Aura\\View\\Helper\\Styles</title>
<a xlink:href="db_src_Aura_View_Helper_Styles.html" xlink:title="Styles" target="_parent">
<polygon fill="none" stroke="black" points="487,-384 431,-384 431,-348 487,-348 487,-384"/>
<text text-anchor="middle" x="459" y="-363.1" font-family="Courier New" font-size="11.00">Styles</text>
</a>
</g>
<!-- \\Aura\\View\\Helper\\Styles&#45;&gt;\\Aura\\View\\Helper\\AbstractHelper -->
<g id="edge28" class="edge"><title>\\Aura\\View\\Helper\\Styles&#45;&gt;\\Aura\\View\\Helper\\AbstractHelper</title>
<path fill="none" stroke="black" d="M430.342,-372.036C416.358,-376.115 400.007,-382.691 388,-393 346.602,-428.541 365.871,-464.808 324.92,-504.087"/>
<polygon fill="none" stroke="black" points="322.352,-501.686 317.184,-510.935 326.992,-506.927 322.352,-501.686"/>
</g>
<!-- \\Aura\\View\\Helper\\Image -->
<g id="node17" class="node"><title>\\Aura\\View\\Helper\\Image</title>
<a xlink:href="db_src_Aura_View_Helper_Image.html" xlink:title="Image" target="_parent">
<polygon fill="none" stroke="black" points="486,-330 432,-330 432,-294 486,-294 486,-330"/>
<text text-anchor="middle" x="459" y="-309.1" font-family="Courier New" font-size="11.00">Image</text>
</a>
</g>
<!-- \\Aura\\View\\Helper\\Image&#45;&gt;\\Aura\\View\\Helper\\AbstractHelper -->
<g id="edge30" class="edge"><title>\\Aura\\View\\Helper\\Image&#45;&gt;\\Aura\\View\\Helper\\AbstractHelper</title>
<path fill="none" stroke="black" d="M431.769,-316.738C417.148,-320.542 399.765,-327.266 388,-339 334.031,-392.83 377.174,-446.09 324.533,-504.052"/>
<polygon fill="none" stroke="black" points="321.725,-501.918 317.238,-511.515 326.731,-506.811 321.725,-501.918"/>
</g>
<!-- \\Aura\\View\\Helper\\Anchor -->
<g id="node18" class="node"><title>\\Aura\\View\\Helper\\Anchor</title>
<a xlink:href="db_src_Aura_View_Helper_Anchor.html" xlink:title="Anchor" target="_parent">
<polygon fill="none" stroke="black" points="487,-276 431,-276 431,-240 487,-240 487,-276"/>
<text text-anchor="middle" x="459" y="-255.1" font-family="Courier New" font-size="11.00">Anchor</text>
</a>
</g>
<!-- \\Aura\\View\\Helper\\Anchor&#45;&gt;\\Aura\\View\\Helper\\AbstractHelper -->
<g id="edge32" class="edge"><title>\\Aura\\View\\Helper\\Anchor&#45;&gt;\\Aura\\View\\Helper\\AbstractHelper</title>
<path fill="none" stroke="black" d="M430.322,-262.632C415.813,-266.374 398.993,-273.072 388,-285 320.865,-357.844 389.741,-427.287 323.961,-504.439"/>
<polygon fill="none" stroke="black" points="321.293,-502.172 317.166,-511.93 326.477,-506.875 321.293,-502.172"/>
</g>
<!-- \\Aura\\View\\Template -->
<g id="node19" class="node"><title>\\Aura\\View\\Template</title>
<a xlink:href="db_src_Aura_View_Template.html" xlink:title="Template" target="_parent">
<polygon fill="none" stroke="black" points="494,-222 424,-222 424,-186 494,-186 494,-222"/>
<text text-anchor="middle" x="459" y="-201.1" font-family="Courier New" font-size="11.00">Template</text>
</a>
</g>
<!-- \\Aura\\View\\AbstractTemplate -->
<g id="node23" class="node"><title>\\Aura\\View\\AbstractTemplate</title>
<a xlink:href="db_src_Aura_View_AbstractTemplate.html" xlink:title="«abstract»&lt;br/&gt;AbstractTemplate" target="_parent">
<polygon fill="none" stroke="black" points="324,-222 198,-222 198,-186 324,-186 324,-222"/>
<text text-anchor="start" x="227" y="-209.433" font-family="Courier New" font-size="11.00">«abstract»</text>
<text text-anchor="start" x="206.5" y="-196.233" font-family="Courier New" font-size="11.00">AbstractTemplate</text>
</a>
</g>
<!-- \\Aura\\View\\Template&#45;&gt;\\Aura\\View\\AbstractTemplate -->
<g id="edge34" class="edge"><title>\\Aura\\View\\Template&#45;&gt;\\Aura\\View\\AbstractTemplate</title>
<path fill="none" stroke="black" d="M423.144,-204C398.413,-204 364.66,-204 334.352,-204"/>
<polygon fill="none" stroke="black" points="334.224,-200.5 324.224,-204 334.224,-207.5 334.224,-200.5"/>
</g>
<!-- \\Aura\\View\\TwoStep -->
<g id="node20" class="node"><title>\\Aura\\View\\TwoStep</title>
<a xlink:href="db_src_Aura_View_TwoStep.html" xlink:title="TwoStep" target="_parent">
<polygon fill="none" stroke="black" points="491,-168 427,-168 427,-132 491,-132 491,-168"/>
<text text-anchor="middle" x="459" y="-147.1" font-family="Courier New" font-size="11.00">TwoStep</text>
</a>
</g>
<!-- \\Aura\\View\\HelperLocator -->
<g id="node21" class="node"><title>\\Aura\\View\\HelperLocator</title>
<a xlink:href="db_src_Aura_View_HelperLocator.html" xlink:title="HelperLocator" target="_parent">
<polygon fill="none" stroke="black" points="511,-114 407,-114 407,-78 511,-78 511,-114"/>
<text text-anchor="middle" x="459" y="-93.1" font-family="Courier New" font-size="11.00">HelperLocator</text>
</a>
</g>
<!-- \\Aura\\View\\Finder -->
<g id="node22" class="node"><title>\\Aura\\View\\Finder</title>
<a xlink:href="db_src_Aura_View_Finder.html" xlink:title="Finder" target="_parent">
<polygon fill="none" stroke="black" points="487,-60 431,-60 431,-24 487,-24 487,-60"/>
<text text-anchor="middle" x="459" y="-39.1" font-family="Courier New" font-size="11.00">Finder</text>
</a>
</g>
<!-- \\Exception -->
<g id="node42" class="node"><title>\\Exception</title>
<ellipse fill="none" stroke="black" cx="63" cy="-907" rx="62.9325" ry="18.3848"/>
<text text-anchor="middle" x="63" y="-903.4" font-family="Times Roman,serif" font-size="14.00" fill="gray">\Exception</text>
</g>
<!-- \\Aura\\View\\Exception&#45;&gt;\\Exception -->
<g id="edge36" class="edge"><title>\\Aura\\View\\Exception&#45;&gt;\\Exception</title>
<path fill="none" stroke="black" d="M222.354,-907C197.89,-907 165.476,-907 136.272,-907"/>
<polygon fill="none" stroke="black" points="136.094,-903.5 126.094,-907 136.094,-910.5 136.094,-903.5"/>
</g>
</g>
</svg>
