<?xml version="1.0" encoding="UTF-8" standalone="no"?>
<!DOCTYPE svg PUBLIC "-//W3C//DTD SVG 1.1//EN"
 "http://www.w3.org/Graphics/SVG/1.1/DTD/svg11.dtd">
<!-- Generated by graphviz version 2.26.3 (20100126.1600)
 -->
<!-- Title: G Pages: 1 -->
<svg width="532pt" height="406pt"
 viewBox="0.00 0.00 532.00 406.00" xmlns="http://www.w3.org/2000/svg" xmlns:xlink="http://www.w3.org/1999/xlink">
<g id="graph1" class="graph" transform="scale(1 1) rotate(0) translate(4 402)">
<title>G</title>
<polygon fill="white" stroke="white" points="-4,5 -4,-402 529,-402 529,5 -4,5"/>
<g id="graph2" class="cluster"><title>cluster_Aura</title>
<polyline fill="none" stroke="gray" points="398,-8 504,-8 "/>
<path fill="none" stroke="gray" d="M504,-8C510,-8 516,-14 516,-20"/>
<polyline fill="none" stroke="gray" points="516,-20 516,-378 "/>
<path fill="none" stroke="gray" d="M516,-378C516,-384 510,-390 504,-390"/>
<polyline fill="none" stroke="gray" points="504,-390 398,-390 "/>
<path fill="none" stroke="gray" d="M398,-390C392,-390 386,-384 386,-378"/>
<polyline fill="none" stroke="gray" points="386,-378 386,-20 "/>
<path fill="none" stroke="gray" d="M386,-20C386,-14 392,-8 398,-8"/>
<text text-anchor="middle" x="451" y="-376.1" font-family="Times Roman,serif" font-size="11.00" fill="gray">Aura</text>
</g>
<g id="graph3" class="cluster"><title>cluster_Aura\Router</title>
<polyline fill="none" stroke="gray" points="406,-16 496,-16 "/>
<path fill="none" stroke="gray" d="M496,-16C502,-16 508,-22 508,-28"/>
<polyline fill="none" stroke="gray" points="508,-28 508,-348 "/>
<path fill="none" stroke="gray" d="M508,-348C508,-354 502,-360 496,-360"/>
<polyline fill="none" stroke="gray" points="496,-360 406,-360 "/>
<path fill="none" stroke="gray" d="M406,-360C400,-360 394,-354 394,-348"/>
<polyline fill="none" stroke="gray" points="394,-348 394,-28 "/>
<path fill="none" stroke="gray" d="M394,-28C394,-22 400,-16 406,-16"/>
<text text-anchor="middle" x="451" y="-346.1" font-family="Times Roman,serif" font-size="11.00" fill="gray">Router</text>
</g>
<!-- \\Aura\\Router\\MapTest -->
<g id="node3" class="node"><title>\\Aura\\Router\\MapTest</title>
<a xlink:href="db_tests_MapTest.html" xlink:title="MapTest" target="_parent">
<polygon fill="none" stroke="black" points="483,-330 419,-330 419,-294 483,-294 483,-330"/>
<text text-anchor="middle" x="451" y="-309.1" font-family="Courier New" font-size="11.00">MapTest</text>
</a>
</g>
<!-- \\PHPUnit_Framework_TestCase -->
<g id="node11" class="node"><title>\\PHPUnit_Framework_TestCase</title>
<ellipse fill="none" stroke="black" cx="165" cy="-285" rx="164.756" ry="18.3848"/>
<text text-anchor="middle" x="165" y="-281.4" font-family="Times Roman,serif" font-size="14.00" fill="gray">\PHPUnit_Framework_TestCase</text>
</g>
<!-- \\Aura\\Router\\MapTest&#45;&gt;\\PHPUnit_Framework_TestCase -->
<g id="edge5" class="edge"><title>\\Aura\\Router\\MapTest&#45;&gt;\\PHPUnit_Framework_TestCase</title>
<path fill="none" stroke="black" d="M418.748,-308.955C389.48,-306.192 344.264,-301.924 300.062,-297.751"/>
<polygon fill="none" stroke="black" points="300.342,-294.262 290.058,-296.806 299.685,-301.231 300.342,-294.262"/>
</g>
<!-- \\Aura\\Router\\RouteTest -->
<g id="node4" class="node"><title>\\Aura\\Router\\RouteTest</title>
<a xlink:href="db_tests_RouteTest.html" xlink:title="RouteTest" target="_parent">
<polygon fill="none" stroke="black" points="489,-276 413,-276 413,-240 489,-240 489,-276"/>
<text text-anchor="middle" x="451" y="-255.1" font-family="Courier New" font-size="11.00">RouteTest</text>
</a>
</g>
<!-- \\Aura\\Router\\RouteTest&#45;&gt;\\PHPUnit_Framework_TestCase -->
<g id="edge7" class="edge"><title>\\Aura\\Router\\RouteTest&#45;&gt;\\PHPUnit_Framework_TestCase</title>
<path fill="none" stroke="black" d="M412.429,-261.641C383.201,-264.401 341.175,-268.368 300.031,-272.252"/>
<polygon fill="none" stroke="black" points="299.507,-268.786 289.88,-273.211 300.165,-275.755 299.507,-268.786"/>
</g>
<!-- \\Aura\\Router\\RouteFactory -->
<g id="node5" class="node"><title>\\Aura\\Router\\RouteFactory</title>
<a xlink:href="db_src_RouteFactory.html" xlink:title="RouteFactory" target="_parent">
<polygon fill="none" stroke="black" points="500,-222 402,-222 402,-186 500,-186 500,-222"/>
<text text-anchor="middle" x="451" y="-201.1" font-family="Courier New" font-size="11.00">RouteFactory</text>
</a>
</g>
<!-- \\Aura\\Router\\Route -->
<g id="node6" class="node"><title>\\Aura\\Router\\Route</title>
<a xlink:href="db_src_Route.html" xlink:title="Route" target="_parent">
<polygon fill="none" stroke="black" points="478,-168 424,-168 424,-132 478,-132 478,-168"/>
<text text-anchor="middle" x="451" y="-147.1" font-family="Courier New" font-size="11.00">Route</text>
</a>
</g>
<!-- \\Aura\\Router\\Map -->
<g id="node7" class="node"><title>\\Aura\\Router\\Map</title>
<a xlink:href="db_src_Map.html" xlink:title="Map" target="_parent">
<polygon fill="none" stroke="black" points="478,-114 424,-114 424,-78 478,-78 478,-114"/>
<text text-anchor="middle" x="451" y="-93.1" font-family="Courier New" font-size="11.00">Map</text>
</a>
</g>
<!-- \\Aura\\Router\\Exception -->
<g id="node8" class="node"><title>\\Aura\\Router\\Exception</title>
<a xlink:href="db_src_Exception.html" xlink:title="Exception" target="_parent">
<polygon fill="none" stroke="black" points="489,-60 413,-60 413,-24 489,-24 489,-60"/>
<text text-anchor="middle" x="451" y="-39.1" font-family="Courier New" font-size="11.00">Exception</text>
</a>
</g>
<!-- \\Exception -->
<g id="node14" class="node"><title>\\Exception</title>
<ellipse fill="none" stroke="black" cx="165" cy="-42" rx="62.9325" ry="18.3848"/>
<text text-anchor="middle" x="165" y="-38.4" font-family="Times Roman,serif" font-size="14.00" fill="gray">\Exception</text>
</g>
<!-- \\Aura\\Router\\Exception&#45;&gt;\\Exception -->
<g id="edge9" class="edge"><title>\\Aura\\Router\\Exception&#45;&gt;\\Exception</title>
<path fill="none" stroke="black" d="M412.429,-42C367.932,-42 293.773,-42 238.224,-42"/>
<polygon fill="none" stroke="black" points="238.079,-38.5001 228.079,-42 238.079,-45.5001 238.079,-38.5001"/>
</g>
</g>
</svg>
