<?xml version="1.0" encoding="UTF-8" standalone="no"?>
<!DOCTYPE svg PUBLIC "-//W3C//DTD SVG 1.1//EN" "http://www.w3.org/Graphics/SVG/1.1/DTD/svg11.dtd">
<!-- Generated by graphviz version 2.28.0 (20110509.1545)
 -->
<!-- Title: Classes Pages: 1 -->
<svg xmlns="http://www.w3.org/2000/svg" xmlns:xlink="http://www.w3.org/1999/xlink" width="534pt" height="481pt">
<g id="viewport" class="graph" transform="scale(1 1) rotate(0) translate(4 477.4)">
<title>Classes</title>
<polygon fill="white" stroke="white" points="-4,5 -4,-477.4 531,-477.4 531,5 -4,5"/>
<!-- 09a15e9660c1ebc6f429d818825ce0c6 -->
<g id="node1" class="node"><title>09a15e9660c1ebc6f429d818825ce0c6</title>
<polygon fill="white" stroke="black" points="63.1766,-319.036 0.823384,-319.036 0.823384,-283.036 63.1766,-283.036 63.1766,-319.036"/>
<text text-anchor="middle" x="32" y="-295.436" font-family="Times,serif" font-size="14.00" fill="gray">stdClass</text>
</g>
<!-- 7c207dcf6ffd3fdd0ef97bac57f8eab9 -->
<g id="node2" class="node"><title>7c207dcf6ffd3fdd0ef97bac57f8eab9</title>
<a xlink:href="_src_Map.html" xlink:title="Map" target="_top">
<polygon fill="white" stroke="black" points="211,-448.036 157,-448.036 157,-412.036 211,-412.036 211,-448.036"/>
<text text-anchor="middle" x="184" y="-424.436" font-family="Times,serif" font-size="14.00">Map</text>
</a>
</g>
<!-- 7c207dcf6ffd3fdd0ef97bac57f8eab9&#45;&gt;09a15e9660c1ebc6f429d818825ce0c6 -->
<g id="edge2" class="edge"><title>7c207dcf6ffd3fdd0ef97bac57f8eab9-&gt;09a15e9660c1ebc6f429d818825ce0c6</title>
<path fill="none" stroke="black" d="M176.224,-411.864C161.676,-374.357 126.765,-292.545 102,-301.036"/>
</g>
<!-- c071ffae3e2008922336197b511a6fe3 -->
<g id="node3" class="node"><title>c071ffae3e2008922336197b511a6fe3</title>
<a xlink:href="_src_Route.html" xlink:title="Route" target="_top">
<polygon fill="white" stroke="black" points="211,-319.036 157,-319.036 157,-283.036 211,-283.036 211,-319.036"/>
<text text-anchor="middle" x="184" y="-295.436" font-family="Times,serif" font-size="14.00">Route</text>
</a>
</g>
<!-- c071ffae3e2008922336197b511a6fe3&#45;&gt;09a15e9660c1ebc6f429d818825ce0c6 -->
<g id="edge4" class="edge"><title>c071ffae3e2008922336197b511a6fe3-&gt;09a15e9660c1ebc6f429d818825ce0c6</title>
<path fill="none" stroke="black" d="M156.757,-296.799C140.546,-295.204 119.559,-295.016 102,-301.036"/>
</g>
<!-- def047dc99c16fddcdd067ef64912d01 -->
<g id="node4" class="node"><title>def047dc99c16fddcdd067ef64912d01</title>
<a xlink:href="_src_RouteFactory.html" xlink:title="RouteFactory" target="_top">
<polygon fill="white" stroke="black" points="230.207,-190.036 137.793,-190.036 137.793,-154.036 230.207,-154.036 230.207,-190.036"/>
<text text-anchor="middle" x="184" y="-166.436" font-family="Times,serif" font-size="14.00">RouteFactory</text>
</a>
</g>
<!-- def047dc99c16fddcdd067ef64912d01&#45;&gt;09a15e9660c1ebc6f429d818825ce0c6 -->
<g id="edge6" class="edge"><title>def047dc99c16fddcdd067ef64912d01-&gt;09a15e9660c1ebc6f429d818825ce0c6</title>
<path fill="none" stroke="black" d="M175.084,-190.125C159.92,-223.642 126.14,-292.759 102,-301.036"/>
</g>
<!-- d1457b72c3fb323a2671125aef3eab5d -->
<g id="node5" class="node"><title>d1457b72c3fb323a2671125aef3eab5d</title>
<polygon fill="white" stroke="black" points="211,-61.0364 157,-61.0364 157,-25.0364 211,-25.0364 211,-61.0364"/>
<text text-anchor="middle" x="184" y="-37.4364" font-family="Times,serif" font-size="14.00" fill="gray">?</text>
</g>
<!-- d1457b72c3fb323a2671125aef3eab5d&#45;&gt;09a15e9660c1ebc6f429d818825ce0c6 -->
<g id="edge8" class="edge"><title>d1457b72c3fb323a2671125aef3eab5d-&gt;09a15e9660c1ebc6f429d818825ce0c6</title>
<path fill="none" stroke="black" d="M173.805,-61.0518C163.861,-81.1198 148.081,-114.733 138,-145.036 115.539,-212.554 169.309,-277.958 102,-301.036"/>
<path fill="none" stroke="black" d="M100,-301.036C91.6961,-303.884 82.4654,-305.052 73.576,-305.284"/>
<polygon fill="none" stroke="black" points="73.4117,-301.782 63.3734,-305.171 73.3339,-308.782 73.4117,-301.782"/>
</g>
<!-- fe9d87595bbecb27348b863f712f1c2b -->
<g id="node6" class="node"><title>fe9d87595bbecb27348b863f712f1c2b</title>
<polygon fill="white" stroke="black" points="377.259,-61.0364 304.741,-61.0364 304.741,-25.0364 377.259,-25.0364 377.259,-61.0364"/>
<text text-anchor="middle" x="341" y="-37.4364" font-family="Times,serif" font-size="14.00" fill="gray">Exception</text>
</g>
<!-- fe9d87595bbecb27348b863f712f1c2b&#45;&gt;d1457b72c3fb323a2671125aef3eab5d -->
<g id="edge10" class="edge"><title>fe9d87595bbecb27348b863f712f1c2b-&gt;d1457b72c3fb323a2671125aef3eab5d</title>
<path fill="none" stroke="black" d="M304.44,-43.0364C279.571,-43.0364 246.456,-43.0364 221.403,-43.0364"/>
<polygon fill="none" stroke="black" points="221.207,-39.5365 211.207,-43.0364 221.207,-46.5365 221.207,-39.5365"/>
</g>
<!-- 0cdb65f0c4fe9f1a81155ba195f0dcb5 -->
<g id="node7" class="node"><title>0cdb65f0c4fe9f1a81155ba195f0dcb5</title>
<a xlink:href="_src_Exception.html" xlink:title="Exception" target="_top">
<polygon fill="white" stroke="black" points="525.259,-61.0364 452.741,-61.0364 452.741,-25.0364 525.259,-25.0364 525.259,-61.0364"/>
<text text-anchor="middle" x="489" y="-37.4364" font-family="Times,serif" font-size="14.00">Exception</text>
</a>
</g>
<!-- 0cdb65f0c4fe9f1a81155ba195f0dcb5&#45;&gt;fe9d87595bbecb27348b863f712f1c2b -->
<g id="edge12" class="edge"><title>0cdb65f0c4fe9f1a81155ba195f0dcb5-&gt;fe9d87595bbecb27348b863f712f1c2b</title>
<path fill="none" stroke="black" d="M452.657,-43.0364C433.003,-43.0364 408.334,-43.0364 387.278,-43.0364"/>
<polygon fill="none" stroke="black" points="387.27,-39.5365 377.27,-43.0364 387.27,-46.5365 387.27,-39.5365"/>
</g>
</g>
<script xlink:href="js/SVGPan.js"/></svg>
