<?xml version="1.0" encoding="UTF-8" standalone="no"?>
<!DOCTYPE svg PUBLIC "-//W3C//DTD SVG 1.0//EN"
 "http://www.w3.org/TR/2001/REC-SVG-20010904/DTD/svg10.dtd" [
 <!ATTLIST svg xmlns:xlink CDATA #FIXED "http://www.w3.org/1999/xlink">
]>
<!-- Generated by Graphviz version 2.20.2 (Tue Mar &#160;2 21:46:26 UTC 2010)
     For user: (mvriel) Mike van Riel,,, -->
<!-- Title: Classes Pages: 1 -->
<svg width="578pt" height="520pt"
 viewBox="0.00 0.00 578.00 520.00" xmlns="http://www.w3.org/2000/svg" xmlns:xlink="http://www.w3.org/1999/xlink">
<g id="graph0" class="graph" transform="scale(1 1) rotate(0) translate(4 516)">
<title>Classes</title>
<polygon style="fill:white;stroke:white;" points="-4,4 -4,-516 574,-516 574,4 -4,4"/>
<!-- 09a15e9660c1ebc6f429d818825ce0c6 -->
<g id="node1" class="node"><title>09a15e9660c1ebc6f429d818825ce0c6</title>
<polygon style="fill:none;stroke:black;" points="72,-343 2.13163e-14,-343 7.10543e-15,-307 72,-307 72,-343"/>
<text text-anchor="middle" x="36" y="-320.9" style="font-family:Times New Roman;font-size:14.00;">stdClass</text>
</g>
<!-- 41cfa67c1457a16e316a9cfcb8b71dd3 -->
<g id="node2" class="node"><title>41cfa67c1457a16e316a9cfcb8b71dd3</title>
<polygon style="fill:none;stroke:black;" points="253,-483 147,-483 147,-447 253,-447 253,-483"/>
<text text-anchor="middle" x="200" y="-460.9" style="font-family:Times New Roman;font-size:14.00;">RouteFactory</text>
</g>
<!-- 41cfa67c1457a16e316a9cfcb8b71dd3&#45;&gt;09a15e9660c1ebc6f429d818825ce0c6 -->
<g id="edge2" class="edge"><title>41cfa67c1457a16e316a9cfcb8b71dd3&#45;&gt;09a15e9660c1ebc6f429d818825ce0c6</title>
<path style="fill:none;stroke:black;" d="M193,-447C177,-407 136,-316 109,-325"/>
</g>
<!-- 9fcbf471f83dddcacd127f82a4bb24fd -->
<g id="node3" class="node"><title>9fcbf471f83dddcacd127f82a4bb24fd</title>
<polygon style="fill:none;stroke:black;" points="228,-343 172,-343 172,-307 228,-307 228,-343"/>
<text text-anchor="middle" x="200" y="-320.9" style="font-family:Times New Roman;font-size:14.00;">Route</text>
</g>
<!-- 9fcbf471f83dddcacd127f82a4bb24fd&#45;&gt;09a15e9660c1ebc6f429d818825ce0c6 -->
<g id="edge4" class="edge"><title>9fcbf471f83dddcacd127f82a4bb24fd&#45;&gt;09a15e9660c1ebc6f429d818825ce0c6</title>
<path style="fill:none;stroke:black;" d="M171,-320C153,-319 129,-318 109,-325"/>
</g>
<!-- eee10ef632abcba3fa2d907823a59e1d -->
<g id="node4" class="node"><title>eee10ef632abcba3fa2d907823a59e1d</title>
<polygon style="fill:none;stroke:black;" points="227,-203 173,-203 173,-167 227,-167 227,-203"/>
<text text-anchor="middle" x="200" y="-180.9" style="font-family:Times New Roman;font-size:14.00;">Map</text>
</g>
<!-- eee10ef632abcba3fa2d907823a59e1d&#45;&gt;09a15e9660c1ebc6f429d818825ce0c6 -->
<g id="edge6" class="edge"><title>eee10ef632abcba3fa2d907823a59e1d&#45;&gt;09a15e9660c1ebc6f429d818825ce0c6</title>
<path style="fill:none;stroke:black;" d="M192,-203C175,-239 136,-316 109,-325"/>
</g>
<!-- d1457b72c3fb323a2671125aef3eab5d -->
<g id="node5" class="node"><title>d1457b72c3fb323a2671125aef3eab5d</title>
<polygon style="fill:none;stroke:black;" points="227,-64 173,-64 173,-28 227,-28 227,-64"/>
<text text-anchor="middle" x="200" y="-41.9" style="font-family:Times New Roman;font-size:14.00;">?</text>
</g>
<!-- d1457b72c3fb323a2671125aef3eab5d&#45;&gt;09a15e9660c1ebc6f429d818825ce0c6 -->
<g id="edge8" class="edge"><title>d1457b72c3fb323a2671125aef3eab5d&#45;&gt;09a15e9660c1ebc6f429d818825ce0c6</title>
<path style="fill:none;stroke:black;" d="M189,-64C177,-86 158,-123 146,-158 121,-229 180,-300 109,-325"/>
<path style="fill:none;stroke:black;" d="M109,-325C100,-328 91,-329 82,-329"/>
<polygon style="fill:none;stroke:black;" points="82,-325.5 72,-329 82,-332.5 82,-325.5"/>
</g>
<!-- fe9d87595bbecb27348b863f712f1c2b -->
<g id="node6" class="node"><title>fe9d87595bbecb27348b863f712f1c2b</title>
<polygon style="fill:none;stroke:black;" points="412,-64 328,-64 328,-28 412,-28 412,-64"/>
<text text-anchor="middle" x="370" y="-41.9" style="font-family:Times New Roman;font-size:14.00;">Exception</text>
</g>
<!-- fe9d87595bbecb27348b863f712f1c2b&#45;&gt;d1457b72c3fb323a2671125aef3eab5d -->
<g id="edge10" class="edge"><title>fe9d87595bbecb27348b863f712f1c2b&#45;&gt;d1457b72c3fb323a2671125aef3eab5d</title>
<path style="fill:none;stroke:black;" d="M328,-46C301,-46 264,-46 237,-46"/>
<polygon style="fill:none;stroke:black;" points="237,-42.5001 227,-46 237,-49.5001 237,-42.5001"/>
</g>
<!-- b90e8a9db3ac3a1d77d4b03c0cd65b83 -->
<g id="node7" class="node"><title>b90e8a9db3ac3a1d77d4b03c0cd65b83</title>
<polygon style="fill:none;stroke:black;" points="570,-64 486,-64 486,-28 570,-28 570,-64"/>
<text text-anchor="middle" x="528" y="-41.9" style="font-family:Times New Roman;font-size:14.00;">Exception</text>
</g>
<!-- b90e8a9db3ac3a1d77d4b03c0cd65b83&#45;&gt;fe9d87595bbecb27348b863f712f1c2b -->
<g id="edge12" class="edge"><title>b90e8a9db3ac3a1d77d4b03c0cd65b83&#45;&gt;fe9d87595bbecb27348b863f712f1c2b</title>
<path style="fill:none;stroke:black;" d="M486,-46C466,-46 443,-46 422,-46"/>
<polygon style="fill:none;stroke:black;" points="422,-42.5001 412,-46 422,-49.5001 422,-42.5001"/>
</g>
</g>
</svg>
