<?xml version="1.0" encoding="UTF-8" standalone="no"?>
<!DOCTYPE svg PUBLIC "-//W3C//DTD SVG 1.1//EN"
 "http://www.w3.org/Graphics/SVG/1.1/DTD/svg11.dtd">
<!-- Generated by graphviz version 2.26.3 (20100126.1600)
 -->
<!-- Title: G Pages: 1 -->
<svg width="328pt" height="298pt"
 viewBox="0.00 0.00 328.00 298.00" xmlns="http://www.w3.org/2000/svg" xmlns:xlink="http://www.w3.org/1999/xlink">
<g id="graph1" class="graph" transform="scale(1 1) rotate(0) translate(4 294)">
<title>G</title>
<polygon fill="white" stroke="white" points="-4,5 -4,-294 325,-294 325,5 -4,5"/>
<g id="graph2" class="cluster"><title>cluster_Aura</title>
<polyline fill="none" stroke="gray" points="194,-8 300,-8 "/>
<path fill="none" stroke="gray" d="M300,-8C306,-8 312,-14 312,-20"/>
<polyline fill="none" stroke="gray" points="312,-20 312,-270 "/>
<path fill="none" stroke="gray" d="M312,-270C312,-276 306,-282 300,-282"/>
<polyline fill="none" stroke="gray" points="300,-282 194,-282 "/>
<path fill="none" stroke="gray" d="M194,-282C188,-282 182,-276 182,-270"/>
<polyline fill="none" stroke="gray" points="182,-270 182,-20 "/>
<path fill="none" stroke="gray" d="M182,-20C182,-14 188,-8 194,-8"/>
<text text-anchor="middle" x="247" y="-268.1" font-family="Times Roman,serif" font-size="11.00" fill="gray">Aura</text>
</g>
<g id="graph3" class="cluster"><title>cluster_Aura\Router</title>
<polyline fill="none" stroke="gray" points="202,-16 292,-16 "/>
<path fill="none" stroke="gray" d="M292,-16C298,-16 304,-22 304,-28"/>
<polyline fill="none" stroke="gray" points="304,-28 304,-240 "/>
<path fill="none" stroke="gray" d="M304,-240C304,-246 298,-252 292,-252"/>
<polyline fill="none" stroke="gray" points="292,-252 202,-252 "/>
<path fill="none" stroke="gray" d="M202,-252C196,-252 190,-246 190,-240"/>
<polyline fill="none" stroke="gray" points="190,-240 190,-28 "/>
<path fill="none" stroke="gray" d="M190,-28C190,-22 196,-16 202,-16"/>
<text text-anchor="middle" x="247" y="-238.1" font-family="Times Roman,serif" font-size="11.00" fill="gray">Router</text>
</g>
<!-- \\Aura\\Router\\RouteFactory -->
<g id="node3" class="node"><title>\\Aura\\Router\\RouteFactory</title>
<a xlink:href="db_src_Aura_Router_RouteFactory.html" xlink:title="RouteFactory" target="_parent">
<polygon fill="none" stroke="black" points="296,-222 198,-222 198,-186 296,-186 296,-222"/>
<text text-anchor="middle" x="247" y="-201.1" font-family="Courier New" font-size="11.00">RouteFactory</text>
</a>
</g>
<!-- \\Aura\\Router\\Route -->
<g id="node4" class="node"><title>\\Aura\\Router\\Route</title>
<a xlink:href="db_src_Aura_Router_Route.html" xlink:title="Route" target="_parent">
<polygon fill="none" stroke="black" points="274,-168 220,-168 220,-132 274,-132 274,-168"/>
<text text-anchor="middle" x="247" y="-147.1" font-family="Courier New" font-size="11.00">Route</text>
</a>
</g>
<!-- \\Aura\\Router\\Map -->
<g id="node5" class="node"><title>\\Aura\\Router\\Map</title>
<a xlink:href="db_src_Aura_Router_Map.html" xlink:title="Map" target="_parent">
<polygon fill="none" stroke="black" points="274,-114 220,-114 220,-78 274,-78 274,-114"/>
<text text-anchor="middle" x="247" y="-93.1" font-family="Courier New" font-size="11.00">Map</text>
</a>
</g>
<!-- \\Aura\\Router\\Exception -->
<g id="node6" class="node"><title>\\Aura\\Router\\Exception</title>
<a xlink:href="db_src_Aura_Router_Exception.html" xlink:title="Exception" target="_parent">
<polygon fill="none" stroke="black" points="285,-60 209,-60 209,-24 285,-24 285,-60"/>
<text text-anchor="middle" x="247" y="-39.1" font-family="Courier New" font-size="11.00">Exception</text>
</a>
</g>
<!-- \\Exception -->
<g id="node8" class="node"><title>\\Exception</title>
<ellipse fill="none" stroke="black" cx="63" cy="-42" rx="62.9325" ry="18.3848"/>
<text text-anchor="middle" x="63" y="-38.4" font-family="Times Roman,serif" font-size="14.00" fill="gray">\Exception</text>
</g>
<!-- \\Aura\\Router\\Exception&#45;&gt;\\Exception -->
<g id="edge4" class="edge"><title>\\Aura\\Router\\Exception&#45;&gt;\\Exception</title>
<path fill="none" stroke="black" d="M208.428,-42C187.496,-42 160.917,-42 136.223,-42"/>
<polygon fill="none" stroke="black" points="136.143,-38.5001 126.143,-42 136.143,-45.5001 136.143,-38.5001"/>
</g>
</g>
</svg>
