<?xml version="1.0" encoding="UTF-8" standalone="no"?>
<!DOCTYPE svg PUBLIC "-//W3C//DTD SVG 1.0//EN"
 "http://www.w3.org/TR/2001/REC-SVG-20010904/DTD/svg10.dtd" [
 <!ATTLIST svg xmlns:xlink CDATA #FIXED "http://www.w3.org/1999/xlink">
]>
<!-- Generated by Graphviz version 2.20.2 (Tue Mar &#160;2 21:46:26 UTC 2010)
     For user: (mvriel) Mike van Riel,,, -->
<!-- Title: Classes Pages: 1 -->
<svg width="874pt" height="786pt"
 viewBox="0.00 0.00 874.00 786.00" xmlns="http://www.w3.org/2000/svg" xmlns:xlink="http://www.w3.org/1999/xlink">
<g id="graph0" class="graph" transform="scale(1 1) rotate(0) translate(4 782)">
<title>Classes</title>
<polygon style="fill:white;stroke:white;" points="-4,4 -4,-782 870,-782 870,4 -4,4"/>
<!-- 09a15e9660c1ebc6f429d818825ce0c6 -->
<g id="node1" class="node"><title>09a15e9660c1ebc6f429d818825ce0c6</title>
<polygon style="fill:white;stroke:black;" points="72,-457 2.13163e-14,-457 7.10543e-15,-421 72,-421 72,-457"/>
<text text-anchor="middle" x="36" y="-434.9" style="font-family:Times New Roman;font-size:14.00;fill:gray;">stdClass</text>
</g>
<!-- 88a59fe3ff0a7980657dab3c15bebaab -->
<g id="node2" class="node"><title>88a59fe3ff0a7980657dab3c15bebaab</title>
<a xlink:href="src_ForgeInterface.html" xlink:title="ForgeInterface" target="_top">
<polygon style="fill:white;stroke:black;" points="265,-762 149,-762 149,-726 265,-726 265,-762"/>
<text text-anchor="middle" x="207" y="-739.9" style="font-family:Times New Roman;font-size:14.00;">ForgeInterface</text>
</a>
</g>
<!-- 88a59fe3ff0a7980657dab3c15bebaab&#45;&gt;09a15e9660c1ebc6f429d818825ce0c6 -->
<g id="edge2" class="edge"><title>88a59fe3ff0a7980657dab3c15bebaab&#45;&gt;09a15e9660c1ebc6f429d818825ce0c6</title>
<path style="fill:none;stroke:black;" d="M187,-726C173,-712 155,-691 146,-669 124,-621 160,-439 109,-439"/>
</g>
<!-- fea368c109c694a4789063350c6021e7 -->
<g id="node3" class="node"><title>fea368c109c694a4789063350c6021e7</title>
<a xlink:href="src_Container.html" xlink:title="Container" target="_top">
<polygon style="fill:white;stroke:black;" points="249,-660 165,-660 165,-624 249,-624 249,-660"/>
<text text-anchor="middle" x="207" y="-637.9" style="font-family:Times New Roman;font-size:14.00;">Container</text>
</a>
</g>
<!-- fea368c109c694a4789063350c6021e7&#45;&gt;09a15e9660c1ebc6f429d818825ce0c6 -->
<g id="edge4" class="edge"><title>fea368c109c694a4789063350c6021e7&#45;&gt;09a15e9660c1ebc6f429d818825ce0c6</title>
<path style="fill:none;stroke:black;" d="M188,-624C175,-610 157,-589 146,-568 118,-515 168,-439 109,-439"/>
</g>
<!-- 7e986a2cbf039e4f8d36d06528c2da53 -->
<g id="node4" class="node"><title>7e986a2cbf039e4f8d36d06528c2da53</title>
<a xlink:href="src_Forge.html" xlink:title="Forge" target="_top">
<polygon style="fill:white;stroke:black;" points="234,-559 180,-559 180,-523 234,-523 234,-559"/>
<text text-anchor="middle" x="207" y="-536.9" style="font-family:Times New Roman;font-size:14.00;">Forge</text>
</a>
</g>
<!-- 7e986a2cbf039e4f8d36d06528c2da53&#45;&gt;09a15e9660c1ebc6f429d818825ce0c6 -->
<g id="edge6" class="edge"><title>7e986a2cbf039e4f8d36d06528c2da53&#45;&gt;09a15e9660c1ebc6f429d818825ce0c6</title>
<path style="fill:none;stroke:black;" d="M192,-523C167,-493 120,-439 109,-439"/>
</g>
<!-- 9d46bb442fedbe78a6007a3a9436aa47 -->
<g id="node5" class="node"><title>9d46bb442fedbe78a6007a3a9436aa47</title>
<a xlink:href="src_ConfigInterface.html" xlink:title="ConfigInterface" target="_top">
<polygon style="fill:white;stroke:black;" points="267,-457 147,-457 147,-421 267,-421 267,-457"/>
<text text-anchor="middle" x="207" y="-434.9" style="font-family:Times New Roman;font-size:14.00;">ConfigInterface</text>
</a>
</g>
<!-- 9d46bb442fedbe78a6007a3a9436aa47&#45;&gt;09a15e9660c1ebc6f429d818825ce0c6 -->
<g id="edge8" class="edge"><title>9d46bb442fedbe78a6007a3a9436aa47&#45;&gt;09a15e9660c1ebc6f429d818825ce0c6</title>
<path style="fill:none;stroke:black;" d="M146,-439C134,-439 121,-439 109,-439"/>
</g>
<!-- 13512f9ae007e557f15ad91e84d04861 -->
<g id="node6" class="node"><title>13512f9ae007e557f15ad91e84d04861</title>
<a xlink:href="src_Config.html" xlink:title="Config" target="_top">
<polygon style="fill:white;stroke:black;" points="237,-355 177,-355 177,-319 237,-319 237,-355"/>
<text text-anchor="middle" x="207" y="-332.9" style="font-family:Times New Roman;font-size:14.00;">Config</text>
</a>
</g>
<!-- 13512f9ae007e557f15ad91e84d04861&#45;&gt;09a15e9660c1ebc6f429d818825ce0c6 -->
<g id="edge10" class="edge"><title>13512f9ae007e557f15ad91e84d04861&#45;&gt;09a15e9660c1ebc6f429d818825ce0c6</title>
<path style="fill:none;stroke:black;" d="M192,-355C167,-385 120,-439 109,-439"/>
</g>
<!-- 767b42bfd646559449edcdea785ddb1a -->
<g id="node7" class="node"><title>767b42bfd646559449edcdea785ddb1a</title>
<a xlink:href="src_Lazy.html" xlink:title="Lazy" target="_top">
<polygon style="fill:white;stroke:black;" points="234,-254 180,-254 180,-218 234,-218 234,-254"/>
<text text-anchor="middle" x="207" y="-231.9" style="font-family:Times New Roman;font-size:14.00;">Lazy</text>
</a>
</g>
<!-- 767b42bfd646559449edcdea785ddb1a&#45;&gt;09a15e9660c1ebc6f429d818825ce0c6 -->
<g id="edge12" class="edge"><title>767b42bfd646559449edcdea785ddb1a&#45;&gt;09a15e9660c1ebc6f429d818825ce0c6</title>
<path style="fill:none;stroke:black;" d="M188,-254C174,-268 157,-289 146,-310 118,-362 168,-439 109,-439"/>
</g>
<!-- d1457b72c3fb323a2671125aef3eab5d -->
<g id="node8" class="node"><title>d1457b72c3fb323a2671125aef3eab5d</title>
<polygon style="fill:white;stroke:black;" points="234,-152 180,-152 180,-116 234,-116 234,-152"/>
<text text-anchor="middle" x="207" y="-129.9" style="font-family:Times New Roman;font-size:14.00;fill:gray;">?</text>
</g>
<!-- d1457b72c3fb323a2671125aef3eab5d&#45;&gt;09a15e9660c1ebc6f429d818825ce0c6 -->
<g id="edge14" class="edge"><title>d1457b72c3fb323a2671125aef3eab5d&#45;&gt;09a15e9660c1ebc6f429d818825ce0c6</title>
<path style="fill:none;stroke:black;" d="M187,-152C173,-166 155,-187 146,-209 124,-256 160,-439 109,-439"/>
<path style="fill:none;stroke:black;" d="M109,-439C100,-439 91,-439 82,-439"/>
<polygon style="fill:none;stroke:black;" points="82,-435.5 72,-439 82,-442.5 82,-435.5"/>
</g>
<!-- fe9d87595bbecb27348b863f712f1c2b -->
<g id="node9" class="node"><title>fe9d87595bbecb27348b863f712f1c2b</title>
<polygon style="fill:white;stroke:black;" points="426,-152 342,-152 342,-116 426,-116 426,-152"/>
<text text-anchor="middle" x="384" y="-129.9" style="font-family:Times New Roman;font-size:14.00;fill:gray;">Exception</text>
</g>
<!-- fe9d87595bbecb27348b863f712f1c2b&#45;&gt;d1457b72c3fb323a2671125aef3eab5d -->
<g id="edge16" class="edge"><title>fe9d87595bbecb27348b863f712f1c2b&#45;&gt;d1457b72c3fb323a2671125aef3eab5d</title>
<path style="fill:none;stroke:black;" d="M342,-134C312,-134 273,-134 244,-134"/>
<polygon style="fill:none;stroke:black;" points="244,-130.5 234,-134 244,-137.5 244,-130.5"/>
</g>
<!-- 0f7c61e96c3a5fb2a68dd53638f50b10 -->
<g id="node10" class="node"><title>0f7c61e96c3a5fb2a68dd53638f50b10</title>
<a xlink:href="src_Exception.html" xlink:title="Exception" target="_top">
<polygon style="fill:white;stroke:black;" points="584,-152 500,-152 500,-116 584,-116 584,-152"/>
<text text-anchor="middle" x="542" y="-129.9" style="font-family:Times New Roman;font-size:14.00;">Exception</text>
</a>
</g>
<!-- 0f7c61e96c3a5fb2a68dd53638f50b10&#45;&gt;fe9d87595bbecb27348b863f712f1c2b -->
<g id="edge18" class="edge"><title>0f7c61e96c3a5fb2a68dd53638f50b10&#45;&gt;fe9d87595bbecb27348b863f712f1c2b</title>
<path style="fill:none;stroke:black;" d="M500,-134C480,-134 457,-134 436,-134"/>
<polygon style="fill:none;stroke:black;" points="436,-130.5 426,-134 436,-137.5 436,-130.5"/>
</g>
<!-- d91e44c8cb9e9abd665cc5b0df8cf286 -->
<g id="node11" class="node"><title>d91e44c8cb9e9abd665cc5b0df8cf286</title>
<a xlink:href="src_Exception_ServiceInvalid.html" xlink:title="Exception_ServiceInvalid" target="_top">
<polygon style="fill:white;stroke:black;" points="855,-152 669,-152 669,-116 855,-116 855,-152"/>
<text text-anchor="middle" x="762" y="-129.9" style="font-family:Times New Roman;font-size:14.00;">Exception_ServiceInvalid</text>
</a>
</g>
<!-- d91e44c8cb9e9abd665cc5b0df8cf286&#45;&gt;0f7c61e96c3a5fb2a68dd53638f50b10 -->
<g id="edge20" class="edge"><title>d91e44c8cb9e9abd665cc5b0df8cf286&#45;&gt;0f7c61e96c3a5fb2a68dd53638f50b10</title>
<path style="fill:none;stroke:black;" d="M668,-129C652,-130 636,-131 621,-134"/>
</g>
<!-- a01259440ffd63290b7575f18837491f -->
<g id="node12" class="node"><title>a01259440ffd63290b7575f18837491f</title>
<a xlink:href="src_Exception_ServiceNotFound.html" xlink:title="Exception_ServiceNotFound" target="_top">
<polygon style="fill:white;stroke:black;" points="866,-51 658,-51 658,-15 866,-15 866,-51"/>
<text text-anchor="middle" x="762" y="-28.9" style="font-family:Times New Roman;font-size:14.00;">Exception_ServiceNotFound</text>
</a>
</g>
<!-- a01259440ffd63290b7575f18837491f&#45;&gt;0f7c61e96c3a5fb2a68dd53638f50b10 -->
<g id="edge22" class="edge"><title>a01259440ffd63290b7575f18837491f&#45;&gt;0f7c61e96c3a5fb2a68dd53638f50b10</title>
<path style="fill:none;stroke:black;" d="M736,-51C715,-66 684,-87 658,-107 641,-118 641,-130 621,-134"/>
<path style="fill:none;stroke:black;" d="M621,-134C612,-135 603,-136 594,-137"/>
<polygon style="fill:none;stroke:black;" points="594,-133.5 584,-137 594,-140.5 594,-133.5"/>
</g>
</g>
</svg>
