<?xml version="1.0" encoding="UTF-8" standalone="no"?>
<!DOCTYPE svg PUBLIC "-//W3C//DTD SVG 1.1//EN" "http://www.w3.org/Graphics/SVG/1.1/DTD/svg11.dtd">
<!-- Generated by graphviz version 2.28.0 (20110509.1545)
 -->
<!-- Title: Classes Pages: 1 -->
<svg xmlns="http://www.w3.org/2000/svg" xmlns:xlink="http://www.w3.org/1999/xlink" width="766pt" height="690pt">
<g id="viewport" class="graph" transform="scale(1 1) rotate(0) translate(4 686.2)">
<title>Classes</title>
<polygon fill="white" stroke="white" points="-4,5 -4,-686.2 763,-686.2 763,5 -4,5"/>
<!-- 09a15e9660c1ebc6f429d818825ce0c6 -->
<g id="node1" class="node"><title>09a15e9660c1ebc6f429d818825ce0c6</title>
<polygon fill="white" stroke="black" points="63.1766,-464.524 0.823384,-464.524 0.823384,-428.524 63.1766,-428.524 63.1766,-464.524"/>
<text text-anchor="middle" x="32" y="-440.924" font-family="Times,serif" font-size="14.00" fill="gray">stdClass</text>
</g>
<!-- bded2699e867f68c6f3fabdd882d51d6 -->
<g id="node2" class="node"><title>bded2699e867f68c6f3fabdd882d51d6</title>
<a xlink:href="_src_Config.html" xlink:title="Config" target="_top">
<polygon fill="white" stroke="black" points="226.124,-676.524 171.876,-676.524 171.876,-640.524 226.124,-640.524 226.124,-676.524"/>
<text text-anchor="middle" x="199" y="-652.924" font-family="Times,serif" font-size="14.00">Config</text>
</a>
</g>
<!-- bded2699e867f68c6f3fabdd882d51d6&#45;&gt;09a15e9660c1ebc6f429d818825ce0c6 -->
<g id="edge2" class="edge"><title>bded2699e867f68c6f3fabdd882d51d6-&gt;09a15e9660c1ebc6f429d818825ce0c6</title>
<path fill="none" stroke="black" d="M171.71,-645.541C159.675,-638.303 146.28,-628.178 138,-615.524 95.9506,-551.263 177.677,-433.46 102,-446.524"/>
</g>
<!-- 38923f0f86f3a71f78d3369900a81065 -->
<g id="node3" class="node"><title>38923f0f86f3a71f78d3369900a81065</title>
<a xlink:href="_src_ConfigInterface.html" xlink:title="ConfigInterface" target="_top">
<polygon fill="white" stroke="black" points="250.856,-606.524 147.144,-606.524 147.144,-570.524 250.856,-570.524 250.856,-606.524"/>
<text text-anchor="middle" x="199" y="-582.924" font-family="Times,serif" font-size="14.00">ConfigInterface</text>
</a>
</g>
<!-- 38923f0f86f3a71f78d3369900a81065&#45;&gt;09a15e9660c1ebc6f429d818825ce0c6 -->
<g id="edge4" class="edge"><title>38923f0f86f3a71f78d3369900a81065-&gt;09a15e9660c1ebc6f429d818825ce0c6</title>
<path fill="none" stroke="black" d="M166.344,-570.491C156.188,-563.458 145.611,-554.64 138,-544.524 110.102,-507.446 147.725,-438.631 102,-446.524"/>
</g>
<!-- fdf2e72393debcfea22fd0bd181f1d45 -->
<g id="node4" class="node"><title>fdf2e72393debcfea22fd0bd181f1d45</title>
<a xlink:href="_src_Container.html" xlink:title="Container" target="_top">
<polygon fill="white" stroke="black" points="234.707,-535.524 163.293,-535.524 163.293,-499.524 234.707,-499.524 234.707,-535.524"/>
<text text-anchor="middle" x="199" y="-511.924" font-family="Times,serif" font-size="14.00">Container</text>
</a>
</g>
<!-- fdf2e72393debcfea22fd0bd181f1d45&#45;&gt;09a15e9660c1ebc6f429d818825ce0c6 -->
<g id="edge6" class="edge"><title>fdf2e72393debcfea22fd0bd181f1d45-&gt;09a15e9660c1ebc6f429d818825ce0c6</title>
<path fill="none" stroke="black" d="M173.143,-499.388C162.327,-491.472 149.517,-482.065 138,-473.524 121.936,-461.61 121.708,-443.122 102,-446.524"/>
</g>
<!-- e91d252b7c26bde32a9aa48368ef2e90 -->
<g id="node5" class="node"><title>e91d252b7c26bde32a9aa48368ef2e90</title>
<a xlink:href="_src_Manager.html" xlink:title="Manager" target="_top">
<polygon fill="white" stroke="black" points="403.752,-535.524 338.248,-535.524 338.248,-499.524 403.752,-499.524 403.752,-535.524"/>
<text text-anchor="middle" x="371" y="-511.924" font-family="Times,serif" font-size="14.00">Manager</text>
</a>
</g>
<!-- e91d252b7c26bde32a9aa48368ef2e90&#45;&gt;fdf2e72393debcfea22fd0bd181f1d45 -->
<g id="edge8" class="edge"><title>e91d252b7c26bde32a9aa48368ef2e90-&gt;fdf2e72393debcfea22fd0bd181f1d45</title>
<path fill="none" stroke="black" d="M338.024,-517.524C311.812,-517.524 274.398,-517.524 245.134,-517.524"/>
<polygon fill="none" stroke="black" points="244.758,-514.024 234.758,-517.524 244.758,-521.024 244.758,-514.024"/>
</g>
<!-- 8fbdba5e8b98b015940d8a08200feef5 -->
<g id="node6" class="node"><title>8fbdba5e8b98b015940d8a08200feef5</title>
<a xlink:href="_src_ContainerInterface.html" xlink:title="ContainerInterface" target="_top">
<polygon fill="white" stroke="black" points="259.438,-464.524 138.562,-464.524 138.562,-428.524 259.438,-428.524 259.438,-464.524"/>
<text text-anchor="middle" x="199" y="-440.924" font-family="Times,serif" font-size="14.00">ContainerInterface</text>
</a>
</g>
<!-- 8fbdba5e8b98b015940d8a08200feef5&#45;&gt;09a15e9660c1ebc6f429d818825ce0c6 -->
<g id="edge10" class="edge"><title>8fbdba5e8b98b015940d8a08200feef5-&gt;09a15e9660c1ebc6f429d818825ce0c6</title>
<path fill="none" stroke="black" d="M138.326,-443.37C126.238,-443.615 113.661,-444.511 102,-446.524"/>
</g>
<!-- 533ee38f0e2a17648ee38963b63d34df -->
<g id="node7" class="node"><title>533ee38f0e2a17648ee38963b63d34df</title>
<a xlink:href="_src_Forge.html" xlink:title="Forge" target="_top">
<polygon fill="white" stroke="black" points="226,-394.524 172,-394.524 172,-358.524 226,-358.524 226,-394.524"/>
<text text-anchor="middle" x="199" y="-370.924" font-family="Times,serif" font-size="14.00">Forge</text>
</a>
</g>
<!-- 533ee38f0e2a17648ee38963b63d34df&#45;&gt;09a15e9660c1ebc6f429d818825ce0c6 -->
<g id="edge12" class="edge"><title>533ee38f0e2a17648ee38963b63d34df-&gt;09a15e9660c1ebc6f429d818825ce0c6</title>
<path fill="none" stroke="black" d="M172.513,-394.606C161.815,-402.243 149.265,-411.264 138,-419.524 121.871,-431.35 121.708,-443.122 102,-446.524"/>
</g>
<!-- c7bef94f503ab17f0975835baa780d23 -->
<g id="node8" class="node"><title>c7bef94f503ab17f0975835baa780d23</title>
<a xlink:href="_src_ForgeInterface.html" xlink:title="ForgeInterface" target="_top">
<polygon fill="white" stroke="black" points="248.148,-323.524 149.852,-323.524 149.852,-287.524 248.148,-287.524 248.148,-323.524"/>
<text text-anchor="middle" x="199" y="-299.924" font-family="Times,serif" font-size="14.00">ForgeInterface</text>
</a>
</g>
<!-- c7bef94f503ab17f0975835baa780d23&#45;&gt;09a15e9660c1ebc6f429d818825ce0c6 -->
<g id="edge14" class="edge"><title>c7bef94f503ab17f0975835baa780d23-&gt;09a15e9660c1ebc6f429d818825ce0c6</title>
<path fill="none" stroke="black" d="M166.363,-323.572C156.208,-330.605 145.628,-339.421 138,-349.524 110.291,-386.223 147.314,-438.702 102,-446.524"/>
</g>
<!-- 8cccb3f44e2e2a194f0bc5c70d504d72 -->
<g id="node9" class="node"><title>8cccb3f44e2e2a194f0bc5c70d504d72</title>
<a xlink:href="_src_Lazy.html" xlink:title="Lazy" target="_top">
<polygon fill="white" stroke="black" points="226,-253.524 172,-253.524 172,-217.524 226,-217.524 226,-253.524"/>
<text text-anchor="middle" x="199" y="-229.924" font-family="Times,serif" font-size="14.00">Lazy</text>
</a>
</g>
<!-- 8cccb3f44e2e2a194f0bc5c70d504d72&#45;&gt;09a15e9660c1ebc6f429d818825ce0c6 -->
<g id="edge16" class="edge"><title>8cccb3f44e2e2a194f0bc5c70d504d72-&gt;09a15e9660c1ebc6f429d818825ce0c6</title>
<path fill="none" stroke="black" d="M171.717,-248.512C159.683,-255.751 146.288,-265.875 138,-278.524 96.1499,-342.396 177.249,-433.534 102,-446.524"/>
</g>
<!-- d1457b72c3fb323a2671125aef3eab5d -->
<g id="node10" class="node"><title>d1457b72c3fb323a2671125aef3eab5d</title>
<polygon fill="white" stroke="black" points="226,-182.524 172,-182.524 172,-146.524 226,-146.524 226,-182.524"/>
<text text-anchor="middle" x="199" y="-158.924" font-family="Times,serif" font-size="14.00" fill="gray">?</text>
</g>
<!-- d1457b72c3fb323a2671125aef3eab5d&#45;&gt;09a15e9660c1ebc6f429d818825ce0c6 -->
<g id="edge18" class="edge"><title>d1457b72c3fb323a2671125aef3eab5d-&gt;09a15e9660c1ebc6f429d818825ce0c6</title>
<path fill="none" stroke="black" d="M100,-446.524C91.4319,-448.003 82.155,-448.619 73.3138,-448.748"/>
<polygon fill="none" stroke="black" points="73.2202,-445.248 63.2037,-448.701 73.187,-452.248 73.2202,-445.248"/>
<path fill="none" stroke="black" d="M171.985,-177.355C159.709,-184.765 146.024,-195.262 138,-208.524 110.311,-254.291 154.711,-437.425 102,-446.524"/>
</g>
<!-- fe9d87595bbecb27348b863f712f1c2b -->
<g id="node11" class="node"><title>fe9d87595bbecb27348b863f712f1c2b</title>
<polygon fill="white" stroke="black" points="407.259,-182.524 334.741,-182.524 334.741,-146.524 407.259,-146.524 407.259,-182.524"/>
<text text-anchor="middle" x="371" y="-158.924" font-family="Times,serif" font-size="14.00" fill="gray">Exception</text>
</g>
<!-- fe9d87595bbecb27348b863f712f1c2b&#45;&gt;d1457b72c3fb323a2671125aef3eab5d -->
<g id="edge20" class="edge"><title>fe9d87595bbecb27348b863f712f1c2b-&gt;d1457b72c3fb323a2671125aef3eab5d</title>
<path fill="none" stroke="black" d="M334.362,-164.524C305.574,-164.524 265.224,-164.524 236.268,-164.524"/>
<polygon fill="none" stroke="black" points="236.158,-161.024 226.158,-164.524 236.158,-168.024 236.158,-161.024"/>
</g>
<!-- 9bf0b3ddbbb86a619ebce27b5bb5e9e6 -->
<g id="node12" class="node"><title>9bf0b3ddbbb86a619ebce27b5bb5e9e6</title>
<a xlink:href="_src_Exception.html" xlink:title="Exception" target="_top">
<polygon fill="white" stroke="black" points="555.259,-182.524 482.741,-182.524 482.741,-146.524 555.259,-146.524 555.259,-182.524"/>
<text text-anchor="middle" x="519" y="-158.924" font-family="Times,serif" font-size="14.00">Exception</text>
</a>
</g>
<!-- 9bf0b3ddbbb86a619ebce27b5bb5e9e6&#45;&gt;fe9d87595bbecb27348b863f712f1c2b -->
<g id="edge22" class="edge"><title>9bf0b3ddbbb86a619ebce27b5bb5e9e6-&gt;fe9d87595bbecb27348b863f712f1c2b</title>
<path fill="none" stroke="black" d="M482.657,-164.524C463.003,-164.524 438.334,-164.524 417.278,-164.524"/>
<polygon fill="none" stroke="black" points="417.27,-161.024 407.27,-164.524 417.27,-168.024 417.27,-161.024"/>
</g>
<!-- 88030f85259a92e3e8b0fa982aa299a3 -->
<g id="node13" class="node"><title>88030f85259a92e3e8b0fa982aa299a3</title>
<a xlink:href="_src_Exception_ContainerExists.html" xlink:title="ContainerExists" target="_top">
<polygon fill="white" stroke="black" points="746.935,-323.524 641.065,-323.524 641.065,-287.524 746.935,-287.524 746.935,-323.524"/>
<text text-anchor="middle" x="694" y="-299.924" font-family="Times,serif" font-size="14.00">ContainerExists</text>
</a>
</g>
<!-- 88030f85259a92e3e8b0fa982aa299a3&#45;&gt;9bf0b3ddbbb86a619ebce27b5bb5e9e6 -->
<g id="edge24" class="edge"><title>88030f85259a92e3e8b0fa982aa299a3-&gt;9bf0b3ddbbb86a619ebce27b5bb5e9e6</title>
<path fill="none" stroke="black" d="M658.436,-287.455C648.178,-280.748 637.651,-272.343 630,-262.524 601.479,-225.923 640.401,-164.57 594,-164.524"/>
</g>
<!-- 03bdb10b25003638168b604145482b19 -->
<g id="node14" class="node"><title>03bdb10b25003638168b604145482b19</title>
<a xlink:href="_src_Exception_ContainerLocked.html" xlink:title="ContainerLocked" target="_top">
<polygon fill="white" stroke="black" points="750.687,-253.524 637.313,-253.524 637.313,-217.524 750.687,-217.524 750.687,-253.524"/>
<text text-anchor="middle" x="694" y="-229.924" font-family="Times,serif" font-size="14.00">ContainerLocked</text>
</a>
</g>
<!-- 03bdb10b25003638168b604145482b19&#45;&gt;9bf0b3ddbbb86a619ebce27b5bb5e9e6 -->
<g id="edge26" class="edge"><title>03bdb10b25003638168b604145482b19-&gt;9bf0b3ddbbb86a619ebce27b5bb5e9e6</title>
<path fill="none" stroke="black" d="M666.499,-217.311C655.191,-209.463 641.887,-200.129 630,-191.524 613.799,-179.797 614,-164.544 594,-164.524"/>
</g>
<!-- d165b00c9192f8bdd7a566e67a527c0c -->
<g id="node15" class="node"><title>d165b00c9192f8bdd7a566e67a527c0c</title>
<a xlink:href="_src_Exception_ContainerNotFound.html" xlink:title="ContainerNotFound" target="_top">
<polygon fill="white" stroke="black" points="757.993,-182.524 630.007,-182.524 630.007,-146.524 757.993,-146.524 757.993,-182.524"/>
<text text-anchor="middle" x="694" y="-158.924" font-family="Times,serif" font-size="14.00">ContainerNotFound</text>
</a>
</g>
<!-- d165b00c9192f8bdd7a566e67a527c0c&#45;&gt;9bf0b3ddbbb86a619ebce27b5bb5e9e6 -->
<g id="edge28" class="edge"><title>d165b00c9192f8bdd7a566e67a527c0c-&gt;9bf0b3ddbbb86a619ebce27b5bb5e9e6</title>
<path fill="none" stroke="black" d="M629.889,-164.543C617.968,-164.541 605.602,-164.536 594,-164.524"/>
</g>
<!-- 3d31da3e9acbfbd58955bdca33adcd26 -->
<g id="node16" class="node"><title>3d31da3e9acbfbd58955bdca33adcd26</title>
<a xlink:href="_src_Exception_ServiceInvalid.html" xlink:title="ServiceInvalid" target="_top">
<polygon fill="white" stroke="black" points="742.635,-112.524 645.365,-112.524 645.365,-76.5241 742.635,-76.5241 742.635,-112.524"/>
<text text-anchor="middle" x="694" y="-88.9241" font-family="Times,serif" font-size="14.00">ServiceInvalid</text>
</a>
</g>
<!-- 3d31da3e9acbfbd58955bdca33adcd26&#45;&gt;9bf0b3ddbbb86a619ebce27b5bb5e9e6 -->
<g id="edge30" class="edge"><title>3d31da3e9acbfbd58955bdca33adcd26-&gt;9bf0b3ddbbb86a619ebce27b5bb5e9e6</title>
<path fill="none" stroke="black" d="M665.838,-112.676C654.66,-120.247 641.63,-129.2 630,-137.524 613.736,-149.164 614,-164.544 594,-164.524"/>
</g>
<!-- f1ed4d5311cb1fc6bd256c501689fe40 -->
<g id="node17" class="node"><title>f1ed4d5311cb1fc6bd256c501689fe40</title>
<a xlink:href="_src_Exception_ServiceNotFound.html" xlink:title="ServiceNotFound" target="_top">
<polygon fill="white" stroke="black" points="751.266,-41.5241 636.734,-41.5241 636.734,-5.52414 751.266,-5.52414 751.266,-41.5241"/>
<text text-anchor="middle" x="694" y="-17.9241" font-family="Times,serif" font-size="14.00">ServiceNotFound</text>
</a>
</g>
<!-- f1ed4d5311cb1fc6bd256c501689fe40&#45;&gt;9bf0b3ddbbb86a619ebce27b5bb5e9e6 -->
<g id="edge32" class="edge"><title>f1ed4d5311cb1fc6bd256c501689fe40-&gt;9bf0b3ddbbb86a619ebce27b5bb5e9e6</title>
<path fill="none" stroke="black" d="M659.115,-41.7296C648.653,-48.6724 637.835,-57.3928 630,-67.5241 601.87,-103.901 639.984,-164.57 594,-164.524"/>
<path fill="none" stroke="black" d="M592,-164.524C583.465,-164.516 574.361,-164.512 565.598,-164.511"/>
<polygon fill="none" stroke="black" points="565.523,-161.011 555.523,-164.51 565.523,-168.011 565.523,-161.011"/>
</g>
</g>
<script xlink:href="js/SVGPan.js"/></svg>
