<?xml version="1.0" encoding="UTF-8" standalone="no"?>
<!DOCTYPE svg PUBLIC "-//W3C//DTD SVG 1.0//EN"
 "http://www.w3.org/TR/2001/REC-SVG-20010904/DTD/svg10.dtd" [
 <!ATTLIST svg xmlns:xlink CDATA #FIXED "http://www.w3.org/1999/xlink">
]>
<!-- Generated by Graphviz version 2.20.2 (Tue Mar &#160;2 21:46:26 UTC 2010)
     For user: (mvriel) Mike van Riel,,, -->
<!-- Title: Classes Pages: 1 -->
<svg width="554pt" height="499pt"
 viewBox="0.00 0.00 554.00 499.00" xmlns="http://www.w3.org/2000/svg" xmlns:xlink="http://www.w3.org/1999/xlink">
<g id="graph0" class="graph" transform="scale(1 1) rotate(0) translate(4 495)">
<title>Classes</title>
<polygon style="fill:white;stroke:white;" points="-4,4 -4,-495 550,-495 550,4 -4,4"/>
<!-- 09a15e9660c1ebc6f429d818825ce0c6 -->
<g id="node1" class="node"><title>09a15e9660c1ebc6f429d818825ce0c6</title>
<polygon style="fill:none;stroke:black;" points="72,-263 2.13163e-14,-263 7.10543e-15,-227 72,-227 72,-263"/>
<text text-anchor="middle" x="36" y="-240.9" style="font-family:Times New Roman;font-size:14.00;">stdClass</text>
</g>
<!-- fea368c109c694a4789063350c6021e7 -->
<g id="node2" class="node"><title>fea368c109c694a4789063350c6021e7</title>
<polygon style="fill:none;stroke:black;" points="230,-474 146,-474 146,-438 230,-438 230,-474"/>
<text text-anchor="middle" x="188" y="-451.9" style="font-family:Times New Roman;font-size:14.00;">Container</text>
</g>
<!-- fea368c109c694a4789063350c6021e7&#45;&gt;09a15e9660c1ebc6f429d818825ce0c6 -->
<g id="edge2" class="edge"><title>fea368c109c694a4789063350c6021e7&#45;&gt;09a15e9660c1ebc6f429d818825ce0c6</title>
<path style="fill:none;stroke:black;" d="M177,-438C167,-422 154,-398 146,-377 123,-320 169,-245 109,-245"/>
</g>
<!-- 7e986a2cbf039e4f8d36d06528c2da53 -->
<g id="node3" class="node"><title>7e986a2cbf039e4f8d36d06528c2da53</title>
<polygon style="fill:none;stroke:black;" points="215,-368 161,-368 161,-332 215,-332 215,-368"/>
<text text-anchor="middle" x="188" y="-345.9" style="font-family:Times New Roman;font-size:14.00;">Forge</text>
</g>
<!-- 7e986a2cbf039e4f8d36d06528c2da53&#45;&gt;09a15e9660c1ebc6f429d818825ce0c6 -->
<g id="edge4" class="edge"><title>7e986a2cbf039e4f8d36d06528c2da53&#45;&gt;09a15e9660c1ebc6f429d818825ce0c6</title>
<path style="fill:none;stroke:black;" d="M179,-332C163,-302 130,-245 109,-245"/>
</g>
<!-- 13512f9ae007e557f15ad91e84d04861 -->
<g id="node4" class="node"><title>13512f9ae007e557f15ad91e84d04861</title>
<polygon style="fill:none;stroke:black;" points="218,-263 158,-263 158,-227 218,-227 218,-263"/>
<text text-anchor="middle" x="188" y="-240.9" style="font-family:Times New Roman;font-size:14.00;">Config</text>
</g>
<!-- 13512f9ae007e557f15ad91e84d04861&#45;&gt;09a15e9660c1ebc6f429d818825ce0c6 -->
<g id="edge6" class="edge"><title>13512f9ae007e557f15ad91e84d04861&#45;&gt;09a15e9660c1ebc6f429d818825ce0c6</title>
<path style="fill:none;stroke:black;" d="M158,-245C143,-245 125,-245 109,-245"/>
</g>
<!-- 767b42bfd646559449edcdea785ddb1a -->
<g id="node5" class="node"><title>767b42bfd646559449edcdea785ddb1a</title>
<polygon style="fill:none;stroke:black;" points="215,-158 161,-158 161,-122 215,-122 215,-158"/>
<text text-anchor="middle" x="188" y="-135.9" style="font-family:Times New Roman;font-size:14.00;">Lazy</text>
</g>
<!-- 767b42bfd646559449edcdea785ddb1a&#45;&gt;09a15e9660c1ebc6f429d818825ce0c6 -->
<g id="edge8" class="edge"><title>767b42bfd646559449edcdea785ddb1a&#45;&gt;09a15e9660c1ebc6f429d818825ce0c6</title>
<path style="fill:none;stroke:black;" d="M179,-158C163,-188 130,-245 109,-245"/>
</g>
<!-- d1457b72c3fb323a2671125aef3eab5d -->
<g id="node6" class="node"><title>d1457b72c3fb323a2671125aef3eab5d</title>
<polygon style="fill:none;stroke:black;" points="215,-53 161,-53 161,-17 215,-17 215,-53"/>
<text text-anchor="middle" x="188" y="-30.9" style="font-family:Times New Roman;font-size:14.00;">?</text>
</g>
<!-- d1457b72c3fb323a2671125aef3eab5d&#45;&gt;09a15e9660c1ebc6f429d818825ce0c6 -->
<g id="edge10" class="edge"><title>d1457b72c3fb323a2671125aef3eab5d&#45;&gt;09a15e9660c1ebc6f429d818825ce0c6</title>
<path style="fill:none;stroke:black;" d="M176,-53C167,-69 154,-91 146,-113 123,-169 169,-245 109,-245"/>
<path style="fill:none;stroke:black;" d="M109,-245C100,-245 91,-245 82,-245"/>
<polygon style="fill:none;stroke:black;" points="82,-241.5 72,-245 82,-248.5 82,-241.5"/>
</g>
<!-- fe9d87595bbecb27348b863f712f1c2b -->
<g id="node7" class="node"><title>fe9d87595bbecb27348b863f712f1c2b</title>
<polygon style="fill:none;stroke:black;" points="388,-53 304,-53 304,-17 388,-17 388,-53"/>
<text text-anchor="middle" x="346" y="-30.9" style="font-family:Times New Roman;font-size:14.00;">Exception</text>
</g>
<!-- fe9d87595bbecb27348b863f712f1c2b&#45;&gt;d1457b72c3fb323a2671125aef3eab5d -->
<g id="edge12" class="edge"><title>fe9d87595bbecb27348b863f712f1c2b&#45;&gt;d1457b72c3fb323a2671125aef3eab5d</title>
<path style="fill:none;stroke:black;" d="M304,-35C280,-35 249,-35 225,-35"/>
<polygon style="fill:none;stroke:black;" points="225,-31.5001 215,-35 225,-38.5001 225,-31.5001"/>
</g>
<!-- 0f7c61e96c3a5fb2a68dd53638f50b10 -->
<g id="node8" class="node"><title>0f7c61e96c3a5fb2a68dd53638f50b10</title>
<polygon style="fill:none;stroke:black;" points="546,-53 462,-53 462,-17 546,-17 546,-53"/>
<text text-anchor="middle" x="504" y="-30.9" style="font-family:Times New Roman;font-size:14.00;">Exception</text>
</g>
<!-- 0f7c61e96c3a5fb2a68dd53638f50b10&#45;&gt;fe9d87595bbecb27348b863f712f1c2b -->
<g id="edge14" class="edge"><title>0f7c61e96c3a5fb2a68dd53638f50b10&#45;&gt;fe9d87595bbecb27348b863f712f1c2b</title>
<path style="fill:none;stroke:black;" d="M462,-35C442,-35 419,-35 398,-35"/>
<polygon style="fill:none;stroke:black;" points="398,-31.5001 388,-35 398,-38.5001 398,-31.5001"/>
</g>
</g>
</svg>
