<?xml version="1.0" encoding="UTF-8" standalone="no"?>
<!DOCTYPE svg PUBLIC "-//W3C//DTD SVG 1.1//EN" "http://www.w3.org/Graphics/SVG/1.1/DTD/svg11.dtd">
<!-- Generated by graphviz version 2.26.3 (20100126.1600)
 -->
<!-- Title: G Pages: 1 -->
<svg xmlns="http://www.w3.org/2000/svg" xmlns:xlink="http://www.w3.org/1999/xlink" width="596pt" height="624pt">
<g id="viewport" class="graph" transform="scale(1 1) rotate(0) translate(4 620)">
<title>G</title>
<polygon fill="white" stroke="white" points="-4,5 -4,-620 593,-620 593,5 -4,5"/>
<g id="graph2" class="cluster"><title>cluster_Aura</title>
<polyline fill="none" stroke="gray" points="20,-44 568,-44 "/>
<path fill="none" stroke="gray" d="M568,-44C574,-44 580,-50 580,-56"/>
<polyline fill="none" stroke="gray" points="580,-56 580,-596 "/>
<path fill="none" stroke="gray" d="M580,-596C580,-602 574,-608 568,-608"/>
<polyline fill="none" stroke="gray" points="568,-608 20,-608 "/>
<path fill="none" stroke="gray" d="M20,-608C14,-608 8,-602 8,-596"/>
<polyline fill="none" stroke="gray" points="8,-596 8,-56 "/>
<path fill="none" stroke="gray" d="M8,-56C8,-50 14,-44 20,-44"/>
<text text-anchor="middle" x="294" y="-594.1" font-family="Times Roman,serif" font-size="11.00" fill="gray">Aura</text>
</g>
<g id="graph3" class="cluster"><title>cluster_Aura_Di</title>
<polyline fill="none" stroke="gray" points="28,-52 560,-52 "/>
<path fill="none" stroke="gray" d="M560,-52C566,-52 572,-58 572,-64"/>
<polyline fill="none" stroke="gray" points="572,-64 572,-566 "/>
<path fill="none" stroke="gray" d="M572,-566C572,-572 566,-578 560,-578"/>
<polyline fill="none" stroke="gray" points="560,-578 28,-578 "/>
<path fill="none" stroke="gray" d="M28,-578C22,-578 16,-572 16,-566"/>
<polyline fill="none" stroke="gray" points="16,-566 16,-64 "/>
<path fill="none" stroke="gray" d="M16,-64C16,-58 22,-52 28,-52"/>
<text text-anchor="middle" x="294" y="-564.1" font-family="Times Roman,serif" font-size="11.00" fill="gray">Di</text>
</g>
<g id="graph4" class="cluster"><title>cluster_Aura_Di_Exception</title>
<polyline fill="none" stroke="gray" points="428,-214 552,-214 "/>
<path fill="none" stroke="gray" d="M552,-214C558,-214 564,-220 564,-226"/>
<polyline fill="none" stroke="gray" points="564,-226 564,-492 "/>
<path fill="none" stroke="gray" d="M564,-492C564,-498 558,-504 552,-504"/>
<polyline fill="none" stroke="gray" points="552,-504 428,-504 "/>
<path fill="none" stroke="gray" d="M428,-504C422,-504 416,-498 416,-492"/>
<polyline fill="none" stroke="gray" points="416,-492 416,-226 "/>
<path fill="none" stroke="gray" d="M416,-226C416,-220 422,-214 428,-214"/>
<text text-anchor="middle" x="490" y="-490.1" font-family="Times Roman,serif" font-size="11.00" fill="gray">Exception</text>
</g>
<!-- _Aura_Di_Exception_ContainerExists -->
<g id="node4" class="node"><title>_Aura_Di_Exception_ContainerExists</title>
<a xlink:href="db_src_Exception_ContainerExists.html" xlink:title="ContainerExists" target="_parent">
<polygon fill="none" stroke="black" points="549,-474 431,-474 431,-438 549,-438 549,-474"/>
<text text-anchor="middle" x="490" y="-453.1" font-family="Courier New" font-size="11.00">ContainerExists</text>
</a>
</g>
<!-- _Aura_Di_Exception -->
<g id="node17" class="node"><title>_Aura_Di_Exception</title>
<a xlink:href="db_src_Exception.html" xlink:title="Exception" target="_parent">
<polygon fill="none" stroke="black" points="331,-339 255,-339 255,-303 331,-303 331,-339"/>
<text text-anchor="middle" x="293" y="-318.1" font-family="Courier New" font-size="11.00">Exception</text>
</a>
</g>
<!-- _Aura_Di_Exception_ContainerExists&#45;&gt;_Aura_Di_Exception -->
<g id="edge8" class="edge"><title>_Aura_Di_Exception_ContainerExists-&gt;_Aura_Di_Exception</title>
<path fill="none" stroke="black" d="M433.622,-437.951C427.522,-435.263 421.529,-432.278 416,-429 377.621,-406.244 340.052,-370.777 316.736,-346.75"/>
<polygon fill="none" stroke="black" points="319.126,-344.186 309.683,-339.381 314.069,-349.026 319.126,-344.186"/>
</g>
<!-- _Aura_Di_Exception_ServiceInvalid -->
<g id="node5" class="node"><title>_Aura_Di_Exception_ServiceInvalid</title>
<a xlink:href="db_src_Exception_ServiceInvalid.html" xlink:title="ServiceInvalid" target="_parent">
<polygon fill="none" stroke="black" points="545,-420 435,-420 435,-384 545,-384 545,-420"/>
<text text-anchor="middle" x="490" y="-399.1" font-family="Courier New" font-size="11.00">ServiceInvalid</text>
</a>
</g>
<!-- _Aura_Di_Exception_ServiceInvalid&#45;&gt;_Aura_Di_Exception -->
<g id="edge10" class="edge"><title>_Aura_Di_Exception_ServiceInvalid-&gt;_Aura_Di_Exception</title>
<path fill="none" stroke="black" d="M439.282,-383.982C431.455,-381.061 423.488,-378.006 416,-375 391.003,-364.964 363.524,-352.992 340.892,-342.874"/>
<polygon fill="none" stroke="black" points="342.067,-339.565 331.51,-338.662 339.2,-345.951 342.067,-339.565"/>
</g>
<!-- _Aura_Di_Exception_ServiceNotFound -->
<g id="node6" class="node"><title>_Aura_Di_Exception_ServiceNotFound</title>
<a xlink:href="db_src_Exception_ServiceNotFound.html" xlink:title="ServiceNotFound" target="_parent">
<polygon fill="none" stroke="black" points="549,-366 431,-366 431,-330 549,-330 549,-366"/>
<text text-anchor="middle" x="490" y="-345.1" font-family="Courier New" font-size="11.00">ServiceNotFound</text>
</a>
</g>
<!-- _Aura_Di_Exception_ServiceNotFound&#45;&gt;_Aura_Di_Exception -->
<g id="edge12" class="edge"><title>_Aura_Di_Exception_ServiceNotFound-&gt;_Aura_Di_Exception</title>
<path fill="none" stroke="black" d="M430.894,-339.899C402.353,-335.987 368.528,-331.352 341.523,-327.65"/>
<polygon fill="none" stroke="black" points="341.914,-324.171 331.532,-326.281 340.964,-331.107 341.914,-324.171"/>
</g>
<!-- _Aura_Di_Exception_ContainerNotFound -->
<g id="node7" class="node"><title>_Aura_Di_Exception_ContainerNotFound</title>
<a xlink:href="db_src_Exception_ContainerNotFound.html" xlink:title="ContainerNotFound" target="_parent">
<polygon fill="none" stroke="black" points="555,-312 425,-312 425,-276 555,-276 555,-312"/>
<text text-anchor="middle" x="490" y="-291.1" font-family="Courier New" font-size="11.00">ContainerNotFound</text>
</a>
</g>
<!-- _Aura_Di_Exception_ContainerNotFound&#45;&gt;_Aura_Di_Exception -->
<g id="edge14" class="edge"><title>_Aura_Di_Exception_ContainerNotFound-&gt;_Aura_Di_Exception</title>
<path fill="none" stroke="black" d="M424.402,-302.991C397.349,-306.698 366.555,-310.919 341.581,-314.342"/>
<polygon fill="none" stroke="black" points="341.046,-310.882 331.614,-315.708 341.997,-317.817 341.046,-310.882"/>
</g>
<!-- _Aura_Di_Exception_ContainerLocked -->
<g id="node8" class="node"><title>_Aura_Di_Exception_ContainerLocked</title>
<a xlink:href="db_src_Exception_ContainerLocked.html" xlink:title="ContainerLocked" target="_parent">
<polygon fill="none" stroke="black" points="549,-258 431,-258 431,-222 549,-222 549,-258"/>
<text text-anchor="middle" x="490" y="-237.1" font-family="Courier New" font-size="11.00">ContainerLocked</text>
</a>
</g>
<!-- _Aura_Di_Exception_ContainerLocked&#45;&gt;_Aura_Di_Exception -->
<g id="edge16" class="edge"><title>_Aura_Di_Exception_ContainerLocked-&gt;_Aura_Di_Exception</title>
<path fill="none" stroke="black" d="M439.282,-258.018C431.455,-260.939 423.488,-263.994 416,-267 391.003,-277.036 363.524,-289.008 340.892,-299.126"/>
<polygon fill="none" stroke="black" points="339.2,-296.049 331.51,-303.338 342.067,-302.435 339.2,-296.049"/>
</g>
<!-- _Aura_Di_Manager -->
<g id="node9" class="node"><title>_Aura_Di_Manager</title>
<a xlink:href="db_src_Manager.html" xlink:title="Manager" target="_parent">
<polygon fill="none" stroke="black" points="522,-548 458,-548 458,-512 522,-512 522,-548"/>
<text text-anchor="middle" x="490" y="-527.1" font-family="Courier New" font-size="11.00">Manager</text>
</a>
</g>
<!-- _Aura_Di_Container -->
<g id="node14" class="node"><title>_Aura_Di_Container</title>
<a xlink:href="db_src_Container.html" xlink:title="Container" target="_parent">
<polygon fill="none" stroke="black" points="331,-548 255,-548 255,-512 331,-512 331,-548"/>
<text text-anchor="middle" x="293" y="-527.1" font-family="Courier New" font-size="11.00">Container</text>
</a>
</g>
<!-- _Aura_Di_Manager&#45;&gt;_Aura_Di_Container -->
<g id="edge6" class="edge"><title>_Aura_Di_Manager-&gt;_Aura_Di_Container</title>
<path fill="none" stroke="black" d="M457.91,-530C426.453,-530 378.082,-530 341.849,-530"/>
<polygon fill="none" stroke="black" points="341.502,-526.5 331.502,-530 341.502,-533.5 341.502,-526.5"/>
</g>
<!-- _Aura_Di_ForgeInterface -->
<g id="node10" class="node"><title>_Aura_Di_ForgeInterface</title>
<a xlink:href="db_src_ForgeInterface.html" xlink:title="ForgeInterface" target="_parent">
<polygon fill="none" stroke="black" points="348,-96 238,-96 238,-60 348,-60 348,-96"/>
<text text-anchor="middle" x="293" y="-75.1" font-family="Courier New" font-size="11.00">ForgeInterface</text>
</a>
</g>
<!-- _Aura_Di_Lazy -->
<g id="node11" class="node"><title>_Aura_Di_Lazy</title>
<a xlink:href="db_src_Lazy.html" xlink:title="Lazy" target="_parent">
<polygon fill="none" stroke="black" points="517,-204 463,-204 463,-168 517,-168 517,-204"/>
<text text-anchor="middle" x="490" y="-183.1" font-family="Courier New" font-size="11.00">Lazy</text>
</a>
</g>
<!-- _Aura_Di_ContainerInterface -->
<g id="node12" class="node"><title>_Aura_Di_ContainerInterface</title>
<a xlink:href="db_src_ContainerInterface.html" xlink:title="ContainerInterface" target="_parent">
<polygon fill="none" stroke="black" points="162,-548 24,-548 24,-512 162,-512 162,-548"/>
<text text-anchor="middle" x="93" y="-527.1" font-family="Courier New" font-size="11.00">ContainerInterface</text>
</a>
</g>
<!-- _Aura_Di_Config -->
<g id="node13" class="node"><title>_Aura_Di_Config</title>
<a xlink:href="db_src_Config.html" xlink:title="Config" target="_parent">
<polygon fill="none" stroke="black" points="518,-150 462,-150 462,-114 518,-114 518,-150"/>
<text text-anchor="middle" x="490" y="-129.1" font-family="Courier New" font-size="11.00">Config</text>
</a>
</g>
<!-- _Aura_Di_ConfigInterface -->
<g id="node15" class="node"><title>_Aura_Di_ConfigInterface</title>
<a xlink:href="db_src_ConfigInterface.html" xlink:title="ConfigInterface" target="_parent">
<polygon fill="none" stroke="black" points="352,-150 234,-150 234,-114 352,-114 352,-150"/>
<text text-anchor="middle" x="293" y="-129.1" font-family="Courier New" font-size="11.00">ConfigInterface</text>
</a>
</g>
<!-- _Aura_Di_Config&#45;&gt;_Aura_Di_ConfigInterface -->
<g id="edge20" class="edge"><title>_Aura_Di_Config-&gt;_Aura_Di_ConfigInterface</title>
<path fill="none" stroke="black" stroke-dasharray="1,5" d="M461.355,-132C435.533,-132 396.516,-132 362.544,-132"/>
<polygon fill="none" stroke="black" points="362.183,-128.5 352.183,-132 362.183,-135.5 362.183,-128.5"/>
</g>
<!-- _Aura_Di_Container&#45;&gt;_Aura_Di_ContainerInterface -->
<g id="edge22" class="edge"><title>_Aura_Di_Container-&gt;_Aura_Di_ContainerInterface</title>
<path fill="none" stroke="black" stroke-dasharray="1,5" d="M254.438,-530C231.186,-530 200.698,-530 172.487,-530"/>
<polygon fill="none" stroke="black" points="172.214,-526.5 162.214,-530 172.214,-533.5 172.214,-526.5"/>
</g>
<!-- _Aura_Di_Forge -->
<g id="node16" class="node"><title>_Aura_Di_Forge</title>
<a xlink:href="db_src_Forge.html" xlink:title="Forge" target="_parent">
<polygon fill="none" stroke="black" points="517,-96 463,-96 463,-60 517,-60 517,-96"/>
<text text-anchor="middle" x="490" y="-75.1" font-family="Courier New" font-size="11.00">Forge</text>
</a>
</g>
<!-- _Aura_Di_Forge&#45;&gt;_Aura_Di_ForgeInterface -->
<g id="edge24" class="edge"><title>_Aura_Di_Forge-&gt;_Aura_Di_ForgeInterface</title>
<path fill="none" stroke="black" stroke-dasharray="1,5" d="M462.608,-78C435.954,-78 394.425,-78 359.133,-78"/>
<polygon fill="none" stroke="black" points="358.884,-74.5001 348.884,-78 358.884,-81.5001 358.884,-74.5001"/>
</g>
<!-- _Exception -->
<g id="node26" class="node"><title>_Exception</title>
<ellipse fill="none" stroke="black" cx="93" cy="-18" rx="62.9325" ry="18.3848"/>
<text text-anchor="middle" x="93" y="-14.4" font-family="Times Roman,serif" font-size="14.00" fill="gray">\Exception</text>
</g>
<!-- _Aura_Di_Exception&#45;&gt;_Exception -->
<g id="edge18" class="edge"><title>_Aura_Di_Exception-&gt;_Exception</title>
<path fill="none" stroke="black" d="M286.13,-302.617C265.334,-247.748 202.036,-86.5707 162,-48 157.133,-43.3114 151.416,-39.2927 145.39,-35.8645"/>
<polygon fill="none" stroke="black" points="146.899,-32.7051 136.404,-31.2551 143.704,-38.9335 146.899,-32.7051"/>
</g>
</g>
<script xlink:href="js/SVGPan.js"/></svg>
