<?xml version="1.0" encoding="UTF-8" standalone="no"?>
<!DOCTYPE svg PUBLIC "-//W3C//DTD SVG 1.1//EN"
 "http://www.w3.org/Graphics/SVG/1.1/DTD/svg11.dtd">
<!-- Generated by graphviz version 2.26.3 (20100126.1600)
 -->
<!-- Title: G Pages: 1 -->
<svg width="808pt" height="948pt"
 viewBox="0.00 0.00 808.00 948.00" xmlns="http://www.w3.org/2000/svg" xmlns:xlink="http://www.w3.org/1999/xlink">
<g id="graph1" class="graph" transform="scale(1 1) rotate(0) translate(4 944)">
<title>G</title>
<polygon fill="white" stroke="white" points="-4,5 -4,-944 805,-944 805,5 -4,5"/>
<g id="graph2" class="cluster"><title>cluster_Aura</title>
<polyline fill="none" stroke="gray" points="20,-44 780,-44 "/>
<path fill="none" stroke="gray" d="M780,-44C786,-44 792,-50 792,-56"/>
<polyline fill="none" stroke="gray" points="792,-56 792,-920 "/>
<path fill="none" stroke="gray" d="M792,-920C792,-926 786,-932 780,-932"/>
<polyline fill="none" stroke="gray" points="780,-932 20,-932 "/>
<path fill="none" stroke="gray" d="M20,-932C14,-932 8,-926 8,-920"/>
<polyline fill="none" stroke="gray" points="8,-920 8,-56 "/>
<path fill="none" stroke="gray" d="M8,-56C8,-50 14,-44 20,-44"/>
<text text-anchor="middle" x="400" y="-918.1" font-family="Times Roman,serif" font-size="11.00" fill="gray">Aura</text>
</g>
<g id="graph3" class="cluster"><title>cluster_Aura\Di</title>
<polyline fill="none" stroke="gray" points="28,-52 772,-52 "/>
<path fill="none" stroke="gray" d="M772,-52C778,-52 784,-58 784,-64"/>
<polyline fill="none" stroke="gray" points="784,-64 784,-890 "/>
<path fill="none" stroke="gray" d="M784,-890C784,-896 778,-902 772,-902"/>
<polyline fill="none" stroke="gray" points="772,-902 28,-902 "/>
<path fill="none" stroke="gray" d="M28,-902C22,-902 16,-896 16,-890"/>
<polyline fill="none" stroke="gray" points="16,-890 16,-64 "/>
<path fill="none" stroke="gray" d="M16,-64C16,-58 22,-52 28,-52"/>
<text text-anchor="middle" x="400" y="-888.1" font-family="Times Roman,serif" font-size="11.00" fill="gray">Di</text>
</g>
<g id="graph4" class="cluster"><title>cluster_Aura\Di\Exception</title>
<polyline fill="none" stroke="gray" points="640,-484 764,-484 "/>
<path fill="none" stroke="gray" d="M764,-484C770,-484 776,-490 776,-496"/>
<polyline fill="none" stroke="gray" points="776,-496 776,-762 "/>
<path fill="none" stroke="gray" d="M776,-762C776,-768 770,-774 764,-774"/>
<polyline fill="none" stroke="gray" points="764,-774 640,-774 "/>
<path fill="none" stroke="gray" d="M640,-774C634,-774 628,-768 628,-762"/>
<polyline fill="none" stroke="gray" points="628,-762 628,-496 "/>
<path fill="none" stroke="gray" d="M628,-496C628,-490 634,-484 640,-484"/>
<text text-anchor="middle" x="702" y="-760.1" font-family="Times Roman,serif" font-size="11.00" fill="gray">Exception</text>
</g>
<!-- \\Aura\\Di\\Exception\\ContainerExists -->
<g id="node4" class="node"><title>\\Aura\\Di\\Exception\\ContainerExists</title>
<a xlink:href="db_src_Exception_ContainerExists.html" xlink:title="ContainerExists" target="_parent">
<polygon fill="none" stroke="black" points="761,-744 643,-744 643,-708 761,-708 761,-744"/>
<text text-anchor="middle" x="702" y="-723.1" font-family="Courier New" font-size="11.00">ContainerExists</text>
</a>
</g>
<!-- \\Aura\\Di\\Exception -->
<g id="node24" class="node"><title>\\Aura\\Di\\Exception</title>
<a xlink:href="db_src_Exception.html" xlink:title="Exception" target="_parent">
<polygon fill="none" stroke="black" points="437,-609 361,-609 361,-573 437,-573 437,-609"/>
<text text-anchor="middle" x="399" y="-588.1" font-family="Courier New" font-size="11.00">Exception</text>
</a>
</g>
<!-- \\Aura\\Di\\Exception\\ContainerExists&#45;&gt;\\Aura\\Di\\Exception -->
<g id="edge18" class="edge"><title>\\Aura\\Di\\Exception\\ContainerExists&#45;&gt;\\Aura\\Di\\Exception</title>
<path fill="none" stroke="black" d="M650.413,-707.861C642.853,-705.005 635.194,-702.002 628,-699 562.911,-671.843 489.458,-636.304 443.692,-613.557"/>
<polygon fill="none" stroke="black" points="445.15,-610.373 434.639,-609.045 442.027,-616.638 445.15,-610.373"/>
</g>
<!-- \\Aura\\Di\\Exception\\ServiceInvalid -->
<g id="node5" class="node"><title>\\Aura\\Di\\Exception\\ServiceInvalid</title>
<a xlink:href="db_src_Exception_ServiceInvalid.html" xlink:title="ServiceInvalid" target="_parent">
<polygon fill="none" stroke="black" points="757,-690 647,-690 647,-654 757,-654 757,-690"/>
<text text-anchor="middle" x="702" y="-669.1" font-family="Courier New" font-size="11.00">ServiceInvalid</text>
</a>
</g>
<!-- \\Aura\\Di\\Exception\\ServiceInvalid&#45;&gt;\\Aura\\Di\\Exception -->
<g id="edge20" class="edge"><title>\\Aura\\Di\\Exception\\ServiceInvalid&#45;&gt;\\Aura\\Di\\Exception</title>
<path fill="none" stroke="black" d="M646.425,-657.143C589.489,-641.923 501.847,-618.494 447.593,-603.99"/>
<polygon fill="none" stroke="black" points="448.431,-600.591 437.866,-601.39 446.623,-607.354 448.431,-600.591"/>
</g>
<!-- \\Aura\\Di\\Exception\\ServiceNotFound -->
<g id="node6" class="node"><title>\\Aura\\Di\\Exception\\ServiceNotFound</title>
<a xlink:href="db_src_Exception_ServiceNotFound.html" xlink:title="ServiceNotFound" target="_parent">
<polygon fill="none" stroke="black" points="761,-636 643,-636 643,-600 761,-600 761,-636"/>
<text text-anchor="middle" x="702" y="-615.1" font-family="Courier New" font-size="11.00">ServiceNotFound</text>
</a>
</g>
<!-- \\Aura\\Di\\Exception\\ServiceNotFound&#45;&gt;\\Aura\\Di\\Exception -->
<g id="edge22" class="edge"><title>\\Aura\\Di\\Exception\\ServiceNotFound&#45;&gt;\\Aura\\Di\\Exception</title>
<path fill="none" stroke="black" d="M642.859,-612.73C586.025,-607.666 501.15,-600.102 447.99,-595.365"/>
<polygon fill="none" stroke="black" points="448.07,-591.859 437.799,-594.457 447.448,-598.831 448.07,-591.859"/>
</g>
<!-- \\Aura\\Di\\Exception\\ContainerNotFound -->
<g id="node7" class="node"><title>\\Aura\\Di\\Exception\\ContainerNotFound</title>
<a xlink:href="db_src_Exception_ContainerNotFound.html" xlink:title="ContainerNotFound" target="_parent">
<polygon fill="none" stroke="black" points="767,-582 637,-582 637,-546 767,-546 767,-582"/>
<text text-anchor="middle" x="702" y="-561.1" font-family="Courier New" font-size="11.00">ContainerNotFound</text>
</a>
</g>
<!-- \\Aura\\Di\\Exception\\ContainerNotFound&#45;&gt;\\Aura\\Di\\Exception -->
<g id="edge24" class="edge"><title>\\Aura\\Di\\Exception\\ContainerNotFound&#45;&gt;\\Aura\\Di\\Exception</title>
<path fill="none" stroke="black" d="M636.254,-569.859C579.587,-574.908 499.055,-582.084 447.921,-586.641"/>
<polygon fill="none" stroke="black" points="447.439,-583.17 437.789,-587.544 448.06,-590.142 447.439,-583.17"/>
</g>
<!-- \\Aura\\Di\\Exception\\ContainerLocked -->
<g id="node8" class="node"><title>\\Aura\\Di\\Exception\\ContainerLocked</title>
<a xlink:href="db_src_Exception_ContainerLocked.html" xlink:title="ContainerLocked" target="_parent">
<polygon fill="none" stroke="black" points="761,-528 643,-528 643,-492 761,-492 761,-528"/>
<text text-anchor="middle" x="702" y="-507.1" font-family="Courier New" font-size="11.00">ContainerLocked</text>
</a>
</g>
<!-- \\Aura\\Di\\Exception\\ContainerLocked&#45;&gt;\\Aura\\Di\\Exception -->
<g id="edge26" class="edge"><title>\\Aura\\Di\\Exception\\ContainerLocked&#45;&gt;\\Aura\\Di\\Exception</title>
<path fill="none" stroke="black" d="M642.859,-525.81C585.907,-541.035 500.796,-563.787 447.658,-577.992"/>
<polygon fill="none" stroke="black" points="446.555,-574.664 437.799,-580.628 448.363,-581.427 446.555,-574.664"/>
</g>
<!-- \\Aura\\Di\\ConfigTest -->
<g id="node9" class="node"><title>\\Aura\\Di\\ConfigTest</title>
<a xlink:href="db_tests_ConfigTest.html" xlink:title="ConfigTest" target="_parent">
<polygon fill="none" stroke="black" points="744,-96 660,-96 660,-60 744,-60 744,-96"/>
<text text-anchor="middle" x="702" y="-75.1" font-family="Courier New" font-size="11.00">ConfigTest</text>
</a>
</g>
<!-- \\PHPUnit_Framework_TestCase -->
<g id="node27" class="node"><title>\\PHPUnit_Framework_TestCase</title>
<ellipse fill="none" stroke="black" cx="399" cy="-18" rx="164.756" ry="18.3848"/>
<text text-anchor="middle" x="399" y="-14.4" font-family="Times Roman,serif" font-size="14.00" fill="gray">\PHPUnit_Framework_TestCase</text>
</g>
<!-- \\Aura\\Di\\ConfigTest&#45;&gt;\\PHPUnit_Framework_TestCase -->
<g id="edge6" class="edge"><title>\\Aura\\Di\\ConfigTest&#45;&gt;\\PHPUnit_Framework_TestCase</title>
<path fill="none" stroke="black" d="M659.8,-68.4343C632.519,-62.3473 596.219,-54.4291 564,-48 542.211,-43.6521 518.75,-39.2305 496.551,-35.1656"/>
<polygon fill="none" stroke="black" points="496.916,-31.6746 486.45,-33.3246 495.66,-38.5611 496.916,-31.6746"/>
</g>
<!-- \\Aura\\Di\\ContainerTest -->
<g id="node10" class="node"><title>\\Aura\\Di\\ContainerTest</title>
<a xlink:href="db_tests_ContainerTest.html" xlink:title="ContainerTest" target="_parent">
<polygon fill="none" stroke="black" points="754,-312 650,-312 650,-276 754,-276 754,-312"/>
<text text-anchor="middle" x="702" y="-291.1" font-family="Courier New" font-size="11.00">ContainerTest</text>
</a>
</g>
<!-- \\Aura\\Di\\ContainerTest&#45;&gt;\\PHPUnit_Framework_TestCase -->
<g id="edge8" class="edge"><title>\\Aura\\Di\\ContainerTest&#45;&gt;\\PHPUnit_Framework_TestCase</title>
<path fill="none" stroke="black" d="M649.659,-281.999C641.599,-278.27 633.983,-273.388 628,-267 558.684,-192.986 639.35,-115.862 564,-48 557.398,-42.0541 550.026,-37.0994 542.16,-32.9842"/>
<polygon fill="none" stroke="black" points="543.621,-29.8033 533.085,-28.6866 540.625,-36.1298 543.621,-29.8033"/>
</g>
<!-- \\Aura\\Di\\MockOtherClass -->
<g id="node11" class="node"><title>\\Aura\\Di\\MockOtherClass</title>
<a xlink:href="db_tests_MockOtherClass.html" xlink:title="MockOtherClass" target="_parent">
<polygon fill="none" stroke="black" points="757,-474 647,-474 647,-438 757,-438 757,-474"/>
<text text-anchor="middle" x="702" y="-453.1" font-family="Courier New" font-size="11.00">MockOtherClass</text>
</a>
</g>
<!-- \\Aura\\Di\\ManagerTest -->
<g id="node12" class="node"><title>\\Aura\\Di\\ManagerTest</title>
<a xlink:href="db_tests_ManagerTest.html" xlink:title="ManagerTest" target="_parent">
<polygon fill="none" stroke="black" points="747,-258 657,-258 657,-222 747,-222 747,-258"/>
<text text-anchor="middle" x="702" y="-237.1" font-family="Courier New" font-size="11.00">ManagerTest</text>
</a>
</g>
<!-- \\Aura\\Di\\ManagerTest&#45;&gt;\\PHPUnit_Framework_TestCase -->
<g id="edge10" class="edge"><title>\\Aura\\Di\\ManagerTest&#45;&gt;\\PHPUnit_Framework_TestCase</title>
<path fill="none" stroke="black" d="M656.243,-230.121C645.97,-226.166 635.814,-220.658 628,-213 571.824,-157.945 624.648,-98.0872 564,-48 556.746,-42.0092 548.695,-37.0528 540.163,-32.965"/>
<polygon fill="none" stroke="black" points="541.297,-29.6417 530.731,-28.8625 538.505,-36.0608 541.297,-29.6417"/>
</g>
<!-- \\Aura\\Di\\MockChildClass -->
<g id="node13" class="node"><title>\\Aura\\Di\\MockChildClass</title>
<a xlink:href="db_tests_MockChildClass.html" xlink:title="MockChildClass" target="_parent">
<polygon fill="none" stroke="black" points="757,-818 647,-818 647,-782 757,-782 757,-818"/>
<text text-anchor="middle" x="702" y="-797.1" font-family="Courier New" font-size="11.00">MockChildClass</text>
</a>
</g>
<!-- \\Aura\\Di\\MockParentClass -->
<g id="node15" class="node"><title>\\Aura\\Di\\MockParentClass</title>
<a xlink:href="db_tests_MockParentClass.html" xlink:title="MockParentClass" target="_parent">
<polygon fill="none" stroke="black" points="458,-818 340,-818 340,-782 458,-782 458,-818"/>
<text text-anchor="middle" x="399" y="-797.1" font-family="Courier New" font-size="11.00">MockParentClass</text>
</a>
</g>
<!-- \\Aura\\Di\\MockChildClass&#45;&gt;\\Aura\\Di\\MockParentClass -->
<g id="edge12" class="edge"><title>\\Aura\\Di\\MockChildClass&#45;&gt;\\Aura\\Di\\MockParentClass</title>
<path fill="none" stroke="black" d="M646.425,-800C596.268,-800 522.281,-800 468.284,-800"/>
<polygon fill="none" stroke="black" points="468.104,-796.5 458.104,-800 468.104,-803.5 468.104,-796.5"/>
</g>
<!-- \\Aura\\Di\\ForgeTest -->
<g id="node14" class="node"><title>\\Aura\\Di\\ForgeTest</title>
<a xlink:href="db_tests_ForgeTest.html" xlink:title="ForgeTest" target="_parent">
<polygon fill="none" stroke="black" points="740,-150 664,-150 664,-114 740,-114 740,-150"/>
<text text-anchor="middle" x="702" y="-129.1" font-family="Courier New" font-size="11.00">ForgeTest</text>
</a>
</g>
<!-- \\Aura\\Di\\ForgeTest&#45;&gt;\\PHPUnit_Framework_TestCase -->
<g id="edge14" class="edge"><title>\\Aura\\Di\\ForgeTest&#45;&gt;\\PHPUnit_Framework_TestCase</title>
<path fill="none" stroke="black" d="M663.48,-121.037C651.668,-116.873 638.917,-111.525 628,-105 595.305,-85.4578 598.236,-64.6958 564,-48 551.786,-42.0437 538.542,-37.2621 525.048,-33.4249"/>
<polygon fill="none" stroke="black" points="525.754,-29.9909 515.19,-30.7944 523.949,-36.7543 525.754,-29.9909"/>
</g>
<!-- \\Aura\\Di\\Manager -->
<g id="node16" class="node"><title>\\Aura\\Di\\Manager</title>
<a xlink:href="db_src_Manager.html" xlink:title="Manager" target="_parent">
<polygon fill="none" stroke="black" points="734,-872 670,-872 670,-836 734,-836 734,-872"/>
<text text-anchor="middle" x="702" y="-851.1" font-family="Courier New" font-size="11.00">Manager</text>
</a>
</g>
<!-- \\Aura\\Di\\Container -->
<g id="node21" class="node"><title>\\Aura\\Di\\Container</title>
<a xlink:href="db_src_Container.html" xlink:title="Container" target="_parent">
<polygon fill="none" stroke="black" points="437,-872 361,-872 361,-836 437,-836 437,-872"/>
<text text-anchor="middle" x="399" y="-851.1" font-family="Courier New" font-size="11.00">Container</text>
</a>
</g>
<!-- \\Aura\\Di\\Manager&#45;&gt;\\Aura\\Di\\Container -->
<g id="edge16" class="edge"><title>\\Aura\\Di\\Manager&#45;&gt;\\Aura\\Di\\Container</title>
<path fill="none" stroke="black" d="M669.861,-854C616.768,-854 510.413,-854 447.934,-854"/>
<polygon fill="none" stroke="black" points="447.924,-850.5 437.924,-854 447.924,-857.5 447.924,-850.5"/>
</g>
<!-- \\Aura\\Di\\ForgeInterface -->
<g id="node17" class="node"><title>\\Aura\\Di\\ForgeInterface</title>
<a xlink:href="db_src_ForgeInterface.html" xlink:title="ForgeInterface" target="_parent">
<polygon fill="none" stroke="black" points="454,-366 344,-366 344,-330 454,-330 454,-366"/>
<text text-anchor="middle" x="399" y="-345.1" font-family="Courier New" font-size="11.00">ForgeInterface</text>
</a>
</g>
<!-- \\Aura\\Di\\Lazy -->
<g id="node18" class="node"><title>\\Aura\\Di\\Lazy</title>
<a xlink:href="db_src_Lazy.html" xlink:title="Lazy" target="_parent">
<polygon fill="none" stroke="black" points="729,-204 675,-204 675,-168 729,-168 729,-204"/>
<text text-anchor="middle" x="702" y="-183.1" font-family="Courier New" font-size="11.00">Lazy</text>
</a>
</g>
<!-- \\Aura\\Di\\ContainerInterface -->
<g id="node19" class="node"><title>\\Aura\\Di\\ContainerInterface</title>
<a xlink:href="db_src_ContainerInterface.html" xlink:title="ContainerInterface" target="_parent">
<polygon fill="none" stroke="black" points="162,-872 24,-872 24,-836 162,-836 162,-872"/>
<text text-anchor="middle" x="93" y="-851.1" font-family="Courier New" font-size="11.00">ContainerInterface</text>
</a>
</g>
<!-- \\Aura\\Di\\Config -->
<g id="node20" class="node"><title>\\Aura\\Di\\Config</title>
<a xlink:href="db_src_Config.html" xlink:title="Config" target="_parent">
<polygon fill="none" stroke="black" points="730,-420 674,-420 674,-384 730,-384 730,-420"/>
<text text-anchor="middle" x="702" y="-399.1" font-family="Courier New" font-size="11.00">Config</text>
</a>
</g>
<!-- \\Aura\\Di\\ConfigInterface -->
<g id="node22" class="node"><title>\\Aura\\Di\\ConfigInterface</title>
<a xlink:href="db_src_ConfigInterface.html" xlink:title="ConfigInterface" target="_parent">
<polygon fill="none" stroke="black" points="458,-420 340,-420 340,-384 458,-384 458,-420"/>
<text text-anchor="middle" x="399" y="-399.1" font-family="Courier New" font-size="11.00">ConfigInterface</text>
</a>
</g>
<!-- \\Aura\\Di\\Config&#45;&gt;\\Aura\\Di\\ConfigInterface -->
<g id="edge30" class="edge"><title>\\Aura\\Di\\Config&#45;&gt;\\Aura\\Di\\ConfigInterface</title>
<path fill="none" stroke="black" stroke-dasharray="1,5" d="M673.494,-402C626.928,-402 533.239,-402 468.358,-402"/>
<polygon fill="none" stroke="black" points="468.204,-398.5 458.204,-402 468.204,-405.5 468.204,-398.5"/>
</g>
<!-- \\Aura\\Di\\Container&#45;&gt;\\Aura\\Di\\ContainerInterface -->
<g id="edge32" class="edge"><title>\\Aura\\Di\\Container&#45;&gt;\\Aura\\Di\\ContainerInterface</title>
<path fill="none" stroke="black" stroke-dasharray="1,5" d="M360.245,-854C313.269,-854 232.91,-854 172.549,-854"/>
<polygon fill="none" stroke="black" points="172.284,-850.5 162.284,-854 172.284,-857.5 172.284,-850.5"/>
</g>
<!-- \\Aura\\Di\\Forge -->
<g id="node23" class="node"><title>\\Aura\\Di\\Forge</title>
<a xlink:href="db_src_Forge.html" xlink:title="Forge" target="_parent">
<polygon fill="none" stroke="black" points="729,-366 675,-366 675,-330 729,-330 729,-366"/>
<text text-anchor="middle" x="702" y="-345.1" font-family="Courier New" font-size="11.00">Forge</text>
</a>
</g>
<!-- \\Aura\\Di\\Forge&#45;&gt;\\Aura\\Di\\ForgeInterface -->
<g id="edge34" class="edge"><title>\\Aura\\Di\\Forge&#45;&gt;\\Aura\\Di\\ForgeInterface</title>
<path fill="none" stroke="black" stroke-dasharray="1,5" d="M674.844,-348C627.965,-348 530.584,-348 464.995,-348"/>
<polygon fill="none" stroke="black" points="464.754,-344.5 454.754,-348 464.754,-351.5 464.754,-344.5"/>
</g>
<!-- \\Exception -->
<g id="node39" class="node"><title>\\Exception</title>
<ellipse fill="none" stroke="black" cx="93" cy="-18" rx="62.9325" ry="18.3848"/>
<text text-anchor="middle" x="93" y="-14.4" font-family="Times Roman,serif" font-size="14.00" fill="gray">\Exception</text>
</g>
<!-- \\Aura\\Di\\Exception&#45;&gt;\\Exception -->
<g id="edge28" class="edge"><title>\\Aura\\Di\\Exception&#45;&gt;\\Exception</title>
<path fill="none" stroke="black" d="M372.074,-572.826C334.664,-546.029 267.767,-492.204 234,-429 152.795,-277.002 269.517,-182.677 162,-48 158.042,-43.0426 153.103,-38.8864 147.697,-35.4059"/>
<polygon fill="none" stroke="black" points="149.328,-32.3074 138.892,-30.4747 145.907,-38.4148 149.328,-32.3074"/>
</g>
</g>
</svg>
