<?xml version="1.0" encoding="UTF-8" standalone="no"?>
<!DOCTYPE svg PUBLIC "-//W3C//DTD SVG 1.1//EN"
 "http://www.w3.org/Graphics/SVG/1.1/DTD/svg11.dtd">
<!-- Generated by graphviz version 2.28.0 (20110509.1545)
 -->
<!-- Title: G Pages: 1 -->
<svg width="588pt" height="629pt"
 viewBox="0.00 0.00 588.00 629.00" xmlns="http://www.w3.org/2000/svg" xmlns:xlink="http://www.w3.org/1999/xlink">
<g id="graph1" class="graph" transform="scale(1 1) rotate(0) translate(4 625)">
<title>G</title>
<polygon fill="white" stroke="white" points="-4,5 -4,-625 585,-625 585,5 -4,5"/>
<g id="graph2" class="cluster"><title>cluster_Aura</title>
<polyline fill="none" stroke="gray" points="20,-44 560,-44 "/>
<path fill="none" stroke="gray" d="M560,-44C566,-44 572,-50 572,-56"/>
<polyline fill="none" stroke="gray" points="572,-56 572,-601 "/>
<path fill="none" stroke="gray" d="M572,-601C572,-607 566,-613 560,-613"/>
<polyline fill="none" stroke="gray" points="560,-613 20,-613 "/>
<path fill="none" stroke="gray" d="M20,-613C14,-613 8,-607 8,-601"/>
<polyline fill="none" stroke="gray" points="8,-601 8,-56 "/>
<path fill="none" stroke="gray" d="M8,-56C8,-50 14,-44 20,-44"/>
<text text-anchor="middle" x="290" y="-598" font-family="Times,serif" font-size="11.00" fill="gray">Aura</text>
</g>
<g id="graph3" class="cluster"><title>cluster_Aura\Di</title>
<polyline fill="none" stroke="gray" points="28,-52 552,-52 "/>
<path fill="none" stroke="gray" d="M552,-52C558,-52 564,-58 564,-64"/>
<polyline fill="none" stroke="gray" points="564,-64 564,-572 "/>
<path fill="none" stroke="gray" d="M564,-572C564,-578 558,-584 552,-584"/>
<polyline fill="none" stroke="gray" points="552,-584 28,-584 "/>
<path fill="none" stroke="gray" d="M28,-584C22,-584 16,-578 16,-572"/>
<polyline fill="none" stroke="gray" points="16,-572 16,-64 "/>
<path fill="none" stroke="gray" d="M16,-64C16,-58 22,-52 28,-52"/>
<text text-anchor="middle" x="290" y="-569" font-family="Times,serif" font-size="11.00" fill="gray">Di</text>
</g>
<g id="graph4" class="cluster"><title>cluster_Aura\Di\Exception</title>
<polyline fill="none" stroke="gray" points="424,-60 544,-60 "/>
<path fill="none" stroke="gray" d="M544,-60C550,-60 556,-66 556,-72"/>
<polyline fill="none" stroke="gray" points="556,-72 556,-337 "/>
<path fill="none" stroke="gray" d="M556,-337C556,-343 550,-349 544,-349"/>
<polyline fill="none" stroke="gray" points="544,-349 424,-349 "/>
<path fill="none" stroke="gray" d="M424,-349C418,-349 412,-343 412,-337"/>
<polyline fill="none" stroke="gray" points="412,-337 412,-72 "/>
<path fill="none" stroke="gray" d="M412,-72C412,-66 418,-60 424,-60"/>
<text text-anchor="middle" x="484" y="-334" font-family="Times,serif" font-size="11.00" fill="gray">Exception</text>
</g>
<!-- \\Aura\\Di\\Exception\\ContainerExists -->
<g id="node4" class="node"><title>\\Aura\\Di\\Exception\\ContainerExists</title>
<a xlink:href="db_src_Aura_Di_Exception_ContainerExists.html" xlink:title="ContainerExists" target="_parent">
<polygon fill="none" stroke="black" points="541.516,-320 426.484,-320 426.484,-284 541.516,-284 541.516,-320"/>
<text text-anchor="middle" x="484" y="-297.6" font-family="Courier,monospace" font-size="11.00">ContainerExists</text>
</a>
</g>
<!-- \\Aura\\Di\\Exception -->
<g id="node13" class="node"><title>\\Aura\\Di\\Exception</title>
<a xlink:href="db_src_Aura_Di_Exception.html" xlink:title="Exception" target="_parent">
<polygon fill="none" stroke="black" points="327.911,-185 252.089,-185 252.089,-149 327.911,-149 327.911,-185"/>
<text text-anchor="middle" x="290" y="-162.6" font-family="Courier,monospace" font-size="11.00">Exception</text>
</a>
</g>
<!-- \\Aura\\Di\\Exception\\ContainerExists&#45;&gt;\\Aura\\Di\\Exception -->
<g id="edge6" class="edge"><title>\\Aura\\Di\\Exception\\ContainerExists&#45;&gt;\\Aura\\Di\\Exception</title>
<path fill="none" stroke="black" d="M428.892,-283.832C423.042,-281.166 417.297,-278.219 412,-275 374.219,-252.041 337.267,-216.62 314.338,-192.659"/>
<polygon fill="none" stroke="black" points="316.813,-190.182 307.403,-185.312 311.722,-194.987 316.813,-190.182"/>
</g>
<!-- \\Aura\\Di\\Exception\\ContainerLocked -->
<g id="node5" class="node"><title>\\Aura\\Di\\Exception\\ContainerLocked</title>
<a xlink:href="db_src_Aura_Di_Exception_ContainerLocked.html" xlink:title="ContainerLocked" target="_parent">
<polygon fill="none" stroke="black" points="541.516,-266 426.484,-266 426.484,-230 541.516,-230 541.516,-266"/>
<text text-anchor="middle" x="484" y="-243.6" font-family="Courier,monospace" font-size="11.00">ContainerLocked</text>
</a>
</g>
<!-- \\Aura\\Di\\Exception\\ContainerLocked&#45;&gt;\\Aura\\Di\\Exception -->
<g id="edge8" class="edge"><title>\\Aura\\Di\\Exception\\ContainerLocked&#45;&gt;\\Aura\\Di\\Exception</title>
<path fill="none" stroke="black" d="M434.352,-229.917C426.84,-227.004 419.192,-223.969 412,-221 387.069,-210.706 359.593,-198.514 337.133,-188.322"/>
<polygon fill="none" stroke="black" points="338.388,-185.047 327.837,-184.088 335.486,-191.418 338.388,-185.047"/>
</g>
<!-- \\Aura\\Di\\Exception\\ContainerNotFound -->
<g id="node6" class="node"><title>\\Aura\\Di\\Exception\\ContainerNotFound</title>
<a xlink:href="db_src_Aura_Di_Exception_ContainerNotFound.html" xlink:title="ContainerNotFound" target="_parent">
<polygon fill="none" stroke="black" points="548.218,-212 419.782,-212 419.782,-176 548.218,-176 548.218,-212"/>
<text text-anchor="middle" x="484" y="-189.6" font-family="Courier,monospace" font-size="11.00">ContainerNotFound</text>
</a>
</g>
<!-- \\Aura\\Di\\Exception\\ContainerNotFound&#45;&gt;\\Aura\\Di\\Exception -->
<g id="edge10" class="edge"><title>\\Aura\\Di\\Exception\\ContainerNotFound&#45;&gt;\\Aura\\Di\\Exception</title>
<path fill="none" stroke="black" d="M419.866,-185.122C393.184,-181.37 362.649,-177.076 338.002,-173.61"/>
<polygon fill="none" stroke="black" points="338.217,-170.106 327.827,-172.179 337.243,-177.037 338.217,-170.106"/>
</g>
<!-- \\Aura\\Di\\Exception\\ServiceInvalid -->
<g id="node7" class="node"><title>\\Aura\\Di\\Exception\\ServiceInvalid</title>
<a xlink:href="db_src_Aura_Di_Exception_ServiceInvalid.html" xlink:title="ServiceInvalid" target="_parent">
<polygon fill="none" stroke="black" points="538.416,-158 429.584,-158 429.584,-122 538.416,-122 538.416,-158"/>
<text text-anchor="middle" x="484" y="-135.6" font-family="Courier,monospace" font-size="11.00">ServiceInvalid</text>
</a>
</g>
<!-- \\Aura\\Di\\Exception\\ServiceInvalid&#45;&gt;\\Aura\\Di\\Exception -->
<g id="edge12" class="edge"><title>\\Aura\\Di\\Exception\\ServiceInvalid&#45;&gt;\\Aura\\Di\\Exception</title>
<path fill="none" stroke="black" d="M429.772,-147.485C401.037,-151.526 365.876,-156.471 338.136,-160.371"/>
<polygon fill="none" stroke="black" points="337.312,-156.953 327.897,-161.811 338.287,-163.885 337.312,-156.953"/>
</g>
<!-- \\Aura\\Di\\Exception\\ServiceNotFound -->
<g id="node8" class="node"><title>\\Aura\\Di\\Exception\\ServiceNotFound</title>
<a xlink:href="db_src_Aura_Di_Exception_ServiceNotFound.html" xlink:title="ServiceNotFound" target="_parent">
<polygon fill="none" stroke="black" points="541.516,-104 426.484,-104 426.484,-68 541.516,-68 541.516,-104"/>
<text text-anchor="middle" x="484" y="-81.6" font-family="Courier,monospace" font-size="11.00">ServiceNotFound</text>
</a>
</g>
<!-- \\Aura\\Di\\Exception\\ServiceNotFound&#45;&gt;\\Aura\\Di\\Exception -->
<g id="edge14" class="edge"><title>\\Aura\\Di\\Exception\\ServiceNotFound&#45;&gt;\\Aura\\Di\\Exception</title>
<path fill="none" stroke="black" d="M434.352,-104.083C426.84,-106.996 419.192,-110.031 412,-113 387.069,-123.294 359.593,-135.486 337.133,-145.678"/>
<polygon fill="none" stroke="black" points="335.486,-142.582 327.837,-149.912 338.388,-148.953 335.486,-142.582"/>
</g>
<!-- \\Aura\\Di\\Config -->
<g id="node9" class="node"><title>\\Aura\\Di\\Config</title>
<a xlink:href="db_src_Aura_Di_Config.html" xlink:title="Config" target="_parent">
<polygon fill="none" stroke="black" points="511.608,-501 456.392,-501 456.392,-465 511.608,-465 511.608,-501"/>
<text text-anchor="middle" x="484" y="-478.6" font-family="Courier,monospace" font-size="11.00">Config</text>
</a>
</g>
<!-- \\Aura\\Di\\ConfigInterface -->
<g id="node10" class="node"><title>\\Aura\\Di\\ConfigInterface</title>
<a xlink:href="db_src_Aura_Di_ConfigInterface.html" xlink:title="ConfigInterface" target="_parent">
<polygon fill="none" stroke="black" points="347.516,-501 232.484,-501 232.484,-465 347.516,-465 347.516,-501"/>
<text text-anchor="middle" x="290" y="-478.6" font-family="Courier,monospace" font-size="11.00">ConfigInterface</text>
</a>
</g>
<!-- \\Aura\\Di\\Config&#45;&gt;\\Aura\\Di\\ConfigInterface -->
<g id="edge20" class="edge"><title>\\Aura\\Di\\Config&#45;&gt;\\Aura\\Di\\ConfigInterface</title>
<path fill="none" stroke="black" stroke-dasharray="1,5" d="M456.303,-483C430.997,-483 391.934,-483 358.135,-483"/>
<polygon fill="none" stroke="black" points="357.835,-479.5 347.835,-483 357.835,-486.5 357.835,-479.5"/>
</g>
<!-- \\Aura\\Di\\Container -->
<g id="node11" class="node"><title>\\Aura\\Di\\Container</title>
<a xlink:href="db_src_Aura_Di_Container.html" xlink:title="Container" target="_parent">
<polygon fill="none" stroke="black" points="327.911,-555 252.089,-555 252.089,-519 327.911,-519 327.911,-555"/>
<text text-anchor="middle" x="290" y="-532.6" font-family="Courier,monospace" font-size="11.00">Container</text>
</a>
</g>
<!-- \\Aura\\Di\\ContainerInterface -->
<g id="node12" class="node"><title>\\Aura\\Di\\ContainerInterface</title>
<a xlink:href="db_src_Aura_Di_ContainerInterface.html" xlink:title="ContainerInterface" target="_parent">
<polygon fill="none" stroke="black" points="159.319,-555 24.6805,-555 24.6805,-519 159.319,-519 159.319,-555"/>
<text text-anchor="middle" x="92" y="-532.6" font-family="Courier,monospace" font-size="11.00">ContainerInterface</text>
</a>
</g>
<!-- \\Aura\\Di\\Container&#45;&gt;\\Aura\\Di\\ContainerInterface -->
<g id="edge22" class="edge"><title>\\Aura\\Di\\Container&#45;&gt;\\Aura\\Di\\ContainerInterface</title>
<path fill="none" stroke="black" stroke-dasharray="1,5" d="M252.134,-537C228.925,-537 198.099,-537 169.761,-537"/>
<polygon fill="none" stroke="black" points="169.453,-533.5 159.453,-537 169.453,-540.5 169.453,-533.5"/>
</g>
<!-- \\Exception -->
<g id="node25" class="node"><title>\\Exception</title>
<ellipse fill="none" stroke="black" cx="92" cy="-18" rx="52.7417" ry="18"/>
<text text-anchor="middle" x="92" y="-12.4" font-family="Times,serif" font-size="14.00" fill="gray">\Exception</text>
</g>
<!-- \\Aura\\Di\\Exception&#45;&gt;\\Exception -->
<g id="edge16" class="edge"><title>\\Aura\\Di\\Exception&#45;&gt;\\Exception</title>
<path fill="none" stroke="black" d="M272.98,-148.906C249.956,-123.728 205.276,-77.8605 160,-48 153.041,-43.4105 145.265,-39.2079 137.543,-35.4941"/>
<polygon fill="none" stroke="black" points="138.758,-32.2008 128.209,-31.2132 135.84,-38.5635 138.758,-32.2008"/>
</g>
<!-- \\Aura\\Di\\Forge -->
<g id="node14" class="node"><title>\\Aura\\Di\\Forge</title>
<a xlink:href="db_src_Aura_Di_Forge.html" xlink:title="Forge" target="_parent">
<polygon fill="none" stroke="black" points="511,-447 457,-447 457,-411 511,-411 511,-447"/>
<text text-anchor="middle" x="484" y="-424.6" font-family="Courier,monospace" font-size="11.00">Forge</text>
</a>
</g>
<!-- \\Aura\\Di\\ForgeInterface -->
<g id="node15" class="node"><title>\\Aura\\Di\\ForgeInterface</title>
<a xlink:href="db_src_Aura_Di_ForgeInterface.html" xlink:title="ForgeInterface" target="_parent">
<polygon fill="none" stroke="black" points="344.416,-447 235.584,-447 235.584,-411 344.416,-411 344.416,-447"/>
<text text-anchor="middle" x="290" y="-424.6" font-family="Courier,monospace" font-size="11.00">ForgeInterface</text>
</a>
</g>
<!-- \\Aura\\Di\\Forge&#45;&gt;\\Aura\\Di\\ForgeInterface -->
<g id="edge24" class="edge"><title>\\Aura\\Di\\Forge&#45;&gt;\\Aura\\Di\\ForgeInterface</title>
<path fill="none" stroke="black" stroke-dasharray="1,5" d="M456.706,-429C430.533,-429 389.361,-429 354.607,-429"/>
<polygon fill="none" stroke="black" points="354.523,-425.5 344.523,-429 354.523,-432.5 354.523,-425.5"/>
</g>
<!-- \\Aura\\Di\\Lazy -->
<g id="node16" class="node"><title>\\Aura\\Di\\Lazy</title>
<a xlink:href="db_src_Aura_Di_Lazy.html" xlink:title="Lazy" target="_parent">
<polygon fill="none" stroke="black" points="511,-393 457,-393 457,-357 511,-357 511,-393"/>
<text text-anchor="middle" x="484" y="-370.6" font-family="Courier,monospace" font-size="11.00">Lazy</text>
</a>
</g>
<!-- \\Aura\\Di\\Manager -->
<g id="node17" class="node"><title>\\Aura\\Di\\Manager</title>
<a xlink:href="db_src_Aura_Di_Manager.html" xlink:title="Manager" target="_parent">
<polygon fill="none" stroke="black" points="515.208,-555 452.792,-555 452.792,-519 515.208,-519 515.208,-555"/>
<text text-anchor="middle" x="484" y="-532.6" font-family="Courier,monospace" font-size="11.00">Manager</text>
</a>
</g>
<!-- \\Aura\\Di\\Manager&#45;&gt;\\Aura\\Di\\Container -->
<g id="edge18" class="edge"><title>\\Aura\\Di\\Manager&#45;&gt;\\Aura\\Di\\Container</title>
<path fill="none" stroke="black" d="M452.577,-537C421.78,-537 373.737,-537 338.033,-537"/>
<polygon fill="none" stroke="black" points="337.849,-533.5 327.849,-537 337.849,-540.5 337.849,-533.5"/>
</g>
</g>
</svg>
