<?xml version="1.0" encoding="UTF-8" standalone="no"?>
<!DOCTYPE svg PUBLIC "-//W3C//DTD SVG 1.1//EN" "http://www.w3.org/Graphics/SVG/1.1/DTD/svg11.dtd">
<!-- Generated by graphviz version 2.28.0 (20110509.1545)
 -->
<!-- Title: Classes Pages: 1 -->
<svg xmlns="http://www.w3.org/2000/svg" xmlns:xlink="http://www.w3.org/1999/xlink" width="776pt" height="699pt">
<g id="viewport" class="graph" transform="scale(1 1) rotate(0) translate(4 695.2)">
<title>Classes</title>
<polygon fill="white" stroke="white" points="-4,5 -4,-695.2 773,-695.2 773,5 -4,5"/>
<!-- 09a15e9660c1ebc6f429d818825ce0c6 -->
<g id="node1" class="node"><title>09a15e9660c1ebc6f429d818825ce0c6</title>
<polygon fill="white" stroke="black" points="63.1766,-452.749 0.823384,-452.749 0.823384,-416.749 63.1766,-416.749 63.1766,-452.749"/>
<text text-anchor="middle" x="32" y="-429.149" font-family="Times,serif" font-size="14.00" fill="gray">stdClass</text>
</g>
<!-- 9fc0970022c149010152fc216cda1040 -->
<g id="node2" class="node"><title>9fc0970022c149010152fc216cda1040</title>
<a xlink:href="_src_Command.html" xlink:title="Command" target="_top">
<polygon fill="white" stroke="black" points="234.332,-689.749 159.668,-689.749 159.668,-653.749 234.332,-653.749 234.332,-689.749"/>
<text text-anchor="middle" x="197" y="-666.149" font-family="Times,serif" font-size="14.00">Command</text>
</a>
</g>
<!-- 9fc0970022c149010152fc216cda1040&#45;&gt;09a15e9660c1ebc6f429d818825ce0c6 -->
<g id="edge2" class="edge"><title>9fc0970022c149010152fc216cda1040-&gt;09a15e9660c1ebc6f429d818825ce0c6</title>
<path fill="none" stroke="black" d="M159.627,-657.498C151.392,-652.689 143.474,-646.513 138,-638.749 111.475,-601.125 148.034,-434.669 102,-434.749"/>
</g>
<!-- 96fac31a7c0f1d0e4b8813dba8e101d7 -->
<g id="node3" class="node"><title>96fac31a7c0f1d0e4b8813dba8e101d7</title>
<a xlink:href="_src_CommandFactory.html" xlink:title="CommandFactory" target="_top">
<polygon fill="white" stroke="black" points="255.597,-629.749 138.403,-629.749 138.403,-593.749 255.597,-593.749 255.597,-629.749"/>
<text text-anchor="middle" x="197" y="-606.149" font-family="Times,serif" font-size="14.00">CommandFactory</text>
</a>
</g>
<!-- 96fac31a7c0f1d0e4b8813dba8e101d7&#45;&gt;09a15e9660c1ebc6f429d818825ce0c6 -->
<g id="edge4" class="edge"><title>96fac31a7c0f1d0e4b8813dba8e101d7-&gt;09a15e9660c1ebc6f429d818825ce0c6</title>
<path fill="none" stroke="black" d="M153.165,-593.624C147.442,-589.73 142.133,-585.13 138,-579.749 97.5516,-527.089 168.401,-434.633 102,-434.749"/>
</g>
<!-- e8a61bc66c2c268fe2050dc34e4d0f6c -->
<g id="node4" class="node"><title>e8a61bc66c2c268fe2050dc34e4d0f6c</title>
<a xlink:href="_src_Context.html" xlink:title="Context" target="_top">
<polygon fill="white" stroke="black" points="227.332,-570.749 166.668,-570.749 166.668,-534.749 227.332,-534.749 227.332,-570.749"/>
<text text-anchor="middle" x="197" y="-547.149" font-family="Times,serif" font-size="14.00">Context</text>
</a>
</g>
<!-- e8a61bc66c2c268fe2050dc34e4d0f6c&#45;&gt;09a15e9660c1ebc6f429d818825ce0c6 -->
<g id="edge6" class="edge"><title>e8a61bc66c2c268fe2050dc34e4d0f6c-&gt;09a15e9660c1ebc6f429d818825ce0c6</title>
<path fill="none" stroke="black" d="M166.793,-541.417C156.635,-536.331 145.836,-529.478 138,-520.749 110.32,-489.914 143.436,-434.677 102,-434.749"/>
</g>
<!-- 48eec445bee91bf0160a771afbd98cbb -->
<g id="node5" class="node"><title>48eec445bee91bf0160a771afbd98cbb</title>
<a xlink:href="_src_Getopt.html" xlink:title="Getopt" target="_top">
<polygon fill="white" stroke="black" points="224.104,-511.749 169.896,-511.749 169.896,-475.749 224.104,-475.749 224.104,-511.749"/>
<text text-anchor="middle" x="197" y="-488.149" font-family="Times,serif" font-size="14.00">Getopt</text>
</a>
</g>
<!-- 48eec445bee91bf0160a771afbd98cbb&#45;&gt;09a15e9660c1ebc6f429d818825ce0c6 -->
<g id="edge8" class="edge"><title>48eec445bee91bf0160a771afbd98cbb-&gt;09a15e9660c1ebc6f429d818825ce0c6</title>
<path fill="none" stroke="black" d="M169.853,-480.324C159.721,-474.865 148.141,-468.304 138,-461.749 121.203,-450.891 122,-434.714 102,-434.749"/>
</g>
<!-- c4512ca2cee2fedd0d56a7c1bcabe5db -->
<g id="node6" class="node"><title>c4512ca2cee2fedd0d56a7c1bcabe5db</title>
<a xlink:href="_src_Option.html" xlink:title="Option" target="_top">
<polygon fill="white" stroke="black" points="224.39,-452.749 169.61,-452.749 169.61,-416.749 224.39,-416.749 224.39,-452.749"/>
<text text-anchor="middle" x="197" y="-429.149" font-family="Times,serif" font-size="14.00">Option</text>
</a>
</g>
<!-- c4512ca2cee2fedd0d56a7c1bcabe5db&#45;&gt;09a15e9660c1ebc6f429d818825ce0c6 -->
<g id="edge10" class="edge"><title>c4512ca2cee2fedd0d56a7c1bcabe5db-&gt;09a15e9660c1ebc6f429d818825ce0c6</title>
<path fill="none" stroke="black" d="M169.258,-434.724C150.447,-434.713 124.684,-434.709 102,-434.749"/>
</g>
<!-- b11733b1e590a4e106028ac6da64ec8d -->
<g id="node7" class="node"><title>b11733b1e590a4e106028ac6da64ec8d</title>
<a xlink:href="_src_OptionFactory.html" xlink:title="OptionFactory" target="_top">
<polygon fill="white" stroke="black" points="245.656,-392.749 148.344,-392.749 148.344,-356.749 245.656,-356.749 245.656,-392.749"/>
<text text-anchor="middle" x="197" y="-369.149" font-family="Times,serif" font-size="14.00">OptionFactory</text>
</a>
</g>
<!-- b11733b1e590a4e106028ac6da64ec8d&#45;&gt;09a15e9660c1ebc6f429d818825ce0c6 -->
<g id="edge12" class="edge"><title>b11733b1e590a4e106028ac6da64ec8d-&gt;09a15e9660c1ebc6f429d818825ce0c6</title>
<path fill="none" stroke="black" d="M162.442,-392.888C154.321,-397.538 145.75,-402.666 138,-407.749 121.275,-418.716 122,-434.714 102,-434.749"/>
</g>
<!-- 237df39948f75280c3bd1fb061137fae -->
<g id="node8" class="node"><title>237df39948f75280c3bd1fb061137fae</title>
<a xlink:href="_src_Stdio.html" xlink:title="Stdio" target="_top">
<polygon fill="white" stroke="black" points="224,-333.749 170,-333.749 170,-297.749 224,-297.749 224,-333.749"/>
<text text-anchor="middle" x="197" y="-310.149" font-family="Times,serif" font-size="14.00">Stdio</text>
</a>
</g>
<!-- 237df39948f75280c3bd1fb061137fae&#45;&gt;09a15e9660c1ebc6f429d818825ce0c6 -->
<g id="edge14" class="edge"><title>237df39948f75280c3bd1fb061137fae-&gt;09a15e9660c1ebc6f429d818825ce0c6</title>
<path fill="none" stroke="black" d="M169.739,-325.618C158.759,-330.821 146.585,-338.146 138,-347.749 110.11,-378.946 143.846,-434.676 102,-434.749"/>
</g>
<!-- 9b29eedd57a0cee4ed53c2c8e4cc9a11 -->
<g id="node9" class="node"><title>9b29eedd57a0cee4ed53c2c8e4cc9a11</title>
<a xlink:href="_src_Vt100.html" xlink:title="Vt100" target="_top">
<polygon fill="white" stroke="black" points="224,-274.749 170,-274.749 170,-238.749 224,-238.749 224,-274.749"/>
<text text-anchor="middle" x="197" y="-251.149" font-family="Times,serif" font-size="14.00">Vt100</text>
</a>
</g>
<!-- 9b29eedd57a0cee4ed53c2c8e4cc9a11&#45;&gt;09a15e9660c1ebc6f429d818825ce0c6 -->
<g id="edge16" class="edge"><title>9b29eedd57a0cee4ed53c2c8e4cc9a11-&gt;09a15e9660c1ebc6f429d818825ce0c6</title>
<path fill="none" stroke="black" d="M169.921,-265.627C158.57,-270.73 146.048,-278.254 138,-288.749 97.3313,-341.783 168.832,-434.633 102,-434.749"/>
</g>
<!-- d1457b72c3fb323a2671125aef3eab5d -->
<g id="node10" class="node"><title>d1457b72c3fb323a2671125aef3eab5d</title>
<polygon fill="white" stroke="black" points="224,-215.749 170,-215.749 170,-179.749 224,-179.749 224,-215.749"/>
<text text-anchor="middle" x="197" y="-192.149" font-family="Times,serif" font-size="14.00" fill="gray">?</text>
</g>
<!-- d1457b72c3fb323a2671125aef3eab5d&#45;&gt;09a15e9660c1ebc6f429d818825ce0c6 -->
<g id="edge18" class="edge"><title>d1457b72c3fb323a2671125aef3eab5d-&gt;09a15e9660c1ebc6f429d818825ce0c6</title>
<path fill="none" stroke="black" d="M100,-434.749C91.3887,-434.764 82.1549,-434.77 73.3787,-434.771"/>
<polygon fill="none" stroke="black" points="73.3514,-431.271 63.3512,-434.771 73.351,-438.271 73.3514,-431.271"/>
<path fill="none" stroke="black" d="M169.891,-206.252C158.389,-211.305 145.754,-218.893 138,-229.749 111.117,-267.386 148.253,-434.668 102,-434.749"/>
</g>
<!-- fe9d87595bbecb27348b863f712f1c2b -->
<g id="node11" class="node"><title>fe9d87595bbecb27348b863f712f1c2b</title>
<polygon fill="white" stroke="black" points="403.259,-215.749 330.741,-215.749 330.741,-179.749 403.259,-179.749 403.259,-215.749"/>
<text text-anchor="middle" x="367" y="-192.149" font-family="Times,serif" font-size="14.00" fill="gray">Exception</text>
</g>
<!-- fe9d87595bbecb27348b863f712f1c2b&#45;&gt;d1457b72c3fb323a2671125aef3eab5d -->
<g id="edge20" class="edge"><title>fe9d87595bbecb27348b863f712f1c2b-&gt;d1457b72c3fb323a2671125aef3eab5d</title>
<path fill="none" stroke="black" d="M330.372,-197.749C302.187,-197.749 262.982,-197.749 234.559,-197.749"/>
<polygon fill="none" stroke="black" points="234.238,-194.249 224.238,-197.749 234.238,-201.249 234.238,-194.249"/>
</g>
<!-- dc3039205d1d86d853de836159f1ef23 -->
<g id="node12" class="node"><title>dc3039205d1d86d853de836159f1ef23</title>
<a xlink:href="_src_Exception.html" xlink:title="Exception" target="_top">
<polygon fill="white" stroke="black" points="551.259,-215.749 478.741,-215.749 478.741,-179.749 551.259,-179.749 551.259,-215.749"/>
<text text-anchor="middle" x="515" y="-192.149" font-family="Times,serif" font-size="14.00">Exception</text>
</a>
</g>
<!-- dc3039205d1d86d853de836159f1ef23&#45;&gt;fe9d87595bbecb27348b863f712f1c2b -->
<g id="edge22" class="edge"><title>dc3039205d1d86d853de836159f1ef23-&gt;fe9d87595bbecb27348b863f712f1c2b</title>
<path fill="none" stroke="black" d="M478.657,-197.749C459.003,-197.749 434.334,-197.749 413.278,-197.749"/>
<polygon fill="none" stroke="black" points="413.27,-194.249 403.27,-197.749 413.27,-201.249 413.27,-194.249"/>
</g>
<!-- cd37626b1c723ce9f71e4399f7875f81 -->
<g id="node13" class="node"><title>cd37626b1c723ce9f71e4399f7875f81</title>
<a xlink:href="_src_Exception_CommandFactory.html" xlink:title="CommandFactory" target="_top">
<polygon fill="white" stroke="black" points="755.597,-392.749 638.403,-392.749 638.403,-356.749 755.597,-356.749 755.597,-392.749"/>
<text text-anchor="middle" x="697" y="-369.149" font-family="Times,serif" font-size="14.00">CommandFactory</text>
</a>
</g>
<!-- cd37626b1c723ce9f71e4399f7875f81&#45;&gt;dc3039205d1d86d853de836159f1ef23 -->
<g id="edge24" class="edge"><title>cd37626b1c723ce9f71e4399f7875f81-&gt;dc3039205d1d86d853de836159f1ef23</title>
<path fill="none" stroke="black" d="M642.29,-356.576C636.173,-352.763 630.523,-348.198 626,-342.749 583.596,-291.651 656.401,-197.617 590,-197.749"/>
</g>
<!-- 7f0ec090cf80329cd58f5a5f4d5d3988 -->
<g id="node14" class="node"><title>7f0ec090cf80329cd58f5a5f4d5d3988</title>
<a xlink:href="_src_Exception_OptionName.html" xlink:title="OptionName" target="_top">
<polygon fill="white" stroke="black" points="741.318,-333.749 652.682,-333.749 652.682,-297.749 741.318,-297.749 741.318,-333.749"/>
<text text-anchor="middle" x="697" y="-310.149" font-family="Times,serif" font-size="14.00">OptionName</text>
</a>
</g>
<!-- 7f0ec090cf80329cd58f5a5f4d5d3988&#45;&gt;dc3039205d1d86d853de836159f1ef23 -->
<g id="edge26" class="edge"><title>7f0ec090cf80329cd58f5a5f4d5d3988-&gt;dc3039205d1d86d853de836159f1ef23</title>
<path fill="none" stroke="black" d="M652.779,-302.061C643.06,-297.434 633.436,-291.429 626,-283.749 597.178,-253.979 631.436,-197.666 590,-197.749"/>
</g>
<!-- e7c2010d8e2ece862383b8cd7f761937 -->
<g id="node15" class="node"><title>e7c2010d8e2ece862383b8cd7f761937</title>
<a xlink:href="_src_Exception_OptionNotDefined.html" xlink:title="OptionNotDefined" target="_top">
<polygon fill="white" stroke="black" points="757.214,-274.749 636.786,-274.749 636.786,-238.749 757.214,-238.749 757.214,-274.749"/>
<text text-anchor="middle" x="697" y="-251.149" font-family="Times,serif" font-size="14.00">OptionNotDefined</text>
</a>
</g>
<!-- e7c2010d8e2ece862383b8cd7f761937&#45;&gt;dc3039205d1d86d853de836159f1ef23 -->
<g id="edge28" class="edge"><title>e7c2010d8e2ece862383b8cd7f761937-&gt;dc3039205d1d86d853de836159f1ef23</title>
<path fill="none" stroke="black" d="M652.685,-238.709C643.681,-234.475 634.386,-229.731 626,-224.749 608.806,-214.532 610,-197.709 590,-197.749"/>
</g>
<!-- 0acb2a87b36858cd034475042eb182a2 -->
<g id="node16" class="node"><title>0acb2a87b36858cd034475042eb182a2</title>
<a xlink:href="_src_Exception_OptionNotMulti.html" xlink:title="OptionNotMulti" target="_top">
<polygon fill="white" stroke="black" points="750.507,-215.749 643.493,-215.749 643.493,-179.749 750.507,-179.749 750.507,-215.749"/>
<text text-anchor="middle" x="697" y="-192.149" font-family="Times,serif" font-size="14.00">OptionNotMulti</text>
</a>
</g>
<!-- 0acb2a87b36858cd034475042eb182a2&#45;&gt;dc3039205d1d86d853de836159f1ef23 -->
<g id="edge30" class="edge"><title>0acb2a87b36858cd034475042eb182a2-&gt;dc3039205d1d86d853de836159f1ef23</title>
<path fill="none" stroke="black" d="M643.432,-197.707C626.386,-197.705 607.391,-197.714 590,-197.749"/>
</g>
<!-- 31920c0200b2e69d056f67a655137bc6 -->
<g id="node17" class="node"><title>31920c0200b2e69d056f67a655137bc6</title>
<a xlink:href="_src_Exception_OptionParam.html" xlink:title="OptionParam" target="_top">
<polygon fill="white" stroke="black" points="742.156,-155.749 651.844,-155.749 651.844,-119.749 742.156,-119.749 742.156,-155.749"/>
<text text-anchor="middle" x="697" y="-132.149" font-family="Times,serif" font-size="14.00">OptionParam</text>
</a>
</g>
<!-- 31920c0200b2e69d056f67a655137bc6&#45;&gt;dc3039205d1d86d853de836159f1ef23 -->
<g id="edge32" class="edge"><title>31920c0200b2e69d056f67a655137bc6-&gt;dc3039205d1d86d853de836159f1ef23</title>
<path fill="none" stroke="black" d="M654.188,-155.76C644.727,-160.3 634.863,-165.412 626,-170.749 608.867,-181.066 610,-197.709 590,-197.749"/>
</g>
<!-- 4733dc7f3aa01a00d55419196b6c7305 -->
<g id="node18" class="node"><title>4733dc7f3aa01a00d55419196b6c7305</title>
<a xlink:href="_src_Exception_OptionParamRejected.html" xlink:title="OptionParamRejected" target="_top">
<polygon fill="white" stroke="black" points="766.628,-96.7486 627.372,-96.7486 627.372,-60.7486 766.628,-60.7486 766.628,-96.7486"/>
<text text-anchor="middle" x="697" y="-73.1486" font-family="Times,serif" font-size="14.00">OptionParamRejected</text>
</a>
</g>
<!-- 4733dc7f3aa01a00d55419196b6c7305&#45;&gt;dc3039205d1d86d853de836159f1ef23 -->
<g id="edge34" class="edge"><title>4733dc7f3aa01a00d55419196b6c7305-&gt;dc3039205d1d86d853de836159f1ef23</title>
<path fill="none" stroke="black" d="M644.449,-96.7563C637.69,-100.638 631.287,-105.266 626,-110.749 596.954,-140.873 631.846,-197.666 590,-197.749"/>
</g>
<!-- 07a73bb2d0b5efe8a3de0f8fa3b6134f -->
<g id="node19" class="node"><title>07a73bb2d0b5efe8a3de0f8fa3b6134f</title>
<a xlink:href="_src_Exception_OptionParamRequired.html" xlink:title="OptionParamRequired" target="_top">
<polygon fill="white" stroke="black" points="767.973,-37.7486 626.027,-37.7486 626.027,-1.74857 767.973,-1.74857 767.973,-37.7486"/>
<text text-anchor="middle" x="697" y="-14.1486" font-family="Times,serif" font-size="14.00">OptionParamRequired</text>
</a>
</g>
<!-- 07a73bb2d0b5efe8a3de0f8fa3b6134f&#45;&gt;dc3039205d1d86d853de836159f1ef23 -->
<g id="edge36" class="edge"><title>07a73bb2d0b5efe8a3de0f8fa3b6134f-&gt;dc3039205d1d86d853de836159f1ef23</title>
<path fill="none" stroke="black" d="M588,-197.749C579.465,-197.766 570.361,-197.773 561.598,-197.776"/>
<polygon fill="none" stroke="black" points="561.523,-194.276 551.523,-197.777 561.523,-201.276 561.523,-194.276"/>
<path fill="none" stroke="black" d="M642.282,-37.9142C636.166,-41.7281 630.518,-46.2951 626,-51.7486 583.362,-103.212 656.832,-197.616 590,-197.749"/>
</g>
</g>
<script xlink:href="js/SVGPan.js"/></svg>
