<?xml version="1.0" encoding="UTF-8" standalone="no"?>
<!DOCTYPE svg PUBLIC "-//W3C//DTD SVG 1.1//EN"
 "http://www.w3.org/Graphics/SVG/1.1/DTD/svg11.dtd">
<!-- Generated by graphviz version 2.26.3 (20100126.1600)
 -->
<!-- Title: G Pages: 1 -->
<svg width="534pt" height="814pt"
 viewBox="0.00 0.00 534.00 814.00" xmlns="http://www.w3.org/2000/svg" xmlns:xlink="http://www.w3.org/1999/xlink">
<g id="graph1" class="graph" transform="scale(1 1) rotate(0) translate(4 810)">
<title>G</title>
<polygon fill="white" stroke="white" points="-4,5 -4,-810 531,-810 531,5 -4,5"/>
<g id="graph2" class="cluster"><title>cluster_Aura</title>
<polyline fill="none" stroke="gray" points="194,-8 506,-8 "/>
<path fill="none" stroke="gray" d="M506,-8C512,-8 518,-14 518,-20"/>
<polyline fill="none" stroke="gray" points="518,-20 518,-786 "/>
<path fill="none" stroke="gray" d="M518,-786C518,-792 512,-798 506,-798"/>
<polyline fill="none" stroke="gray" points="506,-798 194,-798 "/>
<path fill="none" stroke="gray" d="M194,-798C188,-798 182,-792 182,-786"/>
<polyline fill="none" stroke="gray" points="182,-786 182,-20 "/>
<path fill="none" stroke="gray" d="M182,-20C182,-14 188,-8 194,-8"/>
<text text-anchor="middle" x="350" y="-784.1" font-family="Times Roman,serif" font-size="11.00" fill="gray">Aura</text>
</g>
<g id="graph3" class="cluster"><title>cluster_Aura\Cli</title>
<polyline fill="none" stroke="gray" points="202,-16 498,-16 "/>
<path fill="none" stroke="gray" d="M498,-16C504,-16 510,-22 510,-28"/>
<polyline fill="none" stroke="gray" points="510,-28 510,-756 "/>
<path fill="none" stroke="gray" d="M510,-756C510,-762 504,-768 498,-768"/>
<polyline fill="none" stroke="gray" points="498,-768 202,-768 "/>
<path fill="none" stroke="gray" d="M202,-768C196,-768 190,-762 190,-756"/>
<polyline fill="none" stroke="gray" points="190,-756 190,-28 "/>
<path fill="none" stroke="gray" d="M190,-28C190,-22 196,-16 202,-16"/>
<text text-anchor="middle" x="350" y="-754.1" font-family="Times Roman,serif" font-size="11.00" fill="gray">Cli</text>
</g>
<g id="graph4" class="cluster"><title>cluster_Aura\Cli\Exception</title>
<polyline fill="none" stroke="gray" points="352,-394 490,-394 "/>
<path fill="none" stroke="gray" d="M490,-394C496,-394 502,-400 502,-406"/>
<polyline fill="none" stroke="gray" points="502,-406 502,-726 "/>
<path fill="none" stroke="gray" d="M502,-726C502,-732 496,-738 490,-738"/>
<polyline fill="none" stroke="gray" points="490,-738 352,-738 "/>
<path fill="none" stroke="gray" d="M352,-738C346,-738 340,-732 340,-726"/>
<polyline fill="none" stroke="gray" points="340,-726 340,-406 "/>
<path fill="none" stroke="gray" d="M340,-406C340,-400 346,-394 352,-394"/>
<text text-anchor="middle" x="421" y="-724.1" font-family="Times Roman,serif" font-size="11.00" fill="gray">Exception</text>
</g>
<!-- \\Aura\\Cli\\Exception\\OptionParamRejected -->
<g id="node4" class="node"><title>\\Aura\\Cli\\Exception\\OptionParamRejected</title>
<a xlink:href="db_src_Aura_Cli_Exception_OptionParamRejected.html" xlink:title="OptionParamRejected" target="_parent">
<polygon fill="none" stroke="black" points="493,-708 349,-708 349,-672 493,-672 493,-708"/>
<text text-anchor="middle" x="421" y="-687.1" font-family="Courier New" font-size="11.00">OptionParamRejected</text>
</a>
</g>
<!-- \\Aura\\Cli\\Exception -->
<g id="node17" class="node"><title>\\Aura\\Cli\\Exception</title>
<a xlink:href="db_src_Aura_Cli_Exception.html" xlink:title="Exception" target="_parent">
<polygon fill="none" stroke="black" points="275,-573 199,-573 199,-537 275,-537 275,-573"/>
<text text-anchor="middle" x="237" y="-552.1" font-family="Courier New" font-size="11.00">Exception</text>
</a>
</g>
<!-- \\Aura\\Cli\\Exception\\OptionParamRejected&#45;&gt;\\Aura\\Cli\\Exception -->
<g id="edge6" class="edge"><title>\\Aura\\Cli\\Exception\\OptionParamRejected&#45;&gt;\\Aura\\Cli\\Exception</title>
<path fill="none" stroke="black" d="M356.846,-671.934C350.969,-669.303 345.257,-666.336 340,-663 305.752,-641.269 274.875,-605.731 256.052,-581.397"/>
<polygon fill="none" stroke="black" points="258.742,-579.152 249.911,-573.298 253.164,-583.381 258.742,-579.152"/>
</g>
<!-- \\Aura\\Cli\\Exception\\OptionNotDefined -->
<g id="node5" class="node"><title>\\Aura\\Cli\\Exception\\OptionNotDefined</title>
<a xlink:href="db_src_Aura_Cli_Exception_OptionNotDefined.html" xlink:title="OptionNotDefined" target="_parent">
<polygon fill="none" stroke="black" points="483,-654 359,-654 359,-618 483,-618 483,-654"/>
<text text-anchor="middle" x="421" y="-633.1" font-family="Courier New" font-size="11.00">OptionNotDefined</text>
</a>
</g>
<!-- \\Aura\\Cli\\Exception\\OptionNotDefined&#45;&gt;\\Aura\\Cli\\Exception -->
<g id="edge8" class="edge"><title>\\Aura\\Cli\\Exception\\OptionNotDefined&#45;&gt;\\Aura\\Cli\\Exception</title>
<path fill="none" stroke="black" d="M363.049,-617.951C355.228,-615.147 347.365,-612.134 340,-609 318.765,-599.964 295.96,-588.233 277.22,-578.014"/>
<polygon fill="none" stroke="black" points="278.819,-574.899 268.372,-573.137 275.44,-581.029 278.819,-574.899"/>
</g>
<!-- \\Aura\\Cli\\Exception\\OptionName -->
<g id="node6" class="node"><title>\\Aura\\Cli\\Exception\\OptionName</title>
<a xlink:href="db_src_Aura_Cli_Exception_OptionName.html" xlink:title="OptionName" target="_parent">
<polygon fill="none" stroke="black" points="463,-600 379,-600 379,-564 463,-564 463,-600"/>
<text text-anchor="middle" x="421" y="-579.1" font-family="Courier New" font-size="11.00">OptionName</text>
</a>
</g>
<!-- \\Aura\\Cli\\Exception\\OptionName&#45;&gt;\\Aura\\Cli\\Exception -->
<g id="edge10" class="edge"><title>\\Aura\\Cli\\Exception\\OptionName&#45;&gt;\\Aura\\Cli\\Exception</title>
<path fill="none" stroke="black" d="M378.787,-575.806C350.978,-571.725 314.485,-566.37 285.486,-562.115"/>
<polygon fill="none" stroke="black" points="285.97,-558.648 275.568,-560.659 284.954,-565.574 285.97,-558.648"/>
</g>
<!-- \\Aura\\Cli\\Exception\\OptionParamRequired -->
<g id="node7" class="node"><title>\\Aura\\Cli\\Exception\\OptionParamRequired</title>
<a xlink:href="db_src_Aura_Cli_Exception_OptionParamRequired.html" xlink:title="OptionParamRequired" target="_parent">
<polygon fill="none" stroke="black" points="493,-546 349,-546 349,-510 493,-510 493,-546"/>
<text text-anchor="middle" x="421" y="-525.1" font-family="Courier New" font-size="11.00">OptionParamRequired</text>
</a>
</g>
<!-- \\Aura\\Cli\\Exception\\OptionParamRequired&#45;&gt;\\Aura\\Cli\\Exception -->
<g id="edge12" class="edge"><title>\\Aura\\Cli\\Exception\\OptionParamRequired&#45;&gt;\\Aura\\Cli\\Exception</title>
<path fill="none" stroke="black" d="M348.278,-538.671C327.247,-541.757 304.808,-545.05 285.629,-547.864"/>
<polygon fill="none" stroke="black" points="285.018,-544.416 275.632,-549.331 286.034,-551.342 285.018,-544.416"/>
</g>
<!-- \\Aura\\Cli\\Exception\\OptionParam -->
<g id="node8" class="node"><title>\\Aura\\Cli\\Exception\\OptionParam</title>
<a xlink:href="db_src_Aura_Cli_Exception_OptionParam.html" xlink:title="OptionParam" target="_parent">
<polygon fill="none" stroke="black" points="466,-492 376,-492 376,-456 466,-456 466,-492"/>
<text text-anchor="middle" x="421" y="-471.1" font-family="Courier New" font-size="11.00">OptionParam</text>
</a>
</g>
<!-- \\Aura\\Cli\\Exception\\OptionParam&#45;&gt;\\Aura\\Cli\\Exception -->
<g id="edge14" class="edge"><title>\\Aura\\Cli\\Exception\\OptionParam&#45;&gt;\\Aura\\Cli\\Exception</title>
<path fill="none" stroke="black" d="M375.109,-487.868C363.515,-491.76 351.185,-496.241 340,-501 318.765,-510.036 295.96,-521.767 277.22,-531.986"/>
<polygon fill="none" stroke="black" points="275.44,-528.971 268.372,-536.863 278.819,-535.101 275.44,-528.971"/>
</g>
<!-- \\Aura\\Cli\\Exception\\OptionNotMulti -->
<g id="node9" class="node"><title>\\Aura\\Cli\\Exception\\OptionNotMulti</title>
<a xlink:href="db_src_Aura_Cli_Exception_OptionNotMulti.html" xlink:title="OptionNotMulti" target="_parent">
<polygon fill="none" stroke="black" points="476,-438 366,-438 366,-402 476,-402 476,-438"/>
<text text-anchor="middle" x="421" y="-417.1" font-family="Courier New" font-size="11.00">OptionNotMulti</text>
</a>
</g>
<!-- \\Aura\\Cli\\Exception\\OptionNotMulti&#45;&gt;\\Aura\\Cli\\Exception -->
<g id="edge16" class="edge"><title>\\Aura\\Cli\\Exception\\OptionNotMulti&#45;&gt;\\Aura\\Cli\\Exception</title>
<path fill="none" stroke="black" d="M365.321,-434.533C356.512,-437.953 347.76,-442.076 340,-447 305.752,-468.731 274.875,-504.269 256.052,-528.603"/>
<polygon fill="none" stroke="black" points="253.164,-526.619 249.911,-536.702 258.742,-530.848 253.164,-526.619"/>
</g>
<!-- \\Aura\\Cli\\Getopt -->
<g id="node10" class="node"><title>\\Aura\\Cli\\Getopt</title>
<a xlink:href="db_src_Aura_Cli_Getopt.html" xlink:title="Getopt" target="_parent">
<polygon fill="none" stroke="black" points="449,-384 393,-384 393,-348 449,-348 449,-384"/>
<text text-anchor="middle" x="421" y="-363.1" font-family="Courier New" font-size="11.00">Getopt</text>
</a>
</g>
<!-- \\Aura\\Cli\\Command -->
<g id="node11" class="node"><title>\\Aura\\Cli\\Command</title>
<a xlink:href="db_src_Aura_Cli_Command.html" xlink:title="«abstract»&lt;br/&gt;Command" target="_parent">
<polygon fill="none" stroke="black" points="463,-330 379,-330 379,-294 463,-294 463,-330"/>
<text text-anchor="start" x="387" y="-317.433" font-family="Courier New" font-size="11.00">«abstract»</text>
<text text-anchor="start" x="397" y="-304.233" font-family="Courier New" font-size="11.00">Command</text>
</a>
</g>
<!-- \\Aura\\Cli\\OptionFactory -->
<g id="node12" class="node"><title>\\Aura\\Cli\\OptionFactory</title>
<a xlink:href="db_src_Aura_Cli_OptionFactory.html" xlink:title="OptionFactory" target="_parent">
<polygon fill="none" stroke="black" points="473,-276 369,-276 369,-240 473,-240 473,-276"/>
<text text-anchor="middle" x="421" y="-255.1" font-family="Courier New" font-size="11.00">OptionFactory</text>
</a>
</g>
<!-- \\Aura\\Cli\\Option -->
<g id="node13" class="node"><title>\\Aura\\Cli\\Option</title>
<a xlink:href="db_src_Aura_Cli_Option.html" xlink:title="Option" target="_parent">
<polygon fill="none" stroke="black" points="449,-222 393,-222 393,-186 449,-186 449,-222"/>
<text text-anchor="middle" x="421" y="-201.1" font-family="Courier New" font-size="11.00">Option</text>
</a>
</g>
<!-- \\Aura\\Cli\\Vt100 -->
<g id="node14" class="node"><title>\\Aura\\Cli\\Vt100</title>
<a xlink:href="db_src_Aura_Cli_Vt100.html" xlink:title="Vt100" target="_parent">
<polygon fill="none" stroke="black" points="448,-168 394,-168 394,-132 448,-132 448,-168"/>
<text text-anchor="middle" x="421" y="-147.1" font-family="Courier New" font-size="11.00">Vt100</text>
</a>
</g>
<!-- \\Aura\\Cli\\Stdio -->
<g id="node15" class="node"><title>\\Aura\\Cli\\Stdio</title>
<a xlink:href="db_src_Aura_Cli_Stdio.html" xlink:title="Stdio" target="_parent">
<polygon fill="none" stroke="black" points="448,-114 394,-114 394,-78 448,-78 448,-114"/>
<text text-anchor="middle" x="421" y="-93.1" font-family="Courier New" font-size="11.00">Stdio</text>
</a>
</g>
<!-- \\Aura\\Cli\\Context -->
<g id="node16" class="node"><title>\\Aura\\Cli\\Context</title>
<a xlink:href="db_src_Aura_Cli_Context.html" xlink:title="Context" target="_parent">
<polygon fill="none" stroke="black" points="453,-60 389,-60 389,-24 453,-24 453,-60"/>
<text text-anchor="middle" x="421" y="-39.1" font-family="Courier New" font-size="11.00">Context</text>
</a>
</g>
<!-- \\Exception -->
<g id="node26" class="node"><title>\\Exception</title>
<ellipse fill="none" stroke="black" cx="63" cy="-555" rx="62.9325" ry="18.3848"/>
<text text-anchor="middle" x="63" y="-551.4" font-family="Times Roman,serif" font-size="14.00" fill="gray">\Exception</text>
</g>
<!-- \\Aura\\Cli\\Exception&#45;&gt;\\Exception -->
<g id="edge18" class="edge"><title>\\Aura\\Cli\\Exception&#45;&gt;\\Exception</title>
<path fill="none" stroke="black" d="M198.384,-555C180.06,-555 157.538,-555 136.16,-555"/>
<polygon fill="none" stroke="black" points="136.11,-551.5 126.11,-555 136.11,-558.5 136.11,-551.5"/>
</g>
</g>
</svg>
