<?xml version="1.0" encoding="UTF-8" standalone="no"?>
<!DOCTYPE svg PUBLIC "-//W3C//DTD SVG 1.1//EN" "http://www.w3.org/Graphics/SVG/1.1/DTD/svg11.dtd">
<!-- Generated by graphviz version 2.26.3 (20100126.1600)
 -->
<!-- Title: G Pages: 1 -->
<svg xmlns="http://www.w3.org/2000/svg" xmlns:xlink="http://www.w3.org/1999/xlink" width="534pt" height="922pt">
<g id="viewport" class="graph" transform="scale(1 1) rotate(0) translate(4 918)">
<title>G</title>
<polygon fill="white" stroke="white" points="-4,5 -4,-918 531,-918 531,5 -4,5"/>
<g id="graph2" class="cluster"><title>cluster_Aura</title>
<polyline fill="none" stroke="gray" points="194,-8 506,-8 "/>
<path fill="none" stroke="gray" d="M506,-8C512,-8 518,-14 518,-20"/>
<polyline fill="none" stroke="gray" points="518,-20 518,-894 "/>
<path fill="none" stroke="gray" d="M518,-894C518,-900 512,-906 506,-906"/>
<polyline fill="none" stroke="gray" points="506,-906 194,-906 "/>
<path fill="none" stroke="gray" d="M194,-906C188,-906 182,-900 182,-894"/>
<polyline fill="none" stroke="gray" points="182,-894 182,-20 "/>
<path fill="none" stroke="gray" d="M182,-20C182,-14 188,-8 194,-8"/>
<text text-anchor="middle" x="350" y="-892.1" font-family="Times Roman,serif" font-size="11.00" fill="gray">Aura</text>
</g>
<g id="graph3" class="cluster"><title>cluster_Aura_Cli</title>
<polyline fill="none" stroke="gray" points="202,-16 498,-16 "/>
<path fill="none" stroke="gray" d="M498,-16C504,-16 510,-22 510,-28"/>
<polyline fill="none" stroke="gray" points="510,-28 510,-864 "/>
<path fill="none" stroke="gray" d="M510,-864C510,-870 504,-876 498,-876"/>
<polyline fill="none" stroke="gray" points="498,-876 202,-876 "/>
<path fill="none" stroke="gray" d="M202,-876C196,-876 190,-870 190,-864"/>
<polyline fill="none" stroke="gray" points="190,-864 190,-28 "/>
<path fill="none" stroke="gray" d="M190,-28C190,-22 196,-16 202,-16"/>
<text text-anchor="middle" x="350" y="-862.1" font-family="Times Roman,serif" font-size="11.00" fill="gray">Cli</text>
</g>
<g id="graph4" class="cluster"><title>cluster_Aura_Cli_Exception</title>
<polyline fill="none" stroke="gray" points="352,-448 490,-448 "/>
<path fill="none" stroke="gray" d="M490,-448C496,-448 502,-454 502,-460"/>
<polyline fill="none" stroke="gray" points="502,-460 502,-834 "/>
<path fill="none" stroke="gray" d="M502,-834C502,-840 496,-846 490,-846"/>
<polyline fill="none" stroke="gray" points="490,-846 352,-846 "/>
<path fill="none" stroke="gray" d="M352,-846C346,-846 340,-840 340,-834"/>
<polyline fill="none" stroke="gray" points="340,-834 340,-460 "/>
<path fill="none" stroke="gray" d="M340,-460C340,-454 346,-448 352,-448"/>
<text text-anchor="middle" x="421" y="-832.1" font-family="Times Roman,serif" font-size="11.00" fill="gray">Exception</text>
</g>
<!-- _Aura_Cli_Exception_OptionParamRejected -->
<g id="node4" class="node"><title>_Aura_Cli_Exception_OptionParamRejected</title>
<a xlink:href="db_src_Exception_OptionParamRejected.html" xlink:title="OptionParamRejected" target="_parent">
<polygon fill="none" stroke="black" points="493,-816 349,-816 349,-780 493,-780 493,-816"/>
<text text-anchor="middle" x="421" y="-795.1" font-family="Courier New" font-size="11.00">OptionParamRejected</text>
</a>
</g>
<!-- _Aura_Cli_Exception -->
<g id="node19" class="node"><title>_Aura_Cli_Exception</title>
<a xlink:href="db_src_Exception.html" xlink:title="Exception" target="_parent">
<polygon fill="none" stroke="black" points="275,-654 199,-654 199,-618 275,-618 275,-654"/>
<text text-anchor="middle" x="237" y="-633.1" font-family="Courier New" font-size="11.00">Exception</text>
</a>
</g>
<!-- _Aura_Cli_Exception_OptionParamRejected&#45;&gt;_Aura_Cli_Exception -->
<g id="edge6" class="edge"><title>_Aura_Cli_Exception_OptionParamRejected-&gt;_Aura_Cli_Exception</title>
<path fill="none" stroke="black" d="M355.206,-779.934C349.854,-777.324 344.704,-774.361 340,-771 299.785,-742.266 268.067,-693.266 250.965,-662.869"/>
<polygon fill="none" stroke="black" points="254.017,-661.155 246.134,-654.076 247.882,-664.526 254.017,-661.155"/>
</g>
<!-- _Aura_Cli_Exception_OptionNotDefined -->
<g id="node5" class="node"><title>_Aura_Cli_Exception_OptionNotDefined</title>
<a xlink:href="db_src_Exception_OptionNotDefined.html" xlink:title="OptionNotDefined" target="_parent">
<polygon fill="none" stroke="black" points="483,-762 359,-762 359,-726 483,-726 483,-762"/>
<text text-anchor="middle" x="421" y="-741.1" font-family="Courier New" font-size="11.00">OptionNotDefined</text>
</a>
</g>
<!-- _Aura_Cli_Exception_OptionNotDefined&#45;&gt;_Aura_Cli_Exception -->
<g id="edge8" class="edge"><title>_Aura_Cli_Exception_OptionNotDefined-&gt;_Aura_Cli_Exception</title>
<path fill="none" stroke="black" d="M359.025,-725.83C352.464,-723.177 346.003,-720.234 340,-717 311.659,-701.735 283.179,-678.597 263.373,-660.954"/>
<polygon fill="none" stroke="black" points="265.465,-658.127 255.703,-654.009 260.767,-663.316 265.465,-658.127"/>
</g>
<!-- _Aura_Cli_Exception_OptionName -->
<g id="node6" class="node"><title>_Aura_Cli_Exception_OptionName</title>
<a xlink:href="db_src_Exception_OptionName.html" xlink:title="OptionName" target="_parent">
<polygon fill="none" stroke="black" points="463,-708 379,-708 379,-672 463,-672 463,-708"/>
<text text-anchor="middle" x="421" y="-687.1" font-family="Courier New" font-size="11.00">OptionName</text>
</a>
</g>
<!-- _Aura_Cli_Exception_OptionName&#45;&gt;_Aura_Cli_Exception -->
<g id="edge10" class="edge"><title>_Aura_Cli_Exception_OptionName-&gt;_Aura_Cli_Exception</title>
<path fill="none" stroke="black" d="M378.787,-677.611C350.978,-669.45 314.485,-658.74 285.486,-650.23"/>
<polygon fill="none" stroke="black" points="286.149,-646.777 275.568,-647.319 284.178,-653.493 286.149,-646.777"/>
</g>
<!-- _Aura_Cli_Exception_CommandFactory -->
<g id="node7" class="node"><title>_Aura_Cli_Exception_CommandFactory</title>
<a xlink:href="db_src_Exception_CommandFactory.html" xlink:title="CommandFactory" target="_parent">
<polygon fill="none" stroke="black" points="476,-654 366,-654 366,-618 476,-618 476,-654"/>
<text text-anchor="middle" x="421" y="-633.1" font-family="Courier New" font-size="11.00">CommandFactory</text>
</a>
</g>
<!-- _Aura_Cli_Exception_CommandFactory&#45;&gt;_Aura_Cli_Exception -->
<g id="edge12" class="edge"><title>_Aura_Cli_Exception_CommandFactory-&gt;_Aura_Cli_Exception</title>
<path fill="none" stroke="black" d="M365.295,-636C339.935,-636 310.195,-636 285.736,-636"/>
<polygon fill="none" stroke="black" points="285.606,-632.5 275.606,-636 285.606,-639.5 285.606,-632.5"/>
</g>
<!-- _Aura_Cli_Exception_OptionParamRequired -->
<g id="node8" class="node"><title>_Aura_Cli_Exception_OptionParamRequired</title>
<a xlink:href="db_src_Exception_OptionParamRequired.html" xlink:title="OptionParamRequired" target="_parent">
<polygon fill="none" stroke="black" points="493,-600 349,-600 349,-564 493,-564 493,-600"/>
<text text-anchor="middle" x="421" y="-579.1" font-family="Courier New" font-size="11.00">OptionParamRequired</text>
</a>
</g>
<!-- _Aura_Cli_Exception_OptionParamRequired&#45;&gt;_Aura_Cli_Exception -->
<g id="edge14" class="edge"><title>_Aura_Cli_Exception_OptionParamRequired-&gt;_Aura_Cli_Exception</title>
<path fill="none" stroke="black" d="M359.475,-600.056C335.358,-607.134 308.092,-615.136 285.419,-621.79"/>
<polygon fill="none" stroke="black" points="284.289,-618.474 275.68,-624.648 286.261,-625.191 284.289,-618.474"/>
</g>
<!-- _Aura_Cli_Exception_OptionParam -->
<g id="node9" class="node"><title>_Aura_Cli_Exception_OptionParam</title>
<a xlink:href="db_src_Exception_OptionParam.html" xlink:title="OptionParam" target="_parent">
<polygon fill="none" stroke="black" points="466,-546 376,-546 376,-510 466,-510 466,-546"/>
<text text-anchor="middle" x="421" y="-525.1" font-family="Courier New" font-size="11.00">OptionParam</text>
</a>
</g>
<!-- _Aura_Cli_Exception_OptionParam&#45;&gt;_Aura_Cli_Exception -->
<g id="edge16" class="edge"><title>_Aura_Cli_Exception_OptionParam-&gt;_Aura_Cli_Exception</title>
<path fill="none" stroke="black" d="M375.285,-540.19C363.452,-544.159 350.962,-549.095 340,-555 311.659,-570.265 283.179,-593.403 263.373,-611.046"/>
<polygon fill="none" stroke="black" points="260.767,-608.684 255.703,-617.991 265.465,-613.873 260.767,-608.684"/>
</g>
<!-- _Aura_Cli_Exception_OptionNotMulti -->
<g id="node10" class="node"><title>_Aura_Cli_Exception_OptionNotMulti</title>
<a xlink:href="db_src_Exception_OptionNotMulti.html" xlink:title="OptionNotMulti" target="_parent">
<polygon fill="none" stroke="black" points="476,-492 366,-492 366,-456 476,-456 476,-492"/>
<text text-anchor="middle" x="421" y="-471.1" font-family="Courier New" font-size="11.00">OptionNotMulti</text>
</a>
</g>
<!-- _Aura_Cli_Exception_OptionNotMulti&#45;&gt;_Aura_Cli_Exception -->
<g id="edge18" class="edge"><title>_Aura_Cli_Exception_OptionNotMulti-&gt;_Aura_Cli_Exception</title>
<path fill="none" stroke="black" d="M365.258,-487.642C356.362,-491.179 347.598,-495.571 340,-501 299.785,-529.734 268.067,-578.734 250.965,-609.131"/>
<polygon fill="none" stroke="black" points="247.882,-607.474 246.134,-617.924 254.017,-610.845 247.882,-607.474"/>
</g>
<!-- _Aura_Cli_Getopt -->
<g id="node11" class="node"><title>_Aura_Cli_Getopt</title>
<a xlink:href="db_src_Getopt.html" xlink:title="Getopt" target="_parent">
<polygon fill="none" stroke="black" points="449,-438 393,-438 393,-402 449,-402 449,-438"/>
<text text-anchor="middle" x="421" y="-417.1" font-family="Courier New" font-size="11.00">Getopt</text>
</a>
</g>
<!-- _Aura_Cli_Command -->
<g id="node12" class="node"><title>_Aura_Cli_Command</title>
<a xlink:href="db_src_Command.html" xlink:title="&lt;I&gt;_Aura_Cli_Command&lt;/I&gt;" target="_parent">
<polygon fill="none" stroke="black" points="487,-384 355,-384 355,-348 487,-348 487,-384"/>
<text text-anchor="start" x="363.5" y="-363.933" font-family="Courier New" font-size="11.00">_Aura_Cli_Command</text>
</a>
</g>
<!-- _Aura_Cli_OptionFactory -->
<g id="node13" class="node"><title>_Aura_Cli_OptionFactory</title>
<a xlink:href="db_src_OptionFactory.html" xlink:title="OptionFactory" target="_parent">
<polygon fill="none" stroke="black" points="473,-330 369,-330 369,-294 473,-294 473,-330"/>
<text text-anchor="middle" x="421" y="-309.1" font-family="Courier New" font-size="11.00">OptionFactory</text>
</a>
</g>
<!-- _Aura_Cli_Option -->
<g id="node14" class="node"><title>_Aura_Cli_Option</title>
<a xlink:href="db_src_Option.html" xlink:title="Option" target="_parent">
<polygon fill="none" stroke="black" points="449,-276 393,-276 393,-240 449,-240 449,-276"/>
<text text-anchor="middle" x="421" y="-255.1" font-family="Courier New" font-size="11.00">Option</text>
</a>
</g>
<!-- _Aura_Cli_Vt100 -->
<g id="node15" class="node"><title>_Aura_Cli_Vt100</title>
<a xlink:href="db_src_Vt100.html" xlink:title="Vt100" target="_parent">
<polygon fill="none" stroke="black" points="448,-222 394,-222 394,-186 448,-186 448,-222"/>
<text text-anchor="middle" x="421" y="-201.1" font-family="Courier New" font-size="11.00">Vt100</text>
</a>
</g>
<!-- _Aura_Cli_Stdio -->
<g id="node16" class="node"><title>_Aura_Cli_Stdio</title>
<a xlink:href="db_src_Stdio.html" xlink:title="Stdio" target="_parent">
<polygon fill="none" stroke="black" points="448,-168 394,-168 394,-132 448,-132 448,-168"/>
<text text-anchor="middle" x="421" y="-147.1" font-family="Courier New" font-size="11.00">Stdio</text>
</a>
</g>
<!-- _Aura_Cli_CommandFactory -->
<g id="node17" class="node"><title>_Aura_Cli_CommandFactory</title>
<a xlink:href="db_src_CommandFactory.html" xlink:title="CommandFactory" target="_parent">
<polygon fill="none" stroke="black" points="476,-114 366,-114 366,-78 476,-78 476,-114"/>
<text text-anchor="middle" x="421" y="-93.1" font-family="Courier New" font-size="11.00">CommandFactory</text>
</a>
</g>
<!-- _Aura_Cli_Context -->
<g id="node18" class="node"><title>_Aura_Cli_Context</title>
<a xlink:href="db_src_Context.html" xlink:title="Context" target="_parent">
<polygon fill="none" stroke="black" points="453,-60 389,-60 389,-24 453,-24 453,-60"/>
<text text-anchor="middle" x="421" y="-39.1" font-family="Courier New" font-size="11.00">Context</text>
</a>
</g>
<!-- _Exception -->
<g id="node29" class="node"><title>_Exception</title>
<ellipse fill="none" stroke="black" cx="63" cy="-636" rx="62.9325" ry="18.3848"/>
<text text-anchor="middle" x="63" y="-632.4" font-family="Times Roman,serif" font-size="14.00" fill="gray">\Exception</text>
</g>
<!-- _Aura_Cli_Exception&#45;&gt;_Exception -->
<g id="edge20" class="edge"><title>_Aura_Cli_Exception-&gt;_Exception</title>
<path fill="none" stroke="black" d="M198.384,-636C180.06,-636 157.538,-636 136.16,-636"/>
<polygon fill="none" stroke="black" points="136.11,-632.5 126.11,-636 136.11,-639.5 136.11,-632.5"/>
</g>
</g>
<script xlink:href="js/SVGPan.js"/></svg>
