<?xml version="1.0" encoding="UTF-8" standalone="no"?>
<!DOCTYPE svg PUBLIC "-//W3C//DTD SVG 1.0//EN"
 "http://www.w3.org/TR/2001/REC-SVG-20010904/DTD/svg10.dtd" [
 <!ATTLIST svg xmlns:xlink CDATA #FIXED "http://www.w3.org/1999/xlink">
]>
<!-- Generated by Graphviz version 2.20.2 (Tue Mar &#160;2 21:46:26 UTC 2010)
     For user: (mvriel) Mike van Riel,,, -->
<!-- Title: Classes Pages: 1 -->
<svg width="922pt" height="830pt"
 viewBox="0.00 0.00 922.00 830.00" xmlns="http://www.w3.org/2000/svg" xmlns:xlink="http://www.w3.org/1999/xlink">
<g id="graph0" class="graph" transform="scale(1 1) rotate(0) translate(4 826)">
<title>Classes</title>
<polygon style="fill:white;stroke:white;" points="-4,4 -4,-826 918,-826 918,4 -4,4"/>
<!-- 09a15e9660c1ebc6f429d818825ce0c6 -->
<g id="node1" class="node"><title>09a15e9660c1ebc6f429d818825ce0c6</title>
<polygon style="fill:white;stroke:black;" points="72,-534 2.13163e-14,-534 7.10543e-15,-498 72,-498 72,-534"/>
<text text-anchor="middle" x="36" y="-511.9" style="font-family:Times New Roman;font-size:14.00;fill:gray;">stdClass</text>
</g>
<!-- 87a1d642474477d8cca6c0db580ee0b4 -->
<g id="node2" class="node"><title>87a1d642474477d8cca6c0db580ee0b4</title>
<a xlink:href="src_Context.html" xlink:title="Context" target="_top">
<polygon style="fill:white;stroke:black;" points="250,-816 178,-816 178,-780 250,-780 250,-816"/>
<text text-anchor="middle" x="214" y="-793.9" style="font-family:Times New Roman;font-size:14.00;">Context</text>
</a>
</g>
<!-- 87a1d642474477d8cca6c0db580ee0b4&#45;&gt;09a15e9660c1ebc6f429d818825ce0c6 -->
<g id="edge2" class="edge"><title>87a1d642474477d8cca6c0db580ee0b4&#45;&gt;09a15e9660c1ebc6f429d818825ce0c6</title>
<path style="fill:none;stroke:black;" d="M178,-782C166,-776 153,-766 146,-755 116,-710 162,-516 109,-516"/>
</g>
<!-- 1644a9993e7271c5f2c6bbc60f1a66a1 -->
<g id="node3" class="node"><title>1644a9993e7271c5f2c6bbc60f1a66a1</title>
<a xlink:href="src_Getopt.html" xlink:title="Getopt" target="_top">
<polygon style="fill:white;stroke:black;" points="246,-746 182,-746 182,-710 246,-710 246,-746"/>
<text text-anchor="middle" x="214" y="-723.9" style="font-family:Times New Roman;font-size:14.00;">Getopt</text>
</a>
</g>
<!-- 1644a9993e7271c5f2c6bbc60f1a66a1&#45;&gt;09a15e9660c1ebc6f429d818825ce0c6 -->
<g id="edge4" class="edge"><title>1644a9993e7271c5f2c6bbc60f1a66a1&#45;&gt;09a15e9660c1ebc6f429d818825ce0c6</title>
<path style="fill:none;stroke:black;" d="M182,-714C169,-707 155,-697 146,-684 102,-621 185,-516 109,-516"/>
</g>
<!-- 0439579bbee20b3b1666b5ce8ad78bc7 -->
<g id="node4" class="node"><title>0439579bbee20b3b1666b5ce8ad78bc7</title>
<a xlink:href="src_Option.html" xlink:title="Option" target="_top">
<polygon style="fill:white;stroke:black;" points="245,-675 183,-675 183,-639 245,-639 245,-675"/>
<text text-anchor="middle" x="214" y="-652.9" style="font-family:Times New Roman;font-size:14.00;">Option</text>
</a>
</g>
<!-- 0439579bbee20b3b1666b5ce8ad78bc7&#45;&gt;09a15e9660c1ebc6f429d818825ce0c6 -->
<g id="edge6" class="edge"><title>0439579bbee20b3b1666b5ce8ad78bc7&#45;&gt;09a15e9660c1ebc6f429d818825ce0c6</title>
<path style="fill:none;stroke:black;" d="M182,-643C170,-635 156,-626 146,-614 116,-577 155,-516 109,-516"/>
</g>
<!-- ba2d654fb347cad4baff03139ca197d6 -->
<g id="node5" class="node"><title>ba2d654fb347cad4baff03139ca197d6</title>
<a xlink:href="src_Command.html" xlink:title="Command" target="_top">
<polygon style="fill:white;stroke:black;" points="256,-605 172,-605 172,-569 256,-569 256,-605"/>
<text text-anchor="middle" x="214" y="-582.9" style="font-family:Times New Roman;font-size:14.00;">Command</text>
</a>
</g>
<!-- ba2d654fb347cad4baff03139ca197d6&#45;&gt;09a15e9660c1ebc6f429d818825ce0c6 -->
<g id="edge8" class="edge"><title>ba2d654fb347cad4baff03139ca197d6&#45;&gt;09a15e9660c1ebc6f429d818825ce0c6</title>
<path style="fill:none;stroke:black;" d="M185,-569C173,-561 159,-552 146,-543 129,-531 129,-516 109,-516"/>
</g>
<!-- 5e27f5e21a1af2c47418c0c6f1787353 -->
<g id="node6" class="node"><title>5e27f5e21a1af2c47418c0c6f1787353</title>
<a xlink:href="src_Stdio.html" xlink:title="Stdio" target="_top">
<polygon style="fill:white;stroke:black;" points="241,-534 187,-534 187,-498 241,-498 241,-534"/>
<text text-anchor="middle" x="214" y="-511.9" style="font-family:Times New Roman;font-size:14.00;">Stdio</text>
</a>
</g>
<!-- 5e27f5e21a1af2c47418c0c6f1787353&#45;&gt;09a15e9660c1ebc6f429d818825ce0c6 -->
<g id="edge10" class="edge"><title>5e27f5e21a1af2c47418c0c6f1787353&#45;&gt;09a15e9660c1ebc6f429d818825ce0c6</title>
<path style="fill:none;stroke:black;" d="M187,-516C165,-516 135,-516 109,-516"/>
</g>
<!-- 0f8d4d4461d67d422d022fa2b145bf5e -->
<g id="node7" class="node"><title>0f8d4d4461d67d422d022fa2b145bf5e</title>
<a xlink:href="src_OptionFactory.html" xlink:title="OptionFactory" target="_top">
<polygon style="fill:white;stroke:black;" points="270,-464 158,-464 158,-428 270,-428 270,-464"/>
<text text-anchor="middle" x="214" y="-441.9" style="font-family:Times New Roman;font-size:14.00;">OptionFactory</text>
</a>
</g>
<!-- 0f8d4d4461d67d422d022fa2b145bf5e&#45;&gt;09a15e9660c1ebc6f429d818825ce0c6 -->
<g id="edge12" class="edge"><title>0f8d4d4461d67d422d022fa2b145bf5e&#45;&gt;09a15e9660c1ebc6f429d818825ce0c6</title>
<path style="fill:none;stroke:black;" d="M184,-464C172,-471 158,-480 146,-489 129,-500 129,-516 109,-516"/>
</g>
<!-- 096f1e05b0b76fb095f5fa309d916af0 -->
<g id="node8" class="node"><title>096f1e05b0b76fb095f5fa309d916af0</title>
<a xlink:href="src_CommandFactory.html" xlink:title="CommandFactory" target="_top">
<polygon style="fill:white;stroke:black;" points="281,-393 147,-393 147,-357 281,-357 281,-393"/>
<text text-anchor="middle" x="214" y="-370.9" style="font-family:Times New Roman;font-size:14.00;">CommandFactory</text>
</a>
</g>
<!-- 096f1e05b0b76fb095f5fa309d916af0&#45;&gt;09a15e9660c1ebc6f429d818825ce0c6 -->
<g id="edge14" class="edge"><title>096f1e05b0b76fb095f5fa309d916af0&#45;&gt;09a15e9660c1ebc6f429d818825ce0c6</title>
<path style="fill:none;stroke:black;" d="M176,-393C165,-400 154,-409 146,-419 116,-454 155,-516 109,-516"/>
</g>
<!-- 02d6ee45e0c2445b1696913de8192b9e -->
<g id="node9" class="node"><title>02d6ee45e0c2445b1696913de8192b9e</title>
<a xlink:href="src_Vt100.html" xlink:title="Vt100" target="_top">
<polygon style="fill:white;stroke:black;" points="243,-323 185,-323 185,-287 243,-287 243,-323"/>
<text text-anchor="middle" x="214" y="-300.9" style="font-family:Times New Roman;font-size:14.00;">Vt100</text>
</a>
</g>
<!-- 02d6ee45e0c2445b1696913de8192b9e&#45;&gt;09a15e9660c1ebc6f429d818825ce0c6 -->
<g id="edge16" class="edge"><title>02d6ee45e0c2445b1696913de8192b9e&#45;&gt;09a15e9660c1ebc6f429d818825ce0c6</title>
<path style="fill:none;stroke:black;" d="M184,-317C171,-324 155,-334 146,-348 102,-410 185,-516 109,-516"/>
</g>
<!-- d1457b72c3fb323a2671125aef3eab5d -->
<g id="node10" class="node"><title>d1457b72c3fb323a2671125aef3eab5d</title>
<polygon style="fill:white;stroke:black;" points="241,-252 187,-252 187,-216 241,-216 241,-252"/>
<text text-anchor="middle" x="214" y="-229.9" style="font-family:Times New Roman;font-size:14.00;fill:gray;">?</text>
</g>
<!-- d1457b72c3fb323a2671125aef3eab5d&#45;&gt;09a15e9660c1ebc6f429d818825ce0c6 -->
<g id="edge18" class="edge"><title>d1457b72c3fb323a2671125aef3eab5d&#45;&gt;09a15e9660c1ebc6f429d818825ce0c6</title>
<path style="fill:none;stroke:black;" d="M187,-245C172,-252 155,-263 146,-278 116,-322 162,-516 109,-516"/>
<path style="fill:none;stroke:black;" d="M109,-516C100,-516 91,-516 82,-516"/>
<polygon style="fill:none;stroke:black;" points="82,-512.5 72,-516 82,-519.5 82,-512.5"/>
</g>
<!-- fe9d87595bbecb27348b863f712f1c2b -->
<g id="node11" class="node"><title>fe9d87595bbecb27348b863f712f1c2b</title>
<polygon style="fill:white;stroke:black;" points="440,-252 356,-252 356,-216 440,-216 440,-252"/>
<text text-anchor="middle" x="398" y="-229.9" style="font-family:Times New Roman;font-size:14.00;fill:gray;">Exception</text>
</g>
<!-- fe9d87595bbecb27348b863f712f1c2b&#45;&gt;d1457b72c3fb323a2671125aef3eab5d -->
<g id="edge20" class="edge"><title>fe9d87595bbecb27348b863f712f1c2b&#45;&gt;d1457b72c3fb323a2671125aef3eab5d</title>
<path style="fill:none;stroke:black;" d="M356,-234C324,-234 281,-234 251,-234"/>
<polygon style="fill:none;stroke:black;" points="251,-230.5 241,-234 251,-237.5 251,-230.5"/>
</g>
<!-- f863222191039d70360875149f1baac3 -->
<g id="node12" class="node"><title>f863222191039d70360875149f1baac3</title>
<a xlink:href="src_Exception.html" xlink:title="Exception" target="_top">
<polygon style="fill:white;stroke:black;" points="598,-252 514,-252 514,-216 598,-216 598,-252"/>
<text text-anchor="middle" x="556" y="-229.9" style="font-family:Times New Roman;font-size:14.00;">Exception</text>
</a>
</g>
<!-- f863222191039d70360875149f1baac3&#45;&gt;fe9d87595bbecb27348b863f712f1c2b -->
<g id="edge22" class="edge"><title>f863222191039d70360875149f1baac3&#45;&gt;fe9d87595bbecb27348b863f712f1c2b</title>
<path style="fill:none;stroke:black;" d="M514,-234C494,-234 471,-234 450,-234"/>
<polygon style="fill:none;stroke:black;" points="450,-230.5 440,-234 450,-237.5 450,-230.5"/>
</g>
<!-- 142e878f7985c5ff3e79ed8d1e328d49 -->
<g id="node13" class="node"><title>142e878f7985c5ff3e79ed8d1e328d49</title>
<a xlink:href="src_Exception_OptionParam.html" xlink:title="Exception_OptionParam" target="_top">
<polygon style="fill:white;stroke:black;" points="883,-464 703,-464 703,-428 883,-428 883,-464"/>
<text text-anchor="middle" x="793" y="-441.9" style="font-family:Times New Roman;font-size:14.00;">Exception_OptionParam</text>
</a>
</g>
<!-- 142e878f7985c5ff3e79ed8d1e328d49&#45;&gt;f863222191039d70360875149f1baac3 -->
<g id="edge24" class="edge"><title>142e878f7985c5ff3e79ed8d1e328d49&#45;&gt;f863222191039d70360875149f1baac3</title>
<path style="fill:none;stroke:black;" d="M708,-428C695,-422 682,-413 672,-402 621,-344 711,-234 635,-234"/>
</g>
<!-- a5342e726445642f3a3d0dbe7678cecc -->
<g id="node14" class="node"><title>a5342e726445642f3a3d0dbe7678cecc</title>
<a xlink:href="src_Exception_OptionName.html" xlink:title="Exception_OptionName" target="_top">
<polygon style="fill:white;stroke:black;" points="881,-393 705,-393 705,-357 881,-357 881,-393"/>
<text text-anchor="middle" x="793" y="-370.9" style="font-family:Times New Roman;font-size:14.00;">Exception_OptionName</text>
</a>
</g>
<!-- a5342e726445642f3a3d0dbe7678cecc&#45;&gt;f863222191039d70360875149f1baac3 -->
<g id="edge26" class="edge"><title>a5342e726445642f3a3d0dbe7678cecc&#45;&gt;f863222191039d70360875149f1baac3</title>
<path style="fill:none;stroke:black;" d="M712,-357C697,-351 683,-343 672,-332 638,-299 681,-234 635,-234"/>
</g>
<!-- f487f9cb65191606a6178c8ef2904770 -->
<g id="node15" class="node"><title>f487f9cb65191606a6178c8ef2904770</title>
<a xlink:href="src_Exception_OptionNotDefined.html" xlink:title="Exception_OptionNotDefined" target="_top">
<polygon style="fill:white;stroke:black;" points="901,-323 685,-323 685,-287 901,-287 901,-323"/>
<text text-anchor="middle" x="793" y="-300.9" style="font-family:Times New Roman;font-size:14.00;">Exception_OptionNotDefined</text>
</a>
</g>
<!-- f487f9cb65191606a6178c8ef2904770&#45;&gt;f863222191039d70360875149f1baac3 -->
<g id="edge28" class="edge"><title>f487f9cb65191606a6178c8ef2904770&#45;&gt;f863222191039d70360875149f1baac3</title>
<path style="fill:none;stroke:black;" d="M734,-287C714,-280 691,-271 672,-261 654,-251 655,-234 635,-234"/>
</g>
<!-- d566f4b70596535d42c37b904033826a -->
<g id="node16" class="node"><title>d566f4b70596535d42c37b904033826a</title>
<a xlink:href="src_Exception_OptionNotMulti.html" xlink:title="Exception_OptionNotMulti" target="_top">
<polygon style="fill:white;stroke:black;" points="891,-252 695,-252 695,-216 891,-216 891,-252"/>
<text text-anchor="middle" x="793" y="-229.9" style="font-family:Times New Roman;font-size:14.00;">Exception_OptionNotMulti</text>
</a>
</g>
<!-- d566f4b70596535d42c37b904033826a&#45;&gt;f863222191039d70360875149f1baac3 -->
<g id="edge30" class="edge"><title>d566f4b70596535d42c37b904033826a&#45;&gt;f863222191039d70360875149f1baac3</title>
<path style="fill:none;stroke:black;" d="M694,-234C675,-234 654,-234 635,-234"/>
</g>
<!-- b70bc3c2bf2fdb031ee50adc7bec5bfd -->
<g id="node17" class="node"><title>b70bc3c2bf2fdb031ee50adc7bec5bfd</title>
<a xlink:href="src_Exception_OptionParamRejected.html" xlink:title="Exception_OptionParamRejected" target="_top">
<polygon style="fill:white;stroke:black;" points="913,-182 673,-182 673,-146 913,-146 913,-182"/>
<text text-anchor="middle" x="793" y="-159.9" style="font-family:Times New Roman;font-size:14.00;">Exception_OptionParamRejected</text>
</a>
</g>
<!-- b70bc3c2bf2fdb031ee50adc7bec5bfd&#45;&gt;f863222191039d70360875149f1baac3 -->
<g id="edge32" class="edge"><title>b70bc3c2bf2fdb031ee50adc7bec5bfd&#45;&gt;f863222191039d70360875149f1baac3</title>
<path style="fill:none;stroke:black;" d="M731,-182C711,-189 690,-197 672,-207 653,-216 655,-234 635,-234"/>
</g>
<!-- 2b7b450a51d37fb74e4e882daa91e75e -->
<g id="node18" class="node"><title>2b7b450a51d37fb74e4e882daa91e75e</title>
<a xlink:href="src_Exception_OptionParamRequired.html" xlink:title="Exception_OptionParamRequired" target="_top">
<polygon style="fill:white;stroke:black;" points="914,-111 672,-111 672,-75 914,-75 914,-111"/>
<text text-anchor="middle" x="793" y="-88.9" style="font-family:Times New Roman;font-size:14.00;">Exception_OptionParamRequired</text>
</a>
</g>
<!-- 2b7b450a51d37fb74e4e882daa91e75e&#45;&gt;f863222191039d70360875149f1baac3 -->
<g id="edge34" class="edge"><title>2b7b450a51d37fb74e4e882daa91e75e&#45;&gt;f863222191039d70360875149f1baac3</title>
<path style="fill:none;stroke:black;" d="M712,-111C697,-117 683,-126 672,-137 639,-169 681,-234 635,-234"/>
</g>
<!-- b9969a47207eb6ed0b86a3949e486542 -->
<g id="node19" class="node"><title>b9969a47207eb6ed0b86a3949e486542</title>
<a xlink:href="src_Exception_CommandFactory.html" xlink:title="Exception_CommandFactory" target="_top">
<polygon style="fill:white;stroke:black;" points="898,-41 688,-41 688,-5 898,-5 898,-41"/>
<text text-anchor="middle" x="793" y="-18.9" style="font-family:Times New Roman;font-size:14.00;">Exception_CommandFactory</text>
</a>
</g>
<!-- b9969a47207eb6ed0b86a3949e486542&#45;&gt;f863222191039d70360875149f1baac3 -->
<g id="edge36" class="edge"><title>b9969a47207eb6ed0b86a3949e486542&#45;&gt;f863222191039d70360875149f1baac3</title>
<path style="fill:none;stroke:black;" d="M707,-41C693,-47 681,-55 672,-66 621,-123 711,-234 635,-234"/>
<path style="fill:none;stroke:black;" d="M635,-234C626,-234 617,-234 608,-234"/>
<polygon style="fill:none;stroke:black;" points="608,-230.5 598,-234 608,-237.5 608,-230.5"/>
</g>
</g>
</svg>
