<?xml version="1.0" encoding="UTF-8" standalone="no"?>
<!DOCTYPE svg PUBLIC "-//W3C//DTD SVG 1.0//EN"
 "http://www.w3.org/TR/2001/REC-SVG-20010904/DTD/svg10.dtd" [
 <!ATTLIST svg xmlns:xlink CDATA #FIXED "http://www.w3.org/1999/xlink">
]>
<!-- Generated by Graphviz version 2.20.2 (Tue Mar &#160;2 21:46:26 UTC 2010)
     For user: (mvriel) Mike van Riel,,, -->
<!-- Title: Classes Pages: 1 -->
<svg width="606pt" height="545pt"
 viewBox="0.00 0.00 606.00 545.00" xmlns="http://www.w3.org/2000/svg" xmlns:xlink="http://www.w3.org/1999/xlink">
<g id="graph0" class="graph" transform="scale(1 1) rotate(0) translate(4 541)">
<title>Classes</title>
<polygon style="fill:white;stroke:white;" points="-4,4 -4,-541 602,-541 602,4 -4,4"/>
<!-- 09a15e9660c1ebc6f429d818825ce0c6 -->
<g id="node1" class="node"><title>09a15e9660c1ebc6f429d818825ce0c6</title>
<polygon style="fill:none;stroke:black;" points="72,-286 2.13163e-14,-286 7.10543e-15,-250 72,-250 72,-286"/>
<text text-anchor="middle" x="36" y="-263.9" style="font-family:Times New Roman;font-size:14.00;">stdClass</text>
</g>
<!-- 87a1d642474477d8cca6c0db580ee0b4 -->
<g id="node2" class="node"><title>87a1d642474477d8cca6c0db580ee0b4</title>
<polygon style="fill:none;stroke:black;" points="250,-534 178,-534 178,-498 250,-498 250,-534"/>
<text text-anchor="middle" x="214" y="-511.9" style="font-family:Times New Roman;font-size:14.00;">Context</text>
</g>
<!-- 87a1d642474477d8cca6c0db580ee0b4&#45;&gt;09a15e9660c1ebc6f429d818825ce0c6 -->
<g id="edge2" class="edge"><title>87a1d642474477d8cca6c0db580ee0b4&#45;&gt;09a15e9660c1ebc6f429d818825ce0c6</title>
<path style="fill:none;stroke:black;" d="M178,-505C166,-499 154,-492 146,-481 117,-442 157,-268 109,-268"/>
</g>
<!-- 1644a9993e7271c5f2c6bbc60f1a66a1 -->
<g id="node3" class="node"><title>1644a9993e7271c5f2c6bbc60f1a66a1</title>
<polygon style="fill:none;stroke:black;" points="246,-472 182,-472 182,-436 246,-436 246,-472"/>
<text text-anchor="middle" x="214" y="-449.9" style="font-family:Times New Roman;font-size:14.00;">Getopt</text>
</g>
<!-- 1644a9993e7271c5f2c6bbc60f1a66a1&#45;&gt;09a15e9660c1ebc6f429d818825ce0c6 -->
<g id="edge4" class="edge"><title>1644a9993e7271c5f2c6bbc60f1a66a1&#45;&gt;09a15e9660c1ebc6f429d818825ce0c6</title>
<path style="fill:none;stroke:black;" d="M182,-444C169,-438 155,-430 146,-419 103,-364 178,-268 109,-268"/>
</g>
<!-- 0439579bbee20b3b1666b5ce8ad78bc7 -->
<g id="node4" class="node"><title>0439579bbee20b3b1666b5ce8ad78bc7</title>
<polygon style="fill:none;stroke:black;" points="245,-410 183,-410 183,-374 245,-374 245,-410"/>
<text text-anchor="middle" x="214" y="-387.9" style="font-family:Times New Roman;font-size:14.00;">Option</text>
</g>
<!-- 0439579bbee20b3b1666b5ce8ad78bc7&#45;&gt;09a15e9660c1ebc6f429d818825ce0c6 -->
<g id="edge6" class="edge"><title>0439579bbee20b3b1666b5ce8ad78bc7&#45;&gt;09a15e9660c1ebc6f429d818825ce0c6</title>
<path style="fill:none;stroke:black;" d="M182,-381C170,-375 156,-367 146,-357 116,-325 151,-268 109,-268"/>
</g>
<!-- ba2d654fb347cad4baff03139ca197d6 -->
<g id="node5" class="node"><title>ba2d654fb347cad4baff03139ca197d6</title>
<polygon style="fill:none;stroke:black;" points="256,-348 172,-348 172,-312 256,-312 256,-348"/>
<text text-anchor="middle" x="214" y="-325.9" style="font-family:Times New Roman;font-size:14.00;">Command</text>
</g>
<!-- ba2d654fb347cad4baff03139ca197d6&#45;&gt;09a15e9660c1ebc6f429d818825ce0c6 -->
<g id="edge8" class="edge"><title>ba2d654fb347cad4baff03139ca197d6&#45;&gt;09a15e9660c1ebc6f429d818825ce0c6</title>
<path style="fill:none;stroke:black;" d="M177,-312C166,-307 156,-301 146,-295 128,-284 129,-268 109,-268"/>
</g>
<!-- 5e27f5e21a1af2c47418c0c6f1787353 -->
<g id="node6" class="node"><title>5e27f5e21a1af2c47418c0c6f1787353</title>
<polygon style="fill:none;stroke:black;" points="241,-286 187,-286 187,-250 241,-250 241,-286"/>
<text text-anchor="middle" x="214" y="-263.9" style="font-family:Times New Roman;font-size:14.00;">Stdio</text>
</g>
<!-- 5e27f5e21a1af2c47418c0c6f1787353&#45;&gt;09a15e9660c1ebc6f429d818825ce0c6 -->
<g id="edge10" class="edge"><title>5e27f5e21a1af2c47418c0c6f1787353&#45;&gt;09a15e9660c1ebc6f429d818825ce0c6</title>
<path style="fill:none;stroke:black;" d="M187,-268C165,-268 135,-268 109,-268"/>
</g>
<!-- 0f8d4d4461d67d422d022fa2b145bf5e -->
<g id="node7" class="node"><title>0f8d4d4461d67d422d022fa2b145bf5e</title>
<polygon style="fill:none;stroke:black;" points="270,-224 158,-224 158,-188 270,-188 270,-224"/>
<text text-anchor="middle" x="214" y="-201.9" style="font-family:Times New Roman;font-size:14.00;">OptionFactory</text>
</g>
<!-- 0f8d4d4461d67d422d022fa2b145bf5e&#45;&gt;09a15e9660c1ebc6f429d818825ce0c6 -->
<g id="edge12" class="edge"><title>0f8d4d4461d67d422d022fa2b145bf5e&#45;&gt;09a15e9660c1ebc6f429d818825ce0c6</title>
<path style="fill:none;stroke:black;" d="M176,-224C166,-229 155,-235 146,-241 128,-251 129,-268 109,-268"/>
</g>
<!-- 096f1e05b0b76fb095f5fa309d916af0 -->
<g id="node8" class="node"><title>096f1e05b0b76fb095f5fa309d916af0</title>
<polygon style="fill:none;stroke:black;" points="281,-162 147,-162 147,-126 281,-126 281,-162"/>
<text text-anchor="middle" x="214" y="-139.9" style="font-family:Times New Roman;font-size:14.00;">CommandFactory</text>
</g>
<!-- 096f1e05b0b76fb095f5fa309d916af0&#45;&gt;09a15e9660c1ebc6f429d818825ce0c6 -->
<g id="edge14" class="edge"><title>096f1e05b0b76fb095f5fa309d916af0&#45;&gt;09a15e9660c1ebc6f429d818825ce0c6</title>
<path style="fill:none;stroke:black;" d="M168,-162C160,-167 152,-172 146,-179 116,-210 151,-268 109,-268"/>
</g>
<!-- 02d6ee45e0c2445b1696913de8192b9e -->
<g id="node9" class="node"><title>02d6ee45e0c2445b1696913de8192b9e</title>
<polygon style="fill:none;stroke:black;" points="243,-100 185,-100 185,-64 243,-64 243,-100"/>
<text text-anchor="middle" x="214" y="-77.9" style="font-family:Times New Roman;font-size:14.00;">Vt100</text>
</g>
<!-- 02d6ee45e0c2445b1696913de8192b9e&#45;&gt;09a15e9660c1ebc6f429d818825ce0c6 -->
<g id="edge16" class="edge"><title>02d6ee45e0c2445b1696913de8192b9e&#45;&gt;09a15e9660c1ebc6f429d818825ce0c6</title>
<path style="fill:none;stroke:black;" d="M184,-91C171,-96 156,-105 146,-117 103,-171 178,-268 109,-268"/>
</g>
<!-- d1457b72c3fb323a2671125aef3eab5d -->
<g id="node10" class="node"><title>d1457b72c3fb323a2671125aef3eab5d</title>
<polygon style="fill:none;stroke:black;" points="241,-38 187,-38 187,-2 241,-2 241,-38"/>
<text text-anchor="middle" x="214" y="-15.9" style="font-family:Times New Roman;font-size:14.00;">?</text>
</g>
<!-- d1457b72c3fb323a2671125aef3eab5d&#45;&gt;09a15e9660c1ebc6f429d818825ce0c6 -->
<g id="edge18" class="edge"><title>d1457b72c3fb323a2671125aef3eab5d&#45;&gt;09a15e9660c1ebc6f429d818825ce0c6</title>
<path style="fill:none;stroke:black;" d="M187,-27C172,-33 156,-41 146,-55 117,-93 157,-268 109,-268"/>
<path style="fill:none;stroke:black;" d="M109,-268C100,-268 91,-268 82,-268"/>
<polygon style="fill:none;stroke:black;" points="82,-264.5 72,-268 82,-271.5 82,-264.5"/>
</g>
<!-- fe9d87595bbecb27348b863f712f1c2b -->
<g id="node11" class="node"><title>fe9d87595bbecb27348b863f712f1c2b</title>
<polygon style="fill:none;stroke:black;" points="440,-38 356,-38 356,-2 440,-2 440,-38"/>
<text text-anchor="middle" x="398" y="-15.9" style="font-family:Times New Roman;font-size:14.00;">Exception</text>
</g>
<!-- fe9d87595bbecb27348b863f712f1c2b&#45;&gt;d1457b72c3fb323a2671125aef3eab5d -->
<g id="edge20" class="edge"><title>fe9d87595bbecb27348b863f712f1c2b&#45;&gt;d1457b72c3fb323a2671125aef3eab5d</title>
<path style="fill:none;stroke:black;" d="M356,-20C324,-20 281,-20 251,-20"/>
<polygon style="fill:none;stroke:black;" points="251,-16.5001 241,-20 251,-23.5001 251,-16.5001"/>
</g>
<!-- f863222191039d70360875149f1baac3 -->
<g id="node12" class="node"><title>f863222191039d70360875149f1baac3</title>
<polygon style="fill:none;stroke:black;" points="598,-38 514,-38 514,-2 598,-2 598,-38"/>
<text text-anchor="middle" x="556" y="-15.9" style="font-family:Times New Roman;font-size:14.00;">Exception</text>
</g>
<!-- f863222191039d70360875149f1baac3&#45;&gt;fe9d87595bbecb27348b863f712f1c2b -->
<g id="edge22" class="edge"><title>f863222191039d70360875149f1baac3&#45;&gt;fe9d87595bbecb27348b863f712f1c2b</title>
<path style="fill:none;stroke:black;" d="M514,-20C494,-20 471,-20 450,-20"/>
<polygon style="fill:none;stroke:black;" points="450,-16.5001 440,-20 450,-23.5001 450,-16.5001"/>
</g>
</g>
</svg>
