<?xml version="1.0" encoding="UTF-8" standalone="no"?>
<!DOCTYPE svg PUBLIC "-//W3C//DTD SVG 1.1//EN"
 "http://www.w3.org/Graphics/SVG/1.1/DTD/svg11.dtd">
<!-- Generated by graphviz version 2.26.3 (20100126.1600)
 -->
<!-- Title: G Pages: 1 -->
<svg width="790pt" height="1434pt"
 viewBox="0.00 0.00 790.00 1434.00" xmlns="http://www.w3.org/2000/svg" xmlns:xlink="http://www.w3.org/1999/xlink">
<g id="graph1" class="graph" transform="scale(1 1) rotate(0) translate(4 1430)">
<title>G</title>
<polygon fill="white" stroke="white" points="-4,5 -4,-1430 787,-1430 787,5 -4,5"/>
<g id="graph2" class="cluster"><title>cluster_Aura</title>
<polyline fill="none" stroke="gray" points="20,-44 762,-44 "/>
<path fill="none" stroke="gray" d="M762,-44C768,-44 774,-50 774,-56"/>
<polyline fill="none" stroke="gray" points="774,-56 774,-1406 "/>
<path fill="none" stroke="gray" d="M774,-1406C774,-1412 768,-1418 762,-1418"/>
<polyline fill="none" stroke="gray" points="762,-1418 20,-1418 "/>
<path fill="none" stroke="gray" d="M20,-1418C14,-1418 8,-1412 8,-1406"/>
<polyline fill="none" stroke="gray" points="8,-1406 8,-56 "/>
<path fill="none" stroke="gray" d="M8,-56C8,-50 14,-44 20,-44"/>
<text text-anchor="middle" x="391" y="-1404.1" font-family="Times Roman,serif" font-size="11.00" fill="gray">Aura</text>
</g>
<g id="graph3" class="cluster"><title>cluster_Aura\Cli</title>
<polyline fill="none" stroke="gray" points="28,-52 754,-52 "/>
<path fill="none" stroke="gray" d="M754,-52C760,-52 766,-58 766,-64"/>
<polyline fill="none" stroke="gray" points="766,-64 766,-1376 "/>
<path fill="none" stroke="gray" d="M766,-1376C766,-1382 760,-1388 754,-1388"/>
<polyline fill="none" stroke="gray" points="754,-1388 28,-1388 "/>
<path fill="none" stroke="gray" d="M28,-1388C22,-1388 16,-1382 16,-1376"/>
<polyline fill="none" stroke="gray" points="16,-1376 16,-64 "/>
<path fill="none" stroke="gray" d="M16,-64C16,-58 22,-52 28,-52"/>
<text text-anchor="middle" x="391" y="-1374.1" font-family="Times Roman,serif" font-size="11.00" fill="gray">Cli</text>
</g>
<g id="graph4" class="cluster"><title>cluster_Aura\Cli\Exception</title>
<polyline fill="none" stroke="gray" points="608,-862 746,-862 "/>
<path fill="none" stroke="gray" d="M746,-862C752,-862 758,-868 758,-874"/>
<polyline fill="none" stroke="gray" points="758,-874 758,-1248 "/>
<path fill="none" stroke="gray" d="M758,-1248C758,-1254 752,-1260 746,-1260"/>
<polyline fill="none" stroke="gray" points="746,-1260 608,-1260 "/>
<path fill="none" stroke="gray" d="M608,-1260C602,-1260 596,-1254 596,-1248"/>
<polyline fill="none" stroke="gray" points="596,-1248 596,-874 "/>
<path fill="none" stroke="gray" d="M596,-874C596,-868 602,-862 608,-862"/>
<text text-anchor="middle" x="677" y="-1246.1" font-family="Times Roman,serif" font-size="11.00" fill="gray">Exception</text>
</g>
<!-- \\Aura\\Cli\\Exception\\OptionParamRejected -->
<g id="node4" class="node"><title>\\Aura\\Cli\\Exception\\OptionParamRejected</title>
<a xlink:href="db_src_Exception_OptionParamRejected.html" xlink:title="OptionParamRejected" target="_parent">
<polygon fill="none" stroke="black" points="749,-1230 605,-1230 605,-1194 749,-1194 749,-1230"/>
<text text-anchor="middle" x="677" y="-1209.1" font-family="Courier New" font-size="11.00">OptionParamRejected</text>
</a>
</g>
<!-- \\Aura\\Cli\\Exception -->
<g id="node30" class="node"><title>\\Aura\\Cli\\Exception</title>
<a xlink:href="db_src_Exception.html" xlink:title="Exception" target="_parent">
<polygon fill="none" stroke="black" points="405,-1041 329,-1041 329,-1005 405,-1005 405,-1041"/>
<text text-anchor="middle" x="367" y="-1020.1" font-family="Courier New" font-size="11.00">Exception</text>
</a>
</g>
<!-- \\Aura\\Cli\\Exception\\OptionParamRejected&#45;&gt;\\Aura\\Cli\\Exception -->
<g id="edge29" class="edge"><title>\\Aura\\Cli\\Exception\\OptionParamRejected&#45;&gt;\\Aura\\Cli\\Exception</title>
<path fill="none" stroke="black" d="M616.047,-1193.86C609.163,-1191.17 602.348,-1188.21 596,-1185 518.406,-1145.71 437.624,-1082.4 395.866,-1047.7"/>
<polygon fill="none" stroke="black" points="397.963,-1044.89 388.048,-1041.16 393.471,-1050.26 397.963,-1044.89"/>
</g>
<!-- \\Aura\\Cli\\Exception\\OptionNotDefined -->
<g id="node5" class="node"><title>\\Aura\\Cli\\Exception\\OptionNotDefined</title>
<a xlink:href="db_src_Exception_OptionNotDefined.html" xlink:title="OptionNotDefined" target="_parent">
<polygon fill="none" stroke="black" points="739,-1176 615,-1176 615,-1140 739,-1140 739,-1176"/>
<text text-anchor="middle" x="677" y="-1155.1" font-family="Courier New" font-size="11.00">OptionNotDefined</text>
</a>
</g>
<!-- \\Aura\\Cli\\Exception\\OptionNotDefined&#45;&gt;\\Aura\\Cli\\Exception -->
<g id="edge31" class="edge"><title>\\Aura\\Cli\\Exception\\OptionNotDefined&#45;&gt;\\Aura\\Cli\\Exception</title>
<path fill="none" stroke="black" d="M620.041,-1139.97C611.915,-1137.12 603.705,-1134.09 596,-1131 530.345,-1104.68 456.75,-1068.78 411.136,-1045.74"/>
<polygon fill="none" stroke="black" points="412.621,-1042.57 402.119,-1041.17 409.456,-1048.81 412.621,-1042.57"/>
</g>
<!-- \\Aura\\Cli\\Exception\\OptionName -->
<g id="node6" class="node"><title>\\Aura\\Cli\\Exception\\OptionName</title>
<a xlink:href="db_src_Exception_OptionName.html" xlink:title="OptionName" target="_parent">
<polygon fill="none" stroke="black" points="719,-1122 635,-1122 635,-1086 719,-1086 719,-1122"/>
<text text-anchor="middle" x="677" y="-1101.1" font-family="Courier New" font-size="11.00">OptionName</text>
</a>
</g>
<!-- \\Aura\\Cli\\Exception\\OptionName&#45;&gt;\\Aura\\Cli\\Exception -->
<g id="edge33" class="edge"><title>\\Aura\\Cli\\Exception\\OptionName&#45;&gt;\\Aura\\Cli\\Exception</title>
<path fill="none" stroke="black" d="M634.869,-1092.99C577.749,-1078.07 475.964,-1051.47 415.655,-1035.71"/>
<polygon fill="none" stroke="black" points="416.181,-1032.23 405.621,-1033.09 414.411,-1039.01 416.181,-1032.23"/>
</g>
<!-- \\Aura\\Cli\\Exception\\CommandFactory -->
<g id="node7" class="node"><title>\\Aura\\Cli\\Exception\\CommandFactory</title>
<a xlink:href="db_src_Exception_CommandFactory.html" xlink:title="CommandFactory" target="_parent">
<polygon fill="none" stroke="black" points="732,-1068 622,-1068 622,-1032 732,-1032 732,-1068"/>
<text text-anchor="middle" x="677" y="-1047.1" font-family="Courier New" font-size="11.00">CommandFactory</text>
</a>
</g>
<!-- \\Aura\\Cli\\Exception\\CommandFactory&#45;&gt;\\Aura\\Cli\\Exception -->
<g id="edge35" class="edge"><title>\\Aura\\Cli\\Exception\\CommandFactory&#45;&gt;\\Aura\\Cli\\Exception</title>
<path fill="none" stroke="black" d="M621.22,-1045.14C562.635,-1040.04 471.425,-1032.1 415.663,-1027.24"/>
<polygon fill="none" stroke="black" points="415.945,-1023.75 405.679,-1026.37 415.338,-1030.72 415.945,-1023.75"/>
</g>
<!-- \\Aura\\Cli\\Exception\\OptionParamRequired -->
<g id="node8" class="node"><title>\\Aura\\Cli\\Exception\\OptionParamRequired</title>
<a xlink:href="db_src_Exception_OptionParamRequired.html" xlink:title="OptionParamRequired" target="_parent">
<polygon fill="none" stroke="black" points="749,-1014 605,-1014 605,-978 749,-978 749,-1014"/>
<text text-anchor="middle" x="677" y="-993.1" font-family="Courier New" font-size="11.00">OptionParamRequired</text>
</a>
</g>
<!-- \\Aura\\Cli\\Exception\\OptionParamRequired&#45;&gt;\\Aura\\Cli\\Exception -->
<g id="edge37" class="edge"><title>\\Aura\\Cli\\Exception\\OptionParamRequired&#45;&gt;\\Aura\\Cli\\Exception</title>
<path fill="none" stroke="black" d="M604.319,-1002.33C546.223,-1007.39 466.391,-1014.34 415.743,-1018.75"/>
<polygon fill="none" stroke="black" points="415.366,-1015.27 405.707,-1019.63 415.973,-1022.25 415.366,-1015.27"/>
</g>
<!-- \\Aura\\Cli\\Exception\\OptionParam -->
<g id="node9" class="node"><title>\\Aura\\Cli\\Exception\\OptionParam</title>
<a xlink:href="db_src_Exception_OptionParam.html" xlink:title="OptionParam" target="_parent">
<polygon fill="none" stroke="black" points="722,-960 632,-960 632,-924 722,-924 722,-960"/>
<text text-anchor="middle" x="677" y="-939.1" font-family="Courier New" font-size="11.00">OptionParam</text>
</a>
</g>
<!-- \\Aura\\Cli\\Exception\\OptionParam&#45;&gt;\\Aura\\Cli\\Exception -->
<g id="edge39" class="edge"><title>\\Aura\\Cli\\Exception\\OptionParam&#45;&gt;\\Aura\\Cli\\Exception</title>
<path fill="none" stroke="black" d="M631.171,-956.017C619.576,-959.907 607.23,-964.348 596,-969 566.619,-981.17 562.399,-991.66 532,-1001 494.111,-1012.64 449.459,-1018.12 416.166,-1020.71"/>
<polygon fill="none" stroke="black" points="415.505,-1017.24 405.779,-1021.45 416.003,-1024.23 415.505,-1017.24"/>
</g>
<!-- \\Aura\\Cli\\Exception\\OptionNotMulti -->
<g id="node10" class="node"><title>\\Aura\\Cli\\Exception\\OptionNotMulti</title>
<a xlink:href="db_src_Exception_OptionNotMulti.html" xlink:title="OptionNotMulti" target="_parent">
<polygon fill="none" stroke="black" points="732,-906 622,-906 622,-870 732,-870 732,-906"/>
<text text-anchor="middle" x="677" y="-885.1" font-family="Courier New" font-size="11.00">OptionNotMulti</text>
</a>
</g>
<!-- \\Aura\\Cli\\Exception\\OptionNotMulti&#45;&gt;\\Aura\\Cli\\Exception -->
<g id="edge41" class="edge"><title>\\Aura\\Cli\\Exception\\OptionNotMulti&#45;&gt;\\Aura\\Cli\\Exception</title>
<path fill="none" stroke="black" d="M621.203,-901.565C612.313,-905.11 603.566,-909.525 596,-915 557.401,-942.93 573.065,-976.84 532,-1001 497.012,-1021.58 450.742,-1026.2 416.105,-1026.18"/>
<polygon fill="none" stroke="black" points="415.803,-1022.67 405.755,-1026.04 415.705,-1029.67 415.803,-1022.67"/>
</g>
<!-- \\Aura\\Cli\\MockCommandSkip -->
<g id="node11" class="node"><title>\\Aura\\Cli\\MockCommandSkip</title>
<a xlink:href="db_tests_MockCommandSkip.html" xlink:title="MockCommandSkip" target="_parent">
<polygon fill="none" stroke="black" points="736,-1358 618,-1358 618,-1322 736,-1322 736,-1358"/>
<text text-anchor="middle" x="677" y="-1337.1" font-family="Courier New" font-size="11.00">MockCommandSkip</text>
</a>
</g>
<!-- \\Aura\\Cli\\MockCommand -->
<g id="node18" class="node"><title>\\Aura\\Cli\\MockCommand</title>
<a xlink:href="db_tests_MockCommand.html" xlink:title="MockCommand" target="_parent">
<polygon fill="none" stroke="black" points="412,-1331 322,-1331 322,-1295 412,-1295 412,-1331"/>
<text text-anchor="middle" x="367" y="-1310.1" font-family="Courier New" font-size="11.00">MockCommand</text>
</a>
</g>
<!-- \\Aura\\Cli\\MockCommandSkip&#45;&gt;\\Aura\\Cli\\MockCommand -->
<g id="edge7" class="edge"><title>\\Aura\\Cli\\MockCommandSkip&#45;&gt;\\Aura\\Cli\\MockCommand</title>
<path fill="none" stroke="black" d="M617.962,-1334.86C561.85,-1329.97 478.076,-1322.67 422.993,-1317.88"/>
<polygon fill="none" stroke="black" points="422.982,-1314.36 412.716,-1316.98 422.374,-1321.34 422.982,-1314.36"/>
</g>
<!-- \\Aura\\Cli\\OptionFactoryTest -->
<g id="node12" class="node"><title>\\Aura\\Cli\\OptionFactoryTest</title>
<a xlink:href="db_tests_OptionFactoryTest.html" xlink:title="OptionFactoryTest" target="_parent">
<polygon fill="none" stroke="black" points="742,-744 612,-744 612,-708 742,-708 742,-744"/>
<text text-anchor="middle" x="677" y="-723.1" font-family="Courier New" font-size="11.00">OptionFactoryTest</text>
</a>
</g>
<!-- \\PHPUnit_Framework_TestCase -->
<g id="node35" class="node"><title>\\PHPUnit_Framework_TestCase</title>
<ellipse fill="none" stroke="black" cx="367" cy="-18" rx="164.756" ry="18.3848"/>
<text text-anchor="middle" x="367" y="-14.4" font-family="Times Roman,serif" font-size="14.00" fill="gray">\PHPUnit_Framework_TestCase</text>
</g>
<!-- \\Aura\\Cli\\OptionFactoryTest&#45;&gt;\\PHPUnit_Framework_TestCase -->
<g id="edge9" class="edge"><title>\\Aura\\Cli\\OptionFactoryTest&#45;&gt;\\PHPUnit_Framework_TestCase</title>
<path fill="none" stroke="black" d="M611.492,-712.061C605.593,-708.616 600.253,-704.33 596,-699 505.33,-585.379 630.496,-154.908 532,-48 526.521,-42.0529 520.288,-37.0431 513.531,-32.8372"/>
<polygon fill="none" stroke="black" points="515.148,-29.7317 504.707,-27.9297 511.745,-35.8491 515.148,-29.7317"/>
</g>
<!-- \\Aura\\Cli\\OptionTest -->
<g id="node13" class="node"><title>\\Aura\\Cli\\OptionTest</title>
<a xlink:href="db_tests_OptionTest.html" xlink:title="OptionTest" target="_parent">
<polygon fill="none" stroke="black" points="719,-690 635,-690 635,-654 719,-654 719,-690"/>
<text text-anchor="middle" x="677" y="-669.1" font-family="Courier New" font-size="11.00">OptionTest</text>
</a>
</g>
<!-- \\Aura\\Cli\\OptionTest&#45;&gt;\\PHPUnit_Framework_TestCase -->
<g id="edge11" class="edge"><title>\\Aura\\Cli\\OptionTest&#45;&gt;\\PHPUnit_Framework_TestCase</title>
<path fill="none" stroke="black" d="M634.625,-667.228C620.268,-663.455 605.483,-656.776 596,-645 428.636,-437.153 713.677,-243.459 532,-48 526.495,-42.0771 520.242,-37.0862 513.469,-32.8948"/>
<polygon fill="none" stroke="black" points="515.072,-29.7821 504.628,-28.0034 511.683,-35.9072 515.072,-29.7821"/>
</g>
<!-- \\Aura\\Cli\\StdioTest -->
<g id="node14" class="node"><title>\\Aura\\Cli\\StdioTest</title>
<a xlink:href="db_tests_StdioTest.html" xlink:title="StdioTest" target="_parent">
<polygon fill="none" stroke="black" points="715,-636 639,-636 639,-600 715,-600 715,-636"/>
<text text-anchor="middle" x="677" y="-615.1" font-family="Courier New" font-size="11.00">StdioTest</text>
</a>
</g>
<!-- \\Aura\\Cli\\StdioTest&#45;&gt;\\PHPUnit_Framework_TestCase -->
<g id="edge13" class="edge"><title>\\Aura\\Cli\\StdioTest&#45;&gt;\\PHPUnit_Framework_TestCase</title>
<path fill="none" stroke="black" d="M638.476,-614.108C622.994,-610.532 606.387,-603.761 596,-591 442.6,-402.534 698.374,-225.117 532,-48 526.464,-42.1061 520.186,-37.138 513.394,-32.9641"/>
<polygon fill="none" stroke="black" points="514.982,-29.8429 504.533,-28.0921 511.61,-35.977 514.982,-29.8429"/>
</g>
<!-- \\Aura\\Cli\\ContextTest -->
<g id="node15" class="node"><title>\\Aura\\Cli\\ContextTest</title>
<a xlink:href="db_tests_ContextTest.html" xlink:title="ContextTest" target="_parent">
<polygon fill="none" stroke="black" points="722,-582 632,-582 632,-546 722,-546 722,-582"/>
<text text-anchor="middle" x="677" y="-561.1" font-family="Courier New" font-size="11.00">ContextTest</text>
</a>
</g>
<!-- \\Aura\\Cli\\ContextTest&#45;&gt;\\PHPUnit_Framework_TestCase -->
<g id="edge15" class="edge"><title>\\Aura\\Cli\\ContextTest&#45;&gt;\\PHPUnit_Framework_TestCase</title>
<path fill="none" stroke="black" d="M631.393,-558.162C618.141,-554.246 604.865,-547.75 596,-537 456.548,-367.896 683.088,-206.793 532,-48 526.426,-42.1417 520.119,-37.2015 513.305,-33.049"/>
<polygon fill="none" stroke="black" points="514.873,-29.9175 504.418,-28.2007 511.52,-36.0625 514.873,-29.9175"/>
</g>
<!-- \\Aura\\Cli\\CommandTest -->
<g id="node16" class="node"><title>\\Aura\\Cli\\CommandTest</title>
<a xlink:href="db_tests_CommandTest.html" xlink:title="CommandTest" target="_parent">
<polygon fill="none" stroke="black" points="722,-528 632,-528 632,-492 722,-492 722,-528"/>
<text text-anchor="middle" x="677" y="-507.1" font-family="Courier New" font-size="11.00">CommandTest</text>
</a>
</g>
<!-- \\Aura\\Cli\\CommandTest&#45;&gt;\\PHPUnit_Framework_TestCase -->
<g id="edge17" class="edge"><title>\\Aura\\Cli\\CommandTest&#45;&gt;\\PHPUnit_Framework_TestCase</title>
<path fill="none" stroke="black" d="M631.495,-504.077C618.249,-500.156 604.95,-493.679 596,-483 470.475,-333.232 667.826,-188.493 532,-48 526.308,-42.1127 519.876,-37.157 512.934,-32.9991"/>
<polygon fill="none" stroke="black" points="514.353,-29.7886 503.885,-28.1491 511.046,-35.9582 514.353,-29.7886"/>
</g>
<!-- \\Aura\\Cli\\MockCommandWrong -->
<g id="node17" class="node"><title>\\Aura\\Cli\\MockCommandWrong</title>
<a xlink:href="db_tests_MockCommandWrong.html" xlink:title="MockCommandWrong" target="_parent">
<polygon fill="none" stroke="black" points="739,-1304 615,-1304 615,-1268 739,-1268 739,-1304"/>
<text text-anchor="middle" x="677" y="-1283.1" font-family="Courier New" font-size="11.00">MockCommandWrong</text>
</a>
</g>
<!-- \\Aura\\Cli\\MockCommandWrong&#45;&gt;\\Aura\\Cli\\MockCommand -->
<g id="edge19" class="edge"><title>\\Aura\\Cli\\MockCommandWrong&#45;&gt;\\Aura\\Cli\\MockCommand</title>
<path fill="none" stroke="black" d="M614.267,-1291.46C558.089,-1296.36 476.486,-1303.46 422.602,-1308.16"/>
<polygon fill="none" stroke="black" points="422.202,-1304.68 412.544,-1309.03 422.81,-1311.65 422.202,-1304.68"/>
</g>
<!-- \\Aura\\Cli\\Command -->
<g id="node23" class="node"><title>\\Aura\\Cli\\Command</title>
<a xlink:href="db_src_Command.html" xlink:title="«abstract»&lt;br/&gt;Command" target="_parent">
<polygon fill="none" stroke="black" points="109,-1331 25,-1331 25,-1295 109,-1295 109,-1331"/>
<text text-anchor="start" x="33" y="-1318.43" font-family="Courier New" font-size="11.00">«abstract»</text>
<text text-anchor="start" x="43" y="-1305.23" font-family="Courier New" font-size="11.00">Command</text>
</a>
</g>
<!-- \\Aura\\Cli\\MockCommand&#45;&gt;\\Aura\\Cli\\Command -->
<g id="edge21" class="edge"><title>\\Aura\\Cli\\MockCommand&#45;&gt;\\Aura\\Cli\\Command</title>
<path fill="none" stroke="black" d="M321.436,-1313C267.274,-1313 177.046,-1313 119.864,-1313"/>
<polygon fill="none" stroke="black" points="119.587,-1309.5 109.587,-1313 119.587,-1316.5 119.587,-1309.5"/>
</g>
<!-- \\Aura\\Cli\\CommandFactoryTest -->
<g id="node19" class="node"><title>\\Aura\\Cli\\CommandFactoryTest</title>
<a xlink:href="db_tests_CommandFactoryTest.html" xlink:title="CommandFactoryTest" target="_parent">
<polygon fill="none" stroke="black" points="746,-474 608,-474 608,-438 746,-438 746,-474"/>
<text text-anchor="middle" x="677" y="-453.1" font-family="Courier New" font-size="11.00">CommandFactoryTest</text>
</a>
</g>
<!-- \\Aura\\Cli\\CommandFactoryTest&#45;&gt;\\PHPUnit_Framework_TestCase -->
<g id="edge23" class="edge"><title>\\Aura\\Cli\\CommandFactoryTest&#45;&gt;\\PHPUnit_Framework_TestCase</title>
<path fill="none" stroke="black" d="M607.669,-439.19C603.338,-436.311 599.373,-432.942 596,-429 484.372,-298.532 652.596,-170.227 532,-48 526.249,-42.171 519.77,-37.2606 512.792,-33.1374"/>
<polygon fill="none" stroke="black" points="514.18,-29.912 503.704,-28.3259 510.904,-36.0984 514.18,-29.912"/>
</g>
<!-- \\Aura\\Cli\\GetoptTest -->
<g id="node20" class="node"><title>\\Aura\\Cli\\GetoptTest</title>
<a xlink:href="db_tests_GetoptTest.html" xlink:title="GetoptTest" target="_parent">
<polygon fill="none" stroke="black" points="719,-852 635,-852 635,-816 719,-816 719,-852"/>
<text text-anchor="middle" x="677" y="-831.1" font-family="Courier New" font-size="11.00">GetoptTest</text>
</a>
</g>
<!-- \\Aura\\Cli\\GetoptTest&#45;&gt;\\PHPUnit_Framework_TestCase -->
<g id="edge25" class="edge"><title>\\Aura\\Cli\\GetoptTest&#45;&gt;\\PHPUnit_Framework_TestCase</title>
<path fill="none" stroke="black" d="M634.902,-829.454C620.396,-825.714 605.44,-819 596,-807 491.342,-673.968 645.825,-173.278 532,-48 526.75,-42.2221 520.79,-37.3254 514.326,-33.1888"/>
<polygon fill="none" stroke="black" points="515.642,-29.9102 505.219,-28.0076 512.18,-35.9946 515.642,-29.9102"/>
</g>
<!-- \\Aura\\Cli\\Vt100Test -->
<g id="node21" class="node"><title>\\Aura\\Cli\\Vt100Test</title>
<a xlink:href="db_tests_Vt100Test.html" xlink:title="Vt100Test" target="_parent">
<polygon fill="none" stroke="black" points="715,-798 639,-798 639,-762 715,-762 715,-798"/>
<text text-anchor="middle" x="677" y="-777.1" font-family="Courier New" font-size="11.00">Vt100Test</text>
</a>
</g>
<!-- \\Aura\\Cli\\Vt100Test&#45;&gt;\\PHPUnit_Framework_TestCase -->
<g id="edge27" class="edge"><title>\\Aura\\Cli\\Vt100Test&#45;&gt;\\PHPUnit_Framework_TestCase</title>
<path fill="none" stroke="black" d="M638.31,-776.241C622.8,-772.688 606.215,-765.899 596,-753 498.338,-629.676 638.158,-164.091 532,-48 526.732,-42.239 520.757,-37.3556 514.282,-33.2293"/>
<polygon fill="none" stroke="black" points="515.587,-29.9458 505.161,-28.0604 512.135,-36.0359 515.587,-29.9458"/>
</g>
<!-- \\Aura\\Cli\\Getopt -->
<g id="node22" class="node"><title>\\Aura\\Cli\\Getopt</title>
<a xlink:href="db_src_Getopt.html" xlink:title="Getopt" target="_parent">
<polygon fill="none" stroke="black" points="705,-420 649,-420 649,-384 705,-384 705,-420"/>
<text text-anchor="middle" x="677" y="-399.1" font-family="Courier New" font-size="11.00">Getopt</text>
</a>
</g>
<!-- \\Aura\\Cli\\OptionFactory -->
<g id="node24" class="node"><title>\\Aura\\Cli\\OptionFactory</title>
<a xlink:href="db_src_OptionFactory.html" xlink:title="OptionFactory" target="_parent">
<polygon fill="none" stroke="black" points="729,-366 625,-366 625,-330 729,-330 729,-366"/>
<text text-anchor="middle" x="677" y="-345.1" font-family="Courier New" font-size="11.00">OptionFactory</text>
</a>
</g>
<!-- \\Aura\\Cli\\Option -->
<g id="node25" class="node"><title>\\Aura\\Cli\\Option</title>
<a xlink:href="db_src_Option.html" xlink:title="Option" target="_parent">
<polygon fill="none" stroke="black" points="705,-312 649,-312 649,-276 705,-276 705,-312"/>
<text text-anchor="middle" x="677" y="-291.1" font-family="Courier New" font-size="11.00">Option</text>
</a>
</g>
<!-- \\Aura\\Cli\\Vt100 -->
<g id="node26" class="node"><title>\\Aura\\Cli\\Vt100</title>
<a xlink:href="db_src_Vt100.html" xlink:title="Vt100" target="_parent">
<polygon fill="none" stroke="black" points="704,-258 650,-258 650,-222 704,-222 704,-258"/>
<text text-anchor="middle" x="677" y="-237.1" font-family="Courier New" font-size="11.00">Vt100</text>
</a>
</g>
<!-- \\Aura\\Cli\\Stdio -->
<g id="node27" class="node"><title>\\Aura\\Cli\\Stdio</title>
<a xlink:href="db_src_Stdio.html" xlink:title="Stdio" target="_parent">
<polygon fill="none" stroke="black" points="704,-204 650,-204 650,-168 704,-168 704,-204"/>
<text text-anchor="middle" x="677" y="-183.1" font-family="Courier New" font-size="11.00">Stdio</text>
</a>
</g>
<!-- \\Aura\\Cli\\CommandFactory -->
<g id="node28" class="node"><title>\\Aura\\Cli\\CommandFactory</title>
<a xlink:href="db_src_CommandFactory.html" xlink:title="CommandFactory" target="_parent">
<polygon fill="none" stroke="black" points="732,-150 622,-150 622,-114 732,-114 732,-150"/>
<text text-anchor="middle" x="677" y="-129.1" font-family="Courier New" font-size="11.00">CommandFactory</text>
</a>
</g>
<!-- \\Aura\\Cli\\Context -->
<g id="node29" class="node"><title>\\Aura\\Cli\\Context</title>
<a xlink:href="db_src_Context.html" xlink:title="Context" target="_parent">
<polygon fill="none" stroke="black" points="709,-96 645,-96 645,-60 709,-60 709,-96"/>
<text text-anchor="middle" x="677" y="-75.1" font-family="Courier New" font-size="11.00">Context</text>
</a>
</g>
<!-- \\Exception -->
<g id="node53" class="node"><title>\\Exception</title>
<ellipse fill="none" stroke="black" cx="67" cy="-18" rx="62.9325" ry="18.3848"/>
<text text-anchor="middle" x="67" y="-14.4" font-family="Times Roman,serif" font-size="14.00" fill="gray">\Exception</text>
</g>
<!-- \\Aura\\Cli\\Exception&#45;&gt;\\Exception -->
<g id="edge43" class="edge"><title>\\Aura\\Cli\\Exception&#45;&gt;\\Exception</title>
<path fill="none" stroke="black" d="M328.187,-1030.22C290.264,-1034.81 233.748,-1034.62 202,-1001 56.1753,-846.595 250.076,-223.179 130,-48 127.037,-43.6768 123.276,-39.958 119.071,-36.7628"/>
<polygon fill="none" stroke="black" points="120.83,-33.7321 110.531,-31.2423 117.029,-39.6107 120.83,-33.7321"/>
</g>
</g>
</svg>
