<?xml version="1.0" encoding="UTF-8" standalone="no"?>
<!DOCTYPE svg PUBLIC "-//W3C//DTD SVG 1.1//EN"
 "http://www.w3.org/Graphics/SVG/1.1/DTD/svg11.dtd">
<!-- Generated by graphviz version 2.26.3 (20100126.1600)
 -->
<!-- Title: G Pages: 1 -->
<svg width="660pt" height="1042pt"
 viewBox="0.00 0.00 660.00 1042.00" xmlns="http://www.w3.org/2000/svg" xmlns:xlink="http://www.w3.org/1999/xlink">
<g id="graph1" class="graph" transform="scale(1 1) rotate(0) translate(4 1038)">
<title>G</title>
<polygon fill="white" stroke="white" points="-4,5 -4,-1038 657,-1038 657,5 -4,5"/>
<g id="graph2" class="cluster"><title>cluster_Aura</title>
<polyline fill="none" stroke="gray" points="272,-98 632,-98 "/>
<path fill="none" stroke="gray" d="M632,-98C638,-98 644,-104 644,-110"/>
<polyline fill="none" stroke="gray" points="644,-110 644,-1014 "/>
<path fill="none" stroke="gray" d="M644,-1014C644,-1020 638,-1026 632,-1026"/>
<polyline fill="none" stroke="gray" points="632,-1026 272,-1026 "/>
<path fill="none" stroke="gray" d="M272,-1026C266,-1026 260,-1020 260,-1014"/>
<polyline fill="none" stroke="gray" points="260,-1014 260,-110 "/>
<path fill="none" stroke="gray" d="M260,-110C260,-104 266,-98 272,-98"/>
<text text-anchor="middle" x="452" y="-1012.1" font-family="Times Roman,serif" font-size="11.00" fill="gray">Aura</text>
</g>
<g id="graph3" class="cluster"><title>cluster_Aura\Marshal</title>
<polyline fill="none" stroke="gray" points="280,-106 624,-106 "/>
<path fill="none" stroke="gray" d="M624,-106C630,-106 636,-112 636,-118"/>
<polyline fill="none" stroke="gray" points="636,-118 636,-984 "/>
<path fill="none" stroke="gray" d="M636,-984C636,-990 630,-996 624,-996"/>
<polyline fill="none" stroke="gray" points="624,-996 280,-996 "/>
<path fill="none" stroke="gray" d="M280,-996C274,-996 268,-990 268,-984"/>
<polyline fill="none" stroke="gray" points="268,-984 268,-118 "/>
<path fill="none" stroke="gray" d="M268,-118C268,-112 274,-106 280,-106"/>
<text text-anchor="middle" x="452" y="-982.1" font-family="Times Roman,serif" font-size="11.00" fill="gray">Marshal</text>
</g>
<g id="graph4" class="cluster"><title>cluster_Aura\Marshal\Collection</title>
<polyline fill="none" stroke="gray" points="291,-838 616,-838 "/>
<path fill="none" stroke="gray" d="M616,-838C622,-838 628,-844 628,-850"/>
<polyline fill="none" stroke="gray" points="628,-850 628,-954 "/>
<path fill="none" stroke="gray" d="M628,-954C628,-960 622,-966 616,-966"/>
<polyline fill="none" stroke="gray" points="616,-966 291,-966 "/>
<path fill="none" stroke="gray" d="M291,-966C285,-966 279,-960 279,-954"/>
<polyline fill="none" stroke="gray" points="279,-954 279,-850 "/>
<path fill="none" stroke="gray" d="M279,-850C279,-844 285,-838 291,-838"/>
<text text-anchor="middle" x="453.5" y="-952.1" font-family="Times Roman,serif" font-size="11.00" fill="gray">Collection</text>
</g>
<g id="graph5" class="cluster"><title>cluster_Aura\Marshal\Record</title>
<polyline fill="none" stroke="gray" points="291,-566 602,-566 "/>
<path fill="none" stroke="gray" d="M602,-566C608,-566 614,-572 614,-578"/>
<polyline fill="none" stroke="gray" points="614,-578 614,-682 "/>
<path fill="none" stroke="gray" d="M614,-682C614,-688 608,-694 602,-694"/>
<polyline fill="none" stroke="gray" points="602,-694 291,-694 "/>
<path fill="none" stroke="gray" d="M291,-694C285,-694 279,-688 279,-682"/>
<polyline fill="none" stroke="gray" points="279,-682 279,-578 "/>
<path fill="none" stroke="gray" d="M279,-578C279,-572 285,-566 291,-566"/>
<text text-anchor="middle" x="446.5" y="-680.1" font-family="Times Roman,serif" font-size="11.00" fill="gray">Record</text>
</g>
<g id="graph6" class="cluster"><title>cluster_Aura\Marshal\Relation</title>
<polyline fill="none" stroke="gray" points="288,-268 606,-268 "/>
<path fill="none" stroke="gray" d="M606,-268C612,-268 618,-274 618,-280"/>
<polyline fill="none" stroke="gray" points="618,-280 618,-546 "/>
<path fill="none" stroke="gray" d="M618,-546C618,-552 612,-558 606,-558"/>
<polyline fill="none" stroke="gray" points="606,-558 288,-558 "/>
<path fill="none" stroke="gray" d="M288,-558C282,-558 276,-552 276,-546"/>
<polyline fill="none" stroke="gray" points="276,-546 276,-280 "/>
<path fill="none" stroke="gray" d="M276,-280C276,-274 282,-268 288,-268"/>
<text text-anchor="middle" x="447" y="-544.1" font-family="Times Roman,serif" font-size="11.00" fill="gray">Relation</text>
</g>
<g id="graph7" class="cluster"><title>cluster_Aura\Marshal\Type</title>
<polyline fill="none" stroke="gray" points="512,-702 596,-702 "/>
<path fill="none" stroke="gray" d="M596,-702C602,-702 608,-708 608,-714"/>
<polyline fill="none" stroke="gray" points="608,-714 608,-818 "/>
<path fill="none" stroke="gray" d="M608,-818C608,-824 602,-830 596,-830"/>
<polyline fill="none" stroke="gray" points="596,-830 512,-830 "/>
<path fill="none" stroke="gray" d="M512,-830C506,-830 500,-824 500,-818"/>
<polyline fill="none" stroke="gray" points="500,-818 500,-714 "/>
<path fill="none" stroke="gray" d="M500,-714C500,-708 506,-702 512,-702"/>
<text text-anchor="middle" x="554" y="-816.1" font-family="Times Roman,serif" font-size="11.00" fill="gray">Type</text>
</g>
<!-- \\Aura\\Marshal\\Collection\\GenericCollection -->
<g id="node4" class="node"><title>\\Aura\\Marshal\\Collection\\GenericCollection</title>
<a xlink:href="db_src_Aura_Marshal_Collection_GenericCollection.html" xlink:title="GenericCollection" target="_parent">
<polygon fill="none" stroke="black" points="619,-882 489,-882 489,-846 619,-846 619,-882"/>
<text text-anchor="middle" x="554" y="-861.1" font-family="Courier New" font-size="11.00">GenericCollection</text>
</a>
</g>
<!-- \\Aura\\Marshal\\Data -->
<g id="node23" class="node"><title>\\Aura\\Marshal\\Data</title>
<a xlink:href="db_src_Aura_Marshal_Data.html" xlink:title="Data" target="_parent">
<polygon fill="none" stroke="black" points="377,-800 323,-800 323,-764 377,-764 377,-800"/>
<text text-anchor="middle" x="350" y="-779.1" font-family="Courier New" font-size="11.00">Data</text>
</a>
</g>
<!-- \\Aura\\Marshal\\Collection\\GenericCollection&#45;&gt;\\Aura\\Marshal\\Data -->
<g id="edge12" class="edge"><title>\\Aura\\Marshal\\Collection\\GenericCollection&#45;&gt;\\Aura\\Marshal\\Data</title>
<path fill="none" stroke="black" d="M508.979,-845.903C472.242,-831.136 420.985,-810.533 386.705,-796.754"/>
<polygon fill="none" stroke="black" points="387.664,-793.367 377.08,-792.885 385.053,-799.862 387.664,-793.367"/>
</g>
<!-- \\Aura\\Marshal\\Collection\\BuilderInterface -->
<g id="node5" class="node"><title>\\Aura\\Marshal\\Collection\\BuilderInterface</title>
<a xlink:href="db_src_Aura_Marshal_Collection_BuilderInterface.html" xlink:title="BuilderInterface" target="_parent">
<polygon fill="none" stroke="black" points="412,-936 288,-936 288,-900 412,-900 412,-936"/>
<text text-anchor="middle" x="350" y="-915.1" font-family="Courier New" font-size="11.00">BuilderInterface</text>
</a>
</g>
<!-- \\Aura\\Marshal\\Collection\\Builder -->
<g id="node6" class="node"><title>\\Aura\\Marshal\\Collection\\Builder</title>
<a xlink:href="db_src_Aura_Marshal_Collection_Builder.html" xlink:title="Builder" target="_parent">
<polygon fill="none" stroke="black" points="586,-936 522,-936 522,-900 586,-900 586,-936"/>
<text text-anchor="middle" x="554" y="-915.1" font-family="Courier New" font-size="11.00">Builder</text>
</a>
</g>
<!-- \\Aura\\Marshal\\Collection\\Builder&#45;&gt;\\Aura\\Marshal\\Collection\\BuilderInterface -->
<g id="edge36" class="edge"><title>\\Aura\\Marshal\\Collection\\Builder&#45;&gt;\\Aura\\Marshal\\Collection\\BuilderInterface</title>
<path fill="none" stroke="black" stroke-dasharray="1,5" d="M521.676,-918C495.203,-918 456.738,-918 422.924,-918"/>
<polygon fill="none" stroke="black" points="422.597,-914.5 412.597,-918 422.597,-921.5 422.597,-914.5"/>
</g>
<!-- \\Aura\\Marshal\\Record\\BuilderInterface -->
<g id="node8" class="node"><title>\\Aura\\Marshal\\Record\\BuilderInterface</title>
<a xlink:href="db_src_Aura_Marshal_Record_BuilderInterface.html" xlink:title="BuilderInterface" target="_parent">
<polygon fill="none" stroke="black" points="412,-610 288,-610 288,-574 412,-574 412,-610"/>
<text text-anchor="middle" x="350" y="-589.1" font-family="Courier New" font-size="11.00">BuilderInterface</text>
</a>
</g>
<!-- \\Aura\\Marshal\\Record\\Builder -->
<g id="node9" class="node"><title>\\Aura\\Marshal\\Record\\Builder</title>
<a xlink:href="db_src_Aura_Marshal_Record_Builder.html" xlink:title="Builder" target="_parent">
<polygon fill="none" stroke="black" points="586,-610 522,-610 522,-574 586,-574 586,-610"/>
<text text-anchor="middle" x="554" y="-589.1" font-family="Courier New" font-size="11.00">Builder</text>
</a>
</g>
<!-- \\Aura\\Marshal\\Record\\Builder&#45;&gt;\\Aura\\Marshal\\Record\\BuilderInterface -->
<g id="edge38" class="edge"><title>\\Aura\\Marshal\\Record\\Builder&#45;&gt;\\Aura\\Marshal\\Record\\BuilderInterface</title>
<path fill="none" stroke="black" stroke-dasharray="1,5" d="M521.676,-592C495.203,-592 456.738,-592 422.924,-592"/>
<polygon fill="none" stroke="black" points="422.597,-588.5 412.597,-592 422.597,-595.5 422.597,-588.5"/>
</g>
<!-- \\Aura\\Marshal\\Record\\GenericRecord -->
<g id="node10" class="node"><title>\\Aura\\Marshal\\Record\\GenericRecord</title>
<a xlink:href="db_src_Aura_Marshal_Record_GenericRecord.html" xlink:title="GenericRecord" target="_parent">
<polygon fill="none" stroke="black" points="606,-664 502,-664 502,-628 606,-628 606,-664"/>
<text text-anchor="middle" x="554" y="-643.1" font-family="Courier New" font-size="11.00">GenericRecord</text>
</a>
</g>
<!-- \\Aura\\Marshal\\Record\\GenericRecord&#45;&gt;\\Aura\\Marshal\\Data -->
<g id="edge14" class="edge"><title>\\Aura\\Marshal\\Record\\GenericRecord&#45;&gt;\\Aura\\Marshal\\Data</title>
<path fill="none" stroke="black" d="M526.91,-664.06C490.56,-688.293 425.92,-731.387 385.651,-758.232"/>
<polygon fill="none" stroke="black" points="383.581,-755.406 377.202,-763.866 387.464,-761.231 383.581,-755.406"/>
</g>
<!-- \\Aura\\Marshal\\Relation\\HasManyThrough -->
<g id="node12" class="node"><title>\\Aura\\Marshal\\Relation\\HasManyThrough</title>
<a xlink:href="db_src_Aura_Marshal_Relation_HasManyThrough.html" xlink:title="HasManyThrough" target="_parent">
<polygon fill="none" stroke="black" points="609,-528 499,-528 499,-492 609,-492 609,-528"/>
<text text-anchor="middle" x="554" y="-507.1" font-family="Courier New" font-size="11.00">HasManyThrough</text>
</a>
</g>
<!-- \\Aura\\Marshal\\Relation\\RelationInterface -->
<g id="node16" class="node"><title>\\Aura\\Marshal\\Relation\\RelationInterface</title>
<a xlink:href="db_src_Aura_Marshal_Relation_RelationInterface.html" xlink:title="RelationInterface" target="_parent">
<polygon fill="none" stroke="black" points="415,-366 285,-366 285,-330 415,-330 415,-366"/>
<text text-anchor="middle" x="350" y="-345.1" font-family="Courier New" font-size="11.00">RelationInterface</text>
</a>
</g>
<!-- \\Aura\\Marshal\\Relation\\HasManyThrough&#45;&gt;\\Aura\\Marshal\\Relation\\RelationInterface -->
<g id="edge40" class="edge"><title>\\Aura\\Marshal\\Relation\\HasManyThrough&#45;&gt;\\Aura\\Marshal\\Relation\\RelationInterface</title>
<path fill="none" stroke="black" stroke-dasharray="1,5" d="M501.184,-491.843C496.506,-489.23 492.025,-486.292 488,-483 443.345,-446.477 460.655,-411.523 416,-375 414.616,-373.868 413.179,-372.779 411.698,-371.729"/>
<polygon fill="none" stroke="black" points="413.147,-368.507 402.816,-366.157 409.427,-374.436 413.147,-368.507"/>
</g>
<!-- \\Aura\\Marshal\\Relation\\AbstractRelation -->
<g id="node17" class="node"><title>\\Aura\\Marshal\\Relation\\AbstractRelation</title>
<a xlink:href="db_src_Aura_Marshal_Relation_AbstractRelation.html" xlink:title="«abstract»&lt;br/&gt;AbstractRelation" target="_parent">
<polygon fill="none" stroke="black" points="413,-420 287,-420 287,-384 413,-384 413,-420"/>
<text text-anchor="start" x="316" y="-407.433" font-family="Courier New" font-size="11.00">«abstract»</text>
<text text-anchor="start" x="295.5" y="-394.233" font-family="Courier New" font-size="11.00">AbstractRelation</text>
</a>
</g>
<!-- \\Aura\\Marshal\\Relation\\HasManyThrough&#45;&gt;\\Aura\\Marshal\\Relation\\AbstractRelation -->
<g id="edge16" class="edge"><title>\\Aura\\Marshal\\Relation\\HasManyThrough&#45;&gt;\\Aura\\Marshal\\Relation\\AbstractRelation</title>
<path fill="none" stroke="black" d="M507.47,-491.941C500.867,-489.097 494.214,-486.075 488,-483 452.768,-465.564 414.321,-442.656 386.979,-425.651"/>
<polygon fill="none" stroke="black" points="388.486,-422.466 378.152,-420.128 384.772,-428.4 388.486,-422.466"/>
</g>
<!-- \\Aura\\Marshal\\Relation\\Builder -->
<g id="node13" class="node"><title>\\Aura\\Marshal\\Relation\\Builder</title>
<a xlink:href="db_src_Aura_Marshal_Relation_Builder.html" xlink:title="Builder" target="_parent">
<polygon fill="none" stroke="black" points="586,-474 522,-474 522,-438 586,-438 586,-474"/>
<text text-anchor="middle" x="554" y="-453.1" font-family="Courier New" font-size="11.00">Builder</text>
</a>
</g>
<!-- \\Aura\\Marshal\\Relation\\HasOne -->
<g id="node14" class="node"><title>\\Aura\\Marshal\\Relation\\HasOne</title>
<a xlink:href="db_src_Aura_Marshal_Relation_HasOne.html" xlink:title="HasOne" target="_parent">
<polygon fill="none" stroke="black" points="582,-366 526,-366 526,-330 582,-330 582,-366"/>
<text text-anchor="middle" x="554" y="-345.1" font-family="Courier New" font-size="11.00">HasOne</text>
</a>
</g>
<!-- \\Aura\\Marshal\\Relation\\HasOne&#45;&gt;\\Aura\\Marshal\\Relation\\RelationInterface -->
<g id="edge42" class="edge"><title>\\Aura\\Marshal\\Relation\\HasOne&#45;&gt;\\Aura\\Marshal\\Relation\\RelationInterface</title>
<path fill="none" stroke="black" stroke-dasharray="1,5" d="M525.204,-348C499.414,-348 460.427,-348 425.773,-348"/>
<polygon fill="none" stroke="black" points="425.654,-344.5 415.654,-348 425.654,-351.5 425.654,-344.5"/>
</g>
<!-- \\Aura\\Marshal\\Relation\\HasOne&#45;&gt;\\Aura\\Marshal\\Relation\\AbstractRelation -->
<g id="edge18" class="edge"><title>\\Aura\\Marshal\\Relation\\HasOne&#45;&gt;\\Aura\\Marshal\\Relation\\AbstractRelation</title>
<path fill="none" stroke="black" d="M525.204,-355.622C498.701,-362.638 458.261,-373.343 422.909,-382.7"/>
<polygon fill="none" stroke="black" points="421.86,-379.358 413.089,-385.3 423.652,-386.124 421.86,-379.358"/>
</g>
<!-- \\Aura\\Marshal\\Relation\\BelongsTo -->
<g id="node15" class="node"><title>\\Aura\\Marshal\\Relation\\BelongsTo</title>
<a xlink:href="db_src_Aura_Marshal_Relation_BelongsTo.html" xlink:title="BelongsTo" target="_parent">
<polygon fill="none" stroke="black" points="592,-312 516,-312 516,-276 592,-276 592,-312"/>
<text text-anchor="middle" x="554" y="-291.1" font-family="Courier New" font-size="11.00">BelongsTo</text>
</a>
</g>
<!-- \\Aura\\Marshal\\Relation\\BelongsTo&#45;&gt;\\Aura\\Marshal\\Relation\\RelationInterface -->
<g id="edge44" class="edge"><title>\\Aura\\Marshal\\Relation\\BelongsTo&#45;&gt;\\Aura\\Marshal\\Relation\\RelationInterface</title>
<path fill="none" stroke="black" stroke-dasharray="1,5" d="M515.149,-304.284C489.801,-310.994 455.874,-319.974 425.366,-328.05"/>
<polygon fill="none" stroke="black" points="424.368,-324.694 415.596,-330.636 426.159,-331.461 424.368,-324.694"/>
</g>
<!-- \\Aura\\Marshal\\Relation\\BelongsTo&#45;&gt;\\Aura\\Marshal\\Relation\\AbstractRelation -->
<g id="edge20" class="edge"><title>\\Aura\\Marshal\\Relation\\BelongsTo&#45;&gt;\\Aura\\Marshal\\Relation\\AbstractRelation</title>
<path fill="none" stroke="black" d="M515.177,-307.954C506.049,-311.757 496.507,-316.175 488,-321 453.206,-340.733 450.794,-355.267 416,-375 413.2,-376.588 410.288,-378.132 407.316,-379.624"/>
<polygon fill="none" stroke="black" points="405.788,-376.475 398.269,-383.94 408.802,-382.793 405.788,-376.475"/>
</g>
<!-- \\Aura\\Marshal\\Relation\\HasMany -->
<g id="node18" class="node"><title>\\Aura\\Marshal\\Relation\\HasMany</title>
<a xlink:href="db_src_Aura_Marshal_Relation_HasMany.html" xlink:title="HasMany" target="_parent">
<polygon fill="none" stroke="black" points="586,-420 522,-420 522,-384 586,-384 586,-420"/>
<text text-anchor="middle" x="554" y="-399.1" font-family="Courier New" font-size="11.00">HasMany</text>
</a>
</g>
<!-- \\Aura\\Marshal\\Relation\\HasMany&#45;&gt;\\Aura\\Marshal\\Relation\\RelationInterface -->
<g id="edge46" class="edge"><title>\\Aura\\Marshal\\Relation\\HasMany&#45;&gt;\\Aura\\Marshal\\Relation\\RelationInterface</title>
<path fill="none" stroke="black" stroke-dasharray="1,5" d="M521.676,-393.444C495.805,-386.595 458.48,-376.715 425.236,-367.915"/>
<polygon fill="none" stroke="black" points="426.089,-364.521 415.526,-365.345 424.297,-371.288 426.089,-364.521"/>
</g>
<!-- \\Aura\\Marshal\\Relation\\HasMany&#45;&gt;\\Aura\\Marshal\\Relation\\AbstractRelation -->
<g id="edge22" class="edge"><title>\\Aura\\Marshal\\Relation\\HasMany&#45;&gt;\\Aura\\Marshal\\Relation\\AbstractRelation</title>
<path fill="none" stroke="black" d="M521.676,-402C495.305,-402 457.033,-402 423.314,-402"/>
<polygon fill="none" stroke="black" points="423.014,-398.5 413.014,-402 423.014,-405.5 423.014,-398.5"/>
</g>
<!-- \\Aura\\Marshal\\Type\\GenericType -->
<g id="node20" class="node"><title>\\Aura\\Marshal\\Type\\GenericType</title>
<a xlink:href="db_src_Aura_Marshal_Type_GenericType.html" xlink:title="GenericType" target="_parent">
<polygon fill="none" stroke="black" points="599,-800 509,-800 509,-764 599,-764 599,-800"/>
<text text-anchor="middle" x="554" y="-779.1" font-family="Courier New" font-size="11.00">GenericType</text>
</a>
</g>
<!-- \\Aura\\Marshal\\Type\\GenericType&#45;&gt;\\Aura\\Marshal\\Data -->
<g id="edge24" class="edge"><title>\\Aura\\Marshal\\Type\\GenericType&#45;&gt;\\Aura\\Marshal\\Data</title>
<path fill="none" stroke="black" d="M508.472,-782C471.97,-782 421.379,-782 387.26,-782"/>
<polygon fill="none" stroke="black" points="387.234,-778.5 377.234,-782 387.234,-785.5 387.234,-778.5"/>
</g>
<!-- \\Aura\\Marshal\\Type\\Builder -->
<g id="node21" class="node"><title>\\Aura\\Marshal\\Type\\Builder</title>
<a xlink:href="db_src_Aura_Marshal_Type_Builder.html" xlink:title="Builder" target="_parent">
<polygon fill="none" stroke="black" points="586,-746 522,-746 522,-710 586,-710 586,-746"/>
<text text-anchor="middle" x="554" y="-725.1" font-family="Courier New" font-size="11.00">Builder</text>
</a>
</g>
<!-- \\Aura\\Marshal\\Manager -->
<g id="node22" class="node"><title>\\Aura\\Marshal\\Manager</title>
<a xlink:href="db_src_Aura_Marshal_Manager.html" xlink:title="Manager" target="_parent">
<polygon fill="none" stroke="black" points="586,-258 522,-258 522,-222 586,-222 586,-258"/>
<text text-anchor="middle" x="554" y="-237.1" font-family="Courier New" font-size="11.00">Manager</text>
</a>
</g>
<!-- \\ArrayAccess -->
<g id="node40" class="node"><title>\\ArrayAccess</title>
<ellipse fill="none" stroke="black" cx="106" cy="-836" rx="77.0746" ry="18.3848"/>
<text text-anchor="middle" x="106" y="-832.4" font-family="Times Roman,serif" font-size="14.00" fill="gray">\\ArrayAccess</text>
</g>
<!-- \\Aura\\Marshal\\Data&#45;&gt;\\ArrayAccess -->
<g id="edge28" class="edge"><title>\\Aura\\Marshal\\Data&#45;&gt;\\ArrayAccess</title>
<path fill="none" stroke="black" stroke-dasharray="1,5" d="M322.955,-787.985C286.854,-795.975 221.721,-810.39 172.211,-821.347"/>
<polygon fill="none" stroke="black" points="171.223,-817.981 162.215,-823.559 172.736,-824.815 171.223,-817.981"/>
</g>
<!-- \\Countable -->
<g id="node42" class="node"><title>\\Countable</title>
<ellipse fill="none" stroke="black" cx="106" cy="-782" rx="67.8823" ry="18.3848"/>
<text text-anchor="middle" x="106" y="-778.4" font-family="Times Roman,serif" font-size="14.00" fill="gray">\\Countable</text>
</g>
<!-- \\Aura\\Marshal\\Data&#45;&gt;\\Countable -->
<g id="edge30" class="edge"><title>\\Aura\\Marshal\\Data&#45;&gt;\\Countable</title>
<path fill="none" stroke="black" stroke-dasharray="1,5" d="M322.955,-782C289.779,-782 232.085,-782 184.53,-782"/>
<polygon fill="none" stroke="black" points="184.239,-778.5 174.239,-782 184.239,-785.5 184.239,-778.5"/>
</g>
<!-- \\IteratorAggregate -->
<g id="node44" class="node"><title>\\IteratorAggregate</title>
<ellipse fill="none" stroke="black" cx="106" cy="-728" rx="106.066" ry="18.3848"/>
<text text-anchor="middle" x="106" y="-724.4" font-family="Times Roman,serif" font-size="14.00" fill="gray">\\IteratorAggregate</text>
</g>
<!-- \\Aura\\Marshal\\Data&#45;&gt;\\IteratorAggregate -->
<g id="edge32" class="edge"><title>\\Aura\\Marshal\\Data&#45;&gt;\\IteratorAggregate</title>
<path fill="none" stroke="black" stroke-dasharray="1,5" d="M322.955,-776.015C288.827,-768.462 228.755,-755.167 180.463,-744.48"/>
<polygon fill="none" stroke="black" points="181.182,-741.054 170.662,-742.31 179.669,-747.889 181.182,-741.054"/>
</g>
<!-- \\Aura\\Marshal\\DataIterator -->
<g id="node24" class="node"><title>\\Aura\\Marshal\\DataIterator</title>
<a xlink:href="db_src_Aura_Marshal_DataIterator.html" xlink:title="DataIterator" target="_parent">
<polygon fill="none" stroke="black" points="603,-204 505,-204 505,-168 603,-168 603,-204"/>
<text text-anchor="middle" x="554" y="-183.1" font-family="Courier New" font-size="11.00">DataIterator</text>
</a>
</g>
<!-- \\Iterator -->
<g id="node46" class="node"><title>\\Iterator</title>
<ellipse fill="none" stroke="black" cx="350" cy="-72" rx="55.8614" ry="18.3848"/>
<text text-anchor="middle" x="350" y="-68.4" font-family="Times Roman,serif" font-size="14.00" fill="gray">\\Iterator</text>
</g>
<!-- \\Aura\\Marshal\\DataIterator&#45;&gt;\\Iterator -->
<g id="edge34" class="edge"><title>\\Aura\\Marshal\\DataIterator&#45;&gt;\\Iterator</title>
<path fill="none" stroke="black" stroke-dasharray="1,5" d="M507.026,-167.967C500.553,-165.14 494.054,-162.117 488,-159 450.054,-139.466 408.965,-112.784 381.581,-94.1372"/>
<polygon fill="none" stroke="black" points="383.419,-91.1541 373.193,-88.3848 379.46,-96.927 383.419,-91.1541"/>
</g>
<!-- \\Aura\\Marshal\\Exception -->
<g id="node25" class="node"><title>\\Aura\\Marshal\\Exception</title>
<a xlink:href="db_src_Aura_Marshal_Exception.html" xlink:title="Exception" target="_parent">
<polygon fill="none" stroke="black" points="592,-150 516,-150 516,-114 592,-114 592,-150"/>
<text text-anchor="middle" x="554" y="-129.1" font-family="Courier New" font-size="11.00">Exception</text>
</a>
</g>
<!-- \\Exception -->
<g id="node38" class="node"><title>\\Exception</title>
<ellipse fill="none" stroke="black" cx="350" cy="-18" rx="62.9325" ry="18.3848"/>
<text text-anchor="middle" x="350" y="-14.4" font-family="Times Roman,serif" font-size="14.00" fill="gray">\Exception</text>
</g>
<!-- \\Aura\\Marshal\\Exception&#45;&gt;\\Exception -->
<g id="edge26" class="edge"><title>\\Aura\\Marshal\\Exception&#45;&gt;\\Exception</title>
<path fill="none" stroke="black" d="M528.346,-113.919C501.22,-95.2613 456.794,-66.0001 416,-45 410.293,-42.0623 404.191,-39.2072 398.088,-36.5216"/>
<polygon fill="none" stroke="black" points="399.124,-33.1585 388.553,-32.4535 396.377,-39.597 399.124,-33.1585"/>
</g>
</g>
</svg>
