<?xml version="1.0" encoding="UTF-8" standalone="no"?>
<!DOCTYPE svg PUBLIC "-//W3C//DTD SVG 1.1//EN"
 "http://www.w3.org/Graphics/SVG/1.1/DTD/svg11.dtd">
<!-- Generated by graphviz version 2.26.3 (20100126.1600)
 -->
<!-- Title: G Pages: 1 -->
<svg width="858pt" height="1420pt"
 viewBox="0.00 0.00 858.00 1420.00" xmlns="http://www.w3.org/2000/svg" xmlns:xlink="http://www.w3.org/1999/xlink">
<g id="graph1" class="graph" transform="scale(1 1) rotate(0) translate(4 1416)">
<title>G</title>
<polygon fill="white" stroke="white" points="-4,5 -4,-1416 855,-1416 855,5 -4,5"/>
<g id="graph2" class="cluster"><title>cluster_Aura</title>
<polyline fill="none" stroke="gray" points="371,-152 830,-152 "/>
<path fill="none" stroke="gray" d="M830,-152C836,-152 842,-158 842,-164"/>
<polyline fill="none" stroke="gray" points="842,-164 842,-1392 "/>
<path fill="none" stroke="gray" d="M842,-1392C842,-1398 836,-1404 830,-1404"/>
<polyline fill="none" stroke="gray" points="830,-1404 371,-1404 "/>
<path fill="none" stroke="gray" d="M371,-1404C365,-1404 359,-1398 359,-1392"/>
<polyline fill="none" stroke="gray" points="359,-1392 359,-164 "/>
<path fill="none" stroke="gray" d="M359,-164C359,-158 365,-152 371,-152"/>
<text text-anchor="middle" x="600.5" y="-1390.1" font-family="Times Roman,serif" font-size="11.00" fill="gray">Aura</text>
</g>
<g id="graph3" class="cluster"><title>cluster_Aura\Marshal</title>
<polyline fill="none" stroke="gray" points="379,-160 822,-160 "/>
<path fill="none" stroke="gray" d="M822,-160C828,-160 834,-166 834,-172"/>
<polyline fill="none" stroke="gray" points="834,-172 834,-1362 "/>
<path fill="none" stroke="gray" d="M834,-1362C834,-1368 828,-1374 822,-1374"/>
<polyline fill="none" stroke="gray" points="822,-1374 379,-1374 "/>
<path fill="none" stroke="gray" d="M379,-1374C373,-1374 367,-1368 367,-1362"/>
<polyline fill="none" stroke="gray" points="367,-1362 367,-172 "/>
<path fill="none" stroke="gray" d="M367,-172C367,-166 373,-160 379,-160"/>
<text text-anchor="middle" x="600.5" y="-1360.1" font-family="Times Roman,serif" font-size="11.00" fill="gray">Marshal</text>
</g>
<g id="graph4" class="cluster"><title>cluster_Aura\Marshal\Collection</title>
<polyline fill="none" stroke="gray" points="390,-1216 814,-1216 "/>
<path fill="none" stroke="gray" d="M814,-1216C820,-1216 826,-1222 826,-1228"/>
<polyline fill="none" stroke="gray" points="826,-1228 826,-1332 "/>
<path fill="none" stroke="gray" d="M826,-1332C826,-1338 820,-1344 814,-1344"/>
<polyline fill="none" stroke="gray" points="814,-1344 390,-1344 "/>
<path fill="none" stroke="gray" d="M390,-1344C384,-1344 378,-1338 378,-1332"/>
<polyline fill="none" stroke="gray" points="378,-1332 378,-1228 "/>
<path fill="none" stroke="gray" d="M378,-1228C378,-1222 384,-1216 390,-1216"/>
<text text-anchor="middle" x="602" y="-1330.1" font-family="Times Roman,serif" font-size="11.00" fill="gray">Collection</text>
</g>
<g id="graph5" class="cluster"><title>cluster_Aura\Marshal\Record</title>
<polyline fill="none" stroke="gray" points="390,-944 800,-944 "/>
<path fill="none" stroke="gray" d="M800,-944C806,-944 812,-950 812,-956"/>
<polyline fill="none" stroke="gray" points="812,-956 812,-1060 "/>
<path fill="none" stroke="gray" d="M812,-1060C812,-1066 806,-1072 800,-1072"/>
<polyline fill="none" stroke="gray" points="800,-1072 390,-1072 "/>
<path fill="none" stroke="gray" d="M390,-1072C384,-1072 378,-1066 378,-1060"/>
<polyline fill="none" stroke="gray" points="378,-1060 378,-956 "/>
<path fill="none" stroke="gray" d="M378,-956C378,-950 384,-944 390,-944"/>
<text text-anchor="middle" x="595" y="-1058.1" font-family="Times Roman,serif" font-size="11.00" fill="gray">Record</text>
</g>
<g id="graph6" class="cluster"><title>cluster_Aura\Marshal\Relation</title>
<polyline fill="none" stroke="gray" points="387,-646 804,-646 "/>
<path fill="none" stroke="gray" d="M804,-646C810,-646 816,-652 816,-658"/>
<polyline fill="none" stroke="gray" points="816,-658 816,-924 "/>
<path fill="none" stroke="gray" d="M816,-924C816,-930 810,-936 804,-936"/>
<polyline fill="none" stroke="gray" points="804,-936 387,-936 "/>
<path fill="none" stroke="gray" d="M387,-936C381,-936 375,-930 375,-924"/>
<polyline fill="none" stroke="gray" points="375,-924 375,-658 "/>
<path fill="none" stroke="gray" d="M375,-658C375,-652 381,-646 387,-646"/>
<text text-anchor="middle" x="595.5" y="-922.1" font-family="Times Roman,serif" font-size="11.00" fill="gray">Relation</text>
</g>
<g id="graph7" class="cluster"><title>cluster_Aura\Marshal\Type</title>
<polyline fill="none" stroke="gray" points="710,-1080 794,-1080 "/>
<path fill="none" stroke="gray" d="M794,-1080C800,-1080 806,-1086 806,-1092"/>
<polyline fill="none" stroke="gray" points="806,-1092 806,-1196 "/>
<path fill="none" stroke="gray" d="M806,-1196C806,-1202 800,-1208 794,-1208"/>
<polyline fill="none" stroke="gray" points="794,-1208 710,-1208 "/>
<path fill="none" stroke="gray" d="M710,-1208C704,-1208 698,-1202 698,-1196"/>
<polyline fill="none" stroke="gray" points="698,-1196 698,-1092 "/>
<path fill="none" stroke="gray" d="M698,-1092C698,-1086 704,-1080 710,-1080"/>
<text text-anchor="middle" x="752" y="-1194.1" font-family="Times Roman,serif" font-size="11.00" fill="gray">Type</text>
</g>
<!-- \\Aura\\Marshal\\Collection\\GenericCollection -->
<g id="node4" class="node"><title>\\Aura\\Marshal\\Collection\\GenericCollection</title>
<a xlink:href="db_src_Collection_GenericCollection.html" xlink:title="GenericCollection" target="_parent">
<polygon fill="none" stroke="black" points="817,-1260 687,-1260 687,-1224 817,-1224 817,-1260"/>
<text text-anchor="middle" x="752" y="-1239.1" font-family="Courier New" font-size="11.00">GenericCollection</text>
</a>
</g>
<!-- \\Aura\\Marshal\\Data -->
<g id="node29" class="node"><title>\\Aura\\Marshal\\Data</title>
<a xlink:href="db_src_Data.html" xlink:title="Data" target="_parent">
<polygon fill="none" stroke="black" points="476,-1178 422,-1178 422,-1142 476,-1142 476,-1178"/>
<text text-anchor="middle" x="449" y="-1157.1" font-family="Courier New" font-size="11.00">Data</text>
</a>
</g>
<!-- \\Aura\\Marshal\\Collection\\GenericCollection&#45;&gt;\\Aura\\Marshal\\Data -->
<g id="edge25" class="edge"><title>\\Aura\\Marshal\\Collection\\GenericCollection&#45;&gt;\\Aura\\Marshal\\Data</title>
<path fill="none" stroke="black" d="M686.254,-1224.21C624.865,-1207.59 535.467,-1183.4 485.781,-1169.95"/>
<polygon fill="none" stroke="black" points="486.667,-1166.57 476.1,-1167.33 484.838,-1173.32 486.667,-1166.57"/>
</g>
<!-- \\Aura\\Marshal\\Collection\\BuilderInterface -->
<g id="node5" class="node"><title>\\Aura\\Marshal\\Collection\\BuilderInterface</title>
<a xlink:href="db_src_Collection_BuilderInterface.html" xlink:title="BuilderInterface" target="_parent">
<polygon fill="none" stroke="black" points="511,-1314 387,-1314 387,-1278 511,-1278 511,-1314"/>
<text text-anchor="middle" x="449" y="-1293.1" font-family="Courier New" font-size="11.00">BuilderInterface</text>
</a>
</g>
<!-- \\Aura\\Marshal\\Collection\\Builder -->
<g id="node6" class="node"><title>\\Aura\\Marshal\\Collection\\Builder</title>
<a xlink:href="db_src_Collection_Builder.html" xlink:title="Builder" target="_parent">
<polygon fill="none" stroke="black" points="784,-1314 720,-1314 720,-1278 784,-1278 784,-1314"/>
<text text-anchor="middle" x="752" y="-1293.1" font-family="Courier New" font-size="11.00">Builder</text>
</a>
</g>
<!-- \\Aura\\Marshal\\Collection\\Builder&#45;&gt;\\Aura\\Marshal\\Collection\\BuilderInterface -->
<g id="edge49" class="edge"><title>\\Aura\\Marshal\\Collection\\Builder&#45;&gt;\\Aura\\Marshal\\Collection\\BuilderInterface</title>
<path fill="none" stroke="black" stroke-dasharray="1,5" d="M719.861,-1296C673.116,-1296 585.084,-1296 522.061,-1296"/>
<polygon fill="none" stroke="black" points="521.779,-1292.5 511.779,-1296 521.779,-1299.5 521.779,-1292.5"/>
</g>
<!-- \\Aura\\Marshal\\Record\\BuilderInterface -->
<g id="node8" class="node"><title>\\Aura\\Marshal\\Record\\BuilderInterface</title>
<a xlink:href="db_src_Record_BuilderInterface.html" xlink:title="BuilderInterface" target="_parent">
<polygon fill="none" stroke="black" points="511,-988 387,-988 387,-952 511,-952 511,-988"/>
<text text-anchor="middle" x="449" y="-967.1" font-family="Courier New" font-size="11.00">BuilderInterface</text>
</a>
</g>
<!-- \\Aura\\Marshal\\Record\\Builder -->
<g id="node9" class="node"><title>\\Aura\\Marshal\\Record\\Builder</title>
<a xlink:href="db_src_Record_Builder.html" xlink:title="Builder" target="_parent">
<polygon fill="none" stroke="black" points="784,-988 720,-988 720,-952 784,-952 784,-988"/>
<text text-anchor="middle" x="752" y="-967.1" font-family="Courier New" font-size="11.00">Builder</text>
</a>
</g>
<!-- \\Aura\\Marshal\\Record\\Builder&#45;&gt;\\Aura\\Marshal\\Record\\BuilderInterface -->
<g id="edge51" class="edge"><title>\\Aura\\Marshal\\Record\\Builder&#45;&gt;\\Aura\\Marshal\\Record\\BuilderInterface</title>
<path fill="none" stroke="black" stroke-dasharray="1,5" d="M719.861,-970C673.116,-970 585.084,-970 522.061,-970"/>
<polygon fill="none" stroke="black" points="521.779,-966.5 511.779,-970 521.779,-973.5 521.779,-966.5"/>
</g>
<!-- \\Aura\\Marshal\\Record\\GenericRecord -->
<g id="node10" class="node"><title>\\Aura\\Marshal\\Record\\GenericRecord</title>
<a xlink:href="db_src_Record_GenericRecord.html" xlink:title="GenericRecord" target="_parent">
<polygon fill="none" stroke="black" points="804,-1042 700,-1042 700,-1006 804,-1006 804,-1042"/>
<text text-anchor="middle" x="752" y="-1021.1" font-family="Courier New" font-size="11.00">GenericRecord</text>
</a>
</g>
<!-- \\Aura\\Marshal\\Record\\GenericRecord&#45;&gt;\\Aura\\Marshal\\Data -->
<g id="edge27" class="edge"><title>\\Aura\\Marshal\\Record\\GenericRecord&#45;&gt;\\Aura\\Marshal\\Data</title>
<path fill="none" stroke="black" d="M711.764,-1042.06C652.567,-1068.63 542.86,-1117.87 485.733,-1143.51"/>
<polygon fill="none" stroke="black" points="484.056,-1140.43 476.366,-1147.72 486.922,-1146.82 484.056,-1140.43"/>
</g>
<!-- \\Aura\\Marshal\\Relation\\HasManyThrough -->
<g id="node12" class="node"><title>\\Aura\\Marshal\\Relation\\HasManyThrough</title>
<a xlink:href="db_src_Relation_HasManyThrough.html" xlink:title="HasManyThrough" target="_parent">
<polygon fill="none" stroke="black" points="807,-906 697,-906 697,-870 807,-870 807,-906"/>
<text text-anchor="middle" x="752" y="-885.1" font-family="Courier New" font-size="11.00">HasManyThrough</text>
</a>
</g>
<!-- \\Aura\\Marshal\\Relation\\RelationInterface -->
<g id="node16" class="node"><title>\\Aura\\Marshal\\Relation\\RelationInterface</title>
<a xlink:href="db_src_Relation_RelationInterface.html" xlink:title="RelationInterface" target="_parent">
<polygon fill="none" stroke="black" points="514,-744 384,-744 384,-708 514,-708 514,-744"/>
<text text-anchor="middle" x="449" y="-723.1" font-family="Courier New" font-size="11.00">RelationInterface</text>
</a>
</g>
<!-- \\Aura\\Marshal\\Relation\\HasManyThrough&#45;&gt;\\Aura\\Marshal\\Relation\\RelationInterface -->
<g id="edge53" class="edge"><title>\\Aura\\Marshal\\Relation\\HasManyThrough&#45;&gt;\\Aura\\Marshal\\Relation\\RelationInterface</title>
<path fill="none" stroke="black" stroke-dasharray="1,5" d="M699.184,-869.843C694.506,-867.23 690.025,-864.292 686,-861 641.345,-824.477 662.49,-784.252 614,-753 587.919,-736.191 554.849,-728.712 525.175,-725.702"/>
<polygon fill="none" stroke="black" points="525.1,-722.183 514.838,-724.816 524.502,-729.157 525.1,-722.183"/>
</g>
<!-- \\Aura\\Marshal\\Relation\\AbstractRelation -->
<g id="node17" class="node"><title>\\Aura\\Marshal\\Relation\\AbstractRelation</title>
<a xlink:href="db_src_Relation_AbstractRelation.html" xlink:title="«abstract»&lt;br/&gt;AbstractRelation" target="_parent">
<polygon fill="none" stroke="black" points="512,-798 386,-798 386,-762 512,-762 512,-798"/>
<text text-anchor="start" x="415" y="-785.433" font-family="Courier New" font-size="11.00">«abstract»</text>
<text text-anchor="start" x="394.5" y="-772.233" font-family="Courier New" font-size="11.00">AbstractRelation</text>
</a>
</g>
<!-- \\Aura\\Marshal\\Relation\\HasManyThrough&#45;&gt;\\Aura\\Marshal\\Relation\\AbstractRelation -->
<g id="edge29" class="edge"><title>\\Aura\\Marshal\\Relation\\HasManyThrough&#45;&gt;\\Aura\\Marshal\\Relation\\AbstractRelation</title>
<path fill="none" stroke="black" d="M701.285,-869.923C648.332,-851.049 565.315,-821.459 509.104,-801.423"/>
<polygon fill="none" stroke="black" points="510.223,-798.106 499.628,-798.046 507.872,-804.7 510.223,-798.106"/>
</g>
<!-- \\Aura\\Marshal\\Relation\\Builder -->
<g id="node13" class="node"><title>\\Aura\\Marshal\\Relation\\Builder</title>
<a xlink:href="db_src_Relation_Builder.html" xlink:title="Builder" target="_parent">
<polygon fill="none" stroke="black" points="784,-852 720,-852 720,-816 784,-816 784,-852"/>
<text text-anchor="middle" x="752" y="-831.1" font-family="Courier New" font-size="11.00">Builder</text>
</a>
</g>
<!-- \\Aura\\Marshal\\Relation\\HasOne -->
<g id="node14" class="node"><title>\\Aura\\Marshal\\Relation\\HasOne</title>
<a xlink:href="db_src_Relation_HasOne.html" xlink:title="HasOne" target="_parent">
<polygon fill="none" stroke="black" points="780,-744 724,-744 724,-708 780,-708 780,-744"/>
<text text-anchor="middle" x="752" y="-723.1" font-family="Courier New" font-size="11.00">HasOne</text>
</a>
</g>
<!-- \\Aura\\Marshal\\Relation\\HasOne&#45;&gt;\\Aura\\Marshal\\Relation\\RelationInterface -->
<g id="edge55" class="edge"><title>\\Aura\\Marshal\\Relation\\HasOne&#45;&gt;\\Aura\\Marshal\\Relation\\RelationInterface</title>
<path fill="none" stroke="black" stroke-dasharray="1,5" d="M723.494,-726C678.466,-726 589.377,-726 524.879,-726"/>
<polygon fill="none" stroke="black" points="524.749,-722.5 514.749,-726 524.749,-729.5 524.749,-722.5"/>
</g>
<!-- \\Aura\\Marshal\\Relation\\HasOne&#45;&gt;\\Aura\\Marshal\\Relation\\AbstractRelation -->
<g id="edge31" class="edge"><title>\\Aura\\Marshal\\Relation\\HasOne&#45;&gt;\\Aura\\Marshal\\Relation\\AbstractRelation</title>
<path fill="none" stroke="black" d="M723.239,-731.897C695.357,-737.55 651.844,-746.203 614,-753 583.971,-758.393 550.786,-763.909 522.099,-768.538"/>
<polygon fill="none" stroke="black" points="521.469,-765.094 512.152,-770.137 522.58,-772.005 521.469,-765.094"/>
</g>
<!-- \\Aura\\Marshal\\Relation\\BelongsTo -->
<g id="node15" class="node"><title>\\Aura\\Marshal\\Relation\\BelongsTo</title>
<a xlink:href="db_src_Relation_BelongsTo.html" xlink:title="BelongsTo" target="_parent">
<polygon fill="none" stroke="black" points="790,-690 714,-690 714,-654 790,-654 790,-690"/>
<text text-anchor="middle" x="752" y="-669.1" font-family="Courier New" font-size="11.00">BelongsTo</text>
</a>
</g>
<!-- \\Aura\\Marshal\\Relation\\BelongsTo&#45;&gt;\\Aura\\Marshal\\Relation\\RelationInterface -->
<g id="edge57" class="edge"><title>\\Aura\\Marshal\\Relation\\BelongsTo&#45;&gt;\\Aura\\Marshal\\Relation\\RelationInterface</title>
<path fill="none" stroke="black" stroke-dasharray="1,5" d="M713.244,-682.029C685.698,-688.901 647.753,-697.851 614,-704 585.007,-709.282 552.93,-713.847 524.827,-717.428"/>
<polygon fill="none" stroke="black" points="524.153,-713.985 514.666,-718.702 525.024,-720.93 524.153,-713.985"/>
</g>
<!-- \\Aura\\Marshal\\Relation\\BelongsTo&#45;&gt;\\Aura\\Marshal\\Relation\\AbstractRelation -->
<g id="edge33" class="edge"><title>\\Aura\\Marshal\\Relation\\BelongsTo&#45;&gt;\\Aura\\Marshal\\Relation\\AbstractRelation</title>
<path fill="none" stroke="black" d="M713.177,-685.954C704.049,-689.757 694.507,-694.175 686,-699 651.206,-718.733 650.798,-737.318 614,-753 585.336,-765.215 551.699,-771.934 522.3,-775.618"/>
<polygon fill="none" stroke="black" points="521.625,-772.172 512.093,-776.798 522.429,-779.126 521.625,-772.172"/>
</g>
<!-- \\Aura\\Marshal\\Relation\\HasMany -->
<g id="node18" class="node"><title>\\Aura\\Marshal\\Relation\\HasMany</title>
<a xlink:href="db_src_Relation_HasMany.html" xlink:title="HasMany" target="_parent">
<polygon fill="none" stroke="black" points="784,-798 720,-798 720,-762 784,-762 784,-798"/>
<text text-anchor="middle" x="752" y="-777.1" font-family="Courier New" font-size="11.00">HasMany</text>
</a>
</g>
<!-- \\Aura\\Marshal\\Relation\\HasMany&#45;&gt;\\Aura\\Marshal\\Relation\\RelationInterface -->
<g id="edge59" class="edge"><title>\\Aura\\Marshal\\Relation\\HasMany&#45;&gt;\\Aura\\Marshal\\Relation\\RelationInterface</title>
<path fill="none" stroke="black" stroke-dasharray="1,5" d="M719.986,-773.444C692.05,-767.794 650.403,-759.538 614,-753 584.866,-747.767 552.76,-742.419 524.674,-737.878"/>
<polygon fill="none" stroke="black" points="524.95,-734.377 514.521,-736.243 523.837,-741.288 524.95,-734.377"/>
</g>
<!-- \\Aura\\Marshal\\Relation\\HasMany&#45;&gt;\\Aura\\Marshal\\Relation\\AbstractRelation -->
<g id="edge35" class="edge"><title>\\Aura\\Marshal\\Relation\\HasMany&#45;&gt;\\Aura\\Marshal\\Relation\\AbstractRelation</title>
<path fill="none" stroke="black" d="M719.861,-780C673.188,-780 585.356,-780 522.353,-780"/>
<polygon fill="none" stroke="black" points="522.073,-776.5 512.073,-780 522.073,-783.5 522.073,-776.5"/>
</g>
<!-- \\Aura\\Marshal\\Type\\GenericType -->
<g id="node20" class="node"><title>\\Aura\\Marshal\\Type\\GenericType</title>
<a xlink:href="db_src_Type_GenericType.html" xlink:title="GenericType" target="_parent">
<polygon fill="none" stroke="black" points="797,-1178 707,-1178 707,-1142 797,-1142 797,-1178"/>
<text text-anchor="middle" x="752" y="-1157.1" font-family="Courier New" font-size="11.00">GenericType</text>
</a>
</g>
<!-- \\Aura\\Marshal\\Type\\GenericType&#45;&gt;\\Aura\\Marshal\\Data -->
<g id="edge37" class="edge"><title>\\Aura\\Marshal\\Type\\GenericType&#45;&gt;\\Aura\\Marshal\\Data</title>
<path fill="none" stroke="black" d="M706.31,-1160C646.203,-1160 541.715,-1160 486.183,-1160"/>
<polygon fill="none" stroke="black" points="486.081,-1156.5 476.081,-1160 486.081,-1163.5 486.081,-1156.5"/>
</g>
<!-- \\Aura\\Marshal\\Type\\Builder -->
<g id="node21" class="node"><title>\\Aura\\Marshal\\Type\\Builder</title>
<a xlink:href="db_src_Type_Builder.html" xlink:title="Builder" target="_parent">
<polygon fill="none" stroke="black" points="784,-1124 720,-1124 720,-1088 784,-1088 784,-1124"/>
<text text-anchor="middle" x="752" y="-1103.1" font-family="Courier New" font-size="11.00">Builder</text>
</a>
</g>
<!-- \\Aura\\Marshal\\TypeTest -->
<g id="node22" class="node"><title>\\Aura\\Marshal\\TypeTest</title>
<a xlink:href="db_tests_TypeTest.html" xlink:title="TypeTest" target="_parent">
<polygon fill="none" stroke="black" points="787,-582 717,-582 717,-546 787,-546 787,-582"/>
<text text-anchor="middle" x="752" y="-561.1" font-family="Courier New" font-size="11.00">TypeTest</text>
</a>
</g>
<!-- \\PHPUnit_Framework_TestCase -->
<g id="node38" class="node"><title>\\PHPUnit_Framework_TestCase</title>
<ellipse fill="none" stroke="black" cx="449" cy="-126" rx="164.756" ry="18.3848"/>
<text text-anchor="middle" x="449" y="-122.4" font-family="Times Roman,serif" font-size="14.00" fill="gray">\PHPUnit_Framework_TestCase</text>
</g>
<!-- \\Aura\\Marshal\\TypeTest&#45;&gt;\\PHPUnit_Framework_TestCase -->
<g id="edge13" class="edge"><title>\\Aura\\Marshal\\TypeTest&#45;&gt;\\PHPUnit_Framework_TestCase</title>
<path fill="none" stroke="black" d="M716.348,-554.313C705.752,-550.209 694.671,-544.575 686,-537 558.293,-425.438 482.713,-227.503 458.012,-154.269"/>
<polygon fill="none" stroke="black" points="461.207,-152.784 454.737,-144.394 454.563,-154.987 461.207,-152.784"/>
</g>
<!-- \\Aura\\Marshal\\RelationTest -->
<g id="node23" class="node"><title>\\Aura\\Marshal\\RelationTest</title>
<a xlink:href="db_tests_RelationTest.html" xlink:title="RelationTest" target="_parent">
<polygon fill="none" stroke="black" points="801,-528 703,-528 703,-492 801,-492 801,-528"/>
<text text-anchor="middle" x="752" y="-507.1" font-family="Courier New" font-size="11.00">RelationTest</text>
</a>
</g>
<!-- \\Aura\\Marshal\\RelationTest&#45;&gt;\\PHPUnit_Framework_TestCase -->
<g id="edge15" class="edge"><title>\\Aura\\Marshal\\RelationTest&#45;&gt;\\PHPUnit_Framework_TestCase</title>
<path fill="none" stroke="black" d="M702.889,-493.838C696.877,-490.753 691.075,-487.159 686,-483 569.425,-387.465 488.928,-219.547 460.418,-153.65"/>
<polygon fill="none" stroke="black" points="463.585,-152.155 456.44,-144.332 457.147,-154.903 463.585,-152.155"/>
</g>
<!-- \\Aura\\Marshal\\DataTest -->
<g id="node24" class="node"><title>\\Aura\\Marshal\\DataTest</title>
<a xlink:href="db_tests_DataTest.html" xlink:title="DataTest" target="_parent">
<polygon fill="none" stroke="black" points="787,-474 717,-474 717,-438 787,-438 787,-474"/>
<text text-anchor="middle" x="752" y="-453.1" font-family="Courier New" font-size="11.00">DataTest</text>
</a>
</g>
<!-- \\Aura\\Marshal\\DataTest&#45;&gt;\\PHPUnit_Framework_TestCase -->
<g id="edge17" class="edge"><title>\\Aura\\Marshal\\DataTest&#45;&gt;\\PHPUnit_Framework_TestCase</title>
<path fill="none" stroke="black" d="M716.287,-445.28C705.921,-441.173 694.984,-435.797 686,-429 580.304,-349.038 496.057,-210.964 463.521,-152.929"/>
<polygon fill="none" stroke="black" points="466.483,-151.053 458.573,-144.004 460.361,-154.447 466.483,-151.053"/>
</g>
<!-- \\Aura\\Marshal\\RecordTest -->
<g id="node25" class="node"><title>\\Aura\\Marshal\\RecordTest</title>
<a xlink:href="db_tests_RecordTest.html" xlink:title="RecordTest" target="_parent">
<polygon fill="none" stroke="black" points="794,-420 710,-420 710,-384 794,-384 794,-420"/>
<text text-anchor="middle" x="752" y="-399.1" font-family="Courier New" font-size="11.00">RecordTest</text>
</a>
</g>
<!-- \\Aura\\Marshal\\RecordTest&#45;&gt;\\PHPUnit_Framework_TestCase -->
<g id="edge19" class="edge"><title>\\Aura\\Marshal\\RecordTest&#45;&gt;\\PHPUnit_Framework_TestCase</title>
<path fill="none" stroke="black" d="M709.786,-387.845C701.568,-384.242 693.259,-379.957 686,-375 591.157,-310.225 504.977,-202.125 468.032,-152.443"/>
<polygon fill="none" stroke="black" points="470.669,-150.122 461.919,-144.148 465.034,-154.275 470.669,-150.122"/>
</g>
<!-- \\Aura\\Marshal\\ManagerTest -->
<g id="node26" class="node"><title>\\Aura\\Marshal\\ManagerTest</title>
<a xlink:href="db_tests_ManagerTest.html" xlink:title="ManagerTest" target="_parent">
<polygon fill="none" stroke="black" points="797,-366 707,-366 707,-330 797,-330 797,-366"/>
<text text-anchor="middle" x="752" y="-345.1" font-family="Courier New" font-size="11.00">ManagerTest</text>
</a>
</g>
<!-- \\Aura\\Marshal\\ManagerTest&#45;&gt;\\PHPUnit_Framework_TestCase -->
<g id="edge21" class="edge"><title>\\Aura\\Marshal\\ManagerTest&#45;&gt;\\PHPUnit_Framework_TestCase</title>
<path fill="none" stroke="black" d="M706.392,-331.452C699.391,-328.315 692.377,-324.809 686,-321 601.378,-270.459 515.301,-191.14 474.058,-151.023"/>
<polygon fill="none" stroke="black" points="476.484,-148.5 466.889,-144.005 471.586,-153.501 476.484,-148.5"/>
</g>
<!-- \\Aura\\Marshal\\CollectionTest -->
<g id="node27" class="node"><title>\\Aura\\Marshal\\CollectionTest</title>
<a xlink:href="db_tests_CollectionTest.html" xlink:title="CollectionTest" target="_parent">
<polygon fill="none" stroke="black" points="807,-636 697,-636 697,-600 807,-600 807,-636"/>
<text text-anchor="middle" x="752" y="-615.1" font-family="Courier New" font-size="11.00">CollectionTest</text>
</a>
</g>
<!-- \\Aura\\Marshal\\CollectionTest&#45;&gt;\\PHPUnit_Framework_TestCase -->
<g id="edge23" class="edge"><title>\\Aura\\Marshal\\CollectionTest&#45;&gt;\\PHPUnit_Framework_TestCase</title>
<path fill="none" stroke="black" d="M698.113,-599.933C693.76,-597.318 689.644,-594.353 686,-591 546.575,-462.697 476.793,-233.739 455.908,-154.171"/>
<polygon fill="none" stroke="black" points="459.27,-153.193 453.388,-144.38 452.491,-154.937 459.27,-153.193"/>
</g>
<!-- \\Aura\\Marshal\\Manager -->
<g id="node28" class="node"><title>\\Aura\\Marshal\\Manager</title>
<a xlink:href="db_src_Manager.html" xlink:title="Manager" target="_parent">
<polygon fill="none" stroke="black" points="784,-312 720,-312 720,-276 784,-276 784,-312"/>
<text text-anchor="middle" x="752" y="-291.1" font-family="Courier New" font-size="11.00">Manager</text>
</a>
</g>
<!-- \\ArrayAccess -->
<g id="node54" class="node"><title>\\ArrayAccess</title>
<ellipse fill="none" stroke="black" cx="106" cy="-1214" rx="77.0746" ry="18.3848"/>
<text text-anchor="middle" x="106" y="-1210.4" font-family="Times Roman,serif" font-size="14.00" fill="gray">\\ArrayAccess</text>
</g>
<!-- \\Aura\\Marshal\\Data&#45;&gt;\\ArrayAccess -->
<g id="edge41" class="edge"><title>\\Aura\\Marshal\\Data&#45;&gt;\\ArrayAccess</title>
<path fill="none" stroke="black" stroke-dasharray="1,5" d="M421.799,-1164.28C370.089,-1172.42 255.997,-1190.39 180.056,-1202.34"/>
<polygon fill="none" stroke="black" points="179.401,-1198.9 170.067,-1203.91 180.49,-1205.82 179.401,-1198.9"/>
</g>
<!-- \\Countable -->
<g id="node56" class="node"><title>\\Countable</title>
<ellipse fill="none" stroke="black" cx="106" cy="-1160" rx="67.8823" ry="18.3848"/>
<text text-anchor="middle" x="106" y="-1156.4" font-family="Times Roman,serif" font-size="14.00" fill="gray">\\Countable</text>
</g>
<!-- \\Aura\\Marshal\\Data&#45;&gt;\\Countable -->
<g id="edge43" class="edge"><title>\\Aura\\Marshal\\Data&#45;&gt;\\Countable</title>
<path fill="none" stroke="black" stroke-dasharray="1,5" d="M421.799,-1160C370.998,-1160 259.993,-1160 184.099,-1160"/>
<polygon fill="none" stroke="black" points="184.098,-1156.5 174.098,-1160 184.098,-1163.5 184.098,-1156.5"/>
</g>
<!-- \\IteratorAggregate -->
<g id="node58" class="node"><title>\\IteratorAggregate</title>
<ellipse fill="none" stroke="black" cx="106" cy="-1106" rx="106.066" ry="18.3848"/>
<text text-anchor="middle" x="106" y="-1102.4" font-family="Times Roman,serif" font-size="14.00" fill="gray">\\IteratorAggregate</text>
</g>
<!-- \\Aura\\Marshal\\Data&#45;&gt;\\IteratorAggregate -->
<g id="edge45" class="edge"><title>\\Aura\\Marshal\\Data&#45;&gt;\\IteratorAggregate</title>
<path fill="none" stroke="black" stroke-dasharray="1,5" d="M421.799,-1155.72C373.121,-1148.05 269.166,-1131.69 193.791,-1119.82"/>
<polygon fill="none" stroke="black" points="194.242,-1116.35 183.819,-1118.25 193.153,-1123.26 194.242,-1116.35"/>
</g>
<!-- \\Aura\\Marshal\\DataIterator -->
<g id="node30" class="node"><title>\\Aura\\Marshal\\DataIterator</title>
<a xlink:href="db_src_DataIterator.html" xlink:title="DataIterator" target="_parent">
<polygon fill="none" stroke="black" points="801,-258 703,-258 703,-222 801,-222 801,-258"/>
<text text-anchor="middle" x="752" y="-237.1" font-family="Courier New" font-size="11.00">DataIterator</text>
</a>
</g>
<!-- \\Iterator -->
<g id="node60" class="node"><title>\\Iterator</title>
<ellipse fill="none" stroke="black" cx="449" cy="-72" rx="55.8614" ry="18.3848"/>
<text text-anchor="middle" x="449" y="-68.4" font-family="Times Roman,serif" font-size="14.00" fill="gray">\\Iterator</text>
</g>
<!-- \\Aura\\Marshal\\DataIterator&#45;&gt;\\Iterator -->
<g id="edge47" class="edge"><title>\\Aura\\Marshal\\DataIterator&#45;&gt;\\Iterator</title>
<path fill="none" stroke="black" stroke-dasharray="1,5" d="M702.799,-223.947C696.802,-220.844 691.027,-217.216 686,-213 640.085,-174.491 663.966,-132.083 614,-99 585.063,-79.8408 547.166,-72.6883 514.989,-70.5065"/>
<polygon fill="none" stroke="black" points="514.933,-66.9987 504.761,-69.9638 514.562,-73.9888 514.933,-66.9987"/>
</g>
<!-- \\Aura\\Marshal\\Exception -->
<g id="node31" class="node"><title>\\Aura\\Marshal\\Exception</title>
<a xlink:href="db_src_Exception.html" xlink:title="Exception" target="_parent">
<polygon fill="none" stroke="black" points="790,-204 714,-204 714,-168 790,-168 790,-204"/>
<text text-anchor="middle" x="752" y="-183.1" font-family="Courier New" font-size="11.00">Exception</text>
</a>
</g>
<!-- \\Exception -->
<g id="node52" class="node"><title>\\Exception</title>
<ellipse fill="none" stroke="black" cx="449" cy="-18" rx="62.9325" ry="18.3848"/>
<text text-anchor="middle" x="449" y="-14.4" font-family="Times Roman,serif" font-size="14.00" fill="gray">\Exception</text>
</g>
<!-- \\Aura\\Marshal\\Exception&#45;&gt;\\Exception -->
<g id="edge39" class="edge"><title>\\Aura\\Marshal\\Exception&#45;&gt;\\Exception</title>
<path fill="none" stroke="black" d="M740.058,-167.724C718.781,-136.814 671.142,-74.6889 614,-45 586.12,-30.5148 552.32,-23.4518 522.589,-20.1241"/>
<polygon fill="none" stroke="black" points="522.556,-16.6037 512.259,-19.0968 521.864,-23.5693 522.556,-16.6037"/>
</g>
</g>
</svg>
