<?xml version="1.0" encoding="UTF-8" standalone="no"?>
<!DOCTYPE svg PUBLIC "-//W3C//DTD SVG 1.1//EN" "http://www.w3.org/Graphics/SVG/1.1/DTD/svg11.dtd">
<!-- Generated by graphviz version 2.28.0 (20110509.1545)
 -->
<!-- Title: Classes Pages: 1 -->
<svg xmlns="http://www.w3.org/2000/svg" xmlns:xlink="http://www.w3.org/1999/xlink" width="674pt" height="607pt">
<g id="viewport" class="graph" transform="scale(1 1) rotate(0) translate(4 603.4)">
<title>Classes</title>
<polygon fill="white" stroke="white" points="-4,5 -4,-603.4 671,-603.4 671,5 -4,5"/>
<!-- 09a15e9660c1ebc6f429d818825ce0c6 -->
<g id="node1" class="node"><title>09a15e9660c1ebc6f429d818825ce0c6</title>
<polygon fill="white" stroke="black" points="63.1766,-399.491 0.823384,-399.491 0.823384,-363.491 63.1766,-363.491 63.1766,-399.491"/>
<text text-anchor="middle" x="32" y="-375.891" font-family="Times,serif" font-size="14.00" fill="gray">stdClass</text>
</g>
<!-- 3f5db32aef58e856a98101055253d0fd -->
<g id="node2" class="node"><title>3f5db32aef58e856a98101055253d0fd</title>
<a xlink:href="_src_Cookies.html" xlink:title="Cookies" target="_top">
<polygon fill="white" stroke="black" points="203.89,-562.491 142.11,-562.491 142.11,-526.491 203.89,-526.491 203.89,-562.491"/>
<text text-anchor="middle" x="173" y="-538.891" font-family="Times,serif" font-size="14.00">Cookies</text>
</a>
</g>
<!-- 3f5db32aef58e856a98101055253d0fd&#45;&gt;09a15e9660c1ebc6f429d818825ce0c6 -->
<g id="edge2" class="edge"><title>3f5db32aef58e856a98101055253d0fd-&gt;09a15e9660c1ebc6f429d818825ce0c6</title>
<path fill="none" stroke="black" d="M168.268,-526.441C158.48,-481.376 130.828,-368.44 102,-381.491"/>
</g>
<!-- 01f2dc6722fd6ddf9bdf2dadc4d3f6a6 -->
<g id="node3" class="node"><title>01f2dc6722fd6ddf9bdf2dadc4d3f6a6</title>
<a xlink:href="_src_Headers.html" xlink:title="Headers" target="_top">
<polygon fill="white" stroke="black" points="203.862,-399.491 142.138,-399.491 142.138,-363.491 203.862,-363.491 203.862,-399.491"/>
<text text-anchor="middle" x="173" y="-375.891" font-family="Times,serif" font-size="14.00">Headers</text>
</a>
</g>
<!-- 01f2dc6722fd6ddf9bdf2dadc4d3f6a6&#45;&gt;09a15e9660c1ebc6f429d818825ce0c6 -->
<g id="edge4" class="edge"><title>01f2dc6722fd6ddf9bdf2dadc4d3f6a6-&gt;09a15e9660c1ebc6f429d818825ce0c6</title>
<path fill="none" stroke="black" d="M141.896,-376.136C129.081,-375.188 114.289,-375.927 102,-381.491"/>
</g>
<!-- 100ba44a50177e2cf81305e4095bcfac -->
<g id="node4" class="node"><title>100ba44a50177e2cf81305e4095bcfac</title>
<a xlink:href="_src_Response.html" xlink:title="Response" target="_top">
<polygon fill="white" stroke="black" points="207.663,-235.491 138.337,-235.491 138.337,-199.491 207.663,-199.491 207.663,-235.491"/>
<text text-anchor="middle" x="173" y="-211.891" font-family="Times,serif" font-size="14.00">Response</text>
</a>
</g>
<!-- 100ba44a50177e2cf81305e4095bcfac&#45;&gt;09a15e9660c1ebc6f429d818825ce0c6 -->
<g id="edge6" class="edge"><title>100ba44a50177e2cf81305e4095bcfac-&gt;09a15e9660c1ebc6f429d818825ce0c6</title>
<path fill="none" stroke="black" d="M171.412,-235.601C169.061,-272.78 157.558,-356.338 102,-381.491"/>
</g>
<!-- d1457b72c3fb323a2671125aef3eab5d -->
<g id="node5" class="node"><title>d1457b72c3fb323a2671125aef3eab5d</title>
<polygon fill="white" stroke="black" points="200,-72.4909 146,-72.4909 146,-36.4909 200,-36.4909 200,-72.4909"/>
<text text-anchor="middle" x="173" y="-48.8909" font-family="Times,serif" font-size="14.00" fill="gray">?</text>
</g>
<!-- d1457b72c3fb323a2671125aef3eab5d&#45;&gt;09a15e9660c1ebc6f429d818825ce0c6 -->
<g id="edge8" class="edge"><title>d1457b72c3fb323a2671125aef3eab5d-&gt;09a15e9660c1ebc6f429d818825ce0c6</title>
<path fill="none" stroke="black" d="M167.036,-72.888C160.086,-98.9529 147.269,-148.173 138,-190.491 128.758,-232.682 141.347,-363.677 102,-381.491"/>
<path fill="none" stroke="black" d="M100,-381.491C91.839,-385.186 82.5244,-386.657 73.489,-386.909"/>
<polygon fill="none" stroke="black" points="73.5443,-383.41 63.4827,-386.729 73.4179,-390.408 73.5443,-383.41"/>
</g>
<!-- fe9d87595bbecb27348b863f712f1c2b -->
<g id="node6" class="node"><title>fe9d87595bbecb27348b863f712f1c2b</title>
<polygon fill="white" stroke="black" points="355.259,-72.4909 282.741,-72.4909 282.741,-36.4909 355.259,-36.4909 355.259,-72.4909"/>
<text text-anchor="middle" x="319" y="-48.8909" font-family="Times,serif" font-size="14.00" fill="gray">Exception</text>
</g>
<!-- fe9d87595bbecb27348b863f712f1c2b&#45;&gt;d1457b72c3fb323a2671125aef3eab5d -->
<g id="edge10" class="edge"><title>fe9d87595bbecb27348b863f712f1c2b-&gt;d1457b72c3fb323a2671125aef3eab5d</title>
<path fill="none" stroke="black" d="M282.404,-54.4909C260.503,-54.4909 232.502,-54.4909 210.445,-54.4909"/>
<polygon fill="none" stroke="black" points="210.148,-50.991 200.148,-54.4909 210.148,-57.991 210.148,-50.991"/>
</g>
<!-- 511096790db89c7d6f7b041bcdb915c0 -->
<g id="node7" class="node"><title>511096790db89c7d6f7b041bcdb915c0</title>
<a xlink:href="_src_Exception.html" xlink:title="Exception" target="_top">
<polygon fill="white" stroke="black" points="503.259,-72.4909 430.741,-72.4909 430.741,-36.4909 503.259,-36.4909 503.259,-72.4909"/>
<text text-anchor="middle" x="467" y="-48.8909" font-family="Times,serif" font-size="14.00">Exception</text>
</a>
</g>
<!-- 511096790db89c7d6f7b041bcdb915c0&#45;&gt;fe9d87595bbecb27348b863f712f1c2b -->
<g id="edge12" class="edge"><title>511096790db89c7d6f7b041bcdb915c0-&gt;fe9d87595bbecb27348b863f712f1c2b</title>
<path fill="none" stroke="black" d="M430.657,-54.4909C411.003,-54.4909 386.334,-54.4909 365.278,-54.4909"/>
<polygon fill="none" stroke="black" points="365.27,-50.991 355.27,-54.4909 365.27,-57.991 365.27,-50.991"/>
</g>
<!-- 3066039ac9b6eb1abfdc830843477a6f -->
<g id="node8" class="node"><title>3066039ac9b6eb1abfdc830843477a6f</title>
<a xlink:href="_src_Exception_HeadersSent.html" xlink:title="HeadersSent" target="_top">
<polygon fill="white" stroke="black" points="665.252,-72.4909 578.748,-72.4909 578.748,-36.4909 665.252,-36.4909 665.252,-72.4909"/>
<text text-anchor="middle" x="622" y="-48.8909" font-family="Times,serif" font-size="14.00">HeadersSent</text>
</a>
</g>
<!-- 3066039ac9b6eb1abfdc830843477a6f&#45;&gt;511096790db89c7d6f7b041bcdb915c0 -->
<g id="edge14" class="edge"><title>3066039ac9b6eb1abfdc830843477a6f-&gt;511096790db89c7d6f7b041bcdb915c0</title>
<path fill="none" stroke="black" d="M578.381,-54.4909C558.185,-54.4909 534.04,-54.4909 513.49,-54.4909"/>
<polygon fill="none" stroke="black" points="513.418,-50.991 503.418,-54.4909 513.418,-57.991 513.418,-50.991"/>
</g>
</g>
<script xlink:href="js/SVGPan.js"/></svg>
