<?xml version="1.0" encoding="UTF-8" standalone="no"?>
<!DOCTYPE svg PUBLIC "-//W3C//DTD SVG 1.0//EN"
 "http://www.w3.org/TR/2001/REC-SVG-20010904/DTD/svg10.dtd" [
 <!ATTLIST svg xmlns:xlink CDATA #FIXED "http://www.w3.org/1999/xlink">
]>
<!-- Generated by Graphviz version 2.20.2 (Tue Mar &#160;2 21:46:26 UTC 2010)
     For user: (mvriel) Mike van Riel,,, -->
<!-- Title: Classes Pages: 1 -->
<svg width="862pt" height="776pt"
 viewBox="0.00 0.00 862.00 776.00" xmlns="http://www.w3.org/2000/svg" xmlns:xlink="http://www.w3.org/1999/xlink">
<g id="graph0" class="graph" transform="scale(1 1) rotate(0) translate(4 772)">
<title>Classes</title>
<polygon style="fill:white;stroke:white;" points="-4,4 -4,-772 858,-772 858,4 -4,4"/>
<!-- 09a15e9660c1ebc6f429d818825ce0c6 -->
<g id="node1" class="node"><title>09a15e9660c1ebc6f429d818825ce0c6</title>
<polygon style="fill:white;stroke:black;" points="72,-402 2.13163e-14,-402 7.10543e-15,-366 72,-366 72,-402"/>
<text text-anchor="middle" x="36" y="-379.9" style="font-family:Times New Roman;font-size:14.00;fill:gray;">stdClass</text>
</g>
<!-- d35f384e0e61d875171d612a9c39dc1d -->
<g id="node2" class="node"><title>d35f384e0e61d875171d612a9c39dc1d</title>
<a xlink:href="src_AbstractResponse.html" xlink:title="AbstractResponse" target="_top">
<polygon style="fill:white;stroke:black;" points="284,-690 146,-690 146,-654 284,-654 284,-690"/>
<text text-anchor="middle" x="215" y="-667.9" style="font-family:Times New Roman;font-size:14.00;">AbstractResponse</text>
</a>
</g>
<!-- d35f384e0e61d875171d612a9c39dc1d&#45;&gt;09a15e9660c1ebc6f429d818825ce0c6 -->
<g id="edge2" class="edge"><title>d35f384e0e61d875171d612a9c39dc1d&#45;&gt;09a15e9660c1ebc6f429d818825ce0c6</title>
<path style="fill:none;stroke:black;" d="M212,-654C203,-591 167,-384 109,-384"/>
</g>
<!-- e11deacb49914c2ad833754e72a5e1d2 -->
<g id="node3" class="node"><title>e11deacb49914c2ad833754e72a5e1d2</title>
<a xlink:href="src_Response.html" xlink:title="Response" target="_top">
<polygon style="fill:white;stroke:black;" points="440,-690 360,-690 360,-654 440,-654 440,-690"/>
<text text-anchor="middle" x="400" y="-667.9" style="font-family:Times New Roman;font-size:14.00;">Response</text>
</a>
</g>
<!-- e11deacb49914c2ad833754e72a5e1d2&#45;&gt;d35f384e0e61d875171d612a9c39dc1d -->
<g id="edge4" class="edge"><title>e11deacb49914c2ad833754e72a5e1d2&#45;&gt;d35f384e0e61d875171d612a9c39dc1d</title>
<path style="fill:none;stroke:black;" d="M359,-672C340,-672 316,-672 294,-672"/>
<polygon style="fill:none;stroke:black;" points="294,-668.5 284,-672 294,-675.5 294,-668.5"/>
</g>
<!-- cbb631c4b14a05e40cb4155bf85895e2 -->
<g id="node4" class="node"><title>cbb631c4b14a05e40cb4155bf85895e2</title>
<a xlink:href="src_MimeUtility.html" xlink:title="MimeUtility" target="_top">
<polygon style="fill:white;stroke:black;" points="262,-402 168,-402 168,-366 262,-366 262,-402"/>
<text text-anchor="middle" x="215" y="-379.9" style="font-family:Times New Roman;font-size:14.00;">MimeUtility</text>
</a>
</g>
<!-- cbb631c4b14a05e40cb4155bf85895e2&#45;&gt;09a15e9660c1ebc6f429d818825ce0c6 -->
<g id="edge6" class="edge"><title>cbb631c4b14a05e40cb4155bf85895e2&#45;&gt;09a15e9660c1ebc6f429d818825ce0c6</title>
<path style="fill:none;stroke:black;" d="M167,-384C149,-384 128,-384 109,-384"/>
</g>
<!-- d1457b72c3fb323a2671125aef3eab5d -->
<g id="node5" class="node"><title>d1457b72c3fb323a2671125aef3eab5d</title>
<polygon style="fill:white;stroke:black;" points="242,-114 188,-114 188,-78 242,-78 242,-114"/>
<text text-anchor="middle" x="215" y="-91.9" style="font-family:Times New Roman;font-size:14.00;fill:gray;">?</text>
</g>
<!-- d1457b72c3fb323a2671125aef3eab5d&#45;&gt;09a15e9660c1ebc6f429d818825ce0c6 -->
<g id="edge8" class="edge"><title>d1457b72c3fb323a2671125aef3eab5d&#45;&gt;09a15e9660c1ebc6f429d818825ce0c6</title>
<path style="fill:none;stroke:black;" d="M212,-114C203,-177 167,-384 109,-384"/>
<path style="fill:none;stroke:black;" d="M109,-384C100,-384 91,-384 82,-384"/>
<polygon style="fill:none;stroke:black;" points="82,-380.5 72,-384 82,-387.5 82,-380.5"/>
</g>
<!-- fe9d87595bbecb27348b863f712f1c2b -->
<g id="node6" class="node"><title>fe9d87595bbecb27348b863f712f1c2b</title>
<polygon style="fill:white;stroke:black;" points="442,-114 358,-114 358,-78 442,-78 442,-114"/>
<text text-anchor="middle" x="400" y="-91.9" style="font-family:Times New Roman;font-size:14.00;fill:gray;">Exception</text>
</g>
<!-- fe9d87595bbecb27348b863f712f1c2b&#45;&gt;d1457b72c3fb323a2671125aef3eab5d -->
<g id="edge10" class="edge"><title>fe9d87595bbecb27348b863f712f1c2b&#45;&gt;d1457b72c3fb323a2671125aef3eab5d</title>
<path style="fill:none;stroke:black;" d="M358,-96C326,-96 282,-96 252,-96"/>
<polygon style="fill:none;stroke:black;" points="252,-92.5001 242,-96 252,-99.5001 252,-92.5001"/>
</g>
<!-- e6d07f3e1f137809b097d3d0cc96b37c -->
<g id="node7" class="node"><title>e6d07f3e1f137809b097d3d0cc96b37c</title>
<a xlink:href="src_Exception.html" xlink:title="Exception" target="_top">
<polygon style="fill:white;stroke:black;" points="600,-114 516,-114 516,-78 600,-78 600,-114"/>
<text text-anchor="middle" x="558" y="-91.9" style="font-family:Times New Roman;font-size:14.00;">Exception</text>
</a>
</g>
<!-- e6d07f3e1f137809b097d3d0cc96b37c&#45;&gt;fe9d87595bbecb27348b863f712f1c2b -->
<g id="edge12" class="edge"><title>e6d07f3e1f137809b097d3d0cc96b37c&#45;&gt;fe9d87595bbecb27348b863f712f1c2b</title>
<path style="fill:none;stroke:black;" d="M516,-96C496,-96 473,-96 452,-96"/>
<polygon style="fill:none;stroke:black;" points="452,-92.5001 442,-96 452,-99.5001 452,-92.5001"/>
</g>
<!-- 48a17bd6da550126d752c170019fb4d4 -->
<g id="node8" class="node"><title>48a17bd6da550126d752c170019fb4d4</title>
<a xlink:href="src_Exception_HeadersSent.html" xlink:title="Exception_HeadersSent" target="_top">
<polygon style="fill:white;stroke:black;" points="854,-114 674,-114 674,-78 854,-78 854,-114"/>
<text text-anchor="middle" x="764" y="-91.9" style="font-family:Times New Roman;font-size:14.00;">Exception_HeadersSent</text>
</a>
</g>
<!-- 48a17bd6da550126d752c170019fb4d4&#45;&gt;e6d07f3e1f137809b097d3d0cc96b37c -->
<g id="edge14" class="edge"><title>48a17bd6da550126d752c170019fb4d4&#45;&gt;e6d07f3e1f137809b097d3d0cc96b37c</title>
<path style="fill:none;stroke:black;" d="M674,-96C652,-96 630,-96 610,-96"/>
<polygon style="fill:none;stroke:black;" points="610,-92.5001 600,-96 610,-99.5001 610,-92.5001"/>
</g>
</g>
</svg>
