<?xml version="1.0" encoding="UTF-8" standalone="no"?>
<!DOCTYPE svg PUBLIC "-//W3C//DTD SVG 1.1//EN"
 "http://www.w3.org/Graphics/SVG/1.1/DTD/svg11.dtd">
<!-- Generated by graphviz version 2.26.3 (20100126.1600)
 -->
<!-- Title: G Pages: 1 -->
<svg width="480pt" height="328pt"
 viewBox="0.00 0.00 480.00 328.00" xmlns="http://www.w3.org/2000/svg" xmlns:xlink="http://www.w3.org/1999/xlink">
<g id="graph1" class="graph" transform="scale(1 1) rotate(0) translate(4 324)">
<title>G</title>
<polygon fill="white" stroke="white" points="-4,5 -4,-324 477,-324 477,5 -4,5"/>
<g id="graph2" class="cluster"><title>cluster_Aura</title>
<polyline fill="none" stroke="gray" points="194,-8 452,-8 "/>
<path fill="none" stroke="gray" d="M452,-8C458,-8 464,-14 464,-20"/>
<polyline fill="none" stroke="gray" points="464,-20 464,-300 "/>
<path fill="none" stroke="gray" d="M464,-300C464,-306 458,-312 452,-312"/>
<polyline fill="none" stroke="gray" points="452,-312 194,-312 "/>
<path fill="none" stroke="gray" d="M194,-312C188,-312 182,-306 182,-300"/>
<polyline fill="none" stroke="gray" points="182,-300 182,-20 "/>
<path fill="none" stroke="gray" d="M182,-20C182,-14 188,-8 194,-8"/>
<text text-anchor="middle" x="323" y="-298.1" font-family="Times Roman,serif" font-size="11.00" fill="gray">Aura</text>
</g>
<g id="graph3" class="cluster"><title>cluster_Aura\Http</title>
<polyline fill="none" stroke="gray" points="202,-16 444,-16 "/>
<path fill="none" stroke="gray" d="M444,-16C450,-16 456,-22 456,-28"/>
<polyline fill="none" stroke="gray" points="456,-28 456,-270 "/>
<path fill="none" stroke="gray" d="M456,-270C456,-276 450,-282 444,-282"/>
<polyline fill="none" stroke="gray" points="444,-282 202,-282 "/>
<path fill="none" stroke="gray" d="M202,-282C196,-282 190,-276 190,-270"/>
<polyline fill="none" stroke="gray" points="190,-270 190,-28 "/>
<path fill="none" stroke="gray" d="M190,-28C190,-22 196,-16 202,-16"/>
<text text-anchor="middle" x="323" y="-268.1" font-family="Times Roman,serif" font-size="11.00" fill="gray">Http</text>
</g>
<g id="graph4" class="cluster"><title>cluster_Aura\Http\Exception</title>
<polyline fill="none" stroke="gray" points="352,-178 436,-178 "/>
<path fill="none" stroke="gray" d="M436,-178C442,-178 448,-184 448,-190"/>
<polyline fill="none" stroke="gray" points="448,-190 448,-240 "/>
<path fill="none" stroke="gray" d="M448,-240C448,-246 442,-252 436,-252"/>
<polyline fill="none" stroke="gray" points="436,-252 352,-252 "/>
<path fill="none" stroke="gray" d="M352,-252C346,-252 340,-246 340,-240"/>
<polyline fill="none" stroke="gray" points="340,-240 340,-190 "/>
<path fill="none" stroke="gray" d="M340,-190C340,-184 346,-178 352,-178"/>
<text text-anchor="middle" x="394" y="-238.1" font-family="Times Roman,serif" font-size="11.00" fill="gray">Exception</text>
</g>
<!-- \\Aura\\Http\\Exception\\HeadersSent -->
<g id="node4" class="node"><title>\\Aura\\Http\\Exception\\HeadersSent</title>
<a xlink:href="db_src_Aura_Http_Exception_HeadersSent.html" xlink:title="HeadersSent" target="_parent">
<polygon fill="none" stroke="black" points="439,-222 349,-222 349,-186 439,-186 439,-222"/>
<text text-anchor="middle" x="394" y="-201.1" font-family="Courier New" font-size="11.00">HeadersSent</text>
</a>
</g>
<!-- \\Aura\\Http\\Exception -->
<g id="node8" class="node"><title>\\Aura\\Http\\Exception</title>
<a xlink:href="db_src_Aura_Http_Exception.html" xlink:title="Exception" target="_parent">
<polygon fill="none" stroke="black" points="275,-222 199,-222 199,-186 275,-186 275,-222"/>
<text text-anchor="middle" x="237" y="-201.1" font-family="Courier New" font-size="11.00">Exception</text>
</a>
</g>
<!-- \\Aura\\Http\\Exception\\HeadersSent&#45;&gt;\\Aura\\Http\\Exception -->
<g id="edge6" class="edge"><title>\\Aura\\Http\\Exception\\HeadersSent&#45;&gt;\\Aura\\Http\\Exception</title>
<path fill="none" stroke="black" d="M348.167,-204C328.59,-204 305.714,-204 285.82,-204"/>
<polygon fill="none" stroke="black" points="285.722,-200.5 275.722,-204 285.722,-207.5 285.722,-200.5"/>
</g>
<!-- \\Aura\\Http\\Headers -->
<g id="node5" class="node"><title>\\Aura\\Http\\Headers</title>
<a xlink:href="db_src_Aura_Http_Headers.html" xlink:title="Headers" target="_parent">
<polygon fill="none" stroke="black" points="426,-168 362,-168 362,-132 426,-132 426,-168"/>
<text text-anchor="middle" x="394" y="-147.1" font-family="Courier New" font-size="11.00">Headers</text>
</a>
</g>
<!-- \\Aura\\Http\\Response -->
<g id="node6" class="node"><title>\\Aura\\Http\\Response</title>
<a xlink:href="db_src_Aura_Http_Response.html" xlink:title="Response" target="_parent">
<polygon fill="none" stroke="black" points="429,-114 359,-114 359,-78 429,-78 429,-114"/>
<text text-anchor="middle" x="394" y="-93.1" font-family="Courier New" font-size="11.00">Response</text>
</a>
</g>
<!-- \\Aura\\Http\\Cookies -->
<g id="node7" class="node"><title>\\Aura\\Http\\Cookies</title>
<a xlink:href="db_src_Aura_Http_Cookies.html" xlink:title="Cookies" target="_parent">
<polygon fill="none" stroke="black" points="426,-60 362,-60 362,-24 426,-24 426,-60"/>
<text text-anchor="middle" x="394" y="-39.1" font-family="Courier New" font-size="11.00">Cookies</text>
</a>
</g>
<!-- \\Exception -->
<g id="node12" class="node"><title>\\Exception</title>
<ellipse fill="none" stroke="black" cx="63" cy="-204" rx="62.9325" ry="18.3848"/>
<text text-anchor="middle" x="63" y="-200.4" font-family="Times Roman,serif" font-size="14.00" fill="gray">\Exception</text>
</g>
<!-- \\Aura\\Http\\Exception&#45;&gt;\\Exception -->
<g id="edge8" class="edge"><title>\\Aura\\Http\\Exception&#45;&gt;\\Exception</title>
<path fill="none" stroke="black" d="M198.384,-204C180.06,-204 157.538,-204 136.16,-204"/>
<polygon fill="none" stroke="black" points="136.11,-200.5 126.11,-204 136.11,-207.5 136.11,-200.5"/>
</g>
</g>
</svg>
