<?xml version="1.0" encoding="UTF-8" standalone="no"?>
<!DOCTYPE svg PUBLIC "-//W3C//DTD SVG 1.1//EN"
 "http://www.w3.org/Graphics/SVG/1.1/DTD/svg11.dtd">
<!-- Generated by graphviz version 2.26.3 (20100126.1600)
 -->
<!-- Title: G Pages: 1 -->
<svg width="735pt" height="580pt"
 viewBox="0.00 0.00 735.00 580.00" xmlns="http://www.w3.org/2000/svg" xmlns:xlink="http://www.w3.org/1999/xlink">
<g id="graph1" class="graph" transform="scale(1 1) rotate(0) translate(4 576)">
<title>G</title>
<polygon fill="white" stroke="white" points="-4,5 -4,-576 732,-576 732,5 -4,5"/>
<g id="graph2" class="cluster"><title>cluster_Aura</title>
<polyline fill="none" stroke="gray" points="320,-44 707,-44 "/>
<path fill="none" stroke="gray" d="M707,-44C713,-44 719,-50 719,-56"/>
<polyline fill="none" stroke="gray" points="719,-56 719,-552 "/>
<path fill="none" stroke="gray" d="M719,-552C719,-558 713,-564 707,-564"/>
<polyline fill="none" stroke="gray" points="707,-564 320,-564 "/>
<path fill="none" stroke="gray" d="M320,-564C314,-564 308,-558 308,-552"/>
<polyline fill="none" stroke="gray" points="308,-552 308,-56 "/>
<path fill="none" stroke="gray" d="M308,-56C308,-50 314,-44 320,-44"/>
<text text-anchor="middle" x="513.5" y="-550.1" font-family="Times Roman,serif" font-size="11.00" fill="gray">Aura</text>
</g>
<g id="graph3" class="cluster"><title>cluster_Aura\Http</title>
<polyline fill="none" stroke="gray" points="328,-52 699,-52 "/>
<path fill="none" stroke="gray" d="M699,-52C705,-52 711,-58 711,-64"/>
<polyline fill="none" stroke="gray" points="711,-64 711,-522 "/>
<path fill="none" stroke="gray" d="M711,-522C711,-528 705,-534 699,-534"/>
<polyline fill="none" stroke="gray" points="699,-534 328,-534 "/>
<path fill="none" stroke="gray" d="M328,-534C322,-534 316,-528 316,-522"/>
<polyline fill="none" stroke="gray" points="316,-522 316,-64 "/>
<path fill="none" stroke="gray" d="M316,-64C316,-58 322,-52 328,-52"/>
<text text-anchor="middle" x="513.5" y="-520.1" font-family="Times Roman,serif" font-size="11.00" fill="gray">Http</text>
</g>
<g id="graph4" class="cluster"><title>cluster_Aura\Http\Exception</title>
<polyline fill="none" stroke="gray" points="607,-430 691,-430 "/>
<path fill="none" stroke="gray" d="M691,-430C697,-430 703,-436 703,-442"/>
<polyline fill="none" stroke="gray" points="703,-442 703,-492 "/>
<path fill="none" stroke="gray" d="M703,-492C703,-498 697,-504 691,-504"/>
<polyline fill="none" stroke="gray" points="691,-504 607,-504 "/>
<path fill="none" stroke="gray" d="M607,-504C601,-504 595,-498 595,-492"/>
<polyline fill="none" stroke="gray" points="595,-492 595,-442 "/>
<path fill="none" stroke="gray" d="M595,-442C595,-436 601,-430 607,-430"/>
<text text-anchor="middle" x="649" y="-490.1" font-family="Times Roman,serif" font-size="11.00" fill="gray">Exception</text>
</g>
<!-- \\Aura\\Http\\Exception\\HeadersSent -->
<g id="node4" class="node"><title>\\Aura\\Http\\Exception\\HeadersSent</title>
<a xlink:href="db_src_Exception_HeadersSent.html" xlink:title="HeadersSent" target="_parent">
<polygon fill="none" stroke="black" points="694,-474 604,-474 604,-438 694,-438 694,-474"/>
<text text-anchor="middle" x="649" y="-453.1" font-family="Courier New" font-size="11.00">HeadersSent</text>
</a>
</g>
<!-- \\Aura\\Http\\Exception -->
<g id="node12" class="node"><title>\\Aura\\Http\\Exception</title>
<a xlink:href="db_src_Exception.html" xlink:title="Exception" target="_parent">
<polygon fill="none" stroke="black" points="401,-474 325,-474 325,-438 401,-438 401,-474"/>
<text text-anchor="middle" x="363" y="-453.1" font-family="Courier New" font-size="11.00">Exception</text>
</a>
</g>
<!-- \\Aura\\Http\\Exception\\HeadersSent&#45;&gt;\\Aura\\Http\\Exception -->
<g id="edge13" class="edge"><title>\\Aura\\Http\\Exception\\HeadersSent&#45;&gt;\\Aura\\Http\\Exception</title>
<path fill="none" stroke="black" d="M603.366,-456C551.027,-456 465.549,-456 411.883,-456"/>
<polygon fill="none" stroke="black" points="411.593,-452.5 401.593,-456 411.593,-459.5 411.593,-452.5"/>
</g>
<!-- \\Aura\\Http\\ResponseTest -->
<g id="node5" class="node"><title>\\Aura\\Http\\ResponseTest</title>
<a xlink:href="db_tests_ResponseTest.html" xlink:title="ResponseTest" target="_parent">
<polygon fill="none" stroke="black" points="698,-420 600,-420 600,-384 698,-384 698,-420"/>
<text text-anchor="middle" x="649" y="-399.1" font-family="Courier New" font-size="11.00">ResponseTest</text>
</a>
</g>
<!-- \\PHPUnit_Framework_TestCase -->
<g id="node16" class="node"><title>\\PHPUnit_Framework_TestCase</title>
<ellipse fill="none" stroke="black" cx="363" cy="-18" rx="164.756" ry="18.3848"/>
<text text-anchor="middle" x="363" y="-14.4" font-family="Times Roman,serif" font-size="14.00" fill="gray">\PHPUnit_Framework_TestCase</text>
</g>
<!-- \\Aura\\Http\\ResponseTest&#45;&gt;\\PHPUnit_Framework_TestCase -->
<g id="edge7" class="edge"><title>\\Aura\\Http\\ResponseTest&#45;&gt;\\PHPUnit_Framework_TestCase</title>
<path fill="none" stroke="black" d="M603.995,-383.875C600.626,-381.272 597.553,-378.326 595,-375 504.674,-257.315 634.061,-151.728 528,-48 521.866,-42.0009 514.958,-36.9854 507.535,-32.8066"/>
<polygon fill="none" stroke="black" points="509.102,-29.677 498.6,-28.2765 505.936,-35.9204 509.102,-29.677"/>
</g>
<!-- \\Aura\\Http\\CookiesTest -->
<g id="node6" class="node"><title>\\Aura\\Http\\CookiesTest</title>
<a xlink:href="db_tests_CookiesTest.html" xlink:title="CookiesTest" target="_parent">
<polygon fill="none" stroke="black" points="694,-366 604,-366 604,-330 694,-330 694,-366"/>
<text text-anchor="middle" x="649" y="-345.1" font-family="Courier New" font-size="11.00">CookiesTest</text>
</a>
</g>
<!-- \\Aura\\Http\\CookiesTest&#45;&gt;\\PHPUnit_Framework_TestCase -->
<g id="edge9" class="edge"><title>\\Aura\\Http\\CookiesTest&#45;&gt;\\PHPUnit_Framework_TestCase</title>
<path fill="none" stroke="black" d="M604.386,-329.961C600.89,-327.333 597.682,-324.358 595,-321 517.036,-223.378 618.986,-133.615 528,-48 521.675,-42.0486 514.584,-37.0768 506.992,-32.9371"/>
<polygon fill="none" stroke="black" points="508.382,-29.7207 497.864,-28.4508 505.294,-36.0029 508.382,-29.7207"/>
</g>
<!-- \\Aura\\Http\\HeadersTest -->
<g id="node7" class="node"><title>\\Aura\\Http\\HeadersTest</title>
<a xlink:href="db_tests_HeadersTest.html" xlink:title="HeadersTest" target="_parent">
<polygon fill="none" stroke="black" points="694,-312 604,-312 604,-276 694,-276 694,-312"/>
<text text-anchor="middle" x="649" y="-291.1" font-family="Courier New" font-size="11.00">HeadersTest</text>
</a>
</g>
<!-- \\Aura\\Http\\HeadersTest&#45;&gt;\\PHPUnit_Framework_TestCase -->
<g id="edge11" class="edge"><title>\\Aura\\Http\\HeadersTest&#45;&gt;\\PHPUnit_Framework_TestCase</title>
<path fill="none" stroke="black" d="M604.843,-275.988C601.206,-273.346 597.843,-270.361 595,-267 529.27,-189.282 604.06,-115.641 528,-48 521.282,-42.0254 513.784,-37.0557 505.791,-32.9353"/>
<polygon fill="none" stroke="black" points="507.116,-29.6909 496.573,-28.6359 504.157,-36.0348 507.116,-29.6909"/>
</g>
<!-- \\Aura\\Http\\MockHttp -->
<g id="node8" class="node"><title>\\Aura\\Http\\MockHttp</title>
<a xlink:href="db_tests_MockHttp.html" xlink:title="MockHttp" target="_parent">
<polygon fill="none" stroke="black" points="684,-258 614,-258 614,-222 684,-222 684,-258"/>
<text text-anchor="middle" x="649" y="-237.1" font-family="Courier New" font-size="11.00">MockHttp</text>
</a>
</g>
<!-- \\Aura\\Http\\Headers -->
<g id="node9" class="node"><title>\\Aura\\Http\\Headers</title>
<a xlink:href="db_src_Headers.html" xlink:title="Headers" target="_parent">
<polygon fill="none" stroke="black" points="681,-204 617,-204 617,-168 681,-168 681,-204"/>
<text text-anchor="middle" x="649" y="-183.1" font-family="Courier New" font-size="11.00">Headers</text>
</a>
</g>
<!-- \\Aura\\Http\\Response -->
<g id="node10" class="node"><title>\\Aura\\Http\\Response</title>
<a xlink:href="db_src_Response.html" xlink:title="Response" target="_parent">
<polygon fill="none" stroke="black" points="684,-150 614,-150 614,-114 684,-114 684,-150"/>
<text text-anchor="middle" x="649" y="-129.1" font-family="Courier New" font-size="11.00">Response</text>
</a>
</g>
<!-- \\Aura\\Http\\Cookies -->
<g id="node11" class="node"><title>\\Aura\\Http\\Cookies</title>
<a xlink:href="db_src_Cookies.html" xlink:title="Cookies" target="_parent">
<polygon fill="none" stroke="black" points="681,-96 617,-96 617,-60 681,-60 681,-96"/>
<text text-anchor="middle" x="649" y="-75.1" font-family="Courier New" font-size="11.00">Cookies</text>
</a>
</g>
<!-- \\Exception -->
<g id="node21" class="node"><title>\\Exception</title>
<ellipse fill="none" stroke="black" cx="63" cy="-456" rx="62.9325" ry="18.3848"/>
<text text-anchor="middle" x="63" y="-452.4" font-family="Times Roman,serif" font-size="14.00" fill="gray">\Exception</text>
</g>
<!-- \\Aura\\Http\\Exception&#45;&gt;\\Exception -->
<g id="edge15" class="edge"><title>\\Aura\\Http\\Exception&#45;&gt;\\Exception</title>
<path fill="none" stroke="black" d="M324.394,-456C276.972,-456 195.519,-456 136.115,-456"/>
<polygon fill="none" stroke="black" points="136.037,-452.5 126.037,-456 136.037,-459.5 136.037,-452.5"/>
</g>
</g>
</svg>
