<?xml version="1.0" encoding="UTF-8" standalone="no"?>
<!DOCTYPE svg PUBLIC "-//W3C//DTD SVG 1.0//EN"
 "http://www.w3.org/TR/2001/REC-SVG-20010904/DTD/svg10.dtd" [
 <!ATTLIST svg xmlns:xlink CDATA #FIXED "http://www.w3.org/1999/xlink">
]>
<!-- Generated by Graphviz version 2.20.2 (Tue Mar &#160;2 21:46:26 UTC 2010)
     For user: (mvriel) Mike van Riel,,, -->
<!-- Title: Classes Pages: 1 -->
<svg width="766pt" height="689pt"
 viewBox="0.00 0.00 766.00 689.00" xmlns="http://www.w3.org/2000/svg" xmlns:xlink="http://www.w3.org/1999/xlink">
<g id="graph0" class="graph" transform="scale(1 1) rotate(0) translate(4 685)">
<title>Classes</title>
<polygon style="fill:white;stroke:white;" points="-4,4 -4,-685 762,-685 762,4 -4,4"/>
<!-- 09a15e9660c1ebc6f429d818825ce0c6 -->
<g id="node1" class="node"><title>09a15e9660c1ebc6f429d818825ce0c6</title>
<polygon style="fill:white;stroke:black;" points="72,-563 2.13163e-14,-563 7.10543e-15,-527 72,-527 72,-563"/>
<text text-anchor="middle" x="36" y="-540.9" style="font-family:Times New Roman;font-size:14.00;fill:gray;">stdClass</text>
</g>
<!-- e5e01e126323a03b5989b334e72f6d7b -->
<g id="node2" class="node"><title>e5e01e126323a03b5989b334e72f6d7b</title>
<a xlink:href="src_Loader.html" xlink:title="Loader" target="_top">
<polygon style="fill:white;stroke:black;" points="209,-563 147,-563 147,-527 209,-527 209,-563"/>
<text text-anchor="middle" x="178" y="-540.9" style="font-family:Times New Roman;font-size:14.00;">Loader</text>
</a>
</g>
<!-- e5e01e126323a03b5989b334e72f6d7b&#45;&gt;09a15e9660c1ebc6f429d818825ce0c6 -->
<g id="edge2" class="edge"><title>e5e01e126323a03b5989b334e72f6d7b&#45;&gt;09a15e9660c1ebc6f429d818825ce0c6</title>
<path style="fill:none;stroke:black;" d="M146,-537C134,-536 119,-537 109,-545"/>
</g>
<!-- d1457b72c3fb323a2671125aef3eab5d -->
<g id="node3" class="node"><title>d1457b72c3fb323a2671125aef3eab5d</title>
<polygon style="fill:white;stroke:black;" points="205,-154 151,-154 151,-118 205,-118 205,-154"/>
<text text-anchor="middle" x="178" y="-131.9" style="font-family:Times New Roman;font-size:14.00;fill:gray;">?</text>
</g>
<!-- d1457b72c3fb323a2671125aef3eab5d&#45;&gt;09a15e9660c1ebc6f429d818825ce0c6 -->
<g id="edge4" class="edge"><title>d1457b72c3fb323a2671125aef3eab5d&#45;&gt;09a15e9660c1ebc6f429d818825ce0c6</title>
<path style="fill:none;stroke:black;" d="M176,-154C169,-231 141,-522 109,-545"/>
<path style="fill:none;stroke:black;" d="M109,-545C101,-550 92,-553 82,-553"/>
<polygon style="fill:none;stroke:black;" points="82,-549.5 72,-553 82,-556.5 82,-549.5"/>
</g>
<!-- fe9d87595bbecb27348b863f712f1c2b -->
<g id="node4" class="node"><title>fe9d87595bbecb27348b863f712f1c2b</title>
<polygon style="fill:white;stroke:black;" points="368,-154 284,-154 284,-118 368,-118 368,-154"/>
<text text-anchor="middle" x="326" y="-131.9" style="font-family:Times New Roman;font-size:14.00;fill:gray;">Exception</text>
</g>
<!-- fe9d87595bbecb27348b863f712f1c2b&#45;&gt;d1457b72c3fb323a2671125aef3eab5d -->
<g id="edge6" class="edge"><title>fe9d87595bbecb27348b863f712f1c2b&#45;&gt;d1457b72c3fb323a2671125aef3eab5d</title>
<path style="fill:none;stroke:black;" d="M284,-136C263,-136 236,-136 215,-136"/>
<polygon style="fill:none;stroke:black;" points="215,-132.5 205,-136 215,-139.5 215,-132.5"/>
</g>
<!-- e185226a015918a8984bf444000b55ae -->
<g id="node5" class="node"><title>e185226a015918a8984bf444000b55ae</title>
<a xlink:href="src_Exception.html" xlink:title="Exception" target="_top">
<polygon style="fill:white;stroke:black;" points="526,-154 442,-154 442,-118 526,-118 526,-154"/>
<text text-anchor="middle" x="484" y="-131.9" style="font-family:Times New Roman;font-size:14.00;">Exception</text>
</a>
</g>
<!-- e185226a015918a8984bf444000b55ae&#45;&gt;fe9d87595bbecb27348b863f712f1c2b -->
<g id="edge8" class="edge"><title>e185226a015918a8984bf444000b55ae&#45;&gt;fe9d87595bbecb27348b863f712f1c2b</title>
<path style="fill:none;stroke:black;" d="M442,-136C422,-136 399,-136 378,-136"/>
<polygon style="fill:none;stroke:black;" points="378,-132.5 368,-136 378,-139.5 378,-132.5"/>
</g>
<!-- 683680dc5101a130c7adbaf26d068fd9 -->
<g id="node6" class="node"><title>683680dc5101a130c7adbaf26d068fd9</title>
<a xlink:href="src_Exception_NotFound.html" xlink:title="Exception_NotFound" target="_top">
<polygon style="fill:white;stroke:black;" points="758,-154 600,-154 600,-118 758,-118 758,-154"/>
<text text-anchor="middle" x="679" y="-131.9" style="font-family:Times New Roman;font-size:14.00;">Exception_NotFound</text>
</a>
</g>
<!-- 683680dc5101a130c7adbaf26d068fd9&#45;&gt;e185226a015918a8984bf444000b55ae -->
<g id="edge10" class="edge"><title>683680dc5101a130c7adbaf26d068fd9&#45;&gt;e185226a015918a8984bf444000b55ae</title>
<path style="fill:none;stroke:black;" d="M600,-136C579,-136 556,-136 536,-136"/>
<polygon style="fill:none;stroke:black;" points="536,-132.5 526,-136 536,-139.5 536,-132.5"/>
</g>
</g>
</svg>
