<?xml version="1.0" encoding="UTF-8" standalone="no"?>
<!DOCTYPE svg PUBLIC "-//W3C//DTD SVG 1.1//EN" "http://www.w3.org/Graphics/SVG/1.1/DTD/svg11.dtd">
<!-- Generated by graphviz version 2.26.3 (20100126.1600)
 -->
<!-- Title: G Pages: 1 -->
<svg xmlns="http://www.w3.org/2000/svg" xmlns:xlink="http://www.w3.org/1999/xlink" width="492pt" height="274pt">
<g id="viewport" class="graph" transform="scale(1 1) rotate(0) translate(4 270)">
<title>G</title>
<polygon fill="white" stroke="white" points="-4,5 -4,-270 489,-270 489,5 -4,5"/>
<g id="graph2" class="cluster"><title>cluster_Aura</title>
<polyline fill="none" stroke="gray" points="194,-8 464,-8 "/>
<path fill="none" stroke="gray" d="M464,-8C470,-8 476,-14 476,-20"/>
<polyline fill="none" stroke="gray" points="476,-20 476,-246 "/>
<path fill="none" stroke="gray" d="M476,-246C476,-252 470,-258 464,-258"/>
<polyline fill="none" stroke="gray" points="464,-258 194,-258 "/>
<path fill="none" stroke="gray" d="M194,-258C188,-258 182,-252 182,-246"/>
<polyline fill="none" stroke="gray" points="182,-246 182,-20 "/>
<path fill="none" stroke="gray" d="M182,-20C182,-14 188,-8 194,-8"/>
<text text-anchor="middle" x="329" y="-244.1" font-family="Times Roman,serif" font-size="11.00" fill="gray">Aura</text>
</g>
<g id="graph3" class="cluster"><title>cluster_Aura_Autoload</title>
<polyline fill="none" stroke="gray" points="202,-16 456,-16 "/>
<path fill="none" stroke="gray" d="M456,-16C462,-16 468,-22 468,-28"/>
<polyline fill="none" stroke="gray" points="468,-28 468,-216 "/>
<path fill="none" stroke="gray" d="M468,-216C468,-222 462,-228 456,-228"/>
<polyline fill="none" stroke="gray" points="456,-228 202,-228 "/>
<path fill="none" stroke="gray" d="M202,-228C196,-228 190,-222 190,-216"/>
<polyline fill="none" stroke="gray" points="190,-216 190,-28 "/>
<path fill="none" stroke="gray" d="M190,-28C190,-22 196,-16 202,-16"/>
<text text-anchor="middle" x="329" y="-214.1" font-family="Times Roman,serif" font-size="11.00" fill="gray">Autoload</text>
</g>
<g id="graph4" class="cluster"><title>cluster_Aura_Autoload_Exception</title>
<polyline fill="none" stroke="gray" points="352,-70 448,-70 "/>
<path fill="none" stroke="gray" d="M448,-70C454,-70 460,-76 460,-82"/>
<polyline fill="none" stroke="gray" points="460,-82 460,-186 "/>
<path fill="none" stroke="gray" d="M460,-186C460,-192 454,-198 448,-198"/>
<polyline fill="none" stroke="gray" points="448,-198 352,-198 "/>
<path fill="none" stroke="gray" d="M352,-198C346,-198 340,-192 340,-186"/>
<polyline fill="none" stroke="gray" points="340,-186 340,-82 "/>
<path fill="none" stroke="gray" d="M340,-82C340,-76 346,-70 352,-70"/>
<text text-anchor="middle" x="400" y="-184.1" font-family="Times Roman,serif" font-size="11.00" fill="gray">Exception</text>
</g>
<!-- _Aura_Autoload_Exception_AlreadyLoaded -->
<g id="node4" class="node"><title>_Aura_Autoload_Exception_AlreadyLoaded</title>
<a xlink:href="db_src_Exception_AlreadyLoaded.html" xlink:title="AlreadyLoaded" target="_parent">
<polygon fill="none" stroke="black" points="452,-168 348,-168 348,-132 452,-132 452,-168"/>
<text text-anchor="middle" x="400" y="-147.1" font-family="Courier New" font-size="11.00">AlreadyLoaded</text>
</a>
</g>
<!-- _Aura_Autoload_Exception -->
<g id="node7" class="node"><title>_Aura_Autoload_Exception</title>
<a xlink:href="db_src_Exception.html" xlink:title="Exception" target="_parent">
<polygon fill="none" stroke="black" points="275,-141 199,-141 199,-105 275,-105 275,-141"/>
<text text-anchor="middle" x="237" y="-120.1" font-family="Courier New" font-size="11.00">Exception</text>
</a>
</g>
<!-- _Aura_Autoload_Exception_AlreadyLoaded&#45;&gt;_Aura_Autoload_Exception -->
<g id="edge6" class="edge"><title>_Aura_Autoload_Exception_AlreadyLoaded-&gt;_Aura_Autoload_Exception</title>
<path fill="none" stroke="black" d="M347.978,-141.383C327.984,-138.071 305.255,-134.306 285.595,-131.05"/>
<polygon fill="none" stroke="black" points="286.063,-127.579 275.625,-129.398 284.919,-134.485 286.063,-127.579"/>
</g>
<!-- _Aura_Autoload_Exception_NotFound -->
<g id="node5" class="node"><title>_Aura_Autoload_Exception_NotFound</title>
<a xlink:href="db_src_Exception_NotFound.html" xlink:title="NotFound" target="_parent">
<polygon fill="none" stroke="black" points="435,-114 365,-114 365,-78 435,-78 435,-114"/>
<text text-anchor="middle" x="400" y="-93.1" font-family="Courier New" font-size="11.00">NotFound</text>
</a>
</g>
<!-- _Aura_Autoload_Exception_NotFound&#45;&gt;_Aura_Autoload_Exception -->
<g id="edge8" class="edge"><title>_Aura_Autoload_Exception_NotFound-&gt;_Aura_Autoload_Exception</title>
<path fill="none" stroke="black" d="M364.229,-101.925C341.166,-105.745 310.881,-110.762 285.644,-114.942"/>
<polygon fill="none" stroke="black" points="284.826,-111.53 275.532,-116.617 285.969,-118.436 284.826,-111.53"/>
</g>
<!-- _Aura_Autoload_Loader -->
<g id="node6" class="node"><title>_Aura_Autoload_Loader</title>
<a xlink:href="db_src_Loader.html" xlink:title="Loader" target="_parent">
<polygon fill="none" stroke="black" points="428,-60 372,-60 372,-24 428,-24 428,-60"/>
<text text-anchor="middle" x="400" y="-39.1" font-family="Courier New" font-size="11.00">Loader</text>
</a>
</g>
<!-- _Exception -->
<g id="node12" class="node"><title>_Exception</title>
<ellipse fill="none" stroke="black" cx="63" cy="-123" rx="62.9325" ry="18.3848"/>
<text text-anchor="middle" x="63" y="-119.4" font-family="Times Roman,serif" font-size="14.00" fill="gray">\Exception</text>
</g>
<!-- _Aura_Autoload_Exception&#45;&gt;_Exception -->
<g id="edge10" class="edge"><title>_Aura_Autoload_Exception-&gt;_Exception</title>
<path fill="none" stroke="black" d="M198.384,-123C180.06,-123 157.538,-123 136.16,-123"/>
<polygon fill="none" stroke="black" points="136.11,-119.5 126.11,-123 136.11,-126.5 136.11,-119.5"/>
</g>
</g>
<script xlink:href="js/SVGPan.js"/></svg>
