<?xml version="1.0" encoding="UTF-8" standalone="no"?>
<!DOCTYPE svg PUBLIC "-//W3C//DTD SVG 1.0//EN"
 "http://www.w3.org/TR/2001/REC-SVG-20010904/DTD/svg10.dtd" [
 <!ATTLIST svg xmlns:xlink CDATA #FIXED "http://www.w3.org/1999/xlink">
]>
<!-- Generated by Graphviz version 2.20.2 (Tue Mar &#160;2 21:46:26 UTC 2010)
     For user: (mvriel) Mike van Riel,,, -->
<!-- Title: Classes Pages: 1 -->
<svg width="534pt" height="480pt"
 viewBox="0.00 0.00 534.00 480.00" xmlns="http://www.w3.org/2000/svg" xmlns:xlink="http://www.w3.org/1999/xlink">
<g id="graph0" class="graph" transform="scale(1 1) rotate(0) translate(4 476)">
<title>Classes</title>
<polygon style="fill:white;stroke:white;" points="-4,4 -4,-476 530,-476 530,4 -4,4"/>
<!-- 09a15e9660c1ebc6f429d818825ce0c6 -->
<g id="node1" class="node"><title>09a15e9660c1ebc6f429d818825ce0c6</title>
<polygon style="fill:none;stroke:black;" points="72,-396 2.13163e-14,-396 7.10543e-15,-360 72,-360 72,-396"/>
<text text-anchor="middle" x="36" y="-373.9" style="font-family:Times New Roman;font-size:14.00;">stdClass</text>
</g>
<!-- e5e01e126323a03b5989b334e72f6d7b -->
<g id="node2" class="node"><title>e5e01e126323a03b5989b334e72f6d7b</title>
<polygon style="fill:none;stroke:black;" points="209,-396 147,-396 147,-360 209,-360 209,-396"/>
<text text-anchor="middle" x="178" y="-373.9" style="font-family:Times New Roman;font-size:14.00;">Loader</text>
</g>
<!-- e5e01e126323a03b5989b334e72f6d7b&#45;&gt;09a15e9660c1ebc6f429d818825ce0c6 -->
<g id="edge2" class="edge"><title>e5e01e126323a03b5989b334e72f6d7b&#45;&gt;09a15e9660c1ebc6f429d818825ce0c6</title>
<path style="fill:none;stroke:black;" d="M146,-371C134,-370 120,-371 109,-378"/>
</g>
<!-- d1457b72c3fb323a2671125aef3eab5d -->
<g id="node3" class="node"><title>d1457b72c3fb323a2671125aef3eab5d</title>
<polygon style="fill:none;stroke:black;" points="205,-112 151,-112 151,-76 205,-76 205,-112"/>
<text text-anchor="middle" x="178" y="-89.9" style="font-family:Times New Roman;font-size:14.00;">?</text>
</g>
<!-- d1457b72c3fb323a2671125aef3eab5d&#45;&gt;09a15e9660c1ebc6f429d818825ce0c6 -->
<g id="edge4" class="edge"><title>d1457b72c3fb323a2671125aef3eab5d&#45;&gt;09a15e9660c1ebc6f429d818825ce0c6</title>
<path style="fill:none;stroke:black;" d="M177,-112C172,-170 155,-349 109,-378"/>
<path style="fill:none;stroke:black;" d="M109,-378C101,-383 92,-385 82,-385"/>
<polygon style="fill:none;stroke:black;" points="82,-381.5 72,-385 82,-388.5 82,-381.5"/>
</g>
<!-- fe9d87595bbecb27348b863f712f1c2b -->
<g id="node4" class="node"><title>fe9d87595bbecb27348b863f712f1c2b</title>
<polygon style="fill:none;stroke:black;" points="368,-112 284,-112 284,-76 368,-76 368,-112"/>
<text text-anchor="middle" x="326" y="-89.9" style="font-family:Times New Roman;font-size:14.00;">Exception</text>
</g>
<!-- fe9d87595bbecb27348b863f712f1c2b&#45;&gt;d1457b72c3fb323a2671125aef3eab5d -->
<g id="edge6" class="edge"><title>fe9d87595bbecb27348b863f712f1c2b&#45;&gt;d1457b72c3fb323a2671125aef3eab5d</title>
<path style="fill:none;stroke:black;" d="M284,-94C263,-94 236,-94 215,-94"/>
<polygon style="fill:none;stroke:black;" points="215,-90.5001 205,-94 215,-97.5001 215,-90.5001"/>
</g>
<!-- e185226a015918a8984bf444000b55ae -->
<g id="node5" class="node"><title>e185226a015918a8984bf444000b55ae</title>
<polygon style="fill:none;stroke:black;" points="526,-112 442,-112 442,-76 526,-76 526,-112"/>
<text text-anchor="middle" x="484" y="-89.9" style="font-family:Times New Roman;font-size:14.00;">Exception</text>
</g>
<!-- e185226a015918a8984bf444000b55ae&#45;&gt;fe9d87595bbecb27348b863f712f1c2b -->
<g id="edge8" class="edge"><title>e185226a015918a8984bf444000b55ae&#45;&gt;fe9d87595bbecb27348b863f712f1c2b</title>
<path style="fill:none;stroke:black;" d="M442,-94C422,-94 399,-94 378,-94"/>
<polygon style="fill:none;stroke:black;" points="378,-90.5001 368,-94 378,-97.5001 378,-90.5001"/>
</g>
</g>
</svg>
