<?xml version="1.0" encoding="UTF-8" standalone="no"?>
<!DOCTYPE svg PUBLIC "-//W3C//DTD SVG 1.1//EN"
 "http://www.w3.org/Graphics/SVG/1.1/DTD/svg11.dtd">
<!-- Generated by graphviz version 2.28.0 (20110509.1545)
 -->
<!-- Title: G Pages: 1 -->
<svg width="468pt" height="271pt"
 viewBox="0.00 0.00 468.00 271.00" xmlns="http://www.w3.org/2000/svg" xmlns:xlink="http://www.w3.org/1999/xlink">
<g id="graph1" class="graph" transform="scale(1 1) rotate(0) translate(4 267)">
<title>G</title>
<polygon fill="white" stroke="white" points="-4,5 -4,-267 465,-267 465,5 -4,5"/>
<g id="graph2" class="cluster"><title>cluster_Aura</title>
<polyline fill="none" stroke="gray" points="174,-8 440,-8 "/>
<path fill="none" stroke="gray" d="M440,-8C446,-8 452,-14 452,-20"/>
<polyline fill="none" stroke="gray" points="452,-20 452,-243 "/>
<path fill="none" stroke="gray" d="M452,-243C452,-249 446,-255 440,-255"/>
<polyline fill="none" stroke="gray" points="440,-255 174,-255 "/>
<path fill="none" stroke="gray" d="M174,-255C168,-255 162,-249 162,-243"/>
<polyline fill="none" stroke="gray" points="162,-243 162,-20 "/>
<path fill="none" stroke="gray" d="M162,-20C162,-14 168,-8 174,-8"/>
<text text-anchor="middle" x="307" y="-240" font-family="Times,serif" font-size="11.00" fill="gray">Aura</text>
</g>
<g id="graph3" class="cluster"><title>cluster_Aura\Autoload</title>
<polyline fill="none" stroke="gray" points="182,-16 432,-16 "/>
<path fill="none" stroke="gray" d="M432,-16C438,-16 444,-22 444,-28"/>
<polyline fill="none" stroke="gray" points="444,-28 444,-214 "/>
<path fill="none" stroke="gray" d="M444,-214C444,-220 438,-226 432,-226"/>
<polyline fill="none" stroke="gray" points="432,-226 182,-226 "/>
<path fill="none" stroke="gray" d="M182,-226C176,-226 170,-220 170,-214"/>
<polyline fill="none" stroke="gray" points="170,-214 170,-28 "/>
<path fill="none" stroke="gray" d="M170,-28C170,-22 176,-16 182,-16"/>
<text text-anchor="middle" x="307" y="-211" font-family="Times,serif" font-size="11.00" fill="gray">Autoload</text>
</g>
<g id="graph4" class="cluster"><title>cluster_Aura\Autoload\Exception</title>
<polyline fill="none" stroke="gray" points="330,-70 424,-70 "/>
<path fill="none" stroke="gray" d="M424,-70C430,-70 436,-76 436,-82"/>
<polyline fill="none" stroke="gray" points="436,-82 436,-185 "/>
<path fill="none" stroke="gray" d="M436,-185C436,-191 430,-197 424,-197"/>
<polyline fill="none" stroke="gray" points="424,-197 330,-197 "/>
<path fill="none" stroke="gray" d="M330,-197C324,-197 318,-191 318,-185"/>
<polyline fill="none" stroke="gray" points="318,-185 318,-82 "/>
<path fill="none" stroke="gray" d="M318,-82C318,-76 324,-70 330,-70"/>
<text text-anchor="middle" x="377" y="-182" font-family="Times,serif" font-size="11.00" fill="gray">Exception</text>
</g>
<!-- \\Aura\\Autoload\\Exception\\AlreadyLoaded -->
<g id="node4" class="node"><title>\\Aura\\Autoload\\Exception\\AlreadyLoaded</title>
<a xlink:href="db_src_Aura_Autoload_Exception_AlreadyLoaded.html" xlink:title="AlreadyLoaded" target="_parent">
<polygon fill="none" stroke="black" points="427.814,-168 326.186,-168 326.186,-132 427.814,-132 427.814,-168"/>
<text text-anchor="middle" x="377" y="-145.6" font-family="Courier,monospace" font-size="11.00">AlreadyLoaded</text>
</a>
</g>
<!-- \\Aura\\Autoload\\Exception -->
<g id="node6" class="node"><title>\\Aura\\Autoload\\Exception</title>
<a xlink:href="db_src_Aura_Autoload_Exception.html" xlink:title="Exception" target="_parent">
<polygon fill="none" stroke="black" points="253.911,-141 178.089,-141 178.089,-105 253.911,-105 253.911,-141"/>
<text text-anchor="middle" x="216" y="-118.6" font-family="Courier,monospace" font-size="11.00">Exception</text>
</a>
</g>
<!-- \\Aura\\Autoload\\Exception\\AlreadyLoaded&#45;&gt;\\Aura\\Autoload\\Exception -->
<g id="edge6" class="edge"><title>\\Aura\\Autoload\\Exception\\AlreadyLoaded&#45;&gt;\\Aura\\Autoload\\Exception</title>
<path fill="none" stroke="black" d="M326.128,-141.531C306.274,-138.16 283.543,-134.3 263.984,-130.978"/>
<polygon fill="none" stroke="black" points="264.523,-127.52 254.078,-129.296 263.351,-134.421 264.523,-127.52"/>
</g>
<!-- \\Aura\\Autoload\\Exception\\NotFound -->
<g id="node5" class="node"><title>\\Aura\\Autoload\\Exception\\NotFound</title>
<a xlink:href="db_src_Aura_Autoload_Exception_NotFound.html" xlink:title="NotFound" target="_parent">
<polygon fill="none" stroke="black" points="411.309,-114 342.691,-114 342.691,-78 411.309,-78 411.309,-114"/>
<text text-anchor="middle" x="377" y="-91.6" font-family="Courier,monospace" font-size="11.00">NotFound</text>
</a>
</g>
<!-- \\Aura\\Autoload\\Exception\\NotFound&#45;&gt;\\Aura\\Autoload\\Exception -->
<g id="edge8" class="edge"><title>\\Aura\\Autoload\\Exception\\NotFound&#45;&gt;\\Aura\\Autoload\\Exception</title>
<path fill="none" stroke="black" d="M342.668,-101.66C319.858,-105.533 289.288,-110.725 264.011,-115.017"/>
<polygon fill="none" stroke="black" points="263.171,-111.609 253.899,-116.734 264.343,-118.511 263.171,-111.609"/>
</g>
<!-- \\Exception -->
<g id="node12" class="node"><title>\\Exception</title>
<ellipse fill="none" stroke="black" cx="53" cy="-123" rx="52.7417" ry="18"/>
<text text-anchor="middle" x="53" y="-117.4" font-family="Times,serif" font-size="14.00" fill="gray">\Exception</text>
</g>
<!-- \\Aura\\Autoload\\Exception&#45;&gt;\\Exception -->
<g id="edge10" class="edge"><title>\\Aura\\Autoload\\Exception&#45;&gt;\\Exception</title>
<path fill="none" stroke="black" d="M178.063,-123C159.713,-123 137.042,-123 116.12,-123"/>
<polygon fill="none" stroke="black" points="116.017,-119.5 106.017,-123 116.017,-126.5 116.017,-119.5"/>
</g>
<!-- \\Aura\\Autoload\\Loader -->
<g id="node7" class="node"><title>\\Aura\\Autoload\\Loader</title>
<a xlink:href="db_src_Aura_Autoload_Loader.html" xlink:title="Loader" target="_parent">
<polygon fill="none" stroke="black" points="404.608,-60 349.392,-60 349.392,-24 404.608,-24 404.608,-60"/>
<text text-anchor="middle" x="377" y="-37.6" font-family="Courier,monospace" font-size="11.00">Loader</text>
</a>
</g>
</g>
</svg>
