<?xml version="1.0" encoding="UTF-8" standalone="no"?>
<!DOCTYPE svg PUBLIC "-//W3C//DTD SVG 1.1//EN" "http://www.w3.org/Graphics/SVG/1.1/DTD/svg11.dtd">
<!-- Generated by graphviz version 2.28.0 (20110509.1545)
 -->
<!-- Title: Classes Pages: 1 -->
<svg xmlns="http://www.w3.org/2000/svg" xmlns:xlink="http://www.w3.org/1999/xlink" width="676pt" height="609pt">
<g id="viewport" class="graph" transform="scale(1 1) rotate(0) translate(4 605.2)">
<title>Classes</title>
<polygon fill="white" stroke="white" points="-4,5 -4,-605.2 673,-605.2 673,5 -4,5"/>
<!-- 09a15e9660c1ebc6f429d818825ce0c6 -->
<g id="node1" class="node"><title>09a15e9660c1ebc6f429d818825ce0c6</title>
<polygon fill="white" stroke="black" points="63.1766,-544.15 0.823384,-544.15 0.823384,-508.15 63.1766,-508.15 63.1766,-544.15"/>
<text text-anchor="middle" x="32" y="-520.55" font-family="Times,serif" font-size="14.00" fill="gray">stdClass</text>
</g>
<!-- 6acb4a4e92c91e03e0c06c4433cb6553 -->
<g id="node2" class="node"><title>6acb4a4e92c91e03e0c06c4433cb6553</title>
<a xlink:href="_src_Loader.html" xlink:title="Loader" target="_top">
<polygon fill="white" stroke="black" points="193.643,-544.15 138.357,-544.15 138.357,-508.15 193.643,-508.15 193.643,-544.15"/>
<text text-anchor="middle" x="166" y="-520.55" font-family="Times,serif" font-size="14.00">Loader</text>
</a>
</g>
<!-- 6acb4a4e92c91e03e0c06c4433cb6553&#45;&gt;09a15e9660c1ebc6f429d818825ce0c6 -->
<g id="edge2" class="edge"><title>6acb4a4e92c91e03e0c06c4433cb6553-&gt;09a15e9660c1ebc6f429d818825ce0c6</title>
<path fill="none" stroke="black" d="M138.315,-520.387C126.467,-519.224 112.793,-519.907 102,-526.15"/>
</g>
<!-- d1457b72c3fb323a2671125aef3eab5d -->
<g id="node3" class="node"><title>d1457b72c3fb323a2671125aef3eab5d</title>
<polygon fill="white" stroke="black" points="193,-318.15 139,-318.15 139,-282.15 193,-282.15 193,-318.15"/>
<text text-anchor="middle" x="166" y="-294.55" font-family="Times,serif" font-size="14.00" fill="gray">?</text>
</g>
<!-- d1457b72c3fb323a2671125aef3eab5d&#45;&gt;09a15e9660c1ebc6f429d818825ce0c6 -->
<g id="edge4" class="edge"><title>d1457b72c3fb323a2671125aef3eab5d-&gt;09a15e9660c1ebc6f429d818825ce0c6</title>
<path fill="none" stroke="black" d="M163.094,-318.409C157.43,-368.347 138.757,-504.889 102,-526.15"/>
<path fill="none" stroke="black" d="M100,-526.15C92.0991,-530.72 82.7468,-532.488 73.5752,-532.743"/>
<polygon fill="none" stroke="black" points="73.4785,-529.239 63.384,-532.457 73.2817,-536.237 73.4785,-529.239"/>
</g>
<!-- fe9d87595bbecb27348b863f712f1c2b -->
<g id="node4" class="node"><title>fe9d87595bbecb27348b863f712f1c2b</title>
<polygon fill="white" stroke="black" points="341.259,-318.15 268.741,-318.15 268.741,-282.15 341.259,-282.15 341.259,-318.15"/>
<text text-anchor="middle" x="305" y="-294.55" font-family="Times,serif" font-size="14.00" fill="gray">Exception</text>
</g>
<!-- fe9d87595bbecb27348b863f712f1c2b&#45;&gt;d1457b72c3fb323a2671125aef3eab5d -->
<g id="edge6" class="edge"><title>fe9d87595bbecb27348b863f712f1c2b-&gt;d1457b72c3fb323a2671125aef3eab5d</title>
<path fill="none" stroke="black" d="M268.719,-300.15C248.6,-300.15 223.437,-300.15 203.172,-300.15"/>
<polygon fill="none" stroke="black" points="203.073,-296.65 193.073,-300.15 203.073,-303.65 203.073,-296.65"/>
</g>
<!-- 28f84c8a8a8c2f26628fe0986e59a907 -->
<g id="node5" class="node"><title>28f84c8a8a8c2f26628fe0986e59a907</title>
<a xlink:href="_src_Exception.html" xlink:title="Exception" target="_top">
<polygon fill="white" stroke="black" points="489.259,-318.15 416.741,-318.15 416.741,-282.15 489.259,-282.15 489.259,-318.15"/>
<text text-anchor="middle" x="453" y="-294.55" font-family="Times,serif" font-size="14.00">Exception</text>
</a>
</g>
<!-- 28f84c8a8a8c2f26628fe0986e59a907&#45;&gt;fe9d87595bbecb27348b863f712f1c2b -->
<g id="edge8" class="edge"><title>28f84c8a8a8c2f26628fe0986e59a907-&gt;fe9d87595bbecb27348b863f712f1c2b</title>
<path fill="none" stroke="black" d="M416.657,-300.15C397.003,-300.15 372.334,-300.15 351.278,-300.15"/>
<polygon fill="none" stroke="black" points="351.27,-296.65 341.27,-300.15 351.27,-303.65 351.27,-296.65"/>
</g>
<!-- 18e9e160ea74eb46bdaf66f647538c2c -->
<g id="node6" class="node"><title>18e9e160ea74eb46bdaf66f647538c2c</title>
<a xlink:href="_src_Exception_AlreadyLoaded.html" xlink:title="AlreadyLoaded" target="_top">
<polygon fill="white" stroke="black" points="667.569,-318.15 564.431,-318.15 564.431,-282.15 667.569,-282.15 667.569,-318.15"/>
<text text-anchor="middle" x="616" y="-294.55" font-family="Times,serif" font-size="14.00">AlreadyLoaded</text>
</a>
</g>
<!-- 18e9e160ea74eb46bdaf66f647538c2c&#45;&gt;28f84c8a8a8c2f26628fe0986e59a907 -->
<g id="edge10" class="edge"><title>18e9e160ea74eb46bdaf66f647538c2c-&gt;28f84c8a8a8c2f26628fe0986e59a907</title>
<path fill="none" stroke="black" d="M564.056,-292.678C551.766,-292.863 539.012,-294.82 528,-300.15"/>
</g>
<!-- cbf992d527491bb0c1b6d59cc4624910 -->
<g id="node7" class="node"><title>cbf992d527491bb0c1b6d59cc4624910</title>
<a xlink:href="_src_Exception_NotFound.html" xlink:title="NotFound" target="_top">
<polygon fill="white" stroke="black" points="652.286,-93.15 579.714,-93.15 579.714,-57.15 652.286,-57.15 652.286,-93.15"/>
<text text-anchor="middle" x="616" y="-69.55" font-family="Times,serif" font-size="14.00">NotFound</text>
</a>
</g>
<!-- cbf992d527491bb0c1b6d59cc4624910&#45;&gt;28f84c8a8a8c2f26628fe0986e59a907 -->
<g id="edge12" class="edge"><title>cbf992d527491bb0c1b6d59cc4624910-&gt;28f84c8a8a8c2f26628fe0986e59a907</title>
<path fill="none" stroke="black" d="M615.227,-93.2452C614.669,-139.776 605.658,-262.565 528,-300.15"/>
<path fill="none" stroke="black" d="M526,-300.15C517.907,-304.067 508.677,-305.783 499.589,-306.225"/>
<polygon fill="none" stroke="black" points="499.454,-302.725 489.456,-306.233 499.459,-309.725 499.454,-302.725"/>
</g>
</g>
<script xlink:href="js/SVGPan.js"/></svg>
