<?xml version="1.0" encoding="UTF-8" standalone="no"?>
<!DOCTYPE svg PUBLIC "-//W3C//DTD SVG 1.1//EN"
 "http://www.w3.org/Graphics/SVG/1.1/DTD/svg11.dtd">
<!-- Generated by graphviz version 2.26.3 (20100126.1600)
 -->
<!-- Title: G Pages: 1 -->
<svg width="778pt" height="472pt"
 viewBox="0.00 0.00 778.00 472.00" xmlns="http://www.w3.org/2000/svg" xmlns:xlink="http://www.w3.org/1999/xlink">
<g id="graph1" class="graph" transform="scale(1 1) rotate(0) translate(4 468)">
<title>G</title>
<polygon fill="white" stroke="white" points="-4,5 -4,-468 775,-468 775,5 -4,5"/>
<g id="graph2" class="cluster"><title>cluster_Aura</title>
<polyline fill="none" stroke="gray" points="293,-44 750,-44 "/>
<path fill="none" stroke="gray" d="M750,-44C756,-44 762,-50 762,-56"/>
<polyline fill="none" stroke="gray" points="762,-56 762,-444 "/>
<path fill="none" stroke="gray" d="M762,-444C762,-450 756,-456 750,-456"/>
<polyline fill="none" stroke="gray" points="750,-456 293,-456 "/>
<path fill="none" stroke="gray" d="M293,-456C287,-456 281,-450 281,-444"/>
<polyline fill="none" stroke="gray" points="281,-444 281,-56 "/>
<path fill="none" stroke="gray" d="M281,-56C281,-50 287,-44 293,-44"/>
<text text-anchor="middle" x="521.5" y="-442.1" font-family="Times Roman,serif" font-size="11.00" fill="gray">Aura</text>
</g>
<g id="graph3" class="cluster"><title>cluster_Aura\Autoload</title>
<polyline fill="none" stroke="gray" points="301,-52 742,-52 "/>
<path fill="none" stroke="gray" d="M742,-52C748,-52 754,-58 754,-64"/>
<polyline fill="none" stroke="gray" points="754,-64 754,-414 "/>
<path fill="none" stroke="gray" d="M754,-414C754,-420 748,-426 742,-426"/>
<polyline fill="none" stroke="gray" points="742,-426 301,-426 "/>
<path fill="none" stroke="gray" d="M301,-426C295,-426 289,-420 289,-414"/>
<polyline fill="none" stroke="gray" points="289,-414 289,-64 "/>
<path fill="none" stroke="gray" d="M289,-64C289,-58 295,-52 301,-52"/>
<text text-anchor="middle" x="521.5" y="-412.1" font-family="Times Roman,serif" font-size="11.00" fill="gray">Autoload</text>
</g>
<g id="graph4" class="cluster"><title>cluster_Aura\Autoload\Exception</title>
<polyline fill="none" stroke="gray" points="625,-268 721,-268 "/>
<path fill="none" stroke="gray" d="M721,-268C727,-268 733,-274 733,-280"/>
<polyline fill="none" stroke="gray" points="733,-280 733,-384 "/>
<path fill="none" stroke="gray" d="M733,-384C733,-390 727,-396 721,-396"/>
<polyline fill="none" stroke="gray" points="721,-396 625,-396 "/>
<path fill="none" stroke="gray" d="M625,-396C619,-396 613,-390 613,-384"/>
<polyline fill="none" stroke="gray" points="613,-384 613,-280 "/>
<path fill="none" stroke="gray" d="M613,-280C613,-274 619,-268 625,-268"/>
<text text-anchor="middle" x="673" y="-382.1" font-family="Times Roman,serif" font-size="11.00" fill="gray">Exception</text>
</g>
<!-- \\Aura\\Autoload\\Exception\\AlreadyLoaded -->
<g id="node4" class="node"><title>\\Aura\\Autoload\\Exception\\AlreadyLoaded</title>
<a xlink:href="db_src_Exception_AlreadyLoaded.html" xlink:title="AlreadyLoaded" target="_parent">
<polygon fill="none" stroke="black" points="725,-366 621,-366 621,-330 725,-330 725,-366"/>
<text text-anchor="middle" x="673" y="-345.1" font-family="Courier New" font-size="11.00">AlreadyLoaded</text>
</a>
</g>
<!-- \\Aura\\Autoload\\Exception -->
<g id="node11" class="node"><title>\\Aura\\Autoload\\Exception</title>
<a xlink:href="db_src_Exception.html" xlink:title="Exception" target="_parent">
<polygon fill="none" stroke="black" points="401,-339 325,-339 325,-303 401,-303 401,-339"/>
<text text-anchor="middle" x="363" y="-318.1" font-family="Courier New" font-size="11.00">Exception</text>
</a>
</g>
<!-- \\Aura\\Autoload\\Exception\\AlreadyLoaded&#45;&gt;\\Aura\\Autoload\\Exception -->
<g id="edge12" class="edge"><title>\\Aura\\Autoload\\Exception\\AlreadyLoaded&#45;&gt;\\Aura\\Autoload\\Exception</title>
<path fill="none" stroke="black" d="M620.763,-343.45C562.446,-338.371 468.806,-330.215 411.886,-325.258"/>
<polygon fill="none" stroke="black" points="411.967,-321.752 401.701,-324.371 411.36,-328.725 411.967,-321.752"/>
</g>
<!-- \\Aura\\Autoload\\Exception\\NotFound -->
<g id="node5" class="node"><title>\\Aura\\Autoload\\Exception\\NotFound</title>
<a xlink:href="db_src_Exception_NotFound.html" xlink:title="NotFound" target="_parent">
<polygon fill="none" stroke="black" points="708,-312 638,-312 638,-276 708,-276 708,-312"/>
<text text-anchor="middle" x="673" y="-291.1" font-family="Courier New" font-size="11.00">NotFound</text>
</a>
</g>
<!-- \\Aura\\Autoload\\Exception\\NotFound&#45;&gt;\\Aura\\Autoload\\Exception -->
<g id="edge14" class="edge"><title>\\Aura\\Autoload\\Exception\\NotFound&#45;&gt;\\Aura\\Autoload\\Exception</title>
<path fill="none" stroke="black" d="M637.439,-297.097C581.849,-301.939 474.252,-311.31 411.567,-316.77"/>
<polygon fill="none" stroke="black" points="411.191,-313.289 401.532,-317.644 411.798,-320.263 411.191,-313.289"/>
</g>
<!-- \\Aura\\Autoload\\MockAutoloadChild -->
<g id="node6" class="node"><title>\\Aura\\Autoload\\MockAutoloadChild</title>
<a xlink:href="db_tests_MockAutoloadChild.html" xlink:title="MockAutoloadChild" target="_parent">
<polygon fill="none" stroke="black" points="738,-258 608,-258 608,-222 738,-222 738,-258"/>
<text text-anchor="middle" x="673" y="-237.1" font-family="Courier New" font-size="11.00">MockAutoloadChild</text>
</a>
</g>
<!-- \\Aura\\Autoload\\MockAutoloadClass -->
<g id="node8" class="node"><title>\\Aura\\Autoload\\MockAutoloadClass</title>
<a xlink:href="db_tests_MockAutoloadClass.html" xlink:title="MockAutoloadClass" target="_parent">
<polygon fill="none" stroke="black" points="428,-231 298,-231 298,-195 428,-195 428,-231"/>
<text text-anchor="middle" x="363" y="-210.1" font-family="Courier New" font-size="11.00">MockAutoloadClass</text>
</a>
</g>
<!-- \\Aura\\Autoload\\MockAutoloadChild&#45;&gt;\\Aura\\Autoload\\MockAutoloadClass -->
<g id="edge6" class="edge"><title>\\Aura\\Autoload\\MockAutoloadChild&#45;&gt;\\Aura\\Autoload\\MockAutoloadClass</title>
<path fill="none" stroke="black" d="M607.257,-234.274C557.937,-229.978 490.327,-224.09 438.742,-219.597"/>
<polygon fill="none" stroke="black" points="438.914,-216.099 428.648,-218.718 438.307,-223.072 438.914,-216.099"/>
</g>
<!-- \\Aura\\Autoload\\LoaderTest -->
<g id="node7" class="node"><title>\\Aura\\Autoload\\LoaderTest</title>
<a xlink:href="db_tests_LoaderTest.html" xlink:title="LoaderTest" target="_parent">
<polygon fill="none" stroke="black" points="715,-150 631,-150 631,-114 715,-114 715,-150"/>
<text text-anchor="middle" x="673" y="-129.1" font-family="Courier New" font-size="11.00">LoaderTest</text>
</a>
</g>
<!-- \\PHPUnit_Framework_TestCase -->
<g id="node15" class="node"><title>\\PHPUnit_Framework_TestCase</title>
<ellipse fill="none" stroke="black" cx="363" cy="-18" rx="164.756" ry="18.3848"/>
<text text-anchor="middle" x="363" y="-14.4" font-family="Times Roman,serif" font-size="14.00" fill="gray">\PHPUnit_Framework_TestCase</text>
</g>
<!-- \\Aura\\Autoload\\LoaderTest&#45;&gt;\\PHPUnit_Framework_TestCase -->
<g id="edge8" class="edge"><title>\\Aura\\Autoload\\LoaderTest&#45;&gt;\\PHPUnit_Framework_TestCase</title>
<path fill="none" stroke="black" d="M630.677,-118.915C620.354,-115.034 609.542,-110.362 600,-105 564.419,-85.0062 565.187,-64.819 528,-48 514.96,-42.1021 500.844,-37.3631 486.546,-33.5554"/>
<polygon fill="none" stroke="black" points="487.181,-30.1062 476.629,-31.0653 485.476,-36.8955 487.181,-30.1062"/>
</g>
<!-- \\Aura\\Autoload\\MockAutoloadAlready -->
<g id="node9" class="node"><title>\\Aura\\Autoload\\MockAutoloadAlready</title>
<a xlink:href="db_tests_MockAutoloadAlready.html" xlink:title="MockAutoloadAlready" target="_parent">
<polygon fill="none" stroke="black" points="745,-204 601,-204 601,-168 745,-168 745,-204"/>
<text text-anchor="middle" x="673" y="-183.1" font-family="Courier New" font-size="11.00">MockAutoloadAlready</text>
</a>
</g>
<!-- \\Aura\\Autoload\\MockAutoloadAlready&#45;&gt;\\Aura\\Autoload\\MockAutoloadClass -->
<g id="edge10" class="edge"><title>\\Aura\\Autoload\\MockAutoloadAlready&#45;&gt;\\Aura\\Autoload\\MockAutoloadClass</title>
<path fill="none" stroke="black" d="M600.319,-192.33C551.784,-196.558 488.078,-202.106 438.893,-206.39"/>
<polygon fill="none" stroke="black" points="438.287,-202.929 428.628,-207.284 438.894,-209.903 438.287,-202.929"/>
</g>
<!-- \\Aura\\Autoload\\Loader -->
<g id="node10" class="node"><title>\\Aura\\Autoload\\Loader</title>
<a xlink:href="db_src_Loader.html" xlink:title="Loader" target="_parent">
<polygon fill="none" stroke="black" points="701,-96 645,-96 645,-60 701,-60 701,-96"/>
<text text-anchor="middle" x="673" y="-75.1" font-family="Courier New" font-size="11.00">Loader</text>
</a>
</g>
<!-- \\Exception -->
<g id="node20" class="node"><title>\\Exception</title>
<ellipse fill="none" stroke="black" cx="63" cy="-321" rx="62.9325" ry="18.3848"/>
<text text-anchor="middle" x="63" y="-317.4" font-family="Times Roman,serif" font-size="14.00" fill="gray">\Exception</text>
</g>
<!-- \\Aura\\Autoload\\Exception&#45;&gt;\\Exception -->
<g id="edge16" class="edge"><title>\\Aura\\Autoload\\Exception&#45;&gt;\\Exception</title>
<path fill="none" stroke="black" d="M324.394,-321C276.972,-321 195.519,-321 136.115,-321"/>
<polygon fill="none" stroke="black" points="136.037,-317.5 126.037,-321 136.037,-324.5 136.037,-317.5"/>
</g>
</g>
</svg>
